<svg version="1.1" xmlns="http://www.w3.org/2000/svg" viewBox="0 0 863.4068475111526 649.1929197196408" width="1726.8136950223052" height="1298.3858394392817">
  <!-- svg-source:excalidraw -->
  
  <defs>
    <style>
      @font-face {
        font-family: "Virgil";
        src: url("https://unpkg.com/@zsviczian/excalidraw@0.12.0-obsidian-4/dist/excalidraw-assets/Virgil.woff2");
      }
      @font-face {
        font-family: "Cascadia";
        src: url("https://unpkg.com/@zsviczian/excalidraw@0.12.0-obsidian-4/dist/excalidraw-assets/Cascadia.woff2");
      }
    </style>
  </defs>
  <g stroke-linecap="round"><g transform="translate(443.5938912241461 251.6727118165095) rotate(0 -216.13263687027734 193.12497663246313)" fill-rule="evenodd"><path d="M-432.77 1.43 C-432.77 1.43, -432.77 1.43, -432.77 1.43 M-432.77 1.43 C-432.77 1.43, -432.77 1.43, -432.77 1.43 M-432.5 6.9 C-430.07 4.77, -428.69 3.37, -427.72 0.29 M-432.06 7.45 C-430.32 4.96, -428.69 3.15, -426.89 1.03 M-431.45 13.8 C-429.81 11.05, -427.6 7.04, -423.04 1.36 M-432.48 14.16 C-429.36 10.61, -427.22 5.94, -421.64 1.91 M-432.49 20.12 C-425.52 14.48, -419.77 8.44, -416.26 -0.45 M-433.1 18.55 C-426.29 12.87, -422.08 6.68, -417.2 0.97 M-431.16 25.29 C-424.58 17.23, -416.53 10.05, -412.95 3.26 M-432.83 25.46 C-425.42 17.51, -419.25 8.87, -411.57 1.73 M-431.57 31.38 C-422.47 20.07, -414 9.73, -404.94 1.24 M-433.52 31.7 C-425.15 23.69, -417.92 14.64, -406.56 0.85 M-433.5 37.16 C-424.17 28.24, -417.91 18.76, -400.78 1.96 M-432.37 38.3 C-422.58 26.28, -411.54 13.79, -401.07 0.78 M-431.5 42.88 C-425.4 34.51, -416.53 24.3, -396.11 0.02 M-431.66 44.2 C-418.39 26.49, -402.81 11.56, -394.56 0.15 M-433.75 49.4 C-414.07 30.47, -398.29 12.09, -388.39 0.64 M-432.95 49.28 C-416.24 30.71, -399.1 12.44, -390 1.08 M-432.71 54.7 C-419.05 42.4, -407.15 27.52, -383.07 2.01 M-432.09 55.64 C-422.39 44.53, -413.05 32.12, -385.47 1.42 M-432 61.01 C-416.06 44.02, -400.25 27.33, -380.25 -0.16 M-433.43 62.65 C-414.41 41.09, -393.83 18.86, -379.17 2.09 M-433.78 67.51 C-413.22 46.76, -395.48 28.93, -372.94 1.67 M-431.56 68.43 C-411.11 43.47, -388.96 17.37, -374.92 1.29 M-432.19 73.05 C-406.5 46.38, -385.25 17.98, -369.67 -0.56 M-432.05 74.46 C-418.99 57.35, -404.22 41.34, -369.23 1.86 M-434.16 81.3 C-406.17 51.97, -383.35 21.79, -364.71 -0.2 M-432.66 79.54 C-415.6 60.22, -399.13 41.75, -362.82 1.48 M-432.1 87.22 C-410.65 62.78, -391.84 39.38, -356.79 0.67 M-433.34 86.13 C-405.18 54.9, -377.23 22.23, -357.65 2.02 M-432.77 94.2 C-410.69 66.66, -388.39 43.33, -351.22 1.56 M-433.45 92.3 C-410.13 68, -388.9 42.86, -352.45 1.78 M-430.67 96.78 C-399.3 60.15, -367.58 21.17, -346.63 0.1 M-432.49 98.37 C-402.75 67.1, -375.2 35.61, -347.74 0.78 M-431.43 105.37 C-403.68 68.91, -375.6 38.39, -341.13 2.43 M-431.86 104.34 C-410.76 80.83, -391.07 56.77, -341.39 1.05 M-430.69 109.36 C-409.21 83.17, -382.28 51.94, -339.02 -0.36 M-433.04 110.99 C-397.61 70.77, -362.29 30.26, -337.63 1.91 M-432.77 117.62 C-394.83 74.69, -358.81 34.45, -332.96 2.24 M-432.62 117.13 C-395.94 73.87, -356.44 28.6, -330.56 0.23 M-433.48 121.67 C-392.97 75.98, -347.08 25.31, -326.66 0.56 M-432.5 122.63 C-396.51 81.63, -361.91 42.11, -327.26 1.77 M-431.59 128.33 C-399.82 89.16, -365.91 52.06, -321.07 -0.82 M-431.61 129.96 C-396.7 88.4, -363.22 47.7, -321.21 1.36 M-434.19 134.5 C-394.32 91.23, -359.41 48.68, -317.07 1.44 M-432.73 134.74 C-406.02 106.31, -379.09 75.52, -315.43 0.3 M-433.55 140.23 C-406.95 110.61, -377.44 82.43, -309.66 -0.22 M-431.57 141.72 C-396.43 98.01, -357.77 55.86, -309.91 0.53 M-431.81 147.25 C-403.18 109.83, -368.58 72.69, -306.63 0.24 M-432.9 147.12 C-385.01 93.13, -335.85 36.99, -304.74 2.01 M-433.05 151.54 C-395.79 111.13, -358.06 69.39, -299.51 1.62 M-432.94 153.78 C-383.98 96.99, -334.66 39.62, -300.22 1.65 M-432.5 160.75 C-400.93 122.86, -368.11 85.27, -294.55 0.33 M-431.92 159.83 C-384.8 104.89, -337.6 50.81, -294.64 1 M-432.43 165.93 C-375.12 100, -320.09 36.92, -290.78 0.59 M-432.12 166.12 C-402.44 134.15, -375.02 101.35, -289.13 0.66 M-432.31 172.66 C-397.02 129.5, -358.82 87.03, -284.76 0.21 M-431.84 171.26 C-379.71 111.07, -328.49 49.41, -284.35 0.1 M-432.22 177.29 C-376.84 115.41, -322.44 49.09, -278.69 0.71 M-432.5 178.59 C-398.04 139.44, -364 99.96, -279.54 2.1 M-431.26 182.85 C-388.92 133.81, -348.31 86.83, -272.71 -0.06 M-431.3 184.26 C-389.65 134.64, -346.63 86.63, -274.01 1.07 M-433.81 189.94 C-378.17 127.89, -325.06 67.63, -269.73 1.78 M-432.96 189.57 C-379.48 125.77, -325.09 63.96, -267.95 1.19 M-431.45 195.49 C-364.59 120.73, -298.81 46.08, -261.62 2.2 M-432.47 195.71 C-389.77 146.87, -347.22 99.14, -261.95 1.21 M-432.19 203.32 C-377.57 140.5, -323.37 79.93, -256.83 2.33 M-431.79 202.17 C-364.5 124.75, -295.62 47.26, -257.87 0.91 M-432.72 207.63 C-373.62 137.31, -310.78 68, -253.4 1.05 M-432.5 207.77 C-383.54 154.61, -334.86 98.31, -252.02 0.89 M-431.27 214.9 C-377.21 152.63, -325.36 90.11, -247.45 1.31 M-432.75 214.22 C-376.71 151.34, -321.9 88.1, -247.3 0.87 M-432.1 219.04 C-366.1 145.6, -301.18 70.85, -241.37 -0.17 M-431.7 219.92 C-359.1 133.45, -283.49 45.6, -241.47 0.91 M-432.8 225.71 C-368.37 150.71, -300.79 72.02, -236.16 2.52 M-432.23 226.45 C-368.23 153.29, -304.05 78.99, -236.17 1.53 M-432.11 233.45 C-379.16 171.74, -329.82 115.19, -230.44 -0.48 M-432.9 231.88 C-367 159.51, -301.87 85.05, -231.37 0.2 M-432.73 238.3 C-376.29 173.6, -321.71 108.76, -225.26 0.96 M-432.94 238.5 C-390.23 188.93, -346.73 138.98, -225.41 0.48 M-433.43 243.16 C-381.14 184.47, -330.97 126.06, -219.89 0.52 M-432.52 244.81 C-382.34 187.82, -331.61 129.4, -219.75 1.01 M-432.66 250.97 C-349.94 158.11, -269.29 61.84, -213.88 2.11 M-432.04 251.1 C-384.29 195.01, -335.81 139.82, -214.65 0.52 M-431.19 256.54 C-369.56 181.23, -302.51 108.09, -208.33 1.37 M-431.7 256.43 C-355.66 168.75, -278.07 79.48, -209.5 0.99 M-432.65 262.52 C-362.56 182.16, -290.79 98.01, -205.13 0.41 M-432.34 262.66 C-359.42 179.82, -288.91 97.84, -204.45 1.44 M-433.36 268.84 C-360.23 187.02, -288.81 105.58, -197.68 0.4 M-432.94 269.44 C-350.32 174.22, -267.76 79, -199.11 1.05 M-433.29 274.01 C-386.12 219.86, -338.36 166.15, -193.96 0.16 M-432.34 274.7 C-341.53 170.35, -251.46 66.22, -194.24 1.23 M-432.4 280.27 C-382.95 223.53, -333.33 163.94, -188.84 -0.49 M-431.77 280.98 C-338.98 172.53, -245.95 65.83, -187.81 0.5 M-431.95 287.19 C-350.41 191.71, -267.87 95.83, -184.48 0.37 M-432.46 287.06 C-338.93 178.23, -243.53 69.33, -183.11 0.65 M-431.9 293.24 C-375.21 227.45, -318.09 159.21, -178.36 -0.1 M-431.67 293.06 C-368.9 221.14, -306.03 148.44, -177.22 0.28 M-432.2 299.24 C-363.45 220.45, -292.01 139.02, -173.1 1.56 M-432.47 299.52 C-373.63 231.77, -313.39 163.53, -172.82 0.97 M-431.96 305.91 C-374.79 235.59, -315.17 168.36, -167.19 1.09 M-431.83 305.06 C-329.57 188, -227.27 70, -166.9 0.91 M-432.32 310.86 C-341.52 207.71, -251.35 103.38, -162.3 -0.07 M-431.9 311.73 C-351.01 218.18, -268.1 122.96, -162.25 1.07 M-431.52 316.98 C-333.42 199.88, -232.11 86.13, -156.59 0.16 M-432.27 317.62 C-337.74 211.02, -243.76 104.02, -156.39 1 M-433.06 324.24 C-343.95 221.69, -255.93 119.28, -151.9 -0.11 M-431.98 323.64 C-340.14 216.53, -246.65 109.7, -151.69 0.61 M-432.32 329.35 C-364.41 250.11, -293.4 169.61, -144.99 -0.51 M-432.8 330.48 C-359.28 248.04, -287.98 165.79, -145.73 0.22 M-431.92 335.3 C-322.61 207.61, -211.39 79.82, -140.73 1.21 M-431.62 336.32 C-342.79 232.8, -254.63 130.64, -141.07 1.33 M-432.86 341.51 C-323.63 215.77, -216.4 91.74, -135.35 0.69 M-432.08 342.36 C-319.64 211.94, -206.63 82.07, -134.87 0.51 M-431.07 347.91 C-325.04 225.33, -219.25 103.2, -129.62 1.06 M-431.73 348.12 C-320.31 222.59, -209.96 96.1, -130.45 0.44 M-431.78 355.26 C-354.41 266.48, -277.08 178.27, -124.07 0.22 M-431.8 354.65 C-314.82 218.99, -196.66 82.17, -124.17 0.49 M-432.37 361.24 C-361.89 277.09, -291.63 196.56, -120.07 0.85 M-432.29 360.94 C-331.95 245.08, -231.54 129.34, -119.6 1.07 M-431.7 366.42 C-322.24 242.45, -214 117.72, -113.79 0.09 M-431.66 366.21 C-353.81 278.21, -276.46 189.7, -113.82 0.19 M-432.49 372.22 C-346.92 274.79, -262.51 175.47, -108.18 1.03 M-432.21 372.75 C-324.33 249.03, -215.1 124.11, -108.5 1.14 M-431.4 379.11 C-333.73 266.29, -236.78 155.93, -102.9 0.85 M-431.53 378.16 C-323.62 252.42, -215 128.3, -103.5 0.25 M-431.56 385.63 C-335.28 272.96, -237.22 161.43, -97.87 0.52 M-431.85 384.51 C-357.3 298.35, -281.21 210.85, -98.4 0.6 M-430.16 388.35 C-334.45 279.36, -239.19 168.48, -91.93 -0.41 M-429.85 388.42 C-317.18 258.8, -204.61 129.34, -92.9 0.66 M-424.69 387.9 C-357.09 308.16, -287.08 228.79, -87.79 0.84 M-423.79 387.55 C-296.83 243.46, -170.78 97.67, -87.46 0.56 M-419.48 388.16 C-317.52 270.26, -216.33 152.05, -83.19 1.15 M-419.03 388.53 C-303.86 253.88, -187.15 119.69, -82.7 1.26 M-413.87 388.35 C-325.7 284.39, -234.6 181.19, -77.48 0.4 M-413.91 388.91 C-342.13 303.61, -269.16 220.14, -76.81 0.55 M-408.23 388.43 C-321.37 287.74, -234.38 186.44, -72.53 1.43 M-408.7 388.19 C-283.24 244.83, -158.29 100.87, -72.3 0.62 M-403.24 389.16 C-332.47 305.27, -261.05 223.22, -66.37 0.18 M-403.44 388.16 C-288.04 256.61, -173 124.21, -66.08 0.51 M-398.31 388.59 C-304.03 278.83, -211.12 171.15, -62.13 0.71 M-397.69 387.74 C-324.07 302.1, -250.05 216.64, -61.03 1.02 M-392.6 389.06 C-278.98 259.69, -167.43 130.43, -56.25 1.3 M-393.26 388.75 C-323.45 310.24, -253.73 230.8, -55.46 0.44 M-387.55 388.18 C-317.48 308.3, -247.27 229.93, -50.64 1.48 M-386.94 388.36 C-316.78 307.15, -245.57 225.57, -50.69 1.03 M-383.07 388.98 C-248.23 235.81, -116.39 83.27, -45.63 0.99 M-381.96 388.83 C-310.67 305.01, -238.03 221.33, -45.27 0.76 M-376.91 387.71 C-275.97 272.35, -175.39 156.82, -39.43 0.35 M-376.74 388.42 C-285.53 282.56, -194.33 178.16, -40.19 0.63 M-372.08 388.79 C-259.22 260.85, -147.39 131.98, -33.78 -0.16 M-371.63 388.74 C-289.91 296.71, -209.16 204.18, -34.74 0.33 M-366.52 387.81 C-250.6 257.79, -136.61 125.37, -30.24 0.08 M-366.32 387.98 C-288.41 299.08, -212.16 210.97, -29.21 0.83 M-360.6 388.09 C-247.85 257.52, -133.5 125.46, -23.08 0.98 M-361.1 388.29 C-259.7 271.15, -157.64 153.95, -24.04 0.83 M-354.8 388.45 C-246.72 264.55, -140 140.22, -19.53 0.75 M-355.02 388.27 C-243.41 262.33, -133.34 135.74, -18.53 0.9 M-350.75 388.62 C-220.79 239.53, -91.08 91.13, -13.47 -0.34 M-350.34 388.7 C-254.56 276.96, -157.76 165.43, -13.09 0.77 M-344.14 388.15 C-226.11 251.38, -107.22 115.03, -8.9 0.6 M-345.12 388.2 C-237.05 265.62, -130.14 143.05, -8.06 1.1 M-340.17 388.66 C-238.19 272.32, -138.32 156.83, -3.22 0.07 M-340.04 388.22 C-259.66 298.51, -181.02 207.69, -2.72 0.71 M-333.66 387.95 C-211.86 245.33, -88.22 104.81, 1.46 0.74 M-334.23 387.88 C-213.59 250.03, -93.74 111.86, 2.08 1.51 M-329.26 388.62 C-233.69 280.07, -138.98 170.92, 2.12 7.71 M-328.83 388.15 C-248.9 296.88, -168.76 204.18, 1.55 7.96 M-323.2 387.42 C-255.26 309.11, -187.57 232.69, 2.5 13.44 M-323.69 388.28 C-222.65 272.77, -121.34 157.06, 1.72 13.84 M-318.74 388.68 C-251.4 310.32, -182.42 231.66, 1.4 20.02 M-318.47 388.4 C-200.98 253.77, -82.64 117.34, 1.64 19.71 M-312.56 387.05 C-207.1 262.66, -98.27 139.93, 1.36 24.76 M-312.55 387.54 C-233.88 299.36, -156.22 209.89, 1.79 25.32 M-307.18 387.83 C-211.18 277.03, -114.2 164.72, 2.16 31.43 M-307.84 387.88 C-208.42 270.74, -107.56 155.43, 1.86 31.67 M-302.33 387.63 C-197.47 267.72, -91.73 145.57, 0.96 37.5 M-302.07 387.98 C-195.93 265.12, -89.14 142.42, 1.17 38.83 M-296.99 388.28 C-210.07 289.49, -124.68 189.24, 1.33 43.58 M-297.41 388.31 C-182.65 256.91, -67.58 124.05, 1.58 43.73 M-291.21 387.4 C-225.13 311.33, -160.75 236.15, 1.79 49.46 M-292.05 388.18 C-229.78 316.88, -167.93 245.06, 1.21 50.46 M-286.59 387.5 C-223.82 317.9, -164.53 247.69, 2.2 56.73 M-287.13 388.63 C-207.54 295.67, -126.63 203.1, 2.35 55.79 M-280.59 388.42 C-198.68 295.05, -116.86 201.47, 1.72 62.23 M-280.87 387.42 C-188.84 284.05, -97.36 179.81, 1.38 62.42 M-276.56 388.3 C-218.45 321.41, -159.3 253.94, 1.89 68.92 M-275.82 387.82 C-194.52 296.29, -113.63 203.23, 1.01 69.04 M-269.94 388.02 C-197.71 303.39, -124.83 219.94, 1.72 75.38 M-269.94 387.6 C-165.93 266.78, -60.71 146.2, 1.37 74.08 M-264.75 388.23 C-160.35 267.06, -53.96 144.45, 2.42 79.97 M-265.84 387.73 C-166.87 275.69, -67.2 160.95, 1.76 81.45 M-259.66 387.69 C-201.33 321.42, -145.25 256.56, 2.53 85.72 M-259.49 387.63 C-202.74 321.44, -146.25 256.92, 2.05 86.15 M-253.74 388.56 C-167.02 287.51, -78.04 186.59, 1.74 93.62 M-255.27 387.48 C-199.8 324.33, -143.13 258.62, 1.42 92.56 M-250.13 388.25 C-150.12 270.49, -50.01 154.71, 3.3 99.78 M-248.81 388.04 C-190.11 321.45, -131.32 253.36, 1.58 98.04 M-243.47 389.22 C-152.08 281.93, -59.82 177.02, 1.96 103.93 M-243.53 388.17 C-148.14 274.65, -49.65 162.11, 2.24 104.69 M-237.94 388.42 C-191.34 330.67, -142.14 274.77, 1.86 110.76 M-239.08 387.04 C-151.53 286.89, -64.38 187.11, 2.2 111.41 M-234.41 387.17 C-158.67 303.82, -88.32 220.82, 3.13 118 M-233.66 387.65 C-181.91 327.81, -129.53 266.86, 1.6 117.43 M-226.79 388.16 C-174.84 327.97, -123.93 271.31, 1.07 124.65 M-228.03 387.08 C-148.16 296.76, -70.65 206.69, 1.62 122.93 M-223.66 387.65 C-152.38 308.34, -84.21 228.02, 1.44 128.57 M-223.15 388.41 C-162.2 314.91, -99.65 244.32, 2.16 129.03 M-216.88 387.68 C-132.41 291.91, -48.47 197.39, 1.55 134.35 M-216.59 387.06 C-169.84 333.67, -122.86 280.03, 1.82 135.68 M-211.17 388.13 C-165.14 333.86, -119.02 278.2, 2.9 143.25 M-211.69 388.26 C-151.6 318.37, -89.48 247.73, 2.02 141.67 M-205.49 388.9 C-159 335.31, -116.72 285.31, 2.79 148.53 M-206.12 387.84 C-160.61 333.13, -113.84 279.91, 2.51 147.87 M-201.83 386.56 C-149.31 330.85, -98.1 272.06, 0.95 154.48 M-200.97 387.18 C-150.92 328.52, -99.54 269.04, 1.5 154.17 M-196.66 388.42 C-119.32 304.24, -45.39 218.93, 3.54 159.22 M-196.2 387.57 C-130.28 311, -62.24 233.62, 1.98 159.25 M-190 389.03 C-138.6 327.5, -88.06 267.66, 0.79 166.63 M-191.32 387.11 C-127.84 316.98, -66.64 246.71, 1.56 165.46 M-185.84 387.13 C-122.99 318.66, -63.33 246.64, 2.59 171.11 M-185.09 387.93 C-125.07 319.63, -65.71 251.4, 1.56 173.07 M-180.63 388.17 C-121.76 320.76, -60.62 250.81, 1.6 178 M-180.68 388.42 C-126.71 325.9, -73.85 265.35, 1.49 178.14 M-175.5 386.34 C-127.88 333, -81 279.84, 3.09 183.61 M-174.98 387.8 C-131.83 337.07, -89.97 289.83, 1.81 184.82 M-170.5 387.77 C-118.16 325.51, -64.42 263.54, 2.56 188.49 M-169.72 387.16 C-111.53 319.25, -52.37 250.67, 1.78 189.65 M-165.13 386.19 C-99.55 313.6, -35.11 236.79, 0.95 196.31 M-163.77 386.76 C-100.57 312.68, -37.18 239.37, 2.17 196.35 M-158.27 386.66 C-107.75 328.75, -57.62 270.21, 0.53 202.35 M-159.9 388.41 C-113.08 333.98, -66.91 280.71, 1.29 202.85 M-152.32 387.15 C-119.52 347.11, -84.37 307.55, 1.62 207.35 M-153.53 387.78 C-101.6 327.65, -47.07 265.34, 1.23 207.73 M-149.94 386.38 C-104.37 338.89, -64.74 289.27, 0.97 213.8 M-147.63 388.19 C-99.42 331.56, -52.34 275.07, 2.15 214.44 M-141.16 388.29 C-100.32 336.15, -54.82 283.44, 1.89 219.26 M-143.42 386.47 C-98.23 332.97, -51.6 281.61, 1.86 220.42 M-137.25 386.34 C-92.25 337.16, -49.62 287.45, 2.79 226.11 M-138.37 386.92 C-99.12 343.92, -61.2 299.46, 1.75 226.7 M-130.75 388.86 C-90.57 342.78, -54.7 298.99, 0.29 235.06 M-131.91 386.89 C-104.58 354.78, -77.68 324.87, 1.43 233.75 M-126.01 389.01 C-78.56 331.14, -28.26 273.16, 1.99 240.74 M-127.23 387.36 C-84.41 338.2, -41.28 288.24, 1.08 238.71 M-119.82 386.43 C-87.41 350.21, -57.28 313.07, 1.97 246.02 M-121.23 387.25 C-81.76 341.9, -41.93 295.75, 2 246.11 M-118.56 386.64 C-87.65 353.41, -58.43 322.56, 3.67 251.56 M-116.98 386.71 C-73.66 336.37, -27.78 286.49, 2.3 251.5 M-109.13 386.41 C-67.25 338.72, -23.63 289.71, 2.16 259.21 M-111.48 387.49 C-78.88 348.75, -47.83 311.66, 1.91 256.51 M-105.51 386.3 C-73.04 348.09, -41.26 313.38, 1.08 263.28 M-106.66 388.21 C-64.29 340.45, -21.17 291.96, 2.42 263.87 M-98.88 389.17 C-69.88 355.04, -44.38 318.83, 1.29 271.31 M-100.89 386.59 C-64.14 347.83, -31.35 307.88, 1.28 269 M-96.38 388.58 C-60.61 350.28, -29.72 309.67, 3.43 274.77 M-96.04 386.8 C-70.92 358.19, -44.26 329.47, 1.11 276.48 M-91.26 387.24 C-62.78 355.98, -36.11 326.52, 3.1 282.15 M-89.01 387.66 C-71.51 366.1, -52.52 344.61, 2.45 282.15 M-85.57 389.44 C-65.76 365.09, -48.54 345.59, 2.16 289.53 M-84.74 388 C-64.35 365.92, -45.85 344.83, 1.76 287.33 M-80.33 387.48 C-50.95 358.16, -26.66 327.18, 0.52 292.89 M-79.76 386.88 C-61.44 365.98, -42.86 345.35, 2.9 294.13 M-74.27 386.15 C-53.32 358.73, -27.1 332.06, 3.5 298.65 M-73.21 386.9 C-47.44 357.54, -22.43 328.1, 1.08 299.73 M-69.97 385.11 C-48.76 365.54, -29.88 343.71, 0.94 304.79 M-68.37 386.49 C-49.84 366.01, -30.37 344.23, 1.66 306.42 M-64.56 387.36 C-40.09 363.04, -21.14 337.92, 1.83 311.56 M-63.71 387.18 C-44.4 365.88, -28 345.34, 1.43 312.09 M-55.92 385.68 C-34.38 361.58, -12.83 335.2, 2.89 318.18 M-58.4 387.85 C-35.76 361.24, -12.49 335.28, 2.86 317.83 M-53.34 387.04 C-36.88 370.21, -19.77 350.59, 1.72 322.03 M-53.34 388.08 C-34.61 365.82, -17.99 347.23, 1.87 324.88 M-47.75 387.08 C-33.88 371.21, -21.33 355.96, 2.1 331.03 M-46.72 386.36 C-30.24 367.52, -13.52 348.82, 2.86 330 M-42.36 386.51 C-27.71 369.04, -9.51 350.23, 3.2 334.93 M-43.03 387.43 C-26.64 370.26, -11.16 353.47, 2.48 336.42 M-34.88 385.56 C-23.37 372.78, -11.37 358.45, 4.1 341.87 M-36.57 386.52 C-23.66 372.07, -12.9 358.53, 1.86 343.4 M-32.21 388.43 C-18.64 374.25, -7.97 357.76, 2.44 349.21 M-30.52 386.65 C-23 378.84, -15.08 368.12, 1.94 348.81 M-24.59 385.7 C-16.79 377.71, -10.21 367.19, 1.57 352.58 M-26.47 386.89 C-15.05 374.56, -4.25 361.47, 2.2 355.08 M-20.33 386.81 C-12.77 379.71, -4.88 371.46, 1.82 360.44 M-21.42 387.7 C-13.2 379.1, -6.81 369.93, 2.68 361.54 M-15.97 386.43 C-10.01 381.23, -5.46 374.11, 3.7 367.15 M-15.31 387.13 C-10.27 382.26, -6.13 376.06, 2.76 366.42 M-10.96 388.91 C-5.27 382.09, -2.58 380.19, 2.48 371.81 M-10.12 388.12 C-7.22 383.21, -3.46 378.66, 2.42 373.37 M-6.03 387.71 C-4.07 385.59, -2.15 383.45, 1.32 378.94 M-5.64 387.67 C-2.46 384.99, -0.7 382.85, 2.27 379.21" stroke="#66bb6a" stroke-width="0.5" fill="none"/><path d="M-1.06 1.07 C0.64 85.81, -1.21 170.63, -0.82 385.41 M0.38 -0.13 C-0.44 83.15, -0.07 166.2, 0.24 385.31 M0.31 384.9 C-130.69 383.6, -259.59 383.86, -432.86 386.79 M0.22 384.74 C-152.17 386.6, -305.53 386.14, -431.83 385.92 M-432.62 386.6 C-432.99 305.09, -434.17 225.68, -433.42 2.35 M-431.79 385.9 C-433.23 290.2, -433.73 193.29, -433.04 0.83 M-431.65 0.82 C-311.63 1.34, -192.39 0.46, 0.4 0.74 M-432.75 1.02 C-300.92 0.16, -169.55 -0.1, -0.55 0.34 M-0.25 0.57 C-0.2 0.27, -0.08 0.11, -0.02 -0.01 M-0.3 0.54 C-0.2 0.35, -0.07 0.14, -0.01 0.02" stroke="#66bb6a" stroke-width="1" fill="none"/></g></g><g stroke-linecap="round"><g transform="translate(641.1986957573823 10.562880905571092) rotate(0 8.321934173177397 313.4853382142636)" fill-rule="evenodd"><path d="M0 0 C0 0, 0 0, 0 0 M0 0 C0 0, 0 0, 0 0 M-60.86 77.55 C-37.92 50.05, -16.29 20.72, 3.63 1.76 M-60.41 76.85 C-39.61 51.36, -19.98 28.73, 4.32 2.3 M-122.3 155.02 C-89.74 117.61, -56.66 78.56, 8.02 2.12 M-123.71 154.49 C-85.49 111.61, -48.26 68.46, 9.29 1.91 M-184.64 231.05 C-112.61 149.51, -41.21 66.3, 15.69 2.3 M-184.52 230.49 C-137.11 175.47, -89.83 121.11, 14.58 2.49 M-192.33 245.28 C-107.05 145.81, -21.37 50.62, 20.14 1.15 M-192.1 245.15 C-141.76 189.75, -93.1 133.2, 19.87 1.07 M-192.48 251.76 C-140.09 190.44, -87.33 130.28, 25.37 2.37 M-191.71 251.16 C-106.44 154.66, -22.46 58.09, 24.57 1.31 M-192.54 256.5 C-119.06 170.87, -45.42 85.76, 29.97 2.52 M-191.65 257.09 C-134.43 188.93, -74.68 121.18, 30.06 2.01 M-192.21 264.51 C-145.63 211.52, -98.62 158.58, 35.14 2.97 M-192.29 263.24 C-132.42 196.03, -72.27 127.45, 35.43 1.56 M-192.52 269.79 C-112.56 179.04, -34.13 89.91, 41.27 0.95 M-191.91 269.54 C-111.77 175.12, -31.18 81.37, 40.89 2.06 M-192.82 276.37 C-129.1 203.27, -65.18 129.18, 45.3 2.46 M-191.79 275.2 C-125.16 200.12, -58.4 122.87, 46.72 1.72 M-192.54 282.81 C-140.89 224.95, -88.15 165.48, 51.68 2.98 M-191.97 281.89 C-114.3 190.23, -36.12 98.92, 51.45 2.54 M-192.65 288.78 C-139.5 225.79, -86.98 164.69, 55.75 0.78 M-191.8 287.26 C-124.83 207.74, -55.95 128.77, 57.21 2.06 M-191.36 295.1 C-101.91 191.21, -12.33 86.51, 61.21 1.46 M-192.39 294.23 C-92.45 180.34, 7.5 66.86, 62.2 1.97 M-191.91 300.91 C-114.94 211.35, -37.97 125.27, 66.5 3.35 M-192.54 300.47 C-88.83 183.35, 13.82 65.78, 67.28 2.28 M-191.2 306.11 C-117.78 219.48, -41.21 133.46, 72.87 1.71 M-192.26 306.22 C-134.1 239.87, -75.84 173.23, 73 2.51 M-193.16 312.79 C-108.26 214.09, -24.76 118.2, 76.85 2.69 M-192.29 313.08 C-135.22 248.23, -78.53 182.93, 77.23 2.52 M-191.57 318.08 C-106.56 216.2, -17.61 117.2, 83.97 1.26 M-192.12 318.39 C-122.43 237.12, -53.31 158.58, 83.23 1.77 M-192.7 323.89 C-100.52 218.68, -10.49 111.96, 87.29 3.11 M-191.85 324.7 C-78.96 197.42, 32.8 68.8, 88.47 2.65 M-192 331.65 C-111.96 239.74, -31.27 146.38, 94.47 2.73 M-192.25 330.75 C-81.06 204, 29.17 76.34, 93.45 2.45 M-192.77 335.75 C-87.11 218.73, 15.61 98.45, 98.43 2.62 M-192.3 336.98 C-116.59 247.81, -39.18 158.82, 99.03 2.28 M-192.52 342.37 C-132.8 271.64, -71.02 200.92, 102.95 2.8 M-191.74 343.41 C-103.72 238.56, -14.36 135.63, 104 2.75 M-192.88 349.95 C-109.64 253.05, -25.3 155.88, 109.5 1.56 M-192.77 349.25 C-122.78 270.99, -54.64 192.12, 108.97 1.89 M-192.44 354.21 C-116.67 270.33, -40.71 183.84, 113.91 2.69 M-191.76 354.66 C-89.18 236.18, 13.89 117.87, 114.25 2.39 M-192.41 360.81 C-91.06 243.59, 11.2 123.96, 119.61 2.96 M-192.47 361.19 C-91.1 246.88, 8.86 131.89, 120.39 2.15 M-192.67 367.2 C-84.38 244.15, 23.87 119.69, 125.05 3.24 M-191.6 367.13 C-66.92 225.41, 57.09 82.45, 125.07 2.32 M-191.6 373.79 C-63.24 226.82, 64.62 78.92, 129.62 3.32 M-192.03 373.69 C-96.5 262.55, -0.35 151.82, 129.94 3.37 M-192.43 380.53 C-75.76 245.47, 41.89 111.15, 135.22 1.78 M-192.35 380.24 C-109.92 285.66, -28.76 192.9, 135.25 2.35 M-191.53 385.21 C-80.26 257.77, 31.05 128.62, 140.21 3.36 M-192.18 385.79 C-82.95 258.45, 26.12 132.48, 140.16 3.18 M-192.62 392.35 C-71.22 253.65, 47.56 116.08, 145.92 1.91 M-192 391.73 C-110.44 297.88, -28.98 203.99, 146.58 2.39 M-192.93 398.55 C-107.17 298.33, -20.59 200.27, 150.72 2.65 M-192.25 398.22 C-87.9 277.55, 16.56 157.73, 151.26 2.99 M-192.2 404.57 C-84.69 280.59, 24.6 154.21, 157.08 2.77 M-192.38 403.77 C-59.94 251.24, 73.96 98.33, 156.79 2.86 M-192.89 410.61 C-118.21 324.98, -44.11 241.09, 162.48 2.46 M-192.77 410.71 C-79.2 280.09, 34.74 149.76, 161.98 2.88 M-191.39 416.05 C-116.93 329.72, -41.15 242.86, 167.36 3.92 M-191.97 415.68 C-103.01 314.03, -14.62 212.13, 166.64 3.37 M-192.72 421.71 C-72.96 284.41, 47.83 144.76, 172.55 2.56 M-192.64 422.09 C-116.06 336.67, -42.01 250.97, 172.47 2.79 M-192.13 429.63 C-66.11 283.23, 59.28 138.89, 177.49 3.15 M-192.49 428.98 C-90.73 313.34, 10.81 196.03, 177.26 3.35 M-192.93 435.11 C-78.7 304.89, 34.27 174.53, 182.55 3.55 M-192.46 434.13 C-44.84 262.72, 102.54 92.79, 183.13 2.95 M-193.06 440.4 C-41.25 267.28, 108.77 93.69, 188.8 3.37 M-192.65 440.82 C-86.55 318.1, 19.2 196.31, 188.26 2.97 M-191.51 447.28 C-94.51 332.07, 5.91 218.25, 192.36 3.69 M-192.38 446.26 C-96.07 339.26, -1.57 230.36, 192.73 3.4 M-192.64 453.72 C-40.79 278.33, 111.03 104.1, 198.59 2.38 M-192.53 452.86 C-62.51 303.88, 67.87 153.48, 198.33 2.88 M-193.36 459.16 C-75.55 324.32, 42.77 189.4, 203.56 2.99 M-192.41 459.12 C-59.86 309.52, 71.01 159.2, 203.84 3.79 M-192.15 465.49 C-59.72 314.05, 70.41 164.03, 209.92 2.46 M-192.07 464.69 C-77.92 332.1, 37.05 200.56, 208.98 3.05 M-192.46 470.66 C-39.64 295.04, 114.24 119.16, 214.71 3.82 M-192.52 471.18 C-52.56 311.55, 85.61 152.34, 214.48 3.49 M-192.97 477.22 C-56.43 321.95, 77.94 165.5, 213.65 9.95 M-192.88 478.11 C-94.64 363.53, 4.86 249.25, 214.28 9.87 M-192.63 482.82 C-108.48 388.01, -24.61 293.57, 214.28 15.93 M-192.25 483.63 C-35.98 305.77, 119.63 127.15, 214.68 15.09 M-193.2 489.04 C-54.73 332.42, 83.56 175.05, 213.63 22.52 M-192.76 489.73 C-75.78 354.87, 41.79 219.7, 214.31 21.5 M-192.91 495.59 C-48.78 329.49, 94.13 163.44, 213.84 28.18 M-192.44 495.38 C-80.31 362.9, 33.77 232.39, 214.49 27.66 M-192.34 501.76 C-39.47 325.51, 113.2 149.14, 213.9 34.57 M-192.42 501.49 C-43.96 332.57, 104.53 161.72, 214.09 33.63 M-192.83 508.54 C-49.5 342.67, 92.67 176.9, 213.58 39.9 M-192.96 508.14 C-80.28 377.43, 31.85 248.8, 213.83 40.2 M-192.71 513.13 C-71.94 376.85, 46.44 239.33, 214.86 45.41 M-192.52 514.06 C-34.19 333.96, 123.1 153.25, 214.45 45.65 M-192.25 520.23 C-37.47 339.71, 120.13 158.13, 214.56 53.05 M-192.86 520.66 C-58.4 365.77, 75.45 211.51, 214.43 52.49 M-193.57 526.52 C-96.3 414.26, 0.8 301.75, 213.2 58.8 M-192.93 526.32 C-57.5 371.14, 76.27 216.58, 214.03 59.02 M-192.84 531.96 C-31.91 345.11, 131.94 158.12, 214.04 64.71 M-192.36 531.99 C-103.57 432.55, -15.57 331.27, 214.67 64.47 M-192.44 539.08 C-38.11 362.4, 115.99 185.3, 213.29 71.06 M-192.91 538.34 C-51.83 375.93, 89.28 214.09, 213.85 70.58 M-193.06 543.93 C-32.57 361.12, 126.88 178.17, 213.65 76.05 M-192.16 544.53 C-98.49 438, -5.01 331, 214.23 76.77 M-193.09 550.31 C-40 373.97, 113.23 198.42, 214.48 82.87 M-192.26 550.75 C-93.52 433.02, 7.01 316.95, 214.58 83.1 M-193.52 557.55 C-62.84 405.63, 69.78 254.55, 214.12 89.87 M-192.81 557.06 C-80.58 425.85, 32.74 294.86, 213.97 89.45 M-192.5 562.99 C-66.19 416.12, 60.04 272.79, 214.53 95.4 M-192.32 562.89 C-102.07 460.46, -13.27 358.08, 214 94.69 M-191.92 568.44 C-104.48 467.86, -17.04 369.03, 213.88 101.96 M-192.46 569.41 C-30.67 382.8, 129.67 198.53, 214.12 100.99 M-192.54 575.93 C-48.88 406.67, 98.62 238.29, 213.86 107.85 M-192.82 575.5 C-69.27 432.47, 54.4 290.53, 214.06 107.84 M-192.56 581.35 C-95.67 470.34, 0.15 360.84, 213.91 112.87 M-192.77 580.9 C-101.92 476.46, -11.99 373.93, 214 113.17 M-193.41 588.15 C-62.76 437.7, 66.36 288.61, 214.21 120.01 M-192.9 587.35 C-59.98 436.64, 71.21 285.82, 214.31 119.7 M-191.79 593.51 C-103.56 489.35, -12.83 386.04, 214.17 126.36 M-192.73 593.4 C-65.47 443.95, 63.84 295.37, 213.56 126.08 M-191.93 599.38 C-74.68 463.1, 43.68 326.78, 213.87 131.18 M-193.05 599.34 C-46.23 431.1, 98.86 264.44, 213.95 131.7 M-192.84 606.61 C-43.86 437.04, 102.99 268.06, 213.07 138.42 M-192.77 605.98 C-85.8 482.5, 21.55 357.97, 214.15 137.78 M-192.51 611.07 C-39.58 436.82, 113.66 259.86, 214.35 144.41 M-192.85 611.86 C-86.45 489.67, 17.74 370.06, 214.08 143.81 M-192.86 618.1 C-68.75 473.85, 55.53 329.71, 214.05 150.57 M-192.5 617.93 C-46.75 448.82, 99.68 280, 214.15 150.07 M-195.26 626.13 C-33.55 440.56, 128.64 254.86, 213.43 155.92 M-194.71 626.62 C-57.4 465.52, 82.04 305.74, 213.57 156.43 M-189.15 626.01 C-83.68 502.81, 21.6 380.16, 214.49 162.82 M-189.39 626.68 C-60.31 479.58, 67.91 332.03, 213.68 161.89 M-183.79 627.24 C-40.16 458.97, 105.69 291.31, 213.38 168.97 M-184.79 626.85 C-67.06 492.18, 49.54 358.79, 213.7 168.55 M-178.33 626.51 C-65.36 493.82, 50.04 360.97, 213.29 174.41 M-179.17 626.65 C-35.35 459.79, 108.71 295.1, 213.6 175.17 M-173.23 627.1 C-87.87 527.19, -2.31 428.62, 214.66 179.92 M-173.53 626.45 C-69.59 510.36, 33.03 392.52, 213.8 180.3 M-168.07 625.85 C-84.34 530.77, 0.8 433.46, 214.22 186.37 M-167.89 626.32 C-30.93 468.7, 105.27 312.86, 213.77 187.46 M-162.64 627.42 C-49.71 497.99, 63.58 368.8, 213.86 192.8 M-162.8 626.91 C-21.71 462.94, 119.53 299.79, 213.64 193.47 M-158.53 627.23 C-37.8 489.5, 82.57 352.33, 213.26 198.87 M-157.82 626.72 C-66.84 520.71, 25.93 413.61, 213.54 199.24 M-152.17 626.76 C-61.97 524.51, 27.2 421.47, 212.89 205.03 M-152.22 626.38 C-73.35 536.76, 4.72 447.19, 213.38 205.67 M-147.77 627.22 C-60.21 528.91, 24.79 429.3, 213.16 210.58 M-147.6 627.07 C-64.97 531.54, 18.63 435.67, 213.91 211.31 M-142.2 626.12 C-30.02 497.09, 80.79 369.26, 214.19 217.57 M-142.01 626.48 C-25.04 492.38, 91.83 357.8, 214.04 217.63 M-136.46 627.52 C-44.74 519.98, 46.49 413.94, 213.34 224.17 M-136.64 627.35 C-65.3 545, 5.12 464.01, 213.49 224.28 M-131.01 626.6 C-39.15 521.34, 53.48 414.02, 213.04 229.49 M-130.93 626.3 C-12.54 489.29, 106.12 353.02, 214.15 229.8 M-126.1 626.35 C-42.23 528.61, 42.09 431.01, 213.35 236.14 M-126.05 627.21 C-32.12 521, 61.66 413.83, 213.86 235.99 M-120.31 626.94 C-28.6 520.75, 63.92 414.81, 212.96 241.87 M-120.74 626.8 C-36.62 532.02, 46.25 436.88, 213.6 242.66 M-115.64 626.38 C-15.76 509.82, 86.37 392.88, 212.91 248.49 M-115.7 627.2 C-21.45 519.06, 72.52 411.09, 213.68 247.98 M-110.33 626.68 C-40.25 546.88, 29.04 468.24, 213.22 253.96 M-110.81 627.15 C-14.39 516.35, 80.48 407.1, 213.47 254.06 M-105.52 627.6 C-7.98 514.3, 91.55 401.43, 213.04 260.91 M-104.62 626.73 C-12.99 523.13, 78.27 417.82, 213.46 260.46 M-99.59 627.22 C16.45 495.05, 132.14 360.69, 213.63 267.07 M-99.88 626.93 C-3.11 517.16, 91.7 407.04, 213.3 266.66 M-95.24 626.19 C20.01 493.47, 137.13 358.71, 212.42 272.4 M-94.73 626.91 C-17.78 538.99, 57.66 452.69, 213 272.93 M-89.82 627.45 C12.39 509.74, 112.97 393.39, 213.1 278.75 M-89.76 627.1 C20.95 497.97, 133.72 368.87, 213.35 278.74 M-83.96 627.49 C36.39 491.35, 154.29 353.8, 212.5 285.41 M-83.6 626.83 C19.3 508.01, 122.29 389.88, 213.88 284.86 M-78.67 628.03 C12.42 522.6, 101.93 418.47, 212.69 292.15 M-78.64 627.3 C23.89 511.09, 124.81 394.36, 212.85 290.94 M-73.54 627.59 C16.45 521.47, 107.45 418.52, 212.56 296.06 M-72.73 626.49 C10.99 531.33, 94.13 435.07, 213.59 296.5 M-68.82 627.79 C-11.71 560.65, 44.87 495.77, 213.98 303.12 M-67.65 626.87 C32.48 513.04, 133.01 397.14, 213 303.29 M-61.82 626.53 C0.75 554.77, 63.02 482.65, 212.79 309.97 M-62.85 626.47 C-5.35 562.05, 51.16 496.47, 212.99 309.28 M-57.33 626.47 C33.51 524.17, 123.56 421.2, 213.48 315.3 M-57.83 627.58 C23.85 535.1, 103.78 442.28, 213.61 315.22 M-52.22 626.9 C24.32 537.45, 102.02 449.25, 214.06 322.74 M-52.66 627.25 C32.17 528.71, 117.19 430.5, 212.72 322.34 M-46.74 626.19 C37.81 529.64, 120.73 435.26, 211.93 329 M-47.25 626.79 C36.86 534.33, 118.03 439.72, 213.46 327.71 M-41.9 627.77 C13.87 561.66, 71.09 497.14, 212.44 332.85 M-41.96 627.65 C31.22 541.31, 106.23 455.68, 212.88 334.06 M-35.73 625.97 C13.31 569, 62.63 510.35, 213.73 339.26 M-36.84 626.56 C50.98 529.19, 136.1 429.61, 212.64 340.83 M-30.65 627.59 C64.08 516.82, 160.93 406.47, 214.65 345.05 M-30.87 627.69 C41.47 544.99, 112.16 461.65, 212.86 346.32 M-24.38 627.26 C48.9 540.77, 124.57 454.36, 212.08 353.49 M-25.47 626.6 C63.56 522.13, 153.66 418.23, 212.86 351.65 M-19.82 626.9 C58.24 534.71, 138.28 442.1, 212.27 359.47 M-21.23 627.27 C51.17 545.5, 124 463.01, 212.93 358.71 M-15.83 627.9 C30.36 573.51, 76.99 522.13, 214.3 363.31 M-15.34 627.04 C70.37 529.47, 154.91 431.69, 213.72 363.8 M-9.42 628.47 C45.63 562.07, 104.29 495.35, 214.3 371.26 M-10.53 627.71 C45.05 562.99, 101.02 499.21, 212.53 370.77 M-4.67 628.2 C67.72 545.21, 139.13 462.53, 212.26 376.78 M-3.89 626.41 C70.66 539.13, 148.35 450.77, 212.74 377.66 M0.76 628.01 C59.12 561.5, 118.6 493.6, 212.03 381.52 M0.12 627.19 C50.22 568.6, 100.22 510.13, 213.4 382.21 M5.83 627.96 C79.59 541.09, 151.9 459.51, 214.33 388.97 M5.96 627.07 C73.05 550.55, 139.23 474.85, 212.72 388.54 M12.67 628.56 C51.5 577.67, 94.05 532.3, 213.7 394.45 M11.59 626.64 C72.8 554.06, 135.62 483.45, 213.02 395.2 M14.89 627.65 C66.72 572.19, 115.28 515.85, 213.64 400.47 M15.53 627.69 C79.93 552.57, 143.64 477.73, 213.32 401.72 M22.85 628.53 C64.39 582.53, 104.69 535.88, 212.45 408.14 M21.97 626.49 C84.39 556.75, 145.97 484.54, 212.48 407.38 M28.08 628.91 C98.78 543.27, 171.24 460.02, 213.88 413.48 M26.13 628.16 C65 584.22, 103.87 538.37, 212.69 413.44 M32.19 628.53 C91.7 561.33, 147.53 496.64, 211.66 419.9 M33.01 627.37 C80.03 572.97, 127.01 518.82, 213.66 419.8 M37.87 626.56 C83.95 576.44, 127.5 522.01, 212.67 425.89 M38.12 627.28 C82 575.51, 127.89 523.5, 212.81 425.75 M42.04 626.98 C93.44 569.38, 144.93 512.69, 212.26 430.7 M43.54 627.75 C93.02 568.34, 146.16 508.81, 213.49 431.77 M48.12 626.2 C107.95 557.41, 168.2 489.89, 211.21 438.75 M47.5 627.46 C102.9 563.67, 157.74 498.81, 212.4 438.81 M52.56 628.04 C116.54 557.35, 176.15 484.98, 212.4 445.88 M53.14 627.65 C110.92 559.48, 169.53 492.77, 212.45 444.62 M57.66 627.64 C105.14 572.3, 152.1 518.44, 212.44 449.96 M59.44 627.82 C117.62 560.98, 176.88 493.56, 212.95 449.48 M63.55 627.87 C121.2 561.25, 179.26 494.95, 211.52 457.27 M64.19 627.15 C121.8 563.9, 177.05 498.53, 211.91 456.34 M68.04 629.04 C109.17 581.36, 148.19 535.39, 211.32 463.27 M69.89 627.92 C108.65 579.49, 147.66 534.53, 211.96 462.97 M75.38 626.11 C120.99 572.39, 166.05 519.48, 211.52 468.81 M73.52 627.68 C123.96 570.25, 176.69 509.91, 212.71 468.64 M78.66 628.44 C108.31 593.97, 137.46 561.28, 211.72 474.4 M79.25 626.99 C106.37 597.11, 132.07 566.28, 212.32 474.88 M86.78 629.65 C118.14 587.68, 151.97 550.9, 214.89 478.63 M84.58 627.03 C111.23 594.46, 140.43 563.2, 213.43 481.42 M92.03 625.49 C120.77 591.44, 149.44 558.59, 214.46 487.68 M90.38 626.57 C125.07 587.31, 158.93 548.08, 212.43 486.53 M94.82 629 C118.37 599.49, 141.04 572.58, 213.08 493.77 M95.64 627.93 C129.33 589.12, 162.3 549.87, 213.17 492.84 M100.32 628.22 C143.63 579.97, 189.3 531.12, 213.38 500.43 M100.39 626.37 C135.12 589.1, 170.29 548.62, 213.31 499.86 M105.47 626.89 C129.94 600.66, 153 575.72, 214.36 505.18 M106.55 628.31 C145.83 580.7, 186.77 534.72, 211.66 505.49 M110.64 627.03 C139.4 592.25, 171.64 559.83, 211.77 513.61 M112.55 626.52 C138.95 598.67, 164.56 569.18, 212.37 511.68 M118.89 629.46 C152.73 585.6, 184.45 547.39, 214.56 518.18 M116.32 628.33 C137.26 604.19, 156.97 581.26, 212.24 517.92 M122.94 629.14 C150.64 595.46, 176.03 567.18, 211.35 523.1 M121.15 627.62 C154.42 592.07, 187.5 553.13, 213.07 523.73 M127.63 627.98 C151 601.03, 176.16 573.35, 212.83 528.28 M128.05 627.28 C153.13 598.08, 178.24 569.01, 212.83 529.34 M134.46 629.65 C161.52 593.93, 193.43 558.08, 214.21 534.23 M133.02 628.68 C149.57 608.84, 167.12 588.56, 212.01 536.19 M138.54 628.89 C161.89 601.7, 183.6 575.79, 211.66 540.85 M137.93 626.64 C160.51 601.78, 183.32 577.77, 212.9 542.37 M141.84 626.09 C168.79 597.36, 196.53 566.22, 211.42 548.72 M142.58 628.65 C162.88 604.28, 183.11 580.34, 212.5 547.64 M146.83 627.79 C164.36 610.63, 179.62 591.92, 210.9 553.69 M148.21 627.08 C166.58 607.92, 183.65 587.74, 212.53 554.57 M153.71 629.36 C166.16 613.19, 177.82 599.38, 211.76 560.19 M153.53 628.4 C165.46 612.51, 178.18 598.17, 212.3 561.59 M158.06 627.43 C173 611.05, 185.64 599.14, 212.39 568.01 M160.23 627.41 C180.92 603.98, 202.25 580.27, 212.03 566.41 M164.05 626.56 C176.66 615.32, 186.48 603.8, 210.32 573.17 M165.09 628.45 C177.61 611.02, 193.81 594.29, 213.18 572.49 M170.13 627.71 C184.4 610.02, 199.29 593.55, 212.67 579.92 M169.41 627.62 C181.18 614.32, 193.11 601.59, 211.64 579.78 M174.18 626.91 C189.5 612.56, 203.46 595.75, 210.56 585.6 M175.11 628.01 C183.15 619.65, 191.56 610.31, 212.05 585.17 M178.61 628.45 C191.12 615.33, 202.05 606.05, 211.61 591.44 M179.58 628.65 C186.04 619.28, 193.38 611.67, 213.13 591.99 M186.77 627.8 C193.42 618.68, 197.76 613.9, 212.94 595.83 M184.99 627.97 C194.52 618.34, 201.16 609.61, 212.54 596.93 M189.42 628.37 C196.36 620.44, 200.77 615.83, 210.41 604.97 M190.62 628.32 C198.68 619.31, 205.97 610.07, 212.91 603.29 M195.81 628.8 C200.7 625.1, 204.44 618.32, 211.6 610.11 M196.71 627.87 C200.26 622.77, 203.24 620.13, 212.71 609.96 M200.89 627.67 C204.43 623.94, 206.37 624.09, 212.33 614.5 M201.48 628.78 C205.55 624.06, 208.48 619.8, 211.71 614.91 M207.62 628.48 C207.63 626.75, 209.71 624.78, 211.71 621.65 M207.29 627.41 C208.08 626.19, 209.03 625.32, 212.37 621.57" stroke="#42a5f5" stroke-width="0.5" fill="none"/><path d="M1.29 0.98 C-56.51 67.73, -113.9 138.02, -194.24 241.72 M-0.16 -0.27 C-55.7 70.83, -111.61 140.47, -194.35 242.93 M-194.83 241.83 C-196.73 330.47, -196.99 416.6, -194.74 626.83 M-195.02 243.34 C-193.58 332.23, -194.75 422.21, -195.75 625.65 M-195.04 626.14 C-61.41 626.57, 74.21 627.31, 210.81 626.97 M-195.7 626.32 C-53.21 625.29, 88.15 625.56, 209.38 627.42 M209.44 627.81 C210.67 453.26, 210.75 281.09, 212.16 1.31 M209.59 627.81 C209.65 392.82, 210.45 157.27, 211.85 1.68 M212.48 0.37 C150.57 1.22, 92.4 0.69, 1.28 0.96 M211.69 0.68 C150.85 -0.61, 89.34 -1.05, 2.1 -1.16 M1.77 -0.55 C1.31 -0.26, 0.83 -0.11, -0.09 -0.05 M1.54 -0.53 C1.06 -0.41, 0.54 -0.16, 0.08 0.03" stroke="#42a5f5" stroke-width="1" fill="none"/></g></g><g stroke-linecap="round"><g transform="translate(10 251.02570970118256) rotate(0 313.1104129872225 -119.95165887924509)" fill-rule="evenodd"><path d="M0.4 -239.48 C0.4 -239.48, 0.4 -239.48, 0.4 -239.48 M0.4 -239.48 C0.4 -239.48, 0.4 -239.48, 0.4 -239.48 M0.6 -233.29 C2.18 -234.89, 3.5 -238.35, 5.81 -239.81 M0.3 -233.06 C1.6 -234.6, 3.48 -236.76, 5 -238.86 M1.31 -227.36 C4.9 -233.09, 6.75 -235.78, 10.95 -239.13 M0.75 -226.7 C3.3 -231.96, 8.06 -235.12, 11.38 -239.92 M1.5 -219.34 C7.71 -225.96, 12.24 -236.02, 16.74 -239.52 M0.9 -221.27 C4 -225.9, 7.76 -230.23, 16.51 -238.61 M0.75 -214.68 C5.98 -218.78, 7.76 -223.46, 22.3 -240.74 M-0.01 -214.57 C6.31 -223.28, 14.11 -230.46, 22.57 -238.56 M0.51 -208.8 C5.71 -215.52, 15.98 -225.71, 26.23 -240.57 M0.31 -208.76 C6.49 -216.27, 12.37 -223.35, 26.12 -239.74 M0.36 -202.8 C10.33 -216.24, 23.01 -227.85, 33.13 -237.84 M-0.51 -201.69 C7.31 -210.72, 15.04 -220.74, 31.57 -239.26 M-0.59 -196.26 C14.03 -213.16, 28.42 -231.02, 38.95 -239.94 M0.3 -197.75 C13.83 -210.9, 26.21 -227.05, 38.19 -240.17 M1.59 -190.78 C14.32 -205.2, 28.48 -221.05, 44.76 -240.37 M-0.35 -190.49 C13.74 -204.73, 26.99 -220.67, 42.62 -239.24 M0.79 -182.86 C14.7 -199.69, 31.32 -216.9, 46.09 -238.26 M0.4 -183.68 C18.22 -205.94, 36.34 -226.51, 47.81 -239.6 M1.49 -179.13 C17.63 -196.11, 31.53 -216.36, 54.71 -240.02 M-0.38 -177.72 C19.64 -198.98, 37.37 -219.35, 53.53 -240.54 M1.33 -173.7 C16.72 -188.13, 30.75 -204.61, 59.99 -238.81 M-0.18 -171.15 C22.33 -198.52, 43.98 -224.05, 59.27 -240.15 M2.28 -166.99 C20.67 -191.84, 41.82 -216.26, 62.66 -240.16 M-0.24 -166.57 C24.88 -195, 49.91 -223.4, 64.79 -239.12 M1.94 -159.25 C24.67 -188.88, 47.7 -216.76, 68.16 -237.51 M0.45 -160.42 C18.15 -179.55, 37.28 -200.62, 69.02 -239.37 M0.69 -153.41 C17.08 -174.51, 39.19 -197.93, 76.43 -237.79 M-0.08 -152.9 C21.45 -177.08, 43.64 -201.11, 74.57 -239.87 M0.31 -148.39 C29.37 -180.01, 59.52 -214.06, 79.25 -240.95 M0.51 -147.46 C27.98 -178.6, 56.13 -209.66, 80.67 -239.24 M0.55 -142.36 C23.51 -171.47, 50.12 -199.12, 86.01 -241.57 M1.09 -141.24 C24.85 -168.1, 48.02 -196.82, 85.69 -239.58 M-0.35 -136.89 C30.65 -171.69, 66.02 -209.47, 89.07 -240.37 M0.24 -135.36 C23.19 -163.57, 49.94 -192.12, 90.03 -239.13 M-1.09 -128.2 C32.86 -167.91, 62.62 -205.39, 97.54 -237.82 M0.47 -129.3 C22.06 -153.41, 42.45 -177.31, 96.65 -239.99 M1.3 -124.48 C25.44 -151.22, 46.94 -177.54, 102.6 -237.67 M-0.49 -122.42 C31.88 -159.5, 62.68 -194.75, 102.04 -238.86 M-1.4 -116.71 C30.03 -149.34, 55.46 -180.21, 107.32 -240.53 M1.09 -117.94 C41.24 -163.43, 81.32 -210.44, 106.64 -240.74 M-1.25 -112.24 C43.47 -161.96, 87.53 -213.66, 111.96 -239.4 M0.91 -110.61 C41.41 -161.57, 84.64 -210.3, 111.86 -239.67 M0.97 -105.57 C43.42 -155.06, 86.61 -203.8, 115.14 -240.56 M-0.51 -104.72 C27.33 -135.64, 54.08 -166.45, 115.84 -239.66 M-1.64 -99.69 C33.48 -132.75, 63.99 -171.08, 122.42 -238.79 M-0.64 -99.55 C33.99 -138.98, 67.93 -178.62, 121.78 -239.21 M-1.51 -93.36 C49.27 -149.57, 94.02 -203.7, 128.92 -238.72 M-0.65 -91.85 C33.04 -129.11, 65.87 -165.83, 127.09 -238.73 M0.57 -86.09 C49.88 -139.3, 96.99 -195.25, 134.29 -237.88 M0.42 -86.83 C36.25 -128.12, 70.88 -167.31, 132.36 -238.66 M0.73 -81.03 C33.59 -119.41, 64.58 -156.15, 138.69 -239.2 M0.52 -80.72 C44.33 -132.19, 88.35 -183.46, 138.81 -238.68 M1.23 -75.07 C37.12 -116.35, 74.48 -162.39, 141.86 -240.48 M0.6 -74.11 C28.28 -108.51, 59.15 -143.88, 143.11 -239.26 M-0.47 -69.06 C41.37 -116.47, 79.63 -162.34, 149.49 -238.7 M0.77 -68.01 C51.49 -129.47, 104.49 -190.18, 149.1 -238.74 M0.84 -61.45 C37.22 -106.81, 75.75 -149.41, 152.9 -240.59 M-0.47 -61.45 C46.68 -117.01, 93.77 -170.95, 153.91 -240.02 M0.16 -57.46 C43.07 -107.41, 89.77 -159.96, 158.69 -239.2 M-0.51 -56.49 C34.82 -98.45, 70.68 -140.82, 159.4 -239.14 M1.32 -49.79 C67.53 -123.53, 130.04 -199.09, 165.38 -238.29 M-0.32 -50.87 C58.34 -115.63, 117.17 -182.48, 165.57 -240.39 M0.32 -44.22 C38.61 -87.82, 79.46 -133.33, 169.03 -238.95 M0.52 -44.6 C48.03 -97.27, 95.92 -152.3, 169.87 -239.99 M0.3 -38.15 C57.31 -103.15, 113.26 -167.2, 176.85 -240.52 M-0.43 -38.42 C42.82 -87.71, 84.87 -137.26, 175.76 -239.43 M-1.37 -32.18 C64.94 -104.51, 126.91 -178.08, 179.94 -240.79 M-0.64 -31.55 C36.97 -73.95, 74.07 -115.65, 180.4 -239 M1.28 -25.37 C44.57 -79.83, 91.14 -132.58, 186.04 -240.09 M0.04 -25.17 C56.92 -89.49, 111.67 -153.38, 186.41 -239.7 M1.33 -20.5 C46.91 -71.99, 92.03 -125.29, 192.51 -237.93 M-0.49 -19.15 C65.45 -96.56, 133.13 -173.29, 191.39 -238.62 M-0.98 -12.33 C63.67 -86.3, 127.61 -157.21, 197.13 -240.05 M-0.2 -12.7 C63.33 -86.48, 127.98 -160.23, 196.39 -240.05 M1.67 -8.92 C72.03 -90.78, 144.81 -175.88, 202.03 -240.17 M-0.18 -7.1 C48.46 -59.57, 94.74 -114.52, 201.52 -238.74 M1.44 -1.74 C63.17 -73.87, 127.15 -146.1, 206.06 -239.29 M-0.06 -0.97 C76.15 -86.51, 150.6 -172.62, 206.95 -239.79 M2.13 1.48 C73.58 -78.09, 145.96 -159.61, 211.49 -238.98 M2.06 2.32 C47.68 -49.64, 92.76 -100.48, 212.89 -239.22 M8.31 3.54 C64.26 -64.02, 122.94 -127.51, 216.91 -240 M6.92 2.52 C75.57 -77.12, 145.57 -157.73, 217.93 -239.28 M11.81 0.98 C71.38 -64.45, 129.83 -131.21, 223.64 -238.88 M12.72 1.9 C57.85 -50.47, 103.28 -101.85, 223.07 -239.21 M17.09 3.75 C84.76 -74.66, 150.77 -150.55, 228.8 -240.61 M18.63 2.4 C97.25 -87.91, 176.63 -178.45, 228.67 -240.51 M22.64 1.08 C75.01 -56.44, 128.83 -115.76, 234.4 -238.34 M24.07 1.49 C72.65 -53.47, 120.75 -108.28, 232.91 -239.22 M27.32 1.44 C81.9 -56.97, 136.26 -119.4, 240.37 -240.03 M28.53 2.59 C102.4 -81.49, 176.24 -166.08, 238.59 -239.5 M34.55 2.97 C112.11 -87.69, 189.79 -177.47, 245.38 -239.8 M34.18 1.53 C114.34 -91.15, 196.88 -185.41, 244.47 -238.98 M39.13 2.65 C103.67 -72.86, 167.98 -148.18, 251.01 -239 M38.68 2.6 C105.82 -72.07, 170.6 -147.26, 249.36 -239.54 M45.45 3.17 C120.03 -85.91, 194.51 -172.18, 254.14 -239.89 M44.75 2.18 C105.49 -68.96, 168.81 -141.18, 254.65 -239.6 M48.6 2.46 C99.07 -54.39, 147.11 -109.09, 259.55 -238.75 M50.23 2 C95.81 -48.33, 140.37 -101.12, 259.97 -239.34 M55.47 0.56 C135.03 -90.04, 212.64 -179.14, 266.71 -239.17 M56.22 2.59 C120.05 -70.99, 184.49 -145.56, 265.73 -240 M60.27 3.17 C142.15 -90.46, 223.59 -185.59, 271.21 -239.56 M59.92 2.52 C110.76 -56.96, 161.78 -115.49, 271.6 -239.29 M65.56 0.53 C139.97 -81.41, 213.69 -168.61, 276.67 -240.8 M65.61 1.64 C117.35 -55.51, 166.61 -112.09, 276.25 -239.07 M71.81 1.74 C125.17 -60.08, 178.76 -122.49, 281.57 -238.62 M70.51 1.73 C127.87 -63.33, 185.74 -130.42, 280.73 -238.62 M76.06 2.44 C139.36 -67.6, 202.23 -141.46, 286.06 -240.65 M77.11 1.38 C130.89 -60.03, 184.65 -121.74, 287.33 -239.12 M81.01 2.36 C150.13 -76.23, 220.46 -156.02, 291.8 -240.02 M81.8 2.17 C163.31 -95.51, 246.69 -190.11, 292.2 -239.12 M88.13 0.98 C165.51 -86.64, 244.99 -177.07, 298.49 -239.97 M87.28 2.18 C169.14 -92.85, 250.8 -186.65, 297.77 -239.63 M92.76 1.07 C138.29 -53.64, 188.93 -109.24, 303.29 -240.48 M92.59 2.22 C135.32 -47.48, 177.66 -98.18, 302.03 -239.93 M96.75 1.58 C142.46 -52.15, 190.72 -106.64, 309.22 -238.39 M98.45 2.04 C145.12 -55.58, 194.91 -111.46, 307.51 -239.3 M103.65 1.15 C183.97 -91.7, 265.74 -186.84, 313.31 -239.31 M102.9 2.42 C165.86 -71.6, 230.29 -145.13, 313.3 -239.82 M108.89 2.21 C158.17 -55.64, 209.59 -115.45, 317.85 -240.88 M108.12 1.41 C154.23 -51.9, 202.62 -107.57, 318.39 -239.61 M114.59 3.3 C188.12 -83.59, 264.27 -167.77, 324.14 -239.08 M113.2 1.97 C157.07 -47.49, 200.47 -96.54, 323.6 -239.95 M119.09 1.13 C182.85 -72.65, 247.35 -146.45, 329.7 -239.56 M118.9 1.96 C196.81 -87.02, 275.12 -178.98, 329.21 -239.86 M123.8 1.49 C185.86 -70.59, 246.95 -141.46, 333.26 -238.64 M123.73 2.22 C170.46 -51.81, 218.97 -107.63, 334.16 -238.99 M130.25 3.69 C183.46 -59.18, 238.17 -122.08, 340.37 -240.32 M129.15 2.75 C201.82 -81.33, 272.72 -163.08, 339.25 -239.29 M133.81 1.12 C197.62 -69.07, 257.41 -137.73, 345.96 -240.07 M135.21 1.78 C175.09 -46.28, 218.36 -94.6, 344.91 -239.41 M139.92 3.03 C221.24 -92.88, 303.17 -185.51, 351.18 -239.02 M139.62 2.74 C211.2 -81.45, 282.83 -163.68, 350.32 -239.2 M144.46 0.81 C195.95 -56.05, 246.75 -116.19, 354.35 -238.94 M145.31 1.4 C219.58 -85.89, 295.34 -172.74, 355.24 -239.75 M149.92 3.69 C229.71 -91.53, 309.98 -182.63, 362.18 -239.65 M151.1 2.63 C204.14 -58.18, 256.78 -120.47, 360.56 -239.44 M157.08 2.26 C235.04 -89.21, 313.58 -181.8, 366.74 -239.64 M156.4 1.91 C206.39 -55, 258.24 -114.29, 366 -239.58 M161.48 1.35 C239.97 -90.24, 318.68 -180.71, 370.71 -239 M161.72 2.12 C224.64 -70.53, 290.68 -145.58, 372.03 -240.48 M167.53 3.17 C232.8 -75.42, 299.98 -152.87, 375.46 -240.07 M166.39 2.07 C211.85 -48.25, 255.06 -98.62, 376.12 -240.13 M171.03 1.01 C231.18 -63.52, 287.72 -129.39, 381.2 -239.19 M171.84 2.03 C212.71 -47.07, 255.79 -96.7, 383.1 -239.97 M178.79 1.52 C226.22 -53.71, 274.99 -109.69, 386.23 -238.55 M177.89 2.1 C240.55 -73.25, 303.82 -146.44, 387.41 -239.45 M182.81 1.64 C235.73 -57.69, 289.93 -119.7, 392.63 -240.7 M181.91 2.16 C264.19 -92.52, 344.73 -185.99, 393.27 -240.38 M188.31 2.49 C247.56 -65.79, 305.83 -133.05, 397.2 -240.86 M187.65 1.59 C231.17 -49.26, 274.68 -99.98, 398.32 -240.07 M193.48 3.11 C246.46 -58.51, 297.67 -119.39, 402.67 -240.99 M193.22 2.04 C270.36 -85.79, 347.5 -173.32, 403.95 -239.93 M197.89 3.13 C269.6 -80.83, 342.96 -162.23, 408.71 -239.27 M198.52 1.56 C259.41 -67.52, 319.52 -136.3, 408.81 -239.94 M204.69 2.09 C259.95 -66.51, 317.26 -132.24, 414.7 -241.45 M204.39 1.59 C245.19 -48.2, 287.62 -96.43, 414.9 -240.29 M209.42 2.13 C281.74 -79.34, 350.78 -162.47, 419.13 -239.09 M208.9 2.42 C277.32 -78.27, 346.87 -157.22, 419.67 -240.07 M213.34 1.73 C277.11 -72.8, 340.57 -146.65, 425.2 -240.46 M214.84 1.83 C263.51 -52.66, 311.1 -107.49, 424.94 -240.27 M220.7 1.2 C278.16 -65.64, 336.34 -133.64, 429.02 -240.47 M220.46 1.79 C266.32 -50, 311.95 -102.18, 430.4 -239.69 M224.08 1.97 C304.55 -88.85, 383.97 -183.96, 435.73 -239.58 M225.52 2.81 C291.75 -73.38, 358.38 -150.14, 434.83 -239.98 M229.63 0.91 C273.03 -49.76, 318.45 -98.78, 439.77 -239.86 M230.45 2.28 C282.02 -59.02, 335.76 -120.09, 439.92 -239.72 M236.82 0.85 C302.34 -71.93, 368.33 -149.49, 445.69 -239.61 M235.4 1.45 C281.23 -50.43, 324.49 -100.57, 444.95 -238.93 M240.6 2.81 C300.59 -65.3, 357.22 -132.28, 452.15 -239.74 M240.13 3.1 C291.64 -57.46, 342.49 -115.95, 451.49 -239.27 M245.26 1.57 C326.55 -87.34, 404.52 -181.97, 455.46 -240.23 M246.37 2.11 C288.01 -46.45, 331.78 -97.67, 456.28 -239.21 M251.63 2.24 C305.58 -61.9, 361.23 -125.22, 462.18 -238.86 M251.1 1.94 C334.83 -92.41, 418.54 -189.51, 462.16 -239.16 M257.9 2.68 C305.1 -51.94, 350.28 -107.26, 467.55 -238.85 M256.93 1.82 C310.81 -61.24, 365.54 -124.21, 466.74 -239.42 M263.11 2.65 C314.6 -60.3, 367.84 -121.89, 473.65 -239.23 M262.07 3.01 C312.69 -55.77, 362.68 -114.41, 471.93 -239.78 M268.66 2.26 C340.36 -82.07, 416.33 -170.59, 476.2 -239.63 M267.13 2.24 C328.19 -68.46, 387.98 -136.73, 476.81 -240.2 M273.39 2.74 C347.26 -84.18, 424.14 -170.07, 482.78 -239.11 M272.15 2.15 C337.22 -71.51, 399.77 -143.47, 483 -240.43 M277.88 2.12 C331.29 -60.31, 384.12 -122.09, 488.37 -240.89 M277.8 1.93 C330.27 -56.62, 381.16 -116.78, 487.46 -239.33 M282.34 1.51 C326.39 -47.67, 369.72 -95.9, 493.6 -240.02 M283.75 2.21 C326.84 -47.23, 369.41 -97.32, 493.5 -240.02 M288.08 0.83 C342.93 -62.92, 399.29 -125.54, 499.9 -239.32 M288.52 1.25 C345.89 -65.37, 403.54 -132.67, 499.39 -239.44 M292.7 2.34 C339.2 -52.72, 388.27 -107.81, 505.34 -239.76 M293.44 2.63 C341.07 -49.72, 386.18 -100.64, 503.77 -240.52 M299.83 0.69 C362.32 -71.76, 426.73 -145.05, 508.16 -239.74 M299.68 1.66 C374.88 -84.95, 450.88 -173.53, 509.61 -240.32 M303.17 3.28 C385.06 -91.53, 464.95 -184.04, 513.85 -239.38 M303.85 2.87 C363.48 -63.16, 420.58 -129.19, 515.68 -239.34 M310.27 0.74 C383.59 -83.43, 457.4 -163.83, 519.03 -239.77 M310.39 2.23 C361.07 -58.57, 411.03 -117.74, 520.48 -239.57 M315.32 1.23 C369.42 -62.1, 423.6 -126.36, 526.96 -238.96 M314.59 1.79 C385.59 -81.26, 457.24 -163.55, 524.92 -239.75 M320.17 0.96 C391.66 -82.28, 462.71 -163.81, 531.48 -239.56 M320.58 1.75 C390.41 -74.82, 459.41 -153.84, 530.64 -240.37 M326.66 1.71 C397.97 -80.25, 472.41 -161.87, 535.18 -239.09 M325.74 2.47 C385.99 -66.32, 445.99 -135.1, 535.7 -240.41 M332.5 0.89 C394.3 -70.39, 455.88 -143.34, 541.81 -240.43 M331.7 2.18 C407.68 -84.51, 484.61 -173.66, 541.29 -239.52 M337.59 3.49 C409.4 -79.63, 481.42 -164.75, 546.53 -239.37 M335.76 1.75 C417.96 -91.57, 498.98 -185.29, 547.44 -240.32 M342.66 0.97 C387.3 -48.9, 430.59 -102.47, 550.62 -240.65 M341.84 2.41 C420.58 -88.47, 499.62 -180.28, 551.32 -239.39 M347.22 2.78 C405.72 -68.87, 469.62 -137.93, 557.32 -239.89 M346.35 2.14 C392.11 -51.93, 438.88 -105.72, 556.9 -240.83 M353.17 1.99 C417.26 -76.07, 486.92 -153.97, 561.42 -239.67 M351.31 2.49 C422.94 -81.32, 496.65 -165.18, 562.15 -240.18 M357.58 3.03 C406.14 -51.05, 453.81 -107.39, 567.45 -239.81 M357.62 2.68 C437.57 -89.95, 518.06 -182.94, 568.64 -240.8 M363.76 3.35 C416.09 -57.11, 467.63 -117.31, 573.63 -239.48 M361.85 2.7 C425.64 -69.36, 486.99 -140.8, 572.92 -239.23 M369.4 2.34 C434.16 -76.19, 501.37 -154.22, 578.99 -241.5 M368.71 2.49 C449.23 -87.65, 527.81 -180.09, 578.95 -240.1 M374.37 3.52 C429 -61.48, 485.74 -126.31, 583.99 -240.43 M373.33 1.8 C418.71 -51.89, 464.44 -103.61, 583.91 -240.13 M377.93 3.23 C452.77 -82.49, 523.7 -165.14, 588.62 -240.09 M378.57 1.43 C443.14 -72.92, 507.29 -146.58, 588.49 -239.52 M383.65 1.13 C433.01 -52.96, 482.9 -109.02, 593.54 -239.84 M384.32 1.69 C461.26 -86.03, 537.92 -174.57, 594.47 -239.44 M388.31 2.88 C472.61 -93.26, 557.73 -191.65, 599.95 -239 M389.39 2.21 C470.08 -89.91, 549.85 -182.18, 600 -238.92 M395.2 2.72 C450.99 -61.41, 504.99 -123.6, 606.2 -239 M394.87 1.87 C465.24 -79.02, 537.06 -161.19, 605.14 -239.92 M400.2 2.9 C481.03 -90.82, 563.4 -187.48, 609.88 -238.45 M400.35 1.32 C450.3 -55.53, 499.16 -111.68, 609.47 -238.99 M405.08 1.82 C455.09 -56.11, 505.8 -116.09, 616.26 -238.92 M404.49 2.96 C449.18 -48.67, 492.07 -99.79, 615.5 -240.1 M411.98 2.34 C487.31 -84.78, 563.41 -172.61, 620.92 -239.89 M411.08 2.27 C489.47 -92.52, 571.31 -185.6, 620.68 -239.36 M414.34 2.67 C481.87 -77.99, 550.72 -157.08, 626.48 -239 M415.59 1.78 C499.84 -90.52, 581.28 -185.84, 626.34 -240.57 M422.14 1.9 C494.12 -80.98, 567.75 -165.96, 628.86 -238.76 M421 2.36 C501.23 -88.15, 580.26 -178.85, 629.24 -237.71 M427.98 2.02 C454.75 -33.63, 486.32 -69.02, 561.69 -156.98 M425.66 1.74 C475.61 -54.66, 526.79 -113.16, 564.16 -156.02" stroke="#ef5350" stroke-width="0.5" fill="none"/><path d="M0.7 0.06 C121.38 -2.74, 243.7 -1.87, 432.3 -0.13 M-0.2 0.08 C132.18 0.57, 264.16 0.56, 433.16 -0.37 M431.84 -0.85 C479.7 -57.86, 524.51 -113.6, 626.99 -240.86 M433.66 0.44 C497.13 -78.66, 561.57 -157.77, 625.56 -239.67 M626.19 -240.48 C391.6 -238.93, 157.95 -238.01, -0.08 -238.98 M626.32 -239.79 C496.75 -241.61, 367.3 -241.41, 0.23 -239.47 M0.9 -239.11 C0.44 -170, 3.07 -98.58, 0.06 1.26 M0.89 -239.46 C0.25 -159.13, -0.94 -78.84, 0.83 -0.13 M0 0 C0 0, 0 0, 0 0 M0 0 C0 0, 0 0, 0 0" stroke="#ef5350" stroke-width="1" fill="none"/></g></g><g stroke-linecap="round" transform="translate(188.6558659871414 89.12319365733993) rotate(0 28.453765869140625 28.453765869140625)"><path d="M16.13 2.48 C21.33 -0.05, 29.79 0.21, 35.65 1.86 C41.52 3.51, 47.76 7.73, 51.31 12.4 C54.87 17.07, 57.5 23.73, 56.97 29.86 C56.44 35.99, 52.42 44.67, 48.13 49.17 C43.84 53.66, 37.08 56.33, 31.22 56.83 C25.36 57.33, 18.06 55.73, 12.97 52.18 C7.88 48.63, 2.3 41.49, 0.69 35.53 C-0.92 29.57, 0.11 22.12, 3.31 16.42 C6.52 10.73, 16.85 3.94, 19.9 1.35 C22.95 -1.24, 21.43 0.42, 21.62 0.88 M17.48 0.47 C22.55 -2.01, 31.45 -0.66, 37.26 1.52 C43.08 3.69, 48.96 8.3, 52.39 13.52 C55.82 18.73, 58.78 26.87, 57.85 32.79 C56.92 38.71, 51.72 45.21, 46.81 49.06 C41.9 52.91, 34.34 55.71, 28.4 55.88 C22.46 56.05, 15.72 53.81, 11.18 50.1 C6.65 46.38, 2.32 39.66, 1.19 33.59 C0.06 27.51, 1.67 18.82, 4.4 13.65 C7.14 8.47, 15.13 4.16, 17.59 2.54 C20.06 0.91, 18.92 3.39, 19.22 3.9" stroke="none" stroke-width="0" fill="#ef5350"/><path d="M15.71 2.23 C20.81 -0.54, 28.75 -0.69, 34.78 0.79 C40.8 2.28, 48.24 6.25, 51.86 11.14 C55.47 16.04, 56.9 24, 56.48 30.15 C56.07 36.29, 53.48 43.58, 49.36 48.03 C45.23 52.47, 37.81 56.22, 31.73 56.81 C25.66 57.4, 18.11 54.92, 12.92 51.57 C7.74 48.22, 2.45 42.58, 0.62 36.72 C-1.21 30.85, -1.26 22.26, 1.94 16.37 C5.14 10.48, 16 4.11, 19.84 1.38 C23.67 -1.36, 24.65 -0.54, 24.97 -0.04 M17.67 2.61 C23.11 0.34, 33.85 -0.71, 39.55 1.42 C45.25 3.55, 49.22 10.22, 51.87 15.4 C54.51 20.58, 56.26 26.44, 55.43 32.49 C54.6 38.53, 51.56 47.51, 46.87 51.66 C42.18 55.8, 33.51 57.81, 27.32 57.35 C21.13 56.88, 14.47 52.92, 9.74 48.86 C5.01 44.81, 0.05 38.61, -1.08 33 C-2.2 27.4, -0.25 20.37, 3 15.26 C6.25 10.14, 15.92 4.38, 18.41 2.32 C20.91 0.25, 17.82 2.48, 17.95 2.86" stroke="#222" stroke-width="1" fill="none"/></g><g stroke-linecap="round" transform="translate(203.51691945393827 386.0788668751136) rotate(0 28.453765869140625 28.453765869140625)"><path d="M17.66 1.97 C23.16 -0.55, 32.37 -0.91, 38.26 1.04 C44.15 2.98, 50.09 8.46, 52.99 13.62 C55.88 18.78, 56.46 25.96, 55.65 32 C54.83 38.04, 52.46 45.58, 48.08 49.85 C43.71 54.13, 35.53 57.54, 29.38 57.65 C23.24 57.75, 16.08 54.28, 11.22 50.5 C6.36 46.72, 1.54 40.75, 0.22 34.96 C-1.11 29.18, 0.17 21.44, 3.28 15.79 C6.39 10.14, 16.06 3.25, 18.86 1.08 C21.65 -1.1, 19.88 2.32, 20.05 2.73 M34.54 0.56 C40.15 1.79, 48.15 6.49, 51.81 11.8 C55.47 17.1, 57.08 26.28, 56.51 32.37 C55.93 38.47, 52.79 44.38, 48.36 48.37 C43.93 52.35, 36.15 55.6, 29.92 56.26 C23.7 56.92, 15.9 55.63, 10.99 52.31 C6.08 48.99, 1.89 42.2, 0.46 36.34 C-0.97 30.48, -0.08 22.87, 2.43 17.14 C4.94 11.4, 9.85 4.51, 15.54 1.94 C21.24 -0.62, 32.98 1.81, 36.6 1.77 C40.23 1.72, 37.34 1.11, 37.28 1.67" stroke="none" stroke-width="0" fill="#66bb6a"/><path d="M17.62 1.69 C23.08 -0.6, 32.12 0.28, 37.97 2.27 C43.82 4.26, 49.61 8.44, 52.73 13.6 C55.85 18.76, 57.62 27.19, 56.68 33.24 C55.74 39.3, 51.73 45.99, 47.09 49.93 C42.45 53.88, 35.08 56.93, 28.84 56.91 C22.6 56.9, 14.38 53.75, 9.66 49.82 C4.93 45.89, 1.62 39.32, 0.47 33.33 C-0.68 27.34, -0.46 19.3, 2.76 13.88 C5.98 8.45, 16.9 2.74, 19.79 0.79 C22.68 -1.17, 19.9 1.71, 20.11 2.15 M33.86 1.26 C39.61 1.79, 45.43 3.98, 49.4 8.25 C53.37 12.53, 57.69 20.48, 57.66 26.9 C57.64 33.32, 53.02 41.98, 49.26 46.77 C45.49 51.57, 40.76 54.61, 35.08 55.7 C29.4 56.79, 20.89 56.39, 15.19 53.32 C9.48 50.26, 3.11 43.16, 0.84 37.31 C-1.42 31.46, -0.79 23.89, 1.59 18.23 C3.98 12.57, 9.82 6.58, 15.15 3.36 C20.48 0.15, 30.51 -0.51, 33.57 -1.07 C36.62 -1.62, 33.62 -0.76, 33.48 0.02" stroke="#222" stroke-width="1" fill="none"/></g><g stroke-linecap="round" transform="translate(685.6747563680005 333.0405673145667) rotate(0 28.453765869140625 28.453765869140625)"><path d="M19.22 2.43 C24.55 0.32, 32.63 0.38, 38.35 2.27 C44.08 4.16, 50.63 8.38, 53.55 13.78 C56.47 19.17, 57.03 28.5, 55.85 34.64 C54.67 40.79, 51.01 46.9, 46.47 50.67 C41.93 54.44, 34.79 57.46, 28.61 57.26 C22.43 57.06, 14 53.57, 9.4 49.48 C4.81 45.39, 1.78 38.71, 1.03 32.71 C0.28 26.71, 1.72 18.82, 4.9 13.49 C8.08 8.15, 17.07 2.74, 20.1 0.69 C23.13 -1.37, 22.99 0.53, 23.08 1.15 M31.77 0.22 C37.61 0.81, 44.61 4.5, 49.01 8.99 C53.41 13.48, 57.9 21.16, 58.18 27.15 C58.46 33.15, 54.71 40.27, 50.69 44.95 C46.66 49.63, 39.81 53.85, 34.01 55.22 C28.21 56.6, 21.1 55.9, 15.9 53.2 C10.7 50.49, 5.1 44.72, 2.81 39 C0.52 33.27, 0.55 24.49, 2.17 18.83 C3.79 13.18, 7.41 7.92, 12.55 5.07 C17.68 2.22, 29.7 2.26, 32.98 1.73 C36.27 1.19, 32.22 1.56, 32.26 1.84" stroke="none" stroke-width="0" fill="#42a5f5"/><path d="M15.14 3.29 C20.19 0.39, 29.29 -0.89, 35.21 0.44 C41.12 1.76, 46.98 6.35, 50.61 11.24 C54.24 16.13, 57.22 23.69, 57.01 29.77 C56.8 35.85, 53.46 43.38, 49.33 47.74 C45.2 52.1, 38.35 55.15, 32.23 55.93 C26.11 56.72, 17.81 55.77, 12.61 52.47 C7.4 49.17, 2.84 41.92, 0.99 36.15 C-0.85 30.37, -0.94 23.55, 1.55 17.84 C4.04 12.12, 13.08 4.31, 15.92 1.86 C18.77 -0.6, 18.43 2.49, 18.62 3.1 M26.57 -0.32 C32.3 -1.3, 38.32 2.43, 43.04 5.72 C47.76 9.01, 52.92 13.47, 54.89 19.4 C56.86 25.33, 57.33 35.43, 54.87 41.28 C52.41 47.14, 45.7 52.27, 40.11 54.54 C34.52 56.82, 27.38 56.51, 21.34 54.94 C15.31 53.37, 7.62 49.65, 3.91 45.12 C0.19 40.58, -1.54 33.7, -0.97 27.74 C-0.39 21.77, 3.15 13.8, 7.35 9.33 C11.55 4.85, 21.33 2.28, 24.24 0.9 C27.16 -0.48, 24.47 0.82, 24.82 1.06" stroke="#222" stroke-width="1" fill="none"/></g><g stroke-linecap="round" transform="translate(70.18412526448515 191.26595997407173) rotate(0 25.681884765625 25.681884765625)"><path d="M-1.89 -0.6 L51.32 -0.61 L50.99 53.09 L-0.15 50.95" stroke="none" stroke-width="0" fill="#ef5350"/><path d="M-1.93 0.26 C14.02 0.12, 31.51 1.66, 50.91 -0.77 M-0.14 0.11 C16.21 -0.79, 31.8 -0.08, 51.02 -0.92 M49.86 1.06 C52.55 11.04, 52.09 24.34, 49.37 52.76 M51.87 -0.64 C50.29 18.9, 51.94 36.7, 51.66 51.32 M49.96 53.28 C38.65 52.4, 26.07 52.4, -1.17 51.84 M50.6 50.71 C34.25 50.68, 17.48 51.83, -0.39 51.71 M1.33 51.74 C0.57 36.63, 1.22 18.26, -0.77 1.38 M-0.51 50.95 C0.59 36.3, -1.14 22.09, 0.27 -0.51" stroke="#222" stroke-width="1" fill="none"/></g><g stroke-linecap="round" transform="translate(70.3547101869051 264.301504770155) rotate(0 25.681884765625 25.681884765625)"><path d="M-0.6 -0.04 L50.76 -0.37 L53.09 51.21 L-0.41 50.21" stroke="none" stroke-width="0" fill="#66bb6a"/><path d="M0.26 -1.69 C10.34 0.6, 22.47 0.04, 50.6 0.31 M0.11 0.01 C15.33 -0.54, 32.1 -0.27, 50.45 -0.59 M52.42 1.07 C49.71 17.15, 50.64 31.09, 52.76 52.6 M50.72 -0.91 C51.19 14.56, 50.42 27.95, 51.32 50.64 M53.28 50.36 C41.87 49.14, 31.36 49.83, 0.47 51.95 M50.71 51.15 C37.83 50.91, 25.68 50.58, 0.35 51.53 M0.37 51.44 C1.77 41.66, -0.35 29.74, 1.38 -0.2 M-0.41 52.35 C-0.04 31.2, 0.65 12.77, -0.51 -0.95" stroke="#222" stroke-width="1" fill="none"/></g><g stroke-linecap="round" transform="translate(72.41172523383443 337.7141411264157) rotate(0 25.681884765625 25.681884765625)"><path d="M-0.04 -0.61 L50.99 1.73 L51.21 50.95 L-1.15 50.63" stroke="none" stroke-width="0" fill="#66bb6a"/><path d="M-1.69 -0.25 C11.82 1.23, 22.99 -0.84, 51.67 0.25 M0.01 -0.72 C15.48 -0.06, 31.84 -0.97, 50.77 0.22 M52.43 -1.33 C51.59 11.75, 48.99 25.69, 52.6 50.75 M50.45 0.33 C52.36 9.97, 51.92 20.78, 50.64 50.41 M50.36 52.37 C33.83 52.87, 18.86 52.33, 0.58 50.54 M51.15 51.13 C40.41 51.94, 29.2 51.37, 0.16 50.39 M0.08 52.87 C0.38 37.99, -1.11 27.23, -0.2 1.57 M0.99 51.21 C-0.47 37.66, 0.53 22.37, -0.95 -0.3" stroke="#222" stroke-width="1" fill="none"/></g><g stroke-linecap="round" transform="translate(225.55164832953756 469.1020958383298) rotate(0 25.681884765625 25.681884765625)"><path d="M-0.61 -0.37 L53.09 -0.15 L50.95 50.21 L-0.74 50" stroke="none" stroke-width="0" fill="#66bb6a"/><path d="M-0.25 0.1 C11.75 -0.02, 20.15 0.74, 51.62 0.27 M-0.72 -0.61 C14.7 -0.35, 28.49 -0.6, 51.58 -0.63 M50.03 0.61 C51.24 9.56, 53.03 24.33, 50.75 49.42 M51.69 0.74 C50.59 18.31, 50.99 35.31, 50.41 51.41 M52.37 49.5 C40.56 49.94, 28.2 51.69, -0.82 49.6 M51.13 51.3 C40.78 50.87, 28.71 51.42, -0.97 50.85 M1.51 52.08 C-0.71 31.77, 1.29 13.52, 1.57 -0.45 M-0.16 50.63 C0.75 38.83, -0.3 24.83, -0.3 -0.02" stroke="#222" stroke-width="1" fill="none"/></g><g stroke-linecap="round" transform="translate(227.30671437581327 542.3261864145016) rotate(0 25.681884765625 25.681884765625)"><path d="M-0.37 1.73 L51.21 -0.41 L50.21 50.63 L-1.36 52.21" stroke="none" stroke-width="0" fill="#66bb6a"/><path d="M0.1 1.3 C15.64 -0.7, 32.49 0.32, 51.63 -0.27 M-0.61 -0.01 C15.62 -0.55, 31.32 0.59, 50.73 -0.75 M51.98 -0.4 C49.65 19.53, 52.87 35.64, 49.42 52.38 M52.1 -0.44 C51.19 12.08, 50.17 23.3, 51.41 50.66 M49.5 52.38 C29.87 52.1, 11.3 50.8, -1.76 49.84 M51.3 52.28 C38.94 51.59, 27.45 50.28, -0.52 52.03 M0.72 50.75 C-0.79 36.38, -0.22 20.2, -0.45 -1.02 M-0.73 51.9 C-0.24 37.57, -1.45 24.51, -0.02 -0.3" stroke="#222" stroke-width="1" fill="none"/></g><g stroke-linecap="round" transform="translate(301.4466374715164 535.7141411264157) rotate(0 25.681884765625 25.681884765625)"><path d="M1.73 -0.15 L50.95 -1.15 L50.63 50 L0.84 50.73" stroke="none" stroke-width="0" fill="#66bb6a"/><path d="M1.3 -0.45 C10.31 0.28, 22.4 0.24, 51.09 0.21 M-0.01 -0.34 C14.53 -0.28, 31.12 -0.32, 50.61 0.53 M50.97 -1.99 C52.42 19.39, 50.41 34.36, 52.38 50.09 M50.92 0.29 C51.49 9.99, 50.58 21.48, 50.66 52.32 M52.38 50.19 C39 51.47, 24.87 49.12, -1.52 50.05 M52.28 50.98 C37.38 51.49, 21.74 50.81, 0.67 51.55 M-0.62 50.6 C1 35.57, 1.18 19.7, -1.02 -0.83 M0.53 51.63 C-0.43 29.92, -0.22 10.34, -0.3 -0.19" stroke="#222" stroke-width="1" fill="none"/></g><g stroke-linecap="round" transform="translate(378.4466374715164 552.7141411264157) rotate(0 25.681884765625 25.681884765625)"><path d="M-0.15 -0.41 L50.21 -0.74 L50 52.21 L-0.63 52.25" stroke="none" stroke-width="0" fill="#66bb6a"/><path d="M-0.45 -0.77 C15.08 -0.08, 29.8 -0.61, 51.58 0.02 M-0.34 -0.92 C11.11 0.22, 22.76 -0.75, 51.89 0.53 M49.37 1.4 C52.75 11.38, 49.58 25, 50.09 49.54 M51.66 -0.04 C51.02 16.13, 51.79 33.47, 52.32 50.86 M50.19 51.84 C33.94 50.8, 13.59 50.1, -1.31 50.94 M50.98 51.71 C37.3 50.86, 22.39 52.5, 0.19 51.4 M-0.77 52.75 C-0.38 33.65, -0.64 11.79, -0.83 1.98 M0.27 50.85 C-0.57 36.47, 0.36 21.87, -0.19 0.86" stroke="#222" stroke-width="1" fill="none"/></g><g stroke-linecap="round" transform="translate(486.68455251057844 525.4881889779782) rotate(0 25.681884765625 25.681884765625)"><path d="M-0.41 -1.15 L50.63 -1.36 L52.21 50.73 L0.89 50.97" stroke="none" stroke-width="0" fill="#42a5f5"/><path d="M-0.77 0.31 C15.92 0.38, 31.06 0.33, 51.38 -1.45 M-0.92 -0.59 C12.51 -0.46, 23.84 0.71, 51.9 -0.66 M52.76 1.23 C50.65 15.04, 52.28 32.7, 49.54 52.02 M51.32 -0.72 C50.18 19.24, 50.44 39.34, 50.86 51.87 M51.84 51.95 C39.93 49.3, 28.62 49.75, -0.42 50.9 M51.71 51.53 C35.32 50.65, 21.88 51.35, 0.04 52.12 M1.38 51.17 C1.72 33.65, -0.86 16.01, 1.98 -0.32 M-0.51 50.42 C-0.57 39.7, -0.58 27.89, 0.86 -0.08" stroke="#222" stroke-width="1" fill="none"/></g><g stroke-linecap="round" transform="translate(454.72410329182844 393.5782768686032) rotate(0 25.681884765625 25.681884765625)"><path d="M-1.15 -0.74 L50 0.84 L50.73 52.25 L-0.4 52.48" stroke="none" stroke-width="0" fill="#42a5f5"/><path d="M0.31 0.25 C19 -0.08, 37.69 0.21, 49.92 -1.21 M-0.59 0.22 C14.73 -0.28, 31.25 1.01, 50.7 0.31 M52.6 -0.62 C48.91 15.41, 49.57 26.96, 52.02 52.84 M50.64 -0.95 C51.57 12.43, 52.47 25.77, 51.87 50.43 M51.95 50.54 C31.59 49.96, 14.03 51.06, -0.46 51.23 M51.53 50.39 C30.73 52.21, 11.32 51.58, 0.75 51.72 M-0.2 52.93 C-0.26 36.52, -0.63 25.7, -0.32 -1.47 M-0.95 51.06 C-0.16 32.91, -0.32 15.93, -0.08 -0.21" stroke="#222" stroke-width="1" fill="none"/></g><g stroke-linecap="round" transform="translate(730.3778963095931 247.71414112641548) rotate(0 25.681884765625 25.681884765625)"><path d="M-0.74 -1.36 L52.21 -0.63 L52.25 50.97 L1.12 50.01" stroke="none" stroke-width="0" fill="#42a5f5"/><path d="M0.25 0.27 C13.97 0.13, 28.51 -1.52, 50.15 -0.02 M0.22 -0.63 C12.91 0.83, 27.85 -0.36, 51.67 -0.2 M50.75 -1.95 C52.74 9.02, 49.89 21.25, 52.84 50.48 M50.41 0.05 C50.64 17.88, 50.84 34.35, 50.43 51.87 M50.54 49.6 C37.44 50.2, 26.14 51.05, -0.13 53.2 M50.39 50.85 C38.61 51.63, 24.57 52.2, 0.36 51.05 M1.57 50.91 C-1.37 37.1, 1.63 24.17, -1.47 1.07 M-0.3 51.34 C-0.04 34.4, 1.13 17.74, -0.21 -0.58" stroke="#222" stroke-width="1" fill="none"/></g><g stroke-linecap="round" transform="translate(723.4466374715162 154.71414112641548) rotate(0 25.681884765625 25.681884765625)"><path d="M-1.36 0.84 L50.73 0.89 L50.97 52.48 L-1.35 50.48" stroke="none" stroke-width="0" fill="#42a5f5"/><path d="M0.27 -0.27 C13.65 -0.05, 25.43 -1.28, 51.35 -0.68 M-0.63 -0.75 C11.22 0.42, 20.72 0.19, 51.17 -1 M49.42 1.02 C50.4 17.17, 52.33 39.47, 50.48 51.95 M51.41 -0.7 C51.95 14.69, 51.5 29.44, 51.87 50.78 M49.6 49.84 C33.43 50.73, 17.66 51.02, 1.83 50.59 M50.85 52.03 C34.35 50.9, 17.72 51.23, -0.31 50.98 M-0.45 50.35 C-0.78 34.39, -0.27 11.98, 1.07 0.53 M-0.02 51.06 C0.3 39.46, 0.41 25.62, -0.58 -0.37" stroke="#222" stroke-width="1" fill="none"/></g><g stroke-linecap="round" transform="translate(733.4466374715162 63.714141126415484) rotate(0 25.681884765625 25.681884765625)"><path d="M0.84 -0.63 L52.25 -0.4 L52.48 50.01 L-0.88 52.22" stroke="none" stroke-width="0" fill="#42a5f5"/><path d="M-0.27 0.21 C16.22 -1.51, 31.19 -0.09, 50.68 -1.84 M-0.75 0.53 C12.9 -0.34, 25.05 0.13, 50.37 0.7 M52.38 -1.28 C49.38 19.23, 52.68 36.26, 51.95 51.28 M50.66 0.96 C50.37 12.22, 49.94 23.93, 50.78 51.6 M49.84 50.05 C34.04 50.45, 17.42 52.74, -0.78 52.06 M52.03 51.55 C35.16 51.85, 19.24 50.79, -0.38 52.06 M-1.02 50.53 C1.58 36.14, -1.87 22.62, 0.53 -1.03 M-0.3 51.18 C1.02 40.73, -0.05 29.68, -0.37 -0.68" stroke="#222" stroke-width="1" fill="none"/></g><g stroke-linecap="round" transform="translate(11.155753782950796 10.062855981499297) rotate(0 421.1255468641009 314.56503186907076)"><path d="M0.09 0.01 C262.69 -0.02, 526.53 0.19, 841.52 -0.47 M0.21 0.21 C270.92 2.65, 542.29 2.13, 842.53 0.25 M841.74 -0.73 C840.06 169.93, 839.45 338.92, 842.22 628.55 M842.63 -0.2 C842.58 128.34, 842.58 257.2, 842.35 629.25 M841.73 628.96 C623.97 626.51, 406.78 626.26, 0.28 629.26 M842.33 629.15 C671.55 631.51, 500.12 631.22, 0.28 629.09 M-0.33 629.92 C0.45 390.54, 1 153.33, -0.41 -0.76 M-0.07 629.48 C0.02 459.2, -0.18 289.28, -0.27 0.17" stroke="#666" stroke-width="2" fill="none"/></g></svg>