<svg version="1.1" xmlns="http://www.w3.org/2000/svg" viewBox="0 0 862.2510937282018 649.1300637381415" width="1724.5021874564036" height="1298.260127476283">
  <!-- svg-source:excalidraw -->
  
  <defs>
    <style>
      @font-face {
        font-family: "Virgil";
        src: url("https://unpkg.com/@zsviczian/excalidraw@0.12.0-obsidian-4/dist/excalidraw-assets/Virgil.woff2");
      }
      @font-face {
        font-family: "Cascadia";
        src: url("https://unpkg.com/@zsviczian/excalidraw@0.12.0-obsidian-4/dist/excalidraw-assets/Cascadia.woff2");
      }
    </style>
  </defs>
  <g stroke-linecap="round"><g transform="translate(387.57836056304313 326.42921857899705) rotate(0 231.50188798813963 -2.140215568192673)" fill-rule="evenodd"><path d="M170.88 -315.21 C170.88 -315.21, 170.88 -315.21, 170.88 -315.21 M170.88 -315.21 C170.88 -315.21, 170.88 -315.21, 170.88 -315.21 M163.86 -300.16 C165.18 -303.17, 169.1 -306.94, 178.24 -315.09 M162.23 -298.47 C164.49 -302.05, 168.52 -307.45, 177.48 -315.22 M153.05 -283.28 C160.83 -292.81, 168.88 -299.93, 183.21 -313.76 M152.6 -282.75 C163.89 -295.17, 175.65 -308.95, 182.23 -316.03 M143.54 -267.42 C153.92 -278.55, 164.51 -292.94, 185.75 -315.85 M144.99 -267.37 C155.18 -278.91, 163.98 -290.28, 186.71 -316.3 M136.87 -248.7 C151.56 -267.95, 165.78 -283.24, 191.74 -313.97 M136.21 -250.12 C157.46 -274.22, 177.47 -297.78, 192.91 -314.94 M128.71 -235.96 C146.78 -258.45, 170.45 -281, 196.88 -316.5 M126.95 -233.69 C147.04 -255.74, 165.44 -278.28, 198.38 -316.2 M119.44 -216.31 C137.07 -239.09, 155.97 -258.46, 201.99 -317.2 M118.08 -218.32 C150.21 -254.76, 181.61 -290.97, 202.11 -315.39 M110.68 -202.74 C145.95 -244.77, 183.7 -286.56, 208.87 -314.73 M109.79 -201.58 C142.63 -240.57, 177.5 -278.94, 208.06 -315.6 M99.88 -183.64 C132.49 -225.31, 166.14 -264.94, 211.55 -314.22 M99.86 -185.06 C137.19 -229.27, 173.26 -270.85, 213.1 -315.4 M92.89 -170.4 C138.2 -223.62, 186.94 -275.91, 220.15 -314.86 M90.85 -170.11 C124.99 -210.93, 160.59 -249.1, 218.5 -315.58 M82.54 -154.7 C119.78 -197.09, 155.31 -240.28, 224.14 -315.42 M82.43 -152.59 C136.99 -215.3, 191.04 -278.41, 223.88 -314.94 M73.16 -137.18 C114.56 -182.74, 153.53 -227.86, 228.49 -314.19 M74.16 -136.37 C134.04 -204.77, 194.96 -273.89, 230.47 -316.52 M66.43 -119.35 C113.67 -178.91, 166.31 -236.47, 235.48 -316.61 M64.7 -120.34 C109.66 -169.07, 152.94 -219.14, 234.14 -314.83 M56.64 -103.49 C102.5 -154.95, 145.99 -207.99, 240.02 -315.55 M57.2 -104.09 C96.75 -149.55, 136.73 -197.33, 240.46 -315.8 M48.73 -87.67 C124.55 -174.61, 200.94 -263.75, 244.48 -314.67 M48.35 -88.28 C113.08 -161.59, 177.38 -234.55, 245.69 -315.56 M39.63 -71.92 C92.59 -132.71, 146.56 -195.46, 249.62 -315.88 M38.95 -72.76 C87.19 -126.06, 133.72 -179.47, 250.58 -315.47 M29.68 -56.21 C108.8 -148.46, 189.66 -241.6, 255.89 -316.64 M30.56 -55.96 C102.73 -140.84, 176.48 -224.85, 255.54 -315.37 M22.26 -40.18 C69.84 -96.84, 120.66 -151.99, 261.56 -314.04 M21.02 -40.05 C78.71 -104.86, 134.76 -168.49, 261.06 -315.21 M12.61 -24.17 C70.87 -88.88, 127.9 -155.71, 266.87 -314.92 M12.61 -23.36 C76.55 -97.36, 139.46 -170.84, 266.9 -315.47 M3.65 -6.57 C101.06 -120.26, 199.54 -233.24, 270.79 -316.22 M3.76 -6.74 C63.08 -76.15, 121.85 -142.51, 271.57 -315.26 M1.41 1 C71.98 -80.59, 142.17 -162.45, 277.82 -316.26 M2 1.23 C70.68 -78.48, 138.54 -156.78, 277.38 -316.07 M2.38 5.45 C60.47 -59.03, 116.18 -123.63, 281.24 -315.86 M3.18 5.57 C100.25 -104.82, 196.07 -215.02, 282.02 -315.31 M4.07 9.76 C90.66 -89.28, 175.25 -189.55, 288.11 -315.14 M4.19 10.76 C99.17 -97.36, 191.94 -203.77, 287.7 -315.3 M6.86 14.92 C94.21 -82.41, 179.51 -181.13, 291.96 -314.85 M6.12 14.17 C87.63 -77.76, 168.41 -170.69, 292.88 -315.4 M6.99 18.63 C85.67 -71.93, 164.07 -161.53, 299.19 -315.83 M7.01 19.46 C80.53 -66.17, 155.22 -152.9, 298.17 -315.96 M8.06 23.6 C87.8 -63.99, 164.22 -151.35, 302.74 -315.97 M8.66 23.59 C100.69 -81.9, 193.28 -188.9, 303.2 -315.73 M8.97 28.82 C78.04 -47.82, 145.42 -123.87, 309.54 -316.05 M9.52 28.59 C86.24 -59.49, 162.3 -147.12, 309.41 -315.68 M11.42 31.79 C74.26 -42.09, 138.8 -114.31, 314.9 -314.43 M11.48 32.63 C83.22 -48.18, 153.98 -129.36, 314.1 -315.3 M12.25 37.38 C108.19 -73.97, 206.06 -183.62, 319.78 -316.47 M12.84 37.66 C107.94 -71.06, 201.2 -178.4, 319.97 -315.57 M14.45 40.8 C101.35 -61.43, 189.53 -162.47, 324.67 -314.53 M14.15 41.65 C88.61 -43.6, 161.66 -127.95, 324.39 -315.23 M15.73 45.91 C95.14 -43.53, 173.45 -133.63, 329.6 -315.74 M15.77 46.96 C92.31 -42.23, 169.79 -131.25, 330.66 -315.68 M17.68 50.18 C125.25 -72.02, 234.26 -196.57, 335.39 -315.01 M17.41 50.98 C88.21 -33.71, 160.72 -117.58, 335.7 -315.36 M18.14 55.49 C85.33 -23.15, 152.6 -99.27, 340.5 -315.11 M18.26 55.3 C108.55 -47.33, 198.14 -149.59, 341.19 -315.6 M20.02 60.47 C102.06 -33.22, 184.16 -127.53, 345.44 -315.91 M20.14 59.72 C125.6 -59.65, 230.13 -179.85, 345.77 -315.73 M20.47 64.36 C129.46 -61.79, 239.7 -186.72, 350.74 -314.7 M20.69 64.69 C104.09 -28.92, 186.04 -122.6, 350.93 -314.98 M22.92 69.17 C92.76 -11.63, 160.41 -90.39, 356.21 -315.97 M22.43 68.71 C134.25 -59.67, 246.76 -188.23, 356.71 -315.38 M23.21 73.86 C103.71 -17.23, 182.79 -108.92, 362.35 -314.36 M23.47 73.22 C150.41 -71.93, 277.83 -218.22, 361.86 -315.3 M24.63 78.03 C97.27 -5.01, 170.89 -89.13, 367.93 -315.05 M25.77 77.52 C129.76 -42.31, 233.52 -161.68, 366.94 -315.1 M25.76 82.63 C127.53 -32.26, 228.6 -149.3, 371.45 -314.77 M26.68 82.88 C139.44 -48.45, 253.1 -179.14, 371.88 -314.93 M27.46 87.23 C168.94 -72.98, 308.12 -231.79, 377.31 -314.82 M27.94 86.61 C153.42 -58.41, 278.65 -202.96, 378.2 -315.47 M28.75 92.26 C152.45 -50.42, 277.55 -193.58, 382.87 -314.86 M28.88 91.86 C148.03 -44.98, 266.79 -181.83, 382.6 -314.98 M30.6 96.33 C137.97 -28.28, 244.63 -151.94, 387.89 -314.8 M30.57 96.05 C121.46 -6.22, 210.37 -108.45, 388.69 -315.62 M31.72 100.06 C113.36 5.65, 194.73 -88.5, 392.71 -314.97 M32.28 100.62 C135.25 -15.69, 236.58 -133.4, 393.49 -314.91 M34.08 105.01 C172.36 -53, 311.08 -213.06, 399.71 -314.79 M33.97 105.14 C114.84 11.52, 196.98 -82.66, 399.08 -315.26 M35.43 109.48 C181.71 -57.8, 326.71 -225.06, 403.53 -314.54 M34.38 109.81 C114 19.56, 192.07 -69.77, 403.91 -315.38 M36.41 113.88 C153.04 -22.92, 269.69 -157.14, 410.07 -315.65 M36.72 113.6 C165.31 -34.63, 293.99 -182.8, 409.69 -315.86 M37.91 118.12 C154.18 -12.94, 270.4 -146.24, 413.94 -314.47 M37.14 118.34 C122.23 21.15, 207.28 -76.71, 415.07 -315.39 M38.56 122.12 C150.84 -6.77, 263.94 -135.44, 420.69 -315.31 M39.26 122.82 C184.59 -44.06, 329.16 -210.28, 420.14 -315.47 M40.08 128.09 C146.4 7.77, 251.43 -112.69, 425.82 -314.69 M40.19 127.74 C189.4 -41.61, 337.32 -212.21, 425.68 -315.11 M41.57 131.41 C171.58 -17.96, 302.02 -167.02, 430.61 -315.95 M41.9 132.18 C158.39 -4.93, 276.41 -140.11, 431.3 -315.5 M43.28 137.27 C190.55 -35.01, 339.56 -205.66, 435.53 -315.04 M42.83 136.97 C123.7 43.75, 204.2 -49.2, 436.28 -315.5 M44.12 140.39 C184.56 -20.43, 325.66 -181.8, 441.04 -314.46 M44.43 141.12 C123.25 49.92, 202.58 -41.96, 441.05 -314.78 M45.36 146.46 C192.71 -25.6, 340.84 -197.28, 445.86 -315.99 M46.02 146.02 C192.84 -22.17, 337.81 -189.86, 446.5 -315.47 M48.17 150.24 C173.59 8.21, 297.71 -135.61, 450.82 -314.26 M47.3 150.29 C194.05 -17.93, 340.9 -186.58, 451.32 -315.37 M47.79 155.4 C195.28 -15.77, 344.2 -187.09, 457.28 -314.67 M48.81 154.73 C206.74 -28.92, 366.39 -212.52, 457.05 -315.5 M50.15 159.05 C155.39 38.4, 259.4 -82.18, 462.91 -315.17 M50.43 158.79 C211.62 -25.11, 371.78 -209.07, 462.13 -315.22 M51.72 163.57 C194.8 -2.21, 336.73 -166.87, 465.17 -313.04 M51.09 163.94 C208.7 -15.67, 365.57 -195.71, 465.7 -313.39 M52.93 167.49 C163.84 37.13, 276.14 -91.62, 466.14 -307.32 M52.81 167.73 C170.45 33.16, 287.87 -101.96, 465.81 -306.53 M53.97 172.57 C163.66 47.9, 270.64 -76.29, 465.28 -300.44 M54.04 172.75 C166.73 44.63, 279.33 -85.08, 465.28 -300.05 M55.46 176.32 C199.98 8.8, 347.11 -160.12, 464.99 -293.93 M56.1 176.67 C204.84 5.27, 355.4 -168.13, 465.92 -294.88 M57.42 182.18 C192.33 24.4, 328.36 -130.76, 465.74 -288.14 M56.5 182.06 C214.98 0.37, 371.87 -180.55, 465.54 -288 M58.34 185.68 C190.81 34.88, 323.25 -116.54, 465.31 -283.35 M58.62 186.4 C203.21 19.28, 348.9 -148.9, 465.82 -282.86 M58.99 191.07 C196.67 31.66, 335.49 -127.98, 464.98 -276.76 M59.38 191.05 C169.14 63.49, 280.5 -64.42, 465.98 -276.03 M61.45 195.82 C184.17 54.07, 306.92 -85.61, 465.51 -270.03 M61.37 195.33 C176.45 59.66, 292.36 -74.45, 465.01 -269.92 M61.7 199.27 C201.89 42.31, 338.45 -115.87, 465.41 -263.57 M62.07 199.87 C169.23 76.3, 275.18 -46.09, 465.84 -264.08 M64.71 204.74 C159.83 93.98, 256.12 -17.38, 464.8 -258.17 M64.41 203.9 C222.92 23.45, 381.23 -158.88, 465.42 -257.94 M65.8 208.96 C205.29 47.03, 346.49 -114.55, 465.45 -252.07 M65.2 208.55 C200.49 52.87, 334.8 -100.92, 466.24 -252.04 M67.32 213.78 C149.61 118.33, 231.95 24.16, 464.91 -245.16 M66.47 213.4 C156.04 109.38, 246.11 6.47, 465.5 -245.47 M68.02 217.22 C169.23 100.79, 270.64 -14.97, 466.17 -239.29 M67.9 218.14 C157.25 116.37, 246.33 14.69, 465.09 -239.43 M70.13 222 C178.21 93.47, 289.57 -32.48, 465.48 -233.42 M69.36 222.33 C200.98 71.2, 333.09 -80.84, 465.6 -233.64 M70.34 226.51 C190.92 85.44, 314.51 -54.64, 465.04 -227.58 M70.55 227.1 C198.71 76.98, 327.59 -71.01, 465.75 -227.19 M71.67 231.81 C172.97 112.62, 274.17 -4.04, 465.8 -222.41 M71.95 230.84 C222.32 58.69, 371.7 -113.58, 466.16 -221.69 M72.82 235.8 C164.35 130.18, 256.08 24.25, 465.63 -216.09 M73.62 235.74 C229.68 57.67, 384.58 -120.94, 465.47 -215.16 M75.31 240.17 C217.45 76.28, 359.76 -87.77, 464.98 -208.71 M75.37 240.29 C167.29 134.67, 258.9 29.38, 465 -209.13 M75.97 244.61 C201 103.76, 324.24 -38.49, 465.05 -202.99 M76.41 245 C168.55 136.73, 263.23 27.93, 465.65 -203.12 M77.3 248.95 C205.4 105.06, 333.06 -41.35, 465.35 -196.24 M77.84 248.89 C185.11 127.14, 292.95 4.39, 465.22 -196.65 M78.37 253.78 C201.8 114.04, 322.85 -24.4, 465.25 -191.9 M79.12 253.65 C170.87 148.83, 261.56 43.32, 465.93 -191.21 M80.34 257.78 C195.81 126.09, 310.24 -6.19, 466.16 -184.49 M80.62 258.48 C190.99 130.54, 302.26 2.59, 466 -184.49 M82.9 262.36 C215.4 110.22, 346.38 -41.28, 465.19 -179.15 M82.28 261.94 C160.54 171.89, 238.33 83.79, 465.58 -178.78 M83.21 266.41 C217.72 115.12, 350.36 -39.82, 465.35 -172.39 M83.67 266.92 C221.67 105.32, 362.02 -54.91, 465.63 -172.58 M85.36 271.38 C236.5 97.04, 389.06 -76.29, 465.86 -165.62 M85.29 271 C209.86 129.91, 332.79 -11.84, 465.69 -166.23 M86.34 275.55 C225.07 117.7, 363.68 -40.85, 466.13 -161.52 M86 276.51 C165.12 186.07, 243.29 95.38, 466.1 -161.04 M87.16 280.16 C176.3 178.97, 264.09 76.45, 465.55 -154.57 M87.61 280.34 C180.8 172.36, 274.29 64.33, 465.67 -154.03 M89.42 286.02 C216.33 138.04, 346.54 -12.01, 465.92 -148.18 M88.49 285.58 C171.2 188.02, 254.84 92.39, 465.58 -148.2 M90.34 290.09 C192.65 167.77, 297.07 48.67, 466.48 -142.66 M90.52 289.66 C230.62 130.49, 369.76 -29.27, 465.45 -142.22 M92.2 294.81 C206.19 161.3, 321.41 28.33, 466.17 -135.18 M91.9 294.48 C176.55 195.39, 261.11 97.91, 465.5 -135.61 M92.57 298.31 C211.22 163.21, 327.97 27.29, 465.3 -129.65 M93.33 298.48 C225.17 148.32, 354.91 -1.84, 466.02 -129.96 M93.71 303.81 C241.07 134.27, 387.9 -36.33, 466.03 -123.34 M94.04 303.6 C224.56 155.57, 352.63 7.3, 465.39 -123.94 M96.01 308.11 C172.26 218.45, 249.06 130.08, 466.09 -116.77 M96.27 307.36 C170.49 220.24, 245.72 133.72, 465.19 -117.67 M97.82 312.67 C230.65 156.65, 364.5 2.54, 465.76 -112.1 M97.4 312.17 C213.56 179.34, 328.5 47.63, 465.89 -111.58 M101.75 313.13 C237.96 154.01, 376.65 -5.78, 466.17 -105.82 M102.48 312.91 C173.93 227.09, 247.57 143.06, 465.4 -105.57 M107.56 312.13 C206.74 195.47, 306.35 80.81, 465.28 -99.54 M107.81 311.99 C237.46 164.08, 367.82 13.75, 466.12 -99.87 M113.38 312.2 C227.7 180.01, 342.07 48.3, 465.72 -93.75 M112.42 312.64 C246.67 160.03, 380.56 6.11, 465.4 -93.6 M118.25 311.96 C199.44 220.73, 278.55 128.84, 465.93 -87.29 M118.43 312.59 C238.32 174.41, 359.53 35.07, 465.81 -87.2 M122.65 313.11 C227.36 192.94, 330.07 76.04, 466.47 -81.36 M123.5 312.29 C199.53 224.14, 276.41 136.9, 465.66 -81.62 M129.17 311.42 C203.94 223.99, 281.4 136.82, 465.86 -74.67 M128.95 312.1 C203.52 226.29, 278.88 139.58, 465.92 -74.76 M133.55 313.28 C211.04 221.95, 289.29 133.36, 465.4 -70.11 M133.8 312.53 C259.48 168.41, 385.69 23.41, 465.71 -69.05 M139.65 312.31 C233.41 203.89, 328.02 96.86, 464.93 -63 M139.73 312.25 C255.09 178.64, 370.08 47.02, 465.93 -63.27 M144.12 312.27 C214 229.64, 285.8 148.07, 466.14 -55.72 M144.27 312.27 C258.36 179.94, 372.66 48.65, 465.52 -56.12 M149.85 311.72 C264.12 181.66, 376.92 53.46, 466.6 -51.49 M150.65 312.46 C214.35 239.33, 278.62 165.32, 466.04 -50.74 M155.37 312.62 C224.27 232.08, 293.08 151.64, 466.26 -45.03 M155.14 312.26 C222.24 235.04, 288.69 158.57, 465.23 -44.13 M160.01 312.7 C277.21 176.77, 395.57 38.73, 466.58 -38.56 M160.45 312.5 C240.35 222.88, 319.27 132.17, 466.08 -38.57 M165.3 312.51 C277.93 185.41, 388.87 57.17, 465.32 -32.47 M165.43 312.29 C248.38 218.62, 330.31 124.3, 465.86 -32.03 M171.48 311.43 C246.7 225.04, 322.97 137, 466.19 -25.73 M171.81 312.16 C259.61 209.41, 347.57 107.84, 465.29 -26.53 M176.96 313.32 C249.42 229.5, 322.3 145.42, 465.66 -20.82 M176.97 312.37 C239.03 243.81, 300.28 173.06, 465.36 -19.95 M181.91 312.57 C256.57 228.05, 329.97 143.25, 465.72 -14.58 M181.73 311.71 C274.05 205.94, 367.05 99.4, 465.49 -13.89 M186.34 313.25 C252.84 237.61, 319.9 161.74, 464.36 -8.37 M187.37 312.3 C290.06 195.82, 390.82 79.63, 465.08 -7.23 M191.71 311.23 C299.92 186.68, 409.83 59.18, 464.98 -2.6 M192.27 311.56 C257.21 236.48, 323.88 160.8, 465.62 -2.25 M196.89 311.96 C292.04 202.31, 385.05 95.03, 464.43 3.62 M198.21 312.13 C258.7 244.35, 319.66 174.15, 465.31 3.99 M203.78 311.88 C283.64 221.03, 362.05 128.57, 465.19 10.81 M203.5 311.67 C296.55 206.45, 388.31 100.21, 465.85 9.83 M208.88 312.14 C309.16 197.03, 410.15 77.63, 466.24 16.4 M208.65 312.89 C297.11 207.69, 387.4 104.41, 465.69 16.1 M212.7 313.73 C291.52 218.4, 372.07 126.34, 464.28 22.01 M212.86 312.77 C285.14 233.53, 354.65 153.42, 465.86 22.81 M219.6 311.79 C279.32 245.8, 336.76 179.89, 466.21 29.53 M218.98 312.46 C277.32 242.91, 337.87 173.49, 465.16 28.04 M224.14 312.36 C272.03 255.89, 320.93 200.37, 465.08 34.95 M224.13 312.76 C283.22 244.89, 341.96 176.98, 465.57 34.56 M229.14 311.88 C298.23 231.3, 368.17 149.91, 466.52 40.18 M229.02 311.89 C293.24 238.58, 359.18 163.4, 465.44 41.15 M233.63 313.11 C288.9 250.37, 342.92 190.1, 465.56 46.15 M234.88 313.05 C323.52 210.3, 411.04 108.73, 465.4 46.78 M239.69 313.15 C304.52 236.47, 368.7 164.75, 466.57 52.62 M240 312.81 C321.89 218.59, 404.91 122.98, 465.01 53.15 M244.9 312.18 C312.06 236.47, 379.51 158.65, 464.92 59.56 M245.44 312.41 C297.6 253.44, 349.5 194.44, 466.05 58.93 M251.9 311.85 C307.86 247.31, 362.64 183.92, 466.47 64.19 M251.42 312.7 C316.99 235.53, 382.69 160.11, 466.06 65.96 M255.39 313.73 C305.19 255.92, 352.19 199.76, 467.2 70.96 M255.31 312.29 C308.49 252.55, 362.86 189.76, 465.68 70.8 M260.13 311.74 C334.33 228.09, 405.66 144.35, 464.25 78.86 M261.37 311.88 C308.6 256.54, 355.99 201.59, 465.79 77.9 M265.17 312.7 C313.17 256.04, 362.36 203.84, 465.67 82.97 M266.57 312.26 C325.05 244.9, 384.04 176.39, 465.22 84.04 M273.61 312.24 C324.48 250.12, 378.36 188.04, 465.99 88.7 M271.49 311.92 C338.49 236.11, 404.29 159.07, 465.24 89.21 M275.92 312.52 C331.14 251.93, 381.13 192.93, 466.03 95.78 M277.6 311.85 C337.55 241.17, 397.42 171.38, 464.96 95.6 M283.84 312.19 C352.33 230.91, 422.84 148.91, 466.46 101.75 M282.25 312 C355.84 229.79, 426.99 146.33, 465.33 100.99 M286.62 312.76 C342.92 248.61, 398.85 185.52, 464.23 106.88 M287.83 312.96 C341.87 249.06, 395.89 185.47, 465.53 107.25 M294.71 311.3 C331.12 267.25, 369.23 224.26, 463.92 115.57 M293.56 312.41 C362.65 233.95, 431.22 156.55, 465.42 113.74 M297.78 313.18 C333.64 272.49, 370.39 230.56, 465.39 118.47 M298.8 312.95 C355.09 248.34, 411.9 183.3, 465.3 120.63 M303.4 312.02 C368.29 240.82, 430.99 168.8, 465.15 126.87 M303.79 312.34 C357.26 250.06, 409.5 190.42, 464.92 126.52 M310.15 312.1 C354.42 258.55, 401.34 208.75, 466.31 130.84 M308.62 313.03 C352.97 258.83, 398.58 206.31, 465.09 132.25 M314.51 311.45 C351.42 267.9, 388.74 226.35, 463.97 138.11 M315.47 312.18 C347.03 276.51, 379.23 239.27, 464.97 139.12 M319.52 311.41 C371.33 254.53, 425.12 193.57, 465.38 144.51 M319.18 312.97 C372.36 250.46, 426.38 188.68, 465.29 144.54 M325.49 312.77 C358.48 273.62, 392.49 234.07, 464.75 149.79 M324.61 311.15 C358.76 272.83, 394.09 234.36, 465.58 149.62 M331.95 311.74 C363.26 272.18, 394.37 237.82, 463.88 155.32 M330.57 311.66 C381.47 252.72, 431.88 193.58, 465.91 157.55 M334.33 313.71 C382.64 256.81, 432.33 203.24, 467.3 162.77 M336.92 311.55 C369.97 271.72, 404.67 233.2, 465.51 163.23 M341.63 310.29 C377.13 271.56, 413.85 227.23, 463.88 167.71 M341.72 311.53 C369.93 280.56, 396.16 248.41, 464.9 168.81 M346.06 310.26 C381.72 270.25, 417.64 227.89, 466.67 173.29 M347.46 311.03 C379.83 274.84, 414.18 235.57, 464.34 176.17 M353.39 310.51 C382.83 275.41, 415.34 236.63, 466.38 179.84 M350.78 312.85 C377.61 282.52, 403.94 252.2, 465.82 181.9 M358.97 312.35 C386.56 278.25, 418.18 242.19, 465.76 187.33 M357.95 312.31 C396.55 268.44, 432.52 226.34, 466.32 187.9 M363.03 312.02 C395.17 276.76, 424.17 240.91, 466.75 192.54 M362.83 311.56 C385.58 285.86, 406.95 259.97, 466.66 193.41 M366.51 313.08 C387.77 286.83, 407.11 265.02, 465.81 199.57 M368.36 310.83 C395.17 278.75, 424.08 246.5, 465.43 199.32 M374.33 312.88 C394.57 285.55, 417.74 264.29, 465.06 204.92 M372.54 312.74 C394.98 287.55, 416 261.62, 465.84 206.16 M379.27 310.95 C409.53 275.15, 442.45 239.66, 466.87 212.28 M377.85 311.57 C411.81 274.04, 444.48 237.67, 464.95 210.65 M385.21 311.5 C409.11 281.58, 430.91 254.4, 466.48 217.16 M383.27 311.56 C400.46 291.82, 419.3 271.71, 465.93 217.26 M390.35 312.53 C410.22 285.97, 431.89 263.61, 465.14 222.08 M389.08 312.88 C407.5 290.56, 426.07 268.81, 465.87 223.19 M393.74 312.6 C419.91 285.7, 445.42 255.67, 467.41 229.05 M394.08 312.25 C414.86 286.34, 438.56 260.4, 464.73 229.7 M399.96 311.47 C416.35 291.49, 435.71 272.97, 466.33 234.69 M399.87 312.4 C423.96 282.32, 449.91 253.88, 465.18 237.09 M404.17 313.29 C422.15 289.28, 442.34 267.66, 464.02 242.98 M404.65 311.13 C427.5 285.13, 450.46 259.31, 464.83 242.28 M409.51 311.04 C423.25 294.54, 439.67 274.35, 466.26 247.91 M410.21 312.62 C424.26 295.09, 439.1 279.56, 465.49 247.3 M416.87 312.98 C435.3 287.43, 454.71 268.05, 465.01 255.42 M414.38 311.62 C429.86 294.63, 444.49 278.93, 465.34 254.12 M422.22 311.08 C432.89 297.06, 446.07 283.74, 464.96 262.12 M419.97 312.85 C437.46 292.65, 453.57 275.19, 466.15 261.11 M426.4 311.45 C433.55 299.68, 443.75 289.38, 464.18 267.94 M425.3 311.18 C434.23 301.67, 441.99 292.29, 465.54 266.66 M432.47 310.79 C442.01 300.16, 451.93 291.58, 467.24 271.33 M431.13 312.98 C442.97 297.03, 455.62 283.85, 464.82 272.14 M435.47 310.81 C447.86 298.37, 458.51 284.44, 466.53 277.71 M437.15 312.36 C446.25 300.65, 456.27 288.58, 465.89 279.21 M439.78 310.71 C447.35 304.77, 452.02 298.6, 463.44 286.63 M440.9 312.48 C450.38 301.62, 459.17 290.85, 465.16 284.84 M448.93 313.53 C450.03 305.06, 455.04 303.27, 464.89 292.48 M446.31 311.81 C452.75 304.38, 459.88 297.78, 465.68 290.85 M450.85 310.71 C455.12 309.47, 460.01 305.37, 466.01 299.18 M452.62 311.41 C456.44 308.3, 460.06 302.35, 464.5 296.47 M459.02 312.21 C459.78 308.67, 461.09 306.79, 465.43 301.95 M458.46 311.49 C459.99 308.45, 463.19 305.45, 465.52 302.51" stroke="#42a5f5" stroke-width="0.5" fill="none"/><path d="M-0.25 -0.48 C59.41 -115.26, 121.57 -227.62, 170.73 -316.12 M-0.34 0.6 C42.37 -77.3, 84.31 -155.85, 170.91 -315.45 M169.97 -314.7 C270.9 -316.16, 369.46 -314.23, 462.73 -316.54 M170.92 -315.13 C249.31 -316.57, 326.17 -317.23, 463.47 -315.28 M463.06 -314.6 C463.39 -85.38, 462.5 143.26, 463.17 310.35 M462.81 -315.07 C463.29 -162.18, 463.49 -9.84, 462.77 311.25 M462.39 309.67 C384.99 309.52, 306.17 309.13, 95.43 311.13 M463.24 311.45 C357.87 311.7, 253.11 312.15, 96.07 311.67 M94.63 312.41 C65.66 211.24, 33.12 108.75, -0.32 1.05 M95 311.3 C72.13 235.65, 48.08 159.85, 0.27 0.53 M0 0 C0 0, 0 0, 0 0 M0 0 C0 0, 0 0, 0 0" stroke="#42a5f5" stroke-width="1" fill="none"/></g></g><g stroke-linecap="round"><g transform="translate(11.187984939447347 326.8431850351879) rotate(0 271.28821958335726 -157.24033748684147)" fill-rule="evenodd"><path d="M0.57 -314.85 C0.57 -314.85, 0.57 -314.85, 0.57 -314.85 M0.57 -314.85 C0.57 -314.85, 0.57 -314.85, 0.57 -314.85 M-0.34 -309.11 C1.81 -309.73, 2.89 -311.26, 6.08 -314.91 M0.07 -308.51 C2.4 -310.48, 4 -312.8, 5.58 -314.8 M0.13 -302.27 C4.19 -307.52, 9.1 -309.79, 9.47 -312.7 M-0.29 -302.35 C1.9 -305.88, 5.54 -307.47, 10.08 -314.21 M2.16 -295.9 C3.27 -299.99, 8.25 -306.02, 17.25 -316.1 M1.4 -296.03 C5.93 -303.65, 11.52 -309.74, 15.95 -314.65 M1.88 -288.53 C6.82 -293.95, 10.7 -302.3, 21.26 -314.94 M0.9 -290.8 C7.41 -298.31, 15.16 -308.2, 20.76 -314.78 M-1.49 -283.84 C7.48 -294.14, 17.46 -302.26, 25.25 -313.73 M-0.53 -284.28 C5.83 -291.4, 11.99 -296.82, 27.65 -314.29 M-0.09 -276.67 C9.76 -289.25, 15.58 -295.69, 32.3 -313.63 M1.08 -277.64 C9.49 -289.27, 18.32 -298.03, 30.91 -314.91 M-0.86 -272.41 C8.87 -284.26, 21.01 -294.11, 38.4 -313.66 M0.64 -272.11 C14.26 -288.86, 30.61 -305.5, 38.27 -314.2 M-0.33 -267.83 C14.83 -281.48, 26.98 -296.73, 41.71 -314.24 M-0.22 -266.02 C15.38 -282, 28.34 -297.63, 41.94 -314.22 M0.64 -258.56 C13.4 -273.24, 25.1 -287.68, 48.42 -314.77 M-0.17 -259.44 C14.2 -275.74, 28.22 -293.54, 49.03 -315.31 M-1.93 -252.01 C14.78 -266.99, 28.27 -285.71, 54.02 -313.21 M-0.37 -253.19 C12.71 -267.33, 23.58 -279.88, 52.53 -314.75 M1.42 -246.62 C14.4 -263.84, 31.46 -284.07, 57.15 -315.61 M-0.22 -247.34 C11.3 -260.86, 23.89 -275.11, 57.81 -314.5 M0.18 -241.15 C19.11 -261.31, 36.23 -280.77, 64.9 -315.67 M-0.11 -240.6 C25.01 -269.43, 49.56 -299.16, 63.54 -313.94 M-0.96 -233.57 C19.06 -255.32, 32.43 -273.85, 70.62 -316.36 M1.4 -236.35 C22.3 -260.19, 44.6 -285.61, 70.18 -315.56 M1.21 -230.55 C23.57 -259.14, 47.44 -287.98, 75.22 -313.39 M-0.46 -228.34 C20.44 -252.89, 42.25 -277.91, 74.98 -313.67 M-0.45 -222.32 C29.45 -256.53, 59.67 -291.75, 81 -312.88 M0.13 -222.64 C28.07 -253.4, 54.58 -284.23, 80.39 -314.18 M-0.79 -215.95 C31.2 -254.37, 61.34 -287.03, 84.96 -314.81 M0.87 -217.17 C21.4 -243.4, 43.54 -267.27, 85.07 -315.24 M-1.84 -210.68 C27.2 -244.18, 57.74 -275.31, 88.62 -314.68 M-0.45 -210.09 C28.52 -241.97, 55.74 -275.35, 90.34 -315.02 M0.4 -206.73 C30.25 -237.69, 59.52 -271.05, 95.29 -315 M-0.13 -204.81 C23.53 -232.33, 48.37 -260.57, 95.17 -314.37 M1.24 -196.85 C21.45 -228.58, 48.03 -255.43, 99.96 -314.92 M0.43 -198.71 C30.76 -236.74, 63.99 -272.75, 100.61 -314.62 M0.47 -191.16 C40.3 -240.23, 84.71 -288.06, 106.52 -313.71 M0.52 -192.11 C38.31 -233.49, 73.89 -277.33, 106.82 -314.2 M-1.03 -188.45 C22.22 -214.66, 49.27 -241.09, 113.66 -316.42 M0.38 -186.72 C24.91 -214.86, 49.6 -244.38, 111.46 -314.45 M1.26 -181.47 C33.88 -219.5, 69.38 -256.5, 116.12 -313.35 M0.44 -181.12 C24.24 -208.34, 49.13 -237.08, 116.74 -314.28 M-1.3 -175.76 C36.73 -215.61, 71.04 -254.98, 121.87 -312.91 M0.17 -174.73 C40.63 -221.56, 82.55 -269.92, 121.16 -313.17 M0.77 -167.24 C49.56 -224.1, 96.82 -278.35, 128.71 -312.95 M-0.02 -167.54 C27.74 -201.5, 54.4 -231.41, 127.82 -313.61 M-1.56 -161.04 C45.38 -216.38, 91.71 -268.9, 131.01 -314.04 M0.08 -162.01 C44.87 -214.93, 91.42 -266.7, 131.7 -314.55 M1.67 -156.43 C33.87 -193.52, 69.07 -235.25, 138.08 -314.28 M-0.15 -156.67 C49.25 -212.32, 98.35 -269.17, 138.11 -313.7 M-1.16 -150.94 C39.5 -195.65, 77.84 -243.33, 143.06 -314.73 M-0.35 -150.5 C52.29 -210.17, 103.84 -269.41, 143.4 -314.22 M1.32 -144.74 C32.75 -183.56, 68.23 -224.02, 149.09 -315.45 M1.08 -144.06 C50.44 -201.34, 101.17 -258.46, 147.97 -314.98 M1.72 -136.06 C29.88 -174.44, 61.85 -211.43, 153.74 -312.94 M0.28 -137.63 C42.63 -187.95, 85.51 -237.5, 153.6 -315.05 M0.08 -132.65 C38.37 -179.04, 78.43 -222.5, 159.92 -314.12 M0.44 -131.01 C39.76 -176.27, 79.43 -221.17, 158.58 -315.12 M0.3 -124.1 C39.58 -171.06, 80.59 -216.89, 164.35 -313.07 M-0.21 -125.39 C40.57 -172.46, 81.24 -217.62, 163.77 -314.57 M-1.28 -119.21 C60.13 -188.44, 120.08 -256.69, 171.58 -315.09 M0.68 -119.11 C52.89 -179.39, 103.06 -237.8, 169.54 -314.77 M0.61 -112.87 C58.49 -182.09, 121.68 -252.19, 176.14 -313.96 M1.17 -113.53 C62.25 -185.37, 126.5 -257.76, 174.92 -314.48 M-0.65 -105.92 C37.52 -152.38, 76.16 -194.12, 179.66 -315.3 M0.63 -106.84 C57.8 -176.77, 116.46 -244.2, 181.37 -314.83 M-1.01 -101.7 C48.84 -157.4, 97.18 -211.82, 185.73 -314.32 M-0.4 -101.37 C72.05 -184.5, 143.67 -268.28, 185.4 -314.69 M-0.02 -94.48 C37.91 -141.89, 76.46 -186.12, 191.67 -315.56 M0.32 -95 C47.73 -151.09, 95.93 -204.7, 191.69 -314.15 M-0.59 -89.69 C40.67 -132.21, 78.38 -178.77, 196.22 -314.26 M0.31 -88.6 C46.47 -145.7, 95.26 -201.21, 196.48 -314.33 M1.88 -81.77 C69.26 -160.27, 135.83 -239, 200.52 -315.62 M1.01 -83.47 C78.69 -175.01, 158.81 -268.01, 202.16 -314.92 M1.5 -75.93 C65.94 -153.77, 133.63 -229.21, 206.12 -313.63 M-0.27 -76.01 C63.25 -150.25, 126.74 -224.65, 206.88 -314 M-1.35 -69.68 C68.52 -148.43, 137.47 -227.64, 213.4 -315.69 M-0.59 -69.95 C48.08 -123.27, 93.92 -176.85, 212.93 -314.46 M-0.56 -63.45 C59.85 -134.49, 119.66 -205.15, 217.02 -313.44 M0.96 -64.56 C70.22 -143.76, 137.65 -222.98, 218.03 -314.86 M0.15 -57.74 C68.8 -137.53, 137.47 -217.27, 223.88 -315.1 M-0.3 -57.94 C80.86 -150.91, 162.57 -245, 223.61 -314.76 M-0.47 -51.37 C61.09 -121.86, 121.43 -191.27, 229.02 -314.31 M0.84 -52.71 C58.06 -118.53, 116.53 -185.22, 227.64 -313.9 M-0.98 -45.85 C77.22 -136.99, 155.06 -224.66, 232.97 -312.91 M0.27 -45.76 C92.47 -150.24, 182.98 -255.52, 233.29 -313.83 M0.92 -38.56 C84.9 -139.05, 171.34 -237.91, 239.81 -315.31 M-0.08 -39.29 C65.97 -114.95, 130.37 -189.24, 238.6 -314.2 M-0.51 -33.11 C67.63 -113.26, 136.11 -190.51, 244.13 -314.61 M0.07 -34.4 C66.48 -110.33, 132.72 -186.42, 243.8 -313.62 M0.59 -27.81 C52.11 -87.36, 104.15 -146.11, 248.74 -315.41 M0.03 -28.13 C97.81 -139.87, 193.42 -249.55, 248.95 -314.66 M-0.67 -20.95 C79.37 -114.28, 160.86 -208.96, 253.29 -313.71 M1.01 -22.31 C68.91 -101.03, 137.71 -180.29, 253.85 -314.58 M0.7 -15.23 C81.89 -110.94, 163.07 -204.02, 259.96 -314.74 M-0.09 -15.46 C92.55 -123.33, 184.14 -228.74, 260.28 -314.91 M0.62 -8.48 C73.62 -92.34, 142.98 -174.03, 265.03 -313.69 M0.43 -9.07 C73.55 -92.65, 146.59 -176.28, 264.69 -314.58 M-0.16 -4.04 C94.44 -112.7, 190.09 -223.26, 271.52 -315.4 M0.78 -3.43 C57.04 -67.28, 111.48 -130.42, 271.01 -314.61 M0.8 1.59 C67.21 -76.06, 135.65 -154.47, 276.22 -313.49 M1.81 0.98 C77.07 -84.85, 151.4 -171.63, 275.31 -314.75 M6.49 2.25 C80.11 -83.09, 154.3 -169.12, 281.91 -313.71 M6.51 1.82 C92.16 -95.86, 178.21 -195.26, 281.74 -314.98 M11.03 0.34 C121.23 -121.96, 227.66 -243.54, 286.93 -313.56 M11.9 1.03 C86.41 -81.59, 158.57 -164.44, 286.49 -314.2 M15.99 2.53 C120.28 -115.55, 220.28 -232.28, 292.94 -314.52 M16.66 1.05 C104.61 -100.14, 192.96 -203.33, 292.32 -315.03 M22.73 2.11 C122.59 -111.51, 219.45 -223.54, 296.71 -314.76 M22.41 1 C119.71 -110.94, 216.99 -223.03, 296.98 -313.85 M28.57 1.32 C92.63 -71.66, 155.04 -143.31, 302.16 -314.92 M27.53 1.26 C90.91 -70.68, 154.44 -143.54, 302.38 -314.24 M32.31 1.28 C94.54 -66.6, 152.67 -134.71, 307.85 -315.06 M33.03 0.8 C102.56 -78.43, 173.13 -159.23, 307.22 -314.85 M38.96 0.73 C94.67 -60.95, 149.86 -125.23, 312.58 -314.01 M38.52 1.79 C117.46 -91.1, 198.17 -182.86, 313 -314.23 M43.8 0.98 C143.11 -114.13, 242.49 -228.25, 317.9 -314.92 M43.8 1.5 C150.51 -120.61, 256.76 -243.8, 317.72 -314.83 M47.87 2.5 C128.78 -87.65, 206.74 -179.28, 322.99 -313.9 M49.11 1.24 C134.45 -97.87, 221.17 -197.28, 324.02 -314.95 M54.86 1.29 C111.06 -64.03, 166.49 -127.79, 329.32 -314.09 M54.59 1.49 C158.89 -119.46, 263.68 -240.05, 328.58 -314.87 M58.75 0.52 C135.35 -84.31, 209.72 -171.56, 335.51 -314.37 M59.43 1.16 C162.9 -116.58, 265.58 -235.84, 334.56 -315.24 M64.3 0.37 C136.87 -79.02, 208.06 -161.68, 339.85 -314.81 M65.63 1.35 C167.11 -117.95, 270.06 -235.98, 339.96 -314.64 M70.35 1.18 C124.6 -61.46, 181.3 -125.85, 345.88 -313.96 M69.68 1.32 C152.46 -91.88, 233.75 -186.04, 344.64 -314.42 M75.32 1.88 C151.53 -85.63, 227.9 -172.42, 349.95 -314.31 M75.9 1.2 C162.28 -96.7, 247.34 -194.73, 350.52 -314.08 M79.85 0.9 C159.7 -88.56, 235.75 -176.94, 354.65 -314.54 M80.68 1.21 C183.82 -116.18, 284.96 -232.19, 355.06 -314.27 M85.83 1.12 C170.03 -96.9, 255.02 -192.85, 359.67 -314.47 M86.89 1.16 C151.27 -76.52, 217.61 -151.72, 361.16 -314.92 M90.45 2.16 C147.03 -61.54, 203.43 -126.38, 366.56 -314.73 M91.24 1.74 C155.07 -72.77, 219.33 -146.52, 365.18 -313.92 M98.13 1.06 C160.43 -74.63, 225.11 -148.51, 371.81 -314.29 M96.67 0.88 C158.11 -71.42, 220.43 -142.67, 371.25 -314.86 M101.66 1.73 C157.15 -63.27, 212.1 -127.78, 376.94 -314.94 M101.83 1.44 C209.95 -122.21, 317.65 -246.68, 375.99 -314.51 M107.06 0.58 C175.4 -78.69, 244.92 -158.25, 382.27 -315.27 M108.01 1.11 C172.99 -72.78, 237.54 -147.52, 382.42 -314.5 M112.54 0.31 C169.93 -62.34, 224.34 -125.78, 386.19 -315.13 M113.02 1.27 C197.56 -93.26, 281.75 -190.21, 386.8 -314.13 M118.31 -0.19 C219.73 -115.55, 318.39 -229.29, 391.88 -313.92 M118.1 1.06 C185.1 -74.33, 251.03 -150.21, 392.6 -314.64 M122.77 1.48 C197.95 -84.96, 274.29 -170.6, 397.98 -315.05 M122.8 0.93 C204.12 -90.68, 282.92 -181.56, 397.28 -314.06 M127.98 1.2 C211.86 -94.05, 295.69 -190.06, 403.15 -315.65 M128.79 1.02 C220.47 -103.78, 310.73 -208.33, 403.07 -314.74 M133.73 2.03 C236.23 -119.11, 339.44 -238.23, 407.5 -315.33 M133.55 1.48 C192.29 -68.46, 252.15 -137.3, 408.02 -313.92 M138.7 -0.11 C196.42 -67.48, 256.36 -133.79, 412.78 -314.44 M139.61 0.82 C249.31 -122.5, 357.15 -247.39, 413.57 -314.45 M145.26 1.6 C207.78 -69.51, 269.46 -140.96, 419.65 -314.28 M145.04 1.61 C206.42 -69.49, 268.84 -140.22, 418.86 -314.34 M149.95 -0.21 C248.44 -113.37, 348.36 -225.12, 423.46 -315.36 M150.47 0.29 C212.4 -73.74, 275.29 -147.04, 423.94 -314.21 M154.62 1.65 C266.42 -124.03, 375.67 -249.42, 428.72 -315.41 M155 1.39 C210.75 -63.67, 266.08 -128.26, 429.49 -314.34 M161.3 1.75 C217.6 -67.95, 274.81 -133.42, 434.19 -314.15 M161.07 0.94 C231.19 -78.71, 298.84 -156.93, 434.64 -314.66 M166.12 0.04 C232 -77.67, 301.13 -156.21, 440.87 -313.43 M166.08 0.68 C247.98 -92.13, 330.74 -187.94, 439.95 -313.93 M171.34 0.4 C275.16 -118.65, 379.12 -237.66, 445.68 -315.51 M171.5 1.11 C272.18 -112.21, 370.73 -226.33, 446.25 -315.08 M177.17 0.74 C282.77 -121.64, 392.04 -247.21, 451.61 -314.68 M176.72 0.71 C236.93 -68.76, 298.31 -139.27, 451.19 -314.73 M183.03 0.18 C254.86 -83.29, 325.1 -164.88, 457.11 -314.83 M181.66 0.78 C260.79 -90.69, 340.44 -182.59, 456.72 -314.97 M187.96 2 C247.28 -66.59, 308.55 -134.02, 461.91 -314.6 M187.06 1.41 C279.04 -103.81, 369.75 -208.57, 461.28 -313.98 M191.9 1.45 C302.84 -126.3, 411.69 -251.11, 466.54 -313.52 M192.87 1.03 C268.67 -82.54, 341.89 -168.51, 466.68 -313.82 M198.23 1.69 C301.41 -117.27, 402.85 -234.41, 472.82 -313.79 M197.36 0.88 C293.78 -108.33, 390.37 -218.49, 472.44 -314.81 M204.3 1.52 C295.99 -106.5, 390.81 -212.82, 476.79 -314.55 M203.08 0.31 C294.25 -103.23, 386.02 -208.77, 477.21 -313.64 M208.31 0.59 C283.7 -87.7, 359.82 -173.11, 482.24 -314.81 M208.48 1.28 C280.01 -81.23, 350.43 -163.3, 482.91 -314.94 M214.85 0.03 C307.12 -105.92, 403.32 -214.36, 488.23 -314.68 M213.82 0.36 C277.26 -72.68, 341.63 -146.7, 487.49 -313.84 M218.12 1.24 C279.17 -67.01, 337.36 -135.85, 492.48 -314.7 M219.24 0.8 C326.87 -123.25, 435.34 -246.86, 492.94 -314.73 M224.7 0.03 C307.64 -93.56, 387.91 -188.37, 498.23 -314.99 M224.27 0.23 C311.82 -99.56, 398.68 -199.63, 498.03 -313.76 M230.32 0.47 C299.61 -77.1, 366.48 -156.46, 504.82 -314.57 M230.16 0.6 C326.34 -112.05, 423.62 -223.6, 504.21 -314.48 M236.17 0.46 C289.13 -63.88, 345.74 -127.16, 508.01 -314.77 M235.07 0.12 C301.97 -79.49, 371.15 -158.63, 508.32 -314.56 M240.69 1.22 C318.01 -91.5, 398.14 -184.37, 514.21 -314.3 M240.76 1.09 C318.74 -90.2, 398.61 -181.59, 514.97 -315.01 M245.18 -0.63 C320.85 -85.35, 392.97 -171.32, 519.38 -314.75 M245.6 0.79 C329.68 -95.79, 412.14 -190.78, 519.57 -314.42 M249.9 0.68 C314.47 -74.54, 378.72 -146.76, 525.34 -315.72 M251.22 0.33 C308.57 -64.89, 366.94 -132.17, 524.95 -314.93 M257.46 1.44 C321.61 -73.27, 386.4 -149.32, 529.44 -313.85 M256.67 0.91 C324.6 -78.74, 392.35 -156.58, 529.85 -314.4 M262.5 0 C322.48 -72.05, 385.03 -142.55, 536.55 -315.11 M261.8 0.94 C340.04 -88.73, 419.57 -179.97, 535.83 -314.44 M268.02 -0.3 C336.17 -78.54, 407.28 -158.14, 540.17 -314.56 M266.78 0.8 C342.99 -84.97, 417.69 -172.55, 541.09 -314.76 M272.9 1.05 C381.52 -123.28, 489.56 -247.97, 545.35 -312.75 M272.3 1.05 C366 -108.1, 460.78 -217.09, 544.44 -312.5 M277.35 0.29 C377.43 -115.93, 478.1 -231.75, 535.86 -298.15 M278.01 0.83 C349.5 -79.72, 420.81 -161.99, 535.91 -296.97 M283.74 1.08 C363.92 -92.61, 446.59 -185.84, 527.72 -280.56 M282.62 0.08 C375.27 -105.96, 467.12 -211.61, 528.04 -280.36 M288.22 -0.25 C361.62 -88.01, 437.29 -172.47, 518.55 -264.46 M287.82 0.87 C367.33 -91.34, 448.28 -183.95, 519.04 -264.53 M293.63 -0.11 C378.78 -97.24, 461.96 -196.73, 509.71 -249.17 M293.33 0.8 C338.68 -51.97, 384.37 -105.1, 511.12 -249.35 M297.77 -0.78 C354.03 -64.14, 408.81 -126.28, 501.51 -231.86 M298.76 0.77 C362.37 -71.67, 424.42 -144.77, 501.27 -233.22 M303.05 -0.27 C377.21 -82.94, 452.06 -171.22, 492.43 -218.65 M303.94 0.21 C352.14 -54.73, 400.68 -111.49, 493.37 -216.88 M308.26 -0.93 C352.3 -50.87, 395.12 -98.61, 484.21 -202.35 M309.51 -0.41 C373.8 -72.92, 437.23 -146.28, 484.79 -200.92 M313.75 1.65 C370.88 -61.9, 423.38 -122.99, 475.2 -184.64 M314.71 0.22 C376.09 -67.95, 433.86 -136.42, 475.93 -184.98 M321.32 0.07 C378.85 -62.45, 435.32 -127.83, 469.6 -169.9 M320.51 -0.37 C356.26 -40.83, 393.15 -83.53, 468.68 -170.39 M323.77 -0.76 C361.81 -42.43, 397.21 -83.65, 459.4 -152.37 M326.14 0.45 C372.89 -56.95, 421.27 -111.23, 458.77 -152.77 M331.79 1.82 C357.52 -30.75, 387 -64.78, 450.91 -139.17 M330.07 -0.63 C364 -37.68, 398.39 -76.36, 450.11 -137.63 M335.36 0.57 C358.93 -27.43, 384.54 -53.4, 442.58 -122.03 M336.15 -0.06 C368.6 -35.77, 401.69 -74.85, 441.92 -121.93 M342.67 -0.47 C367.06 -27.7, 392.04 -60.24, 432.28 -107.06 M340.96 1.05 C368.76 -32.43, 398.55 -66.27, 433.81 -105.06 M346.56 -0.77 C370.21 -26.65, 392.16 -51.85, 425.96 -87.48 M346.3 0.21 C365.66 -21.71, 386.06 -43.69, 425.34 -89.63 M354.12 -1.03 C366.37 -13.66, 376.37 -30.54, 418.29 -74.78 M351.76 -0.21 C377.42 -28.85, 402.01 -57.96, 416.2 -73.85 M356.03 1.28 C372.46 -18.41, 389.16 -37.45, 407.19 -56.06 M357.72 0.35 C369.56 -15.59, 383.19 -29.53, 407.47 -56.97 M364.33 -1.69 C370.4 -8.01, 378.61 -15.6, 401.06 -40.87 M363.73 0.87 C371.61 -10.97, 382.49 -22.53, 400.42 -41.26 M369.77 0.3 C373.14 -5.67, 378.93 -15.41, 390.05 -26.67 M367.6 0.07 C377.27 -9.91, 386.51 -21.36, 390.49 -25.75" stroke="#ef5350" stroke-width="0.5" fill="none"/><path d="M1.13 0.7 C79.03 -0.65, 157.85 -0.25, 374.78 -1.43 M0.3 -0.59 C136.77 -1.2, 273.05 -2.24, 374.21 -1.56 M373.96 -1.68 C416.65 -79.92, 458.75 -158.85, 543.79 -313.81 M374.14 -1.01 C436.5 -115.51, 497.85 -230.89, 542.95 -313.98 M542.43 -315.16 C393.57 -312.47, 245.74 -312.7, 0.73 -313.92 M542.83 -314.48 C334.59 -314.82, 126.01 -314.77, 0.59 -314.18 M0.9 -315.47 C-1.17 -209.26, 0.46 -104.99, 0.99 -3.58 M0.19 -313.87 C1.57 -190.5, 1.92 -67.03, -0.47 -3.57 M0.16 -4.02 C0.13 -2.61, 0.29 -1.73, 0.35 -0.01 M0.36 -3.85 C0.23 -2.95, -0.04 -2.03, 0.16 0.09" stroke="#ef5350" stroke-width="1" fill="none"/></g></g><g stroke-linecap="round"><g transform="translate(14.074836785192474 328.717299981286) rotate(0 231.26753213617835 154.01760186360875)" fill-rule="evenodd"><path d="M0 0 C0 0, 0 0, 0 0 M0 0 C0 0, 0 0, 0 0 M-0.84 6.91 C1.44 3.74, 3.78 3.16, 6.43 -0.35 M0.09 6.8 C1.12 4.88, 2.9 2.97, 5.9 -0.58 M0.81 13.46 C2.07 8.8, 5.35 6.26, 10.07 1.34 M-0.17 12.15 C4.06 7.41, 7.6 4.06, 9.89 0.73 M-1.21 18.18 C5 11.93, 9.53 6.05, 16.33 1.27 M0.42 17.73 C5.87 10.87, 12.64 4.36, 16.07 0.29 M-1.19 23.86 C3.67 17.98, 9.7 12.15, 19.8 -1.48 M-0.34 25.31 C5.25 18.14, 11.54 9.68, 20.71 -0.52 M-0.56 31.62 C8.08 24.05, 11.82 16.39, 27.61 -0.87 M-0.42 30.96 C9.87 19.71, 19.33 7.57, 27.19 0.3 M-0.9 38.65 C8.71 23.37, 20.45 14.07, 32.3 -1.02 M0.62 36.9 C8.64 28.01, 17.47 17.77, 32.3 0.49 M0.58 44.57 C10.88 33.25, 18.89 23.15, 39.38 -1.28 M-0.24 43.21 C6.59 34.28, 15.08 24.63, 38.51 -1.17 M-0.52 50.24 C10.96 34.51, 23.66 21.02, 42.48 0.32 M-0.17 49.36 C14.72 31.56, 29.46 15.5, 43.07 -0.5 M-1.29 54.63 C16.55 36.25, 28.87 18.3, 47.11 -2.38 M-0.18 54.61 C17.23 35.55, 33.28 14.58, 48.52 -0.83 M-1.13 62.83 C13.72 42.76, 29.8 26.55, 53.74 0.93 M0.09 60.79 C17.26 39.65, 35.57 19.45, 53.69 -0.72 M0.03 67.61 C16.37 46.49, 36.31 22.93, 57.61 -0.45 M0.04 67.48 C16.9 47.35, 35.01 27.24, 58.29 -0.74 M-2.47 72.52 C21.98 48.45, 43.64 21.21, 63.82 -1.63 M-1.29 73.71 C24.84 43.99, 49.75 15.89, 63.9 0.74 M-0.26 81.43 C15.69 60.95, 29.42 46.31, 71.07 0.41 M-1.59 79.27 C15.86 62.85, 31.14 45.07, 68.49 -1.26 M-1.55 86.59 C28.83 55.38, 57.26 20.73, 74.81 -0.62 M-2.03 87.32 C24.09 59.38, 47.91 30.98, 73.51 -0.04 M-0.63 93.44 C23.76 65.29, 48.66 37.92, 78.97 -1.75 M-0.96 92.91 C27.66 59.92, 55.77 27.7, 80.36 -0.09 M-1.44 99.45 C24.24 69.53, 48.72 42.49, 83.13 -2.18 M-0.63 98.47 C24.44 70.01, 51.05 40.5, 85.44 -0.79 M-1.17 104.14 C30.14 66.27, 63.25 29.37, 90.18 -0.73 M-0.9 105.48 C17.95 81.91, 37.2 60.15, 90.69 -1.26 M-1.81 111.93 C29.94 74.85, 60 41.56, 97.56 0.73 M0 109.95 C36.62 68.55, 74.68 26.12, 96.64 -0.08 M0.33 116.94 C27.96 84.29, 60.38 50.7, 100.89 -0.17 M-0.18 116.94 C35.63 76.24, 71.89 34.08, 100.89 -0.12 M-3 123.03 C32.12 84.88, 62.24 46.79, 105.21 -1.71 M-0.48 123.22 C22.59 98.08, 42.88 73.31, 107.18 -0.3 M-1.54 128.64 C30.65 92.13, 63.01 52.9, 112.63 0.45 M-0.46 129.74 C25.77 99.48, 51.59 68, 111.92 -0.37 M-2.04 133.62 C23.86 108.59, 47.69 79.45, 117.54 -2.15 M-0.84 135.15 C26.21 104.52, 54.54 72.54, 117.2 -0.68 M0.14 141.23 C31.47 103.5, 68.61 60.57, 122.29 -0.2 M-1.33 141.46 C41.33 94.56, 82.41 44.75, 123.34 -1 M-2.57 149.01 C45.49 97.73, 91.65 44.15, 128.37 -2.09 M-1.26 147.55 C41.79 98.28, 86.38 48.46, 127.9 -0.26 M0.4 153.61 C33.44 112.76, 69.85 72.61, 132.22 0.54 M-1.32 153.64 C36.81 109.84, 74.86 66.61, 132.36 -1.3 M-2.73 158.86 C31.22 125.83, 63.08 88.06, 139.63 -1.7 M-2.23 159.94 C29.87 122.91, 62.07 85.9, 138.52 -0.87 M-2.32 164.22 C30.04 133.18, 57.72 100.71, 143.65 0.01 M-0.91 165.23 C37.06 122.73, 74.55 79.34, 144.31 -0.22 M-0.22 171.98 C42.64 120.42, 86.87 71.68, 148.48 1.04 M-1.98 172.1 C58.53 105.37, 117.33 37.15, 149.47 -0.41 M-1.32 177.96 C44.61 123.46, 90.74 72.69, 155.55 -0.75 M-1.38 179.05 C31.91 141.72, 64.56 102.43, 154.91 -0.38 M-0.51 185.27 C49.33 123.16, 102.49 62.81, 159.06 -0.56 M-1.68 184.72 C62.03 113.6, 124.58 40.27, 159.39 -1.07 M-1.38 191.34 C51.9 129.51, 107.74 67.1, 166.48 -2.29 M-1.91 191.43 C49.76 132.81, 98.64 75.26, 165.8 -0.3 M-3.36 198.21 C49.83 135.84, 104.68 76.28, 170.55 -0.42 M-1.04 197.7 C58.73 128.4, 117.45 60.84, 169.6 0.15 M-1.08 203.49 C52.76 141.96, 104.95 80.88, 176.19 -1.82 M-1.8 203.72 C65.19 127.04, 133.25 50.37, 176.5 -0.53 M-3.17 209.46 C62.33 138.56, 122.04 68.43, 179.42 -1.56 M-1.95 209.69 C41.35 160.57, 85.27 110.89, 181.32 -0.94 M-2.48 214.72 C38.01 167.21, 77.87 121.38, 187.05 -1.35 M-2.49 215.15 C63.47 142.52, 127.21 68.5, 187.05 -1.01 M-1.57 222.53 C60.92 154.1, 119.28 82.41, 190.29 -1.3 M-2.7 221.61 C42.22 169.68, 86.86 118.44, 191.91 -0.39 M-1.64 226.77 C62.24 156.67, 124.79 84.78, 196.23 0.4 M-1.85 227.25 C73.65 138.2, 152.46 50.07, 197.16 -0.48 M-2.92 232.68 C49.64 175.83, 99.18 120.08, 201.68 0.63 M-1.69 234.71 C69.27 152.23, 141.48 69.67, 202.03 -1.14 M-3.43 239.23 C80.18 146.16, 162.88 51.56, 206.46 -2.37 M-2.29 240.85 C69.38 157.14, 140.12 74.72, 207.01 -1.6 M-2.13 244.9 C71.24 163.03, 144.1 78.42, 213.91 -1.61 M-1.68 245.72 C79.55 150.65, 162.63 54.46, 213.01 -0.07 M-3.15 251.72 C66.04 172.71, 133.19 95.53, 218.3 -1.02 M-1.93 251.93 C71.62 167.54, 145.73 82.79, 217.81 -1.48 M-2.02 258.36 C75.58 170.11, 151.32 80.53, 222.18 -1.69 M-2.77 258.32 C87.47 158.29, 175.32 56.04, 223.37 -0.36 M-0.96 264.13 C62.83 190.37, 128.85 115.42, 229.17 -2.33 M-2.19 265.03 C73.48 179.59, 149.45 92.34, 228.36 -1.08 M-3.53 271.57 C83.07 171.6, 169.97 72, 234.08 0.21 M-2.78 271.4 C93.5 161.95, 186.79 54.19, 233.8 -0.8 M-3.09 278.41 C87.06 173.12, 178.68 66.26, 240.2 -2.03 M-2.45 276.79 C92.03 171.52, 184.55 64.8, 239.89 -1.44 M-1.1 282.94 C61.24 209.88, 123.62 136.11, 244.07 -0.29 M-1.91 283.41 C69.28 199.4, 142.7 115.78, 244.96 -0.86 M-3.23 290.01 C56.18 221.77, 116.91 154.34, 249.62 -2.35 M-2.67 288.86 C98.69 173.57, 199.47 57.84, 250.18 -0.66 M-2.19 294.86 C64.54 216.54, 133.95 139.42, 255.82 -0.35 M-2.43 295.86 C83.84 195.21, 172.14 93.94, 255.67 -1.15 M-3.28 301.18 C88.57 198.49, 177.63 94.79, 261.22 -0.56 M-2.8 301.34 C94.46 189.28, 192.53 75.79, 260.56 -0.76 M-1.53 307.28 C87.99 202.23, 180.94 98.22, 265.94 -1.39 M-2.37 307.74 C69.08 224.31, 139.38 142.23, 266.11 -0.44 M0.01 311.58 C92.2 203.24, 183.97 96.67, 271.31 -1.87 M-0.26 310.96 C92.44 206.78, 182.77 101.87, 271.36 -0.85 M4.01 310.75 C71.93 231.12, 141.01 152.19, 277.1 -0.8 M4.61 311.18 C105.06 197.86, 203.11 84.5, 275.95 -0.78 M11.38 310.62 C103.34 202.54, 196.57 95.02, 281.64 -2.32 M10.52 311.52 C69.49 243.67, 128.78 173.98, 281.59 -1.44 M14.41 312.48 C88.89 228.31, 162.38 143.01, 287.61 -1.99 M15.19 311.3 C121.1 189.38, 226.94 67.61, 287.01 -1.31 M20.75 310.13 C76.67 244.71, 132.37 180.2, 293.48 -1.27 M21.2 311.52 C125.05 188.52, 231.07 67.24, 292.78 -1.59 M25.55 311.39 C100.23 227.77, 172.57 142.24, 297.09 -0.04 M25.95 311.77 C100.91 224.47, 177.31 136.66, 297.35 -1.1 M32.16 311.7 C98.78 233.33, 166.45 153.26, 302.33 -2.36 M31.46 310.84 C116.02 213.34, 201.11 115.57, 302.95 -1.64 M37.35 311.38 C101.87 234.83, 166.79 159.88, 307.53 -0.32 M36.51 311.22 C99.06 239.73, 161.75 167.73, 308.35 -0.77 M43.31 310.98 C139.62 201.35, 237.7 88.73, 314.23 -1.52 M42.1 311.06 C121.29 220.75, 200.56 130.65, 313.71 -1.53 M47.21 311.04 C147.78 191.74, 250.91 75.22, 317.83 -2.1 M46.82 311.91 C153.82 186.13, 262.39 61.81, 318.73 -0.84 M53.19 311.88 C123.43 229.37, 192.57 148.34, 325.03 -1.13 M53.42 310.63 C139.35 211.45, 227.09 110.84, 324.26 -1.4 M57.59 311.17 C160.46 192.63, 263.99 74.83, 329.25 -1.88 M57.67 311.55 C116.16 243.08, 174.71 175.34, 329.4 -1.19 M63.13 310.23 C131.89 230.25, 199.99 151.28, 334.61 -2.36 M63.59 310.76 C129.22 235.08, 194.4 160.87, 335.22 -1.02 M68.43 311.61 C167.96 198.76, 264.17 86.63, 340.01 -0.93 M69.08 311.5 C145.64 222.7, 221.68 134.21, 339.7 -1.61 M73.56 310.13 C151.01 222.69, 229.97 131.06, 345.74 -2 M74.62 310.63 C178.93 191.58, 283.21 71.17, 345.85 -1.42 M78.22 312.26 C173.33 204.8, 264.42 98.02, 350.64 -2.11 M78.69 311.85 C147.67 230.69, 218.54 149.57, 351.17 -1.26 M84.45 312.67 C158.31 225.16, 233.32 139.95, 356.49 -2.16 M84.67 311.86 C169.04 213.8, 255.2 115.1, 356.85 -1.09 M89.44 312.02 C184.28 205.77, 274.17 100.3, 360.82 -2.17 M89.85 310.87 C194.6 192.17, 296.86 73.96, 361.61 -1.37 M94.67 311.91 C198.23 192.45, 302.19 72.99, 367.83 -0.51 M94.43 311.75 C181.73 213.81, 266.47 115.71, 367.6 -1.98 M100.96 312.06 C180.13 218.14, 258.64 127.95, 372.54 -1.62 M100.29 311.02 C193.19 203.78, 286.35 97.14, 372.1 -1.45 M105.64 311.28 C192.91 208.06, 281.31 108.08, 373.62 3.01 M105.93 311.57 C177.97 227.05, 250.25 143.22, 373.19 3.99 M111.29 310.34 C203.29 206.03, 291.71 100.69, 374.72 7.64 M111.28 310.74 C165.61 246.8, 222.3 182.02, 374.26 8.15 M116.39 310.84 C196.27 219.5, 276.67 127.74, 376.52 12.67 M115.9 311.97 C166.82 251.97, 219.62 190.83, 375.44 12.44 M121.84 311.56 C207.4 211.61, 293.82 112.11, 375.79 16.98 M121.69 311.66 C206.21 215.81, 289.06 120.07, 377.1 17.02 M126.01 311.36 C188.35 240.84, 251.58 168.33, 378.56 20.63 M126.61 312.01 C212.31 212.25, 297.19 115.22, 378.56 21.52 M131.39 310.38 C215.52 215.08, 300.76 119.72, 379.9 26.35 M131.76 311.2 C226.34 202.97, 320.22 96.03, 379.8 26.16 M137.37 310.76 C223.79 213.31, 310.22 113.14, 381.57 29.71 M137.63 311.92 C190.89 251.29, 245.12 189.61, 380.9 30.76 M141.9 310.78 C215.83 226.66, 289.01 140.53, 382.32 36.42 M142.77 311.21 C225.88 215.92, 307.19 121.53, 381.81 36.17 M148.89 312.48 C238.74 207.53, 330.83 101.33, 384.71 39.43 M148.52 311.49 C198.82 254.99, 248.75 198.75, 384.75 40.05 M152.57 310.91 C201.19 254.85, 253.47 195.53, 385.08 43.94 M153.95 311.65 C233.31 216.18, 314.41 123.79, 385.27 44.4 M157.67 311.99 C237.7 218.29, 317.2 126.62, 387.91 49.32 M158.19 311.88 C248.22 208.47, 339.06 103.21, 387.18 49.05 M163.41 311.49 C238.88 223.38, 316.17 135.55, 388.07 54.01 M164.16 310.93 C212.03 259.2, 257.28 206.05, 387.3 53.96 M168.76 310.37 C220.22 253.69, 271.81 193.7, 390.61 57.62 M169.5 311.12 C230.47 241.27, 291.3 171.73, 389.33 57.83 M173.98 312.01 C257.83 214.21, 340.16 120.74, 390.01 63.58 M175.24 310.43 C235.66 242.2, 293.46 174.66, 390.9 63 M181.18 311.02 C232.43 250.58, 281.64 192.35, 393.15 68.01 M179.46 311.33 C233.79 249.59, 287.9 187.29, 392.21 66.23 M184.71 312.05 C253.92 232.02, 319.42 153.33, 392.56 72.84 M186.16 311.52 C268.79 217.07, 350.32 122.64, 393.83 71.66 M191.16 310.04 C267.2 223.56, 345.92 133.33, 395.43 74.72 M190.5 311.4 C267.3 223.7, 344.46 133.52, 394.48 76.01 M195.62 309.78 C271.07 223.36, 346.82 134.45, 396.35 81.4 M196.14 310.38 C269.47 228.01, 342.81 142.56, 395.82 80.24 M202.11 311.23 C259.88 246.01, 315.16 181.74, 398.32 86.13 M201.74 311.7 C279.04 222.91, 355.86 135.79, 397.28 84.47 M207.73 312.24 C254.81 255.31, 302.22 198.74, 399.35 89.69 M207.04 311.45 C257.8 252.84, 309.24 193.57, 399.61 89.93 M212.06 310.63 C280.37 229.41, 349.25 151.33, 399.3 95.07 M212.22 312 C261.57 254.83, 308.4 200.42, 400.81 93.63 M217.95 311.29 C266.1 254.6, 314.44 197.19, 401.11 97.54 M216.07 311.77 C276.51 240.57, 339.13 170.25, 401.43 99.14 M223.72 312.52 C272.09 253.05, 323.85 194.77, 402.79 103.01 M221.73 310.64 C267.49 257.74, 314.01 204.67, 403.42 102.39 M225.97 311.38 C272.03 262.26, 315.91 209.25, 404.55 108.82 M226.59 311.72 C274 256.78, 320.47 203.08, 405 108.58 M234.03 309.81 C277.39 262.78, 318.19 213.17, 406.81 113.26 M233.27 311.49 C285.45 251.2, 337.55 192.65, 406.9 111.64 M238.43 311.92 C277.3 264.1, 318.5 220.7, 408.32 117.47 M237.45 311.46 C295.97 245.33, 353.09 179.64, 407.26 117.58 M244.74 310.28 C303.87 243.44, 359.71 177.95, 410.25 119.87 M242.91 310.8 C275.53 272.01, 308.84 233.54, 409.63 120.5 M248.05 311.59 C308.25 242.96, 366.06 176.03, 411.24 124.34 M249.39 311.75 C294.77 257.95, 340.65 204.77, 409.84 126.36 M254.78 310.15 C288.42 270.55, 321.41 233.14, 411.37 131.42 M254.7 310.45 C315.27 238.95, 377.76 166.88, 412 130.2 M259.74 310.71 C318.32 242.56, 378.64 173.23, 413.97 136.41 M258.66 312.26 C296.57 270.76, 331.11 230.6, 412.07 135.31 M264.92 311.34 C316.01 253.92, 364.78 195.29, 412.8 140.38 M265.48 310.91 C301.32 270.51, 337.17 229.64, 414.06 138.4 M269.67 309.81 C325.08 245.24, 380.99 181.19, 414.08 145.09 M269.39 310.63 C319.31 256.83, 367.06 202.47, 415.02 144.14 M276.35 310 C325.54 253.57, 377.94 195.65, 416.86 147.36 M275.36 310.25 C317.59 262.86, 359.69 215.01, 416.37 148.36 M280.17 311.36 C333.19 249.51, 388.19 188.43, 418.08 154.31 M281.37 311.95 C326.4 258.72, 372.64 205.43, 419.02 152.69 M285.31 311.85 C315.21 280.97, 340.93 250.05, 420.14 156.78 M285.41 311.87 C321.82 272.52, 356.91 233.43, 419.17 156.23 M291.39 310.92 C343.36 253.94, 394.7 195.27, 422.68 162.27 M290.23 310.57 C321.74 274.13, 353.13 237.8, 420.92 161.82 M295.15 309.48 C339.59 264.23, 377.71 220.28, 421.24 165.05 M296.88 311.44 C324.19 279.9, 352.97 246.19, 422.66 166.42 M302.88 309.37 C344.16 257.46, 392.66 206.94, 421.98 169.65 M301.32 310.41 C331.11 275.99, 360.81 243.47, 423.81 170.83 M308.65 309.39 C334.85 278.69, 363.39 243.07, 426.03 174.05 M306.45 311.77 C334.57 280.15, 362.2 250.13, 424.71 175.64 M311.37 311.97 C337.27 283.15, 363.18 251.4, 426.53 178.87 M312.1 311.48 C352.83 264.04, 395.68 214.95, 427.37 180.04 M316.45 311.76 C344.47 278.05, 374.41 243.97, 425.86 186.04 M318.53 311.37 C350.47 273.05, 381.04 236.58, 427.55 185.1 M325.01 310.14 C349.52 280.04, 372.1 251.67, 429.28 187.29 M322.49 310.4 C347.54 285.14, 372.09 256.92, 430.25 189.95 M327.57 311.84 C357.95 279.5, 386.85 245.08, 430.11 194.75 M328.72 310.82 C368.58 264.34, 407.08 220.18, 429.76 193.02 M333.26 311.46 C356.09 285.18, 376.82 260.32, 431.47 197.46 M334 311.45 C364.28 277.28, 394 243.38, 431.18 198.25 M339.43 310.04 C361.51 283.61, 384.46 257.24, 431.45 204.01 M338.68 309.85 C364.35 280.45, 390.41 252.9, 432.47 202.3 M344.95 309.65 C381.32 271.3, 415.93 231.07, 436.75 207.05 M344.7 311.58 C365.59 287.5, 385.88 261.89, 433.96 206.79 M351.12 310.68 C374.43 284.41, 394.62 258.29, 435.93 213.86 M348.49 311.14 C370.63 286.28, 391.77 262.11, 436.4 211.5 M354.24 310.63 C376.57 285.46, 400.1 260.53, 437.06 214.91 M354.24 311.44 C383.5 279.36, 411.6 246.67, 438.47 216.6 M360.02 312.97 C382.62 287.04, 404.05 260.19, 436.93 222.46 M360.28 312.28 C377.31 292.81, 392.92 273.24, 438.84 221.86 M366.63 310.42 C396.36 280.12, 422.64 245.62, 438.71 227.05 M364.87 310.31 C387.56 285.15, 410.89 260.95, 439.68 224.88 M371.91 309.53 C388.33 290.34, 408.12 267.14, 441.18 228.14 M371.3 311.26 C399.03 278.79, 427.71 246.27, 440.68 230.3 M376.99 309.24 C401.3 282.2, 423.55 256.61, 444.35 234.62 M376.39 311.16 C391.95 292.34, 409.01 273.99, 442.61 234 M381.56 313.41 C402.18 287.1, 422.24 264.02, 442.74 239.39 M381.53 310.54 C396.19 294.06, 412.73 275.8, 443.36 238.38 M387.5 309.44 C402.6 295.2, 417.99 274.45, 446.97 243.92 M387.2 311.65 C403.17 291.61, 420.49 270.24, 445.41 242.5 M390.09 312.78 C405.89 294.52, 419.08 277.43, 445.03 248.84 M392.02 310.72 C408.48 292.11, 426.44 271.57, 445.92 247.37 M397.71 309.54 C409.63 296.65, 420.37 284.42, 447.91 250.44 M397.27 311.1 C410.01 297.37, 421.11 282.12, 448.24 252.1 M402.97 313 C412.03 299.12, 422.78 287.09, 450.81 255.3 M401.9 311.56 C420.25 291.38, 436.95 271.53, 449.96 257.19 M406.48 310.21 C419.29 299.73, 428.52 289.51, 450.84 260.8 M407.13 311.47 C417.55 300.49, 425.23 290.73, 450.4 260.68 M411.99 310.56 C427.76 295.03, 442.81 277.95, 452.18 265.72 M413.39 311.03 C426.37 297.11, 438.01 281.5, 452.68 265.44 M418.06 312.29 C429.75 297.45, 439.6 285.71, 455.79 270.77 M418.92 310.45 C427.69 300.57, 434.2 291.12, 453.23 269.3 M425.3 311.12 C433.63 299.07, 444.47 287.17, 456.58 273.2 M422.77 312.24 C433.15 300.73, 442.53 290.29, 455.84 274.38 M428.01 310.75 C438.68 297.85, 451.85 287.63, 457.12 279.3 M429.34 310.36 C437.64 301.34, 444.82 292.56, 457.17 279.2 M433.4 311.49 C441.8 302.45, 447.07 295.5, 456.8 283.02 M433.42 310.48 C439.76 303.19, 446.32 296.97, 458.78 283.97 M441.25 312.74 C443.51 306.63, 446.37 300.09, 461.55 286.48 M440.68 311.19 C443.28 306.85, 448.02 301.47, 458.71 288.77 M443.12 309.64 C452.61 302.85, 455.6 297.77, 460.98 294.59 M444.77 312.22 C449.6 304.91, 454.34 299.27, 461.43 292.81 M450.08 311.49 C453.23 304.46, 460.8 299.12, 462.15 295.74 M449.87 311.56 C452.87 308.41, 455.72 303.74, 461.54 296.66 M455.61 310.91 C456.91 308.59, 460.16 305.82, 462.93 302.97 M455.44 311.75 C456.66 308.95, 459.3 307.81, 463.35 301.57 M460.83 311.37 C462.23 308.78, 464.34 306.93, 464.88 306.49 M461.18 310.59 C462.4 309.51, 463.24 308.46, 465.12 306.33" stroke="#66bb6a" stroke-width="0.5" fill="none"/><path d="M0.51 -0.24 C75.21 -2.98, 150.72 -3.01, 372.44 -1.71 M-0.21 -0.33 C96.26 -0.38, 191.76 -1.11, 371.29 -1.54 M371.51 -2.39 C402.99 98.89, 431.86 198.19, 466.58 308.84 M371.86 -1.52 C391.26 66.24, 411.68 132.51, 465.14 309.53 M465.08 309.16 C325.91 309.71, 185.4 308.84, -3.43 309.69 M465.5 308.88 C357.55 309.45, 249.83 309.77, -2.65 309.24 M-3.22 308.8 C-1.18 191.06, 0.54 71.66, -1.3 -0.29 M-2.42 309.78 C-0.98 220.53, -1.1 131.98, 0.12 0.45 M0 0 C0 0, 0 0, 0 0 M0 0 C0 0, 0 0, 0 0" stroke="#66bb6a" stroke-width="1" fill="none"/></g></g><g stroke-linecap="round" transform="translate(580.95644896371 257.68432508196156) rotate(0 28.453765869140625 28.453765869140625)"><path d="M37.19 1.22 C42.82 2.69, 49.29 8.96, 52.65 14.22 C56.02 19.48, 58.28 27.03, 57.38 32.8 C56.47 38.56, 51.8 44.9, 47.22 48.8 C42.64 52.7, 36.04 55.84, 29.9 56.2 C23.76 56.56, 15.16 54.69, 10.38 50.97 C5.59 47.25, 2.29 39.82, 1.2 33.89 C0.12 27.96, 0.93 20.52, 3.85 15.36 C6.78 10.2, 12.7 5.09, 18.78 2.95 C24.87 0.8, 36.22 2.35, 40.37 2.47 C44.52 2.6, 43.84 3.3, 43.65 3.68 M22.97 0.82 C28.64 -0.69, 36.18 0.65, 41.53 3.64 C46.89 6.62, 52.58 12.85, 55.08 18.74 C57.57 24.64, 58.43 33.05, 56.51 39.02 C54.58 44.98, 49.05 51.73, 43.51 54.54 C37.96 57.35, 29.36 57.16, 23.25 55.87 C17.14 54.59, 10.58 51.27, 6.86 46.81 C3.15 42.35, 0.9 35.27, 0.95 29.1 C1 22.93, 3.57 14.77, 7.17 9.79 C10.76 4.82, 19.54 0.6, 22.52 -0.75 C25.5 -2.11, 24.56 1.18, 25.06 1.67" stroke="none" stroke-width="0" fill="#42a5f5"/><path d="M25.1 -0.58 C30.63 -1.77, 38.77 0.95, 43.92 4.37 C49.06 7.8, 54.07 13.99, 55.96 19.97 C57.85 25.95, 57.61 34.52, 55.26 40.25 C52.91 45.98, 47.58 51.57, 41.87 54.33 C36.16 57.08, 26.91 58.18, 21.02 56.78 C15.12 55.38, 10.04 50.98, 6.51 45.93 C2.98 40.89, -0.23 32.75, -0.15 26.51 C-0.07 20.27, 2.66 12.74, 7.01 8.48 C11.36 4.23, 22.53 2.37, 25.94 0.98 C29.35 -0.41, 27.43 -0.2, 27.46 0.15 M24.37 1.41 C30.11 -0.19, 37.5 0.83, 42.52 3.77 C47.54 6.72, 52.3 13.26, 54.5 19.09 C56.71 24.92, 57.68 33.29, 55.73 38.75 C53.78 44.22, 48.05 48.75, 42.82 51.89 C37.58 55.04, 30.42 58.3, 24.32 57.64 C18.22 56.97, 10.03 52.82, 6.22 47.9 C2.41 42.98, 1.58 34.49, 1.45 28.11 C1.32 21.72, 1.78 14.01, 5.44 9.59 C9.1 5.17, 20.49 2.88, 23.43 1.59 C26.38 0.31, 22.82 1.4, 23.1 1.88" stroke="#222" stroke-width="1" fill="none"/></g><g stroke-linecap="round" transform="translate(95.33608763558505 113.17449842180531) rotate(0 28.453765869140625 28.453765869140625)"><path d="M28.19 0.07 C34.01 -0.18, 42.74 3.5, 47.52 7.35 C52.3 11.2, 56.04 17.2, 56.84 23.15 C57.65 29.1, 55.56 37.82, 52.34 43.06 C49.13 48.3, 43.15 52.48, 37.57 54.6 C32 56.72, 24.6 57.69, 18.9 55.8 C13.2 53.92, 6.41 48.48, 3.38 43.28 C0.34 38.08, -0.58 30.66, 0.68 24.59 C1.95 18.51, 5.46 10.71, 10.97 6.84 C16.48 2.96, 29.23 2.03, 33.74 1.36 C38.24 0.68, 38.14 2.52, 38 2.79 M15.32 2.08 C20.05 -0.9, 27.97 -1.3, 33.84 0.38 C39.71 2.06, 46.58 7.17, 50.52 12.15 C54.46 17.13, 57.4 24.4, 57.5 30.26 C57.59 36.11, 55.31 42.85, 51.08 47.3 C46.84 51.75, 38.29 55.9, 32.09 56.96 C25.88 58.02, 18.79 56.85, 13.83 53.66 C8.88 50.47, 4.36 43.96, 2.36 37.82 C0.36 31.67, -0.09 22.3, 1.81 16.77 C3.7 11.24, 11.4 6.58, 13.75 4.65 C16.1 2.72, 15.63 5.1, 15.88 5.19" stroke="none" stroke-width="0" fill="#ef5350"/><path d="M40.44 2.93 C45.64 5.24, 51.81 11.74, 54.32 17.46 C56.82 23.18, 57.08 31.36, 55.47 37.25 C53.87 43.14, 49.67 49.71, 44.7 52.79 C39.73 55.87, 31.7 56.42, 25.64 55.75 C19.59 55.09, 12.57 53.12, 8.38 48.81 C4.18 44.5, 0.98 36.26, 0.46 29.92 C-0.06 23.58, 1.77 15.73, 5.25 10.78 C8.74 5.84, 14.88 1.42, 21.38 0.26 C27.87 -0.9, 40.36 2.95, 44.22 3.81 C48.08 4.68, 44.91 5.05, 44.54 5.46 M21.86 0.8 C27.1 -1.34, 34.77 -0.8, 40.2 1.86 C45.63 4.52, 51.73 11.13, 54.44 16.79 C57.16 22.45, 58.28 29.85, 56.49 35.81 C54.71 41.76, 48.57 49.08, 43.72 52.52 C38.86 55.96, 33.04 56.82, 27.37 56.43 C21.7 56.04, 14.29 54.6, 9.71 50.18 C5.12 45.75, 0.72 36.23, -0.14 29.89 C-1.01 23.55, 0.81 17.07, 4.51 12.16 C8.2 7.25, 19.14 2.03, 22.05 0.44 C24.95 -1.15, 21.79 2.14, 21.93 2.64" stroke="#222" stroke-width="1" fill="none"/></g><g stroke-linecap="round" transform="translate(68.7401822426582 190.6422850710169) rotate(0 25.681884765625 25.681884765625)"><path d="M0.57 -1.81 L50.96 -0.26 L51.08 53.23 L0.8 52.75" stroke="none" stroke-width="0" fill="#ef5350"/><path d="M1.16 0.07 C9.93 -0.67, 22.48 0.08, 50.88 1.29 M-0.96 0.62 C19.36 0.17, 36.88 -0.63, 50.68 -0.51 M50.52 -1.05 C52.16 12.12, 50.75 27.52, 52.41 52.68 M51.56 0.38 C51.67 14.78, 50.51 29.87, 52.15 51.11 M49.68 50.68 C31.59 52.83, 11.45 52.48, 1.41 53.04 M51.36 52.03 C37.16 51.51, 23.14 52.53, 0.75 51.75 M-1.39 50.24 C0.59 38.54, -0.55 24.43, 0.53 1.98 M0.85 50.5 C0.14 31.11, -0.39 10.58, 0.55 -0.52" stroke="#222" stroke-width="1" fill="none"/></g><g stroke-linecap="round" transform="translate(69.11126765335939 263.8783303553812) rotate(0 25.681884765625 25.681884765625)"><path d="M-1.81 -0.4 L51.1 -0.28 L53.23 52.16 L1.39 53.13" stroke="none" stroke-width="0" fill="#ef5350"/><path d="M0.07 -1.56 C13.99 -0.82, 28.92 -0.78, 52.65 1.22 M0.62 0.83 C18.73 0.3, 36.25 -0.19, 50.85 -0.51 M50.31 0.33 C50.48 18.99, 53.07 41.18, 52.68 51.07 M51.74 0.33 C51.26 14.32, 51.71 31.09, 51.11 52.17 M50.68 51.16 C32.56 50.15, 11.84 52.34, 1.68 50.87 M52.03 51.31 C36.54 51.43, 22.9 52.11, 0.38 51.09 M-1.12 51.55 C0.93 39.08, 0.82 29.24, 1.98 1.75 M-0.86 51.56 C-0.32 34.99, -0.95 19.84, -0.52 0.28" stroke="#222" stroke-width="1" fill="none"/></g><g stroke-linecap="round" transform="translate(71.16828270028873 337.2909667116419) rotate(0 25.681884765625 25.681884765625)"><path d="M-0.4 -0.26 L51.08 1.87 L52.16 52.75 L1.76 51.34" stroke="none" stroke-width="0" fill="#66bb6a"/><path d="M-1.56 -0.19 C19.67 0.54, 39.9 1.27, 52.58 1.13 M0.83 0.41 C17.71 -0.69, 35.12 -0.83, 50.86 0.91 M51.7 -0.69 C50.07 15.37, 52.19 28.26, 51.07 51.26 M51.7 0.14 C50.64 13.56, 52.25 25.68, 52.17 52.33 M51.16 52.93 C36.1 52.39, 23.81 52.87, -0.49 51.07 M51.31 51.19 C32.8 52.55, 14.84 52.09, -0.28 50.57 M0.18 52.53 C-0.6 34.68, 0.89 17.87, 1.75 0.25 M0.2 51 C-0.77 35.41, 0.11 20.91, 0.28 -0.91" stroke="#222" stroke-width="1" fill="none"/></g><g stroke-linecap="round" transform="translate(224.61167259286685 468.67892142355595) rotate(0 25.681884765625 25.681884765625)"><path d="M-0.26 -0.28 L53.23 0.8 L52.75 53.13 L-0.03 50.62" stroke="none" stroke-width="0" fill="#66bb6a"/><path d="M-0.19 -0.52 C18.94 -0.08, 38.04 1.62, 52.49 0.97 M0.41 -0.19 C10.09 -1.11, 20.43 -0.93, 52.27 -0.38 M50.68 -1.08 C52.99 14.28, 52.41 26.17, 51.26 50.41 M51.5 -0.83 C52.15 17.21, 51.3 33.67, 52.33 51.18 M52.93 50.58 C41.49 52.72, 30.89 50.82, -0.29 52.62 M51.19 51.43 C36.83 52.08, 20.99 51.06, -0.8 51.82 M1.17 50.4 C1.34 40.05, 2.26 29.42, 0.25 -0.17 M-0.36 51.03 C-0.55 32.15, -0.08 12.12, -0.91 -0.2" stroke="#222" stroke-width="1" fill="none"/></g><g stroke-linecap="round" transform="translate(226.06327184226757 541.9030119997278) rotate(0 25.681884765625 25.681884765625)"><path d="M-0.28 1.87 L52.16 1.39 L53.13 51.34 L-0.74 51.85" stroke="none" stroke-width="0" fill="#66bb6a"/><path d="M-0.52 0.56 C15.11 1.34, 32.4 1.18, 52.33 -1.92 M-0.19 -0.38 C17.9 -0.72, 36.66 0.69, 50.99 -0.42 M50.29 1.9 C52.5 14.03, 51.15 25.32, 50.41 51.76 M50.54 0.59 C52.32 17.08, 52.34 35.65, 51.18 50.52 M50.58 52.57 C39.12 53.45, 23.56 51.47, 1.26 51.35 M51.43 52.21 C33.28 51.66, 13.42 50.48, 0.45 50.67 M-0.96 52.41 C0.48 40.82, 1.7 26.56, -0.17 1.7 M-0.33 50.37 C0.45 39.86, 0.18 28.49, -0.2 -0.13" stroke="#222" stroke-width="1" fill="none"/></g><g stroke-linecap="round" transform="translate(300.2031949379707 535.2909667116419) rotate(0 25.681884765625 25.681884765625)"><path d="M1.87 0.8 L52.75 1.76 L51.34 50.62 L0.49 51.71" stroke="none" stroke-width="0" fill="#66bb6a"/><path d="M0.56 -0.48 C12.68 1.35, 23.92 1.1, 49.44 1.24 M-0.38 -0.68 C19.14 -0.41, 40.21 -0.28, 50.94 -0.53 M53.26 1.05 C52.5 15.96, 51.09 31.57, 51.76 52.12 M51.95 0.78 C51.18 17.93, 52.4 34.05, 50.52 51.02 M52.57 52.78 C38.16 50.67, 21.3 52.42, -0.01 52.7 M52.21 52.11 C36.62 51.12, 20.31 51.85, -0.69 50.8 M1.05 51.9 C1.68 37.23, -0.05 19.43, 1.7 -1.72 M-0.99 51.91 C-0.34 35.22, -0.72 18.3, -0.13 -0.14" stroke="#222" stroke-width="1" fill="none"/></g><g stroke-linecap="round" transform="translate(377.2031949379707 552.2909667116419) rotate(0 25.681884765625 25.681884765625)"><path d="M0.8 1.39 L53.13 -0.03 L50.62 51.85 L0.35 52.63" stroke="none" stroke-width="0" fill="#66bb6a"/><path d="M-0.48 1.29 C16.13 0.99, 30.8 -2.07, 52.6 1.65 M-0.68 -0.51 C17.03 1.1, 34.7 -0.23, 50.84 0.17 M52.41 1.32 C50.79 13.54, 50.14 27.68, 52.12 52.03 M52.15 -0.26 C51.75 17.07, 50.76 31.36, 51.02 51.26 M52.78 53.04 C31.45 51.38, 13.77 51.66, 1.33 51.26 M52.11 51.75 C36.57 51, 22.78 51.1, -0.56 51.46 M0.53 53.34 C1.99 33.21, 0.07 16.26, -1.72 0.4 M0.55 50.84 C0.45 36.9, -0.03 24.11, -0.14 0.93" stroke="#222" stroke-width="1" fill="none"/></g><g stroke-linecap="round" transform="translate(485.4411099770332 525.0650145632044) rotate(0 25.681884765625 25.681884765625)"><path d="M1.39 1.76 L51.34 -0.74 L51.85 51.71 L1.27 52.56" stroke="none" stroke-width="0" fill="#42a5f5"/><path d="M1.29 1.22 C15.21 1.09, 26.23 1.36, 53.02 0.83 M-0.51 -0.51 C15.32 -0.03, 28.41 -0.17, 51.53 -0.34 M52.68 -0.3 C51.75 11.69, 52.25 26.03, 52.03 51.63 M51.11 0.81 C52.63 10.99, 50.82 21.99, 51.26 52.15 M53.04 50.87 C37.67 52.98, 24.55 53.06, -0.11 51.02 M51.75 51.09 C34.8 52.2, 19.13 51.19, 0.09 51.95 M1.98 53.11 C-0.02 38.25, 1.43 23.75, 0.4 -0.72 M-0.52 51.65 C-0.4 37.46, 0.38 23.81, 0.93 0.4" stroke="#222" stroke-width="1" fill="none"/></g><g stroke-linecap="round" transform="translate(454.2816861489082 393.9558837038294) rotate(0 25.681884765625 25.681884765625)"><path d="M1.76 -0.03 L50.62 0.49 L51.71 52.63 L1.19 51.83" stroke="none" stroke-width="0" fill="#42a5f5"/><path d="M1.22 1.13 C17.81 -2.25, 34.91 1.32, 52.19 -0.39 M-0.51 0.91 C13.1 -0.16, 26.43 0.43, 51.02 -0.54 M51.07 -0.1 C50.68 20.69, 52.39 41.24, 51.63 49.71 M52.17 0.97 C51.59 17.6, 51.43 36.78, 52.15 50.97 M50.87 51.07 C34.11 51.78, 15.68 51.69, -0.35 51.5 M51.09 50.57 C32.07 50.87, 11.32 51.65, 0.58 50.88 M1.75 51.61 C-0.31 34.95, -1.86 15.55, -0.72 -0.66 M0.28 50.46 C-0.48 40.93, -0.42 31.69, 0.4 0.69" stroke="#222" stroke-width="1" fill="none"/></g><g stroke-linecap="round" transform="translate(729.3701512044323 247.55041698833452) rotate(0 25.681884765625 25.681884765625)"><path d="M-0.03 -0.74 L51.85 0.35 L52.63 52.56 L0.47 51.12" stroke="none" stroke-width="0" fill="#42a5f5"/><path d="M1.13 0.97 C12.25 0.92, 30.01 0.52, 50.98 -0.75 M0.91 -0.38 C11.48 -0.27, 23.97 -0.08, 50.82 0.95 M51.26 -0.95 C52.1 18.85, 52.37 36.47, 49.71 52.54 M52.33 -0.18 C50.39 19.1, 51.13 39.66, 50.97 51.97 M51.07 52.62 C32.32 52.57, 13.19 50.89, 0.14 53.05 M50.57 51.82 C31.42 50.66, 12.96 51.8, -0.48 51.89 M0.25 51.19 C1.19 32.87, -0.11 17.1, -0.66 -1.99 M-0.91 51.16 C0.14 32.99, 1.2 15.29, 0.69 0.88" stroke="#222" stroke-width="1" fill="none"/></g><g stroke-linecap="round" transform="translate(722.2031949379706 154.07902213156376) rotate(0 25.681884765625 25.681884765625)"><path d="M-0.74 0.49 L51.71 1.27 L52.56 51.83 L-0.24 49.71" stroke="none" stroke-width="0" fill="#42a5f5"/><path d="M0.97 -1.92 C19.95 1.36, 38.25 -0.68, 50.61 -1.37 M-0.38 -0.42 C12.26 -0.3, 25.23 -1, 52.31 0.52 M50.41 0.4 C52.04 19.46, 51.56 35.93, 52.54 52.93 M51.18 -0.84 C51.44 13.98, 52.56 27.78, 51.97 52.07 M52.62 51.35 C32.97 51.18, 11.57 51.43, 1.69 52.86 M51.82 50.67 C33.42 51.05, 17.18 50.48, 0.52 51.63 M-0.17 53.06 C-2.17 31.28, -1.17 9.73, -1.99 1.1 M-0.2 51.23 C-0.29 39.58, 0.25 26.63, 0.88 -0.01" stroke="#222" stroke-width="1" fill="none"/></g><g stroke-linecap="round" transform="translate(732.2031949379706 63.290966711641886) rotate(0 25.681884765625 25.681884765625)"><path d="M0.49 0.35 L52.63 1.19 L51.83 51.12 L-1.65 49.84" stroke="none" stroke-width="0" fill="#42a5f5"/><path d="M-1.92 1.24 C20.19 0.58, 36.68 -1, 50 -1.02 M-0.42 -0.53 C12.98 -0.15, 25.08 1.14, 51.89 0.66 M51.76 0.75 C52 14.91, 49.69 30.46, 52.93 50.85 M50.52 -0.34 C51.76 20.35, 51.47 39.73, 52.07 52.2 M51.35 52.7 C37.11 51.34, 23.21 53.37, 1.5 52.13 M50.67 50.8 C37.46 52.18, 22.9 52.12, 0.27 52.35 M1.7 49.64 C0.34 30.75, -0.73 9.59, 1.1 -1.05 M-0.13 51.22 C1.4 34.89, 1.16 18.51, -0.01 -0.37" stroke="#222" stroke-width="1" fill="none"/></g><g stroke-linecap="round" transform="translate(270.50430052621005 464.56445203508645) rotate(0 28.453765869140625 28.453765869140625)"><path d="M22.68 1.69 C28.15 -0.1, 35.71 0.44, 41.16 2.85 C46.6 5.25, 52.88 10.59, 55.34 16.13 C57.81 21.66, 57.87 30.22, 55.97 36.05 C54.07 41.88, 48.94 47.76, 43.93 51.12 C38.92 54.48, 31.87 56.86, 25.91 56.21 C19.95 55.57, 12.53 51.56, 8.19 47.22 C3.84 42.89, 0.33 35.96, -0.14 30.19 C-0.61 24.41, 0.68 17.48, 5.36 12.56 C10.04 7.65, 23.13 2.64, 27.95 0.71 C32.76 -1.22, 34.34 0.59, 34.23 0.99 M31.26 -0.08 C36.69 -0.28, 42.86 2.72, 47.32 7.17 C51.77 11.63, 57.05 20.57, 58 26.66 C58.95 32.75, 56.85 38.91, 53.03 43.73 C49.22 48.55, 41.02 53.97, 35.11 55.58 C29.21 57.2, 22.91 55.95, 17.59 53.4 C12.27 50.86, 6.21 45.72, 3.19 40.34 C0.17 34.95, -2.17 26.91, -0.51 21.12 C1.15 15.33, 8.02 9.03, 13.15 5.6 C18.29 2.16, 27.25 1.13, 30.3 0.51 C33.35 -0.12, 31.54 1.59, 31.45 1.82" stroke="none" stroke-width="0" fill="#66bb6a"/><path d="M33.62 0.1 C39.31 1.15, 46.52 6.98, 50.33 11.79 C54.15 16.6, 56.72 22.99, 56.51 28.96 C56.31 34.93, 53.18 43.09, 49.12 47.61 C45.05 52.13, 37.92 55.16, 32.13 56.08 C26.34 57, 19.39 56.3, 14.38 53.14 C9.37 49.99, 4.13 43.12, 2.07 37.16 C0.01 31.2, -0.2 22.95, 2 17.38 C4.19 11.81, 8.53 6.05, 15.24 3.74 C21.94 1.43, 36.91 2.61, 42.24 3.51 C47.56 4.42, 47.34 8.82, 47.19 9.17 M38.39 1.79 C43.59 3.97, 50.83 11.11, 53.69 16.79 C56.56 22.47, 56.76 29.9, 55.57 35.85 C54.38 41.8, 51.41 49.03, 46.56 52.49 C41.72 55.96, 32.61 57.19, 26.5 56.64 C20.4 56.09, 14.14 53.34, 9.92 49.19 C5.71 45.04, 2.12 37.78, 1.2 31.75 C0.28 25.72, 1 17.89, 4.38 12.99 C7.76 8.08, 15.51 4.19, 21.49 2.34 C27.46 0.49, 37.44 1.69, 40.23 1.88 C43.02 2.08, 38.69 3.14, 38.24 3.5" stroke="#222" stroke-width="1" fill="none"/></g><g stroke-linecap="round" transform="translate(10 10) rotate(0 421.1255468641009 314.56503186907076)"><path d="M0.49 0.66 C300.6 3.09, 600.23 2.69, 841.84 -0.4 M-0.21 0.07 C328.91 1.21, 658.47 1.64, 842.51 -0.06 M842.55 0.27 C841.16 184.91, 841.53 371.78, 842.05 629.78 M842.11 -0.04 C842.11 249.3, 842.04 499.2, 842.59 629.03 M842.78 629.09 C601.81 629.17, 362.31 629.71, 0.31 628.91 M842.03 629.17 C656.77 626.6, 471.04 626.9, 0.4 629.48 M-0.69 629.29 C-0.07 432.42, -0.58 236.67, -0.42 0.23 M-0.06 629.5 C0.66 497.75, 0.86 365.81, -0.15 0.1" stroke="#666" stroke-width="2" fill="none"/></g></svg>