<svg version="1.1" xmlns="http://www.w3.org/2000/svg" viewBox="0 0 862.2510937282018 653.3334057076588" width="1724.5021874564036" height="1306.6668114153176">
  <!-- svg-source:excalidraw -->
  
  <defs>
    <style>
      @font-face {
        font-family: "Virgil";
        src: url("https://unpkg.com/@zsviczian/excalidraw@0.12.0-obsidian-4/dist/excalidraw-assets/Virgil.woff2");
      }
      @font-face {
        font-family: "Cascadia";
        src: url("https://unpkg.com/@zsviczian/excalidraw@0.12.0-obsidian-4/dist/excalidraw-assets/Cascadia.woff2");
      }
    </style>
  </defs>
  <g stroke-linecap="round" transform="translate(581.167630604335 259.2061779244557) rotate(0 28.453765869140625 28.453765869140625)"><path d="M37.19 1.22 C42.82 2.69, 49.29 8.96, 52.65 14.22 C56.02 19.48, 58.28 27.03, 57.38 32.8 C56.47 38.56, 51.8 44.9, 47.22 48.8 C42.64 52.7, 36.04 55.84, 29.9 56.2 C23.76 56.56, 15.16 54.69, 10.38 50.97 C5.59 47.25, 2.29 39.82, 1.2 33.89 C0.12 27.96, 0.93 20.52, 3.85 15.36 C6.78 10.2, 12.7 5.09, 18.78 2.95 C24.87 0.8, 36.22 2.35, 40.37 2.47 C44.52 2.6, 43.84 3.3, 43.65 3.68 M22.97 0.82 C28.64 -0.69, 36.18 0.65, 41.53 3.64 C46.89 6.62, 52.58 12.85, 55.08 18.74 C57.57 24.64, 58.43 33.05, 56.51 39.02 C54.58 44.98, 49.05 51.73, 43.51 54.54 C37.96 57.35, 29.36 57.16, 23.25 55.87 C17.14 54.59, 10.58 51.27, 6.86 46.81 C3.15 42.35, 0.9 35.27, 0.95 29.1 C1 22.93, 3.57 14.77, 7.17 9.79 C10.76 4.82, 19.54 0.6, 22.52 -0.75 C25.5 -2.11, 24.56 1.18, 25.06 1.67" stroke="none" stroke-width="0" fill="#42a5f5"/><path d="M25.1 -0.58 C30.63 -1.77, 38.77 0.95, 43.92 4.37 C49.06 7.8, 54.07 13.99, 55.96 19.97 C57.85 25.95, 57.61 34.52, 55.26 40.25 C52.91 45.98, 47.58 51.57, 41.87 54.33 C36.16 57.08, 26.91 58.18, 21.02 56.78 C15.12 55.38, 10.04 50.98, 6.51 45.93 C2.98 40.89, -0.23 32.75, -0.15 26.51 C-0.07 20.27, 2.66 12.74, 7.01 8.48 C11.36 4.23, 22.53 2.37, 25.94 0.98 C29.35 -0.41, 27.43 -0.2, 27.46 0.15 M24.37 1.41 C30.11 -0.19, 37.5 0.83, 42.52 3.77 C47.54 6.72, 52.3 13.26, 54.5 19.09 C56.71 24.92, 57.68 33.29, 55.73 38.75 C53.78 44.22, 48.05 48.75, 42.82 51.89 C37.58 55.04, 30.42 58.3, 24.32 57.64 C18.22 56.97, 10.03 52.82, 6.22 47.9 C2.41 42.98, 1.58 34.49, 1.45 28.11 C1.32 21.72, 1.78 14.01, 5.44 9.59 C9.1 5.17, 20.49 2.88, 23.43 1.59 C26.38 0.31, 22.82 1.4, 23.1 1.88" stroke="#000000" stroke-width="1" fill="none"/></g><g stroke-linecap="round" transform="translate(95.54726927621005 114.69635126429944) rotate(0 28.453765869140625 28.453765869140625)"><path d="M28.19 0.07 C34.01 -0.18, 42.74 3.5, 47.52 7.35 C52.3 11.2, 56.04 17.2, 56.84 23.15 C57.65 29.1, 55.56 37.82, 52.34 43.06 C49.13 48.3, 43.15 52.48, 37.57 54.6 C32 56.72, 24.6 57.69, 18.9 55.8 C13.2 53.92, 6.41 48.48, 3.38 43.28 C0.34 38.08, -0.58 30.66, 0.68 24.59 C1.95 18.51, 5.46 10.71, 10.97 6.84 C16.48 2.96, 29.23 2.03, 33.74 1.36 C38.24 0.68, 38.14 2.52, 38 2.79 M15.32 2.08 C20.05 -0.9, 27.97 -1.3, 33.84 0.38 C39.71 2.06, 46.58 7.17, 50.52 12.15 C54.46 17.13, 57.4 24.4, 57.5 30.26 C57.59 36.11, 55.31 42.85, 51.08 47.3 C46.84 51.75, 38.29 55.9, 32.09 56.96 C25.88 58.02, 18.79 56.85, 13.83 53.66 C8.88 50.47, 4.36 43.96, 2.36 37.82 C0.36 31.67, -0.09 22.3, 1.81 16.77 C3.7 11.24, 11.4 6.58, 13.75 4.65 C16.1 2.72, 15.63 5.1, 15.88 5.19" stroke="none" stroke-width="0" fill="#ef5350"/><path d="M40.44 2.93 C45.64 5.24, 51.81 11.74, 54.32 17.46 C56.82 23.18, 57.08 31.36, 55.47 37.25 C53.87 43.14, 49.67 49.71, 44.7 52.79 C39.73 55.87, 31.7 56.42, 25.64 55.75 C19.59 55.09, 12.57 53.12, 8.38 48.81 C4.18 44.5, 0.98 36.26, 0.46 29.92 C-0.06 23.58, 1.77 15.73, 5.25 10.78 C8.74 5.84, 14.88 1.42, 21.38 0.26 C27.87 -0.9, 40.36 2.95, 44.22 3.81 C48.08 4.68, 44.91 5.05, 44.54 5.46 M21.86 0.8 C27.1 -1.34, 34.77 -0.8, 40.2 1.86 C45.63 4.52, 51.73 11.13, 54.44 16.79 C57.16 22.45, 58.28 29.85, 56.49 35.81 C54.71 41.76, 48.57 49.08, 43.72 52.52 C38.86 55.96, 33.04 56.82, 27.37 56.43 C21.7 56.04, 14.29 54.6, 9.71 50.18 C5.12 45.75, 0.72 36.23, -0.14 29.89 C-1.01 23.55, 0.81 17.07, 4.51 12.16 C8.2 7.25, 19.14 2.03, 22.05 0.44 C24.95 -1.15, 21.79 2.14, 21.93 2.64" stroke="#000000" stroke-width="1" fill="none"/></g><g stroke-linecap="round"><g transform="translate(13.24725096566317 329.5920726998463) rotate(0 269.32201735638205 -157.79603634992316)" fill-rule="evenodd"><path d="M-1.82 -315.61 C-1.82 -315.61, -1.82 -315.61, -1.82 -315.61 M-1.82 -315.61 C-1.82 -315.61, -1.82 -315.61, -1.82 -315.61 M-2.74 -309.87 C-0.59 -310.49, 0.49 -312.02, 3.68 -315.67 M-2.33 -309.27 C0 -311.24, 1.6 -313.56, 3.18 -315.55 M-1.61 -303.78 C2.45 -309.03, 7.36 -311.31, 7.73 -314.22 M-2.03 -303.86 C0.16 -307.39, 3.8 -308.99, 8.34 -315.72 M-0.24 -296.66 C0.87 -300.75, 5.85 -306.78, 14.85 -316.86 M-1 -296.79 C3.53 -304.41, 9.12 -310.5, 13.55 -315.41 M0.14 -290.05 C5.08 -295.46, 8.96 -303.82, 19.52 -316.45 M-0.84 -292.32 C5.67 -299.82, 13.42 -309.72, 19.02 -316.3 M-3.23 -285.35 C5.52 -295.42, 15.29 -303.29, 22.85 -314.49 M-2.27 -285.8 C3.93 -292.75, 9.95 -297.99, 25.26 -315.05 M-1.83 -278.18 C8.01 -290.76, 13.84 -297.2, 30.56 -315.15 M-0.66 -279.15 C7.75 -290.78, 16.58 -299.55, 29.17 -316.42 M-2.6 -273.93 C6.97 -285.58, 18.94 -295.23, 36 -314.42 M-1.1 -273.63 C12.25 -290.07, 28.34 -306.4, 35.88 -314.96 M-2.07 -269.34 C13.09 -283, 25.24 -298.25, 39.97 -315.75 M-1.96 -267.53 C13.64 -283.51, 26.6 -299.14, 40.2 -315.74 M-1.1 -260.07 C11.49 -274.55, 23.02 -288.8, 46.02 -315.53 M-1.91 -260.95 C12.27 -277.02, 26.09 -294.59, 46.63 -316.07 M-3.67 -253.53 C13.04 -268.5, 26.53 -287.22, 52.27 -314.72 M-2.11 -254.71 C10.97 -268.84, 21.84 -281.39, 50.79 -316.26 M-0.32 -248.13 C12.49 -265.16, 29.39 -285.19, 54.75 -316.37 M-1.97 -248.86 C9.43 -262.22, 21.89 -276.32, 55.41 -315.26 M-1.57 -242.66 C17.37 -262.82, 34.49 -282.29, 63.16 -317.19 M-1.85 -242.11 C23.26 -270.94, 47.82 -300.68, 61.79 -315.45 M-2.71 -235.08 C17.16 -256.65, 30.37 -275, 68.22 -317.12 M-0.34 -237.86 C20.35 -261.46, 42.44 -286.64, 67.79 -316.31 M-0.54 -232.07 C21.82 -260.65, 45.7 -289.49, 73.48 -314.91 M-2.2 -229.85 C18.69 -254.41, 40.51 -279.42, 73.24 -315.19 M-1.53 -224.59 C27.85 -258.22, 57.57 -292.86, 78.6 -313.64 M-0.95 -224.91 C26.54 -255.16, 52.6 -285.48, 77.99 -314.94 M-2.53 -217.46 C29.46 -255.89, 59.6 -288.54, 83.22 -316.32 M-0.87 -218.69 C19.66 -244.92, 41.8 -268.79, 83.33 -316.76 M-2.92 -212.94 C25.7 -245.99, 55.83 -276.64, 86.22 -315.44 M-1.53 -212.36 C27.03 -243.77, 53.85 -276.69, 87.94 -315.78 M-1.34 -208.24 C28.51 -239.2, 57.78 -272.56, 93.55 -316.51 M-1.87 -206.33 C21.78 -233.84, 46.63 -262.08, 93.43 -315.89 M0.15 -199.12 C20.07 -230.48, 46.34 -256.98, 97.56 -315.68 M-0.66 -200.98 C29.27 -238.52, 62.09 -274.05, 98.22 -315.37 M-0.61 -193.43 C38.96 -242.21, 83.11 -289.74, 104.78 -315.23 M-0.57 -194.38 C36.99 -235.49, 72.34 -279.07, 105.08 -315.71 M-2.77 -189.97 C20.34 -216.02, 47.25 -242.29, 111.26 -317.18 M-1.36 -188.23 C23.02 -216.2, 47.57 -245.56, 109.07 -315.21 M0.17 -183.74 C32.4 -221.33, 67.53 -257.89, 113.72 -314.1 M-0.64 -183.38 C22.87 -210.29, 47.49 -238.72, 114.34 -315.04 M-3.04 -177.28 C34.99 -217.13, 69.3 -256.49, 120.13 -314.42 M-1.57 -176.24 C38.88 -223.08, 80.81 -271.43, 119.42 -314.68 M-0.31 -169.51 C47.98 -225.81, 94.74 -279.49, 126.31 -313.71 M-1.11 -169.8 C26.37 -203.43, 52.75 -233.02, 125.42 -314.37 M-2.65 -163.3 C44.06 -218.39, 90.16 -270.64, 129.27 -315.55 M-1.01 -164.28 C43.57 -216.94, 89.88 -268.45, 129.96 -316.06 M0.59 -158.7 C32.46 -195.41, 67.33 -236.77, 135.68 -315.04 M-1.24 -158.94 C47.7 -214.06, 96.33 -270.37, 135.71 -314.45 M-2.25 -153.21 C38.23 -197.7, 76.39 -245.18, 141.31 -316.24 M-1.43 -152.77 C50.96 -212.17, 102.28 -271.14, 141.65 -315.73 M0.24 -147.01 C31.36 -185.48, 66.54 -225.6, 146.69 -316.21 M0 -146.33 C48.91 -203.1, 99.21 -259.72, 145.57 -315.74 M0.64 -138.32 C28.65 -176.55, 60.49 -213.39, 152 -314.45 M-0.8 -139.89 C41.36 -190, 84.06 -239.34, 151.86 -316.57 M-0.35 -135.68 C37.46 -181.5, 77.04 -224.39, 157.52 -314.88 M0.01 -134.03 C38.84 -178.74, 78.04 -223.09, 156.18 -315.88 M-0.79 -126.37 C38.33 -173.15, 79.19 -218.8, 162.61 -314.58 M-1.29 -127.66 C39.32 -174.55, 79.83 -219.52, 162.02 -316.09 M-2.37 -121.48 C58.57 -190.17, 118.06 -257.89, 169.19 -315.85 M-0.4 -121.37 C51.41 -181.2, 101.17 -239.15, 167.14 -315.53 M-0.48 -115.14 C57.18 -184.09, 120.15 -253.93, 174.4 -315.47 M0.09 -115.8 C60.92 -187.37, 124.95 -259.49, 173.18 -316 M-1.74 -108.18 C36.16 -154.34, 74.53 -195.75, 177.26 -316.06 M-0.46 -109.11 C56.29 -178.55, 114.51 -245.48, 178.98 -315.59 M-1.45 -104.72 C48.06 -160.03, 96.06 -214.05, 183.99 -315.84 M-0.83 -104.4 C71.12 -186.93, 142.22 -270.13, 183.66 -316.21 M-1.11 -96.74 C36.56 -143.86, 74.83 -187.78, 189.28 -316.33 M-0.76 -97.27 C46.32 -152.99, 94.2 -206.22, 189.3 -314.91 M-1.02 -92.72 C39.98 -134.93, 77.42 -181.19, 194.48 -315.78 M-0.12 -91.62 C45.72 -148.35, 94.19 -203.49, 194.74 -315.84 M0.8 -84.03 C67.74 -162.03, 133.86 -240.25, 198.11 -316.38 M-0.07 -85.74 C77.08 -176.67, 156.69 -269.08, 199.76 -315.68 M1.07 -78.95 C65.09 -156.3, 132.35 -231.24, 204.38 -315.14 M-0.7 -79.03 C62.42 -152.8, 125.5 -226.74, 205.14 -315.51 M-1.79 -72.7 C67.45 -150.72, 135.76 -229.18, 211.01 -316.46 M-1.03 -72.97 C47.22 -125.81, 92.63 -178.89, 210.54 -315.22 M-1 -66.47 C59.06 -137.09, 118.51 -207.33, 215.27 -314.94 M0.54 -67.58 C69.38 -146.31, 136.4 -225.05, 216.29 -316.38 M-0.28 -60.76 C67.77 -139.86, 135.84 -218.91, 221.49 -315.86 M-0.73 -60.97 C79.72 -153.1, 160.7 -246.37, 221.22 -315.52 M-1.56 -53.63 C59.66 -123.73, 119.64 -192.74, 226.63 -315.07 M-0.24 -54.98 C56.64 -120.42, 114.78 -186.73, 225.24 -314.66 M-1.42 -48.87 C76.35 -139.52, 153.75 -226.67, 231.23 -314.42 M-0.16 -48.78 C91.53 -152.66, 181.52 -257.35, 231.55 -315.34 M0.5 -41.57 C83.75 -141.25, 169.48 -239.29, 237.42 -316.07 M-0.51 -42.31 C65.01 -117.35, 128.87 -191.02, 236.21 -314.95 M-0.95 -36.13 C66.84 -115.88, 134.96 -192.71, 242.39 -316.13 M-0.36 -37.43 C65.7 -112.94, 131.58 -188.63, 242.06 -315.13 M0.17 -30.84 C51.28 -89.92, 102.91 -148.18, 246.33 -316.18 M-0.4 -31.15 C96.63 -142.02, 191.48 -250.82, 246.55 -315.42 M-1.1 -23.97 C78.51 -116.82, 159.59 -211.03, 251.55 -315.22 M0.58 -25.33 C68.13 -103.65, 136.57 -182.5, 252.11 -316.1 M0.27 -18.25 C80.85 -113.26, 161.41 -205.62, 257.56 -315.5 M-0.52 -18.48 C91.42 -125.56, 182.32 -230.17, 257.89 -315.68 M0.86 -12.25 C73.33 -95.51, 142.14 -176.6, 263.29 -315.2 M0.66 -12.85 C73.24 -95.81, 145.74 -178.82, 262.95 -316.09 M-0.6 -7.06 C93.32 -114.92, 188.27 -224.69, 269.13 -316.17 M0.35 -6.45 C56.21 -69.85, 110.25 -132.52, 268.61 -315.37 M-0.94 0.08 C65.47 -77.57, 133.91 -155.98, 274.48 -315 M0.07 -0.54 C75.33 -86.37, 149.65 -173.14, 273.57 -316.26 M2.78 3 C76.76 -82.75, 151.29 -169.17, 279.51 -314.48 M2.8 2.57 C88.86 -95.58, 175.32 -195.46, 279.34 -315.74 M6.68 1.85 C117.88 -121.63, 225.33 -244.4, 285.18 -315.08 M7.54 2.54 C82.73 -80.88, 155.6 -164.55, 284.75 -315.72 M12.29 3.27 C117.04 -115.35, 217.54 -232.63, 290.53 -315.27 M12.95 1.8 C101.32 -99.88, 190.1 -203.55, 289.92 -315.78 M18.36 3.61 C119.15 -111.08, 216.94 -224.19, 294.97 -316.26 M18.05 2.5 C116.28 -110.51, 214.49 -223.66, 295.24 -315.37 M24.85 2.08 C89.22 -71.25, 151.94 -143.26, 299.77 -315.68 M23.82 2.01 C87.5 -70.28, 151.33 -143.49, 299.98 -315.01 M27.96 2.79 C90.73 -65.74, 149.44 -134.51, 306.11 -316.56 M28.67 2.31 C98.87 -77.7, 170.11 -159.27, 305.48 -316.36 M35.25 1.49 C91.23 -60.51, 146.68 -125.08, 310.18 -314.77 M34.81 2.54 C114.13 -90.78, 195.22 -182.99, 310.6 -315 M39.44 2.48 C139.7 -113.72, 240.04 -228.94, 316.16 -316.43 M39.44 3 C147.16 -120.29, 254.44 -244.64, 315.99 -316.34 M44.16 3.24 C125.45 -87.35, 203.8 -179.41, 320.6 -314.66 M45.4 1.99 C131.16 -97.6, 218.29 -197.49, 321.62 -315.71 M50.49 2.8 C107.21 -63.12, 163.17 -127.49, 327.58 -315.61 M50.23 2.99 C155.53 -119.11, 261.33 -240.86, 326.84 -316.38 M55.05 1.27 C132 -83.97, 206.73 -171.64, 333.1 -315.13 M55.72 1.92 C159.69 -116.4, 262.86 -236.22, 332.16 -315.99 M59.95 1.88 C133.19 -78.31, 205.05 -161.73, 338.1 -316.32 M61.26 2.85 C163.73 -117.57, 267.67 -236.75, 338.21 -316.15 M66.64 1.93 C121.16 -61.02, 178.12 -125.71, 343.48 -314.72 M65.97 2.07 C149.14 -91.57, 230.83 -186.18, 342.25 -315.19 M70.96 3.38 C147.71 -84.74, 224.6 -172.15, 347.55 -315.07 M71.54 2.7 C158.53 -95.9, 244.19 -194.63, 348.12 -314.84 M76.15 1.66 C156.54 -88.45, 233.17 -177.49, 352.91 -316.05 M76.98 1.96 C180.84 -116.26, 282.7 -233.11, 353.32 -315.78 M81.47 2.62 C166.27 -96.08, 251.86 -192.74, 357.28 -315.23 M82.52 2.66 C147.38 -75.55, 214.2 -151.31, 358.76 -315.68 M86.75 2.91 C143.73 -61.25, 200.51 -126.54, 364.81 -316.23 M87.53 2.49 C151.82 -72.55, 216.54 -146.83, 363.44 -315.43 M93.75 2.57 C156.54 -73.65, 221.68 -148.08, 369.4 -315.05 M92.31 2.38 C154.19 -70.42, 216.96 -142.19, 368.86 -315.62 M97.95 2.48 C153.84 -62.98, 209.2 -127.94, 375.2 -316.45 M98.12 2.19 C207.02 -122.36, 315.48 -247.71, 374.25 -316.02 M102.7 2.09 C171.52 -77.75, 241.54 -157.88, 379.87 -316.03 M103.64 2.62 C169.09 -71.81, 234.09 -147.07, 380.01 -315.26 M108.83 1.07 C166.6 -62.04, 221.41 -125.93, 384.46 -316.64 M109.31 2.02 C194.45 -93.2, 279.24 -190.84, 385.06 -315.65 M113.95 1.32 C216.07 -114.87, 315.46 -229.44, 389.49 -314.68 M113.73 2.56 C181.21 -73.37, 247.61 -149.8, 390.2 -315.4 M118.41 2.99 C194.32 -84.28, 271.38 -170.77, 396.24 -316.55 M118.45 2.44 C200.51 -90.04, 280.07 -181.8, 395.55 -315.58 M123.63 2.7 C208.1 -93.24, 292.53 -189.94, 400.76 -316.4 M124.42 2.53 C216.76 -103.02, 307.67 -208.32, 400.67 -315.5 M129.36 3.53 C232.87 -118.74, 337.09 -239.01, 405.76 -316.83 M129.19 2.98 C188.5 -67.61, 248.94 -137.11, 406.28 -315.43 M134.34 1.41 C192.49 -66.45, 252.84 -133.26, 410.4 -315.2 M135.25 2.32 C245.72 -121.89, 354.34 -247.67, 411.17 -315.21 M140.89 3.1 C204.01 -68.69, 266.28 -140.82, 417.9 -315.8 M140.67 3.11 C202.65 -68.67, 265.66 -140.09, 417.11 -315.86 M145.58 1.3 C244.78 -112.67, 345.39 -225.23, 421.07 -316.11 M146.1 1.8 C208.49 -72.75, 271.85 -146.58, 421.54 -314.97 M150.26 3.15 C263.09 -123.74, 373.39 -250.34, 426.99 -316.91 M150.64 2.89 C206.92 -62.79, 262.8 -128, 427.74 -315.85 M156.93 3.24 C213.65 -66.91, 271.29 -132.88, 431.8 -314.92 M156.71 2.45 C227.31 -77.77, 295.45 -156.55, 432.25 -315.42 M161.75 1.56 C228.31 -76.92, 298.07 -156.21, 439.12 -314.96 M161.71 2.19 C244.41 -91.55, 327.95 -188.25, 438.21 -315.45 M166.98 1.9 C271.54 -118, 376.23 -237.85, 443.28 -316.27 M167.14 2.61 C268.52 -111.53, 367.79 -226.46, 443.85 -315.84 M172.8 2.25 C279.44 -121.33, 389.74 -248.07, 449.86 -316.19 M172.35 2.22 C233.15 -67.93, 295.1 -139.1, 449.44 -316.24 M178.66 1.69 C251 -82.37, 321.77 -164.56, 454.7 -315.59 M177.3 2.28 C257 -89.85, 337.23 -182.41, 454.32 -315.72 M183.59 3.49 C243.35 -65.58, 305.02 -133.51, 459.51 -315.36 M182.7 2.91 C275.32 -103.05, 366.68 -208.55, 458.89 -314.74 M187.54 2.95 C299.51 -125.99, 409.42 -252.02, 464.8 -315.04 M188.5 2.53 C265 -81.86, 338.94 -168.64, 464.93 -315.34 M193.86 3.19 C297.77 -116.6, 399.94 -234.58, 470.41 -314.55 M193 2.39 C290.1 -107.62, 387.37 -218.57, 470.04 -315.57 M199.92 3.02 C292.53 -106.02, 388.21 -213.37, 475.05 -316.06 M198.72 1.82 C290.77 -102.74, 383.42 -209.3, 475.46 -315.16 M203.95 2.1 C279.88 -86.81, 356.54 -172.86, 479.85 -315.57 M204.12 2.79 C276.14 -80.31, 347.08 -162.96, 480.51 -315.7 M210.48 1.54 C303.68 -105.48, 400.76 -214.95, 486.48 -316.18 M209.46 1.86 C273.51 -71.89, 338.49 -146.6, 485.75 -315.36 M213.77 2.74 C275.23 -66, 333.86 -135.34, 490.09 -315.45 M214.88 2.3 C323.28 -122.64, 432.52 -247.15, 490.55 -315.48 M220.34 1.54 C304.05 -92.96, 385.13 -188.67, 496.49 -316.49 M219.91 1.74 C308.29 -99.02, 395.99 -200.04, 496.29 -315.28 M225.95 1.98 C295.73 -76.17, 363.1 -156.09, 502.41 -315.33 M225.79 2.1 C322.67 -111.34, 420.65 -223.68, 501.81 -315.24 M231.79 1.97 C285.31 -62.99, 342.44 -126.89, 506.28 -316.28 M230.71 1.63 C298.27 -78.75, 368.11 -158.64, 506.59 -316.07 M236.32 2.72 C314.23 -90.66, 394.93 -184.18, 511.82 -315.06 M236.39 2.6 C314.95 -89.35, 395.38 -181.39, 512.57 -315.76 M240.17 1.64 C316.7 -84.11, 389.74 -171.09, 517.64 -316.26 M240.58 3.05 C325.64 -94.66, 409.1 -190.8, 517.83 -315.93 M245.55 2.19 C310.56 -73.55, 375.26 -146.31, 522.94 -316.47 M246.85 1.84 C304.63 -63.87, 363.4 -131.61, 522.56 -315.69 M252.42 3.68 C317.36 -71.91, 382.93 -148.84, 527.71 -315.37 M251.64 3.17 C320.39 -77.41, 388.95 -156.19, 528.11 -315.92 M258.12 1.52 C318.57 -71.05, 381.57 -142.08, 534.14 -315.86 M257.43 2.44 C336.25 -87.89, 416.34 -179.78, 533.43 -315.2 M262.99 1.97 C331.99 -77.23, 403.91 -157.8, 538.44 -316.07 M261.76 3.05 C338.86 -83.76, 414.47 -172.36, 539.35 -316.27 M268.52 2.55 C378.2 -122.97, 487.29 -248.85, 543.6 -314.26 M267.94 2.55 C362.54 -107.64, 458.25 -217.68, 542.7 -314.01 M272.33 2.55 C372.66 -113.96, 473.59 -230.07, 531.5 -296.64 M272.99 3.09 C344.66 -77.67, 416.15 -160.15, 531.54 -295.47 M279.39 2.59 C358.9 -90.35, 440.92 -182.82, 521.39 -276.79 M278.25 1.58 C370.16 -103.61, 461.27 -208.4, 521.71 -276.59 M283.2 2.01 C355.73 -84.77, 430.54 -168.22, 510.91 -259.18 M282.8 3.14 C361.39 -88.02, 441.43 -179.58, 511.4 -259.25 M289.27 1.38 C372.12 -93.06, 452.95 -189.94, 499.42 -240.87 M288.96 2.31 C333.06 -49.04, 377.51 -100.74, 500.87 -241.06 M292.72 1.45 C347.07 -59.64, 399.86 -119.46, 489.27 -221.27 M293.73 3.04 C355.15 -66.83, 414.97 -137.42, 489.02 -222.67 M298.66 1.2 C368.96 -76.97, 439.94 -160.87, 478.18 -205.86 M299.57 1.71 C345.29 -50.32, 391.31 -104.22, 479.15 -204.03 M303.19 1.28 C344.47 -45.45, 384.53 -89.96, 468.01 -187.3 M304.49 1.83 C364.71 -65.99, 424.05 -134.66, 468.62 -185.82 M309.35 3.21 C361.89 -55.13, 409.74 -110.9, 457.02 -167.27 M310.35 1.71 C366.64 -60.55, 419.29 -123.22, 457.78 -167.62 M316.34 2.33 C368.02 -53.56, 418.71 -112.32, 449.56 -150.29 M315.49 1.87 C347.57 -34.3, 380.79 -72.78, 448.6 -150.81 M319.22 0.59 C352.62 -35.66, 383.19 -71.39, 437.35 -130.36 M321.88 1.94 C362.07 -48.16, 404.07 -94.94, 436.64 -130.81 M326.77 4.08 C348.09 -23.34, 373.07 -52.19, 426.87 -115.02 M325.05 1.63 C353.55 -29.37, 382.59 -61.89, 426.07 -113.48 M330.99 2.08 C349.64 -20.42, 370.41 -40.83, 416.57 -95.62 M331.78 1.45 C357.57 -26.73, 383.95 -58.07, 415.9 -95.51 M337.65 1.79 C355.55 -18.24, 374.09 -43.39, 404.3 -78.39 M335.93 3.31 C356.78 -22.04, 379.37 -47.6, 405.83 -76.38 M342.19 0.74 C358.63 -16.32, 373.12 -32.94, 396.01 -56.54 M341.93 1.71 C354.98 -13.14, 369.05 -27.85, 395.39 -58.69 M349.1 1.23 C355.99 -5.16, 360.58 -15.82, 386.37 -41.58 M346.74 2.05 C361.87 -14.44, 376.01 -31.53, 384.28 -40.65 M351.01 3.54 C357.98 -5.21, 365.11 -13.23, 373.3 -20.6 M352.69 2.61 C357.23 -4.43, 363.35 -9.73, 373.58 -21.5" stroke="#ef5350" stroke-width="0.5" fill="none"/><path d="M1.18 0.74 C75.54 -0.45, 150.87 0.21, 358.28 -0.31 M0.31 -0.61 C130.78 -0.76, 261.04 -1.41, 357.69 -0.44 M357.46 -0.53 C403.73 -79.41, 449.41 -158.87, 541.67 -314.94 M357.63 0.12 C425.25 -115.19, 491.89 -231.38, 540.85 -315.1 M540.34 -316.27 C391.48 -313.58, 243.65 -313.81, -1.36 -315.03 M540.74 -315.59 C332.5 -315.93, 123.92 -315.88, -1.5 -315.29 M-1.2 -316.57 C-2.63 -208.64, -0.39 -102.65, 0.74 0.38 M-1.9 -314.99 C0.23 -189.59, 1.32 -64.09, -0.7 0.39 M0 0 C0 0, 0 0, 0 0 M0 0 C0 0, 0 0, 0 0" stroke="#000000" stroke-width="1" fill="none"/></g></g><g stroke-linecap="round" transform="translate(69.15186437156444 192.36463840179226) rotate(0 25.681884765625 25.681884765625)"><path d="M0.57 -1.81 L50.96 -0.26 L51.08 53.23 L0.8 52.75" stroke="none" stroke-width="0" fill="#ef5350"/><path d="M1.16 0.07 C9.93 -0.67, 22.48 0.08, 50.88 1.29 M-0.96 0.62 C19.36 0.17, 36.88 -0.63, 50.68 -0.51 M50.52 -1.05 C52.16 12.12, 50.75 27.52, 52.41 52.68 M51.56 0.38 C51.67 14.78, 50.51 29.87, 52.15 51.11 M49.68 50.68 C31.59 52.83, 11.45 52.48, 1.41 53.04 M51.36 52.03 C37.16 51.51, 23.14 52.53, 0.75 51.75 M-1.39 50.24 C0.59 38.54, -0.55 24.43, 0.53 1.98 M0.85 50.5 C0.14 31.11, -0.39 10.58, 0.55 -0.52" stroke="#000000" stroke-width="1" fill="none"/></g><g stroke-linecap="round" transform="translate(69.32244929398439 265.4001831978753) rotate(0 25.681884765625 25.681884765625)"><path d="M-1.81 -0.4 L51.1 -0.28 L53.23 52.16 L1.39 53.13" stroke="none" stroke-width="0" fill="#ef5350"/><path d="M0.07 -1.56 C13.99 -0.82, 28.92 -0.78, 52.65 1.22 M0.62 0.83 C18.73 0.3, 36.25 -0.19, 50.85 -0.51 M50.31 0.33 C50.48 18.99, 53.07 41.18, 52.68 51.07 M51.74 0.33 C51.26 14.32, 51.71 31.09, 51.11 52.17 M50.68 51.16 C32.56 50.15, 11.84 52.34, 1.68 50.87 M52.03 51.31 C36.54 51.43, 22.9 52.11, 0.38 51.09 M-1.12 51.55 C0.93 39.08, 0.82 29.24, 1.98 1.75 M-0.86 51.56 C-0.32 34.99, -0.95 19.84, -0.52 0.28" stroke="#000000" stroke-width="1" fill="none"/></g><g stroke-linecap="round" transform="translate(71.37946434091373 338.812819554136) rotate(0 25.681884765625 25.681884765625)"><path d="M-0.4 -0.26 L51.08 1.87 L52.16 52.75 L1.76 51.34" stroke="none" stroke-width="0" fill="#66bb6a"/><path d="M-1.56 -0.19 C19.67 0.54, 39.9 1.27, 52.58 1.13 M0.83 0.41 C17.71 -0.69, 35.12 -0.83, 50.86 0.91 M51.7 -0.69 C50.07 15.37, 52.19 28.26, 51.07 51.26 M51.7 0.14 C50.64 13.56, 52.25 25.68, 52.17 52.33 M51.16 52.93 C36.1 52.39, 23.81 52.87, -0.49 51.07 M51.31 51.19 C32.8 52.55, 14.84 52.09, -0.28 50.57 M0.18 52.53 C-0.6 34.68, 0.89 17.87, 1.75 0.25 M0.2 51 C-0.77 35.41, 0.11 20.91, 0.28 -0.91" stroke="#666666" stroke-width="2" fill="none"/></g><g stroke-linecap="round" transform="translate(224.82285423349185 470.2007742660501) rotate(0 25.681884765625 25.681884765625)"><path d="M-0.26 -0.28 L53.23 0.8 L52.75 53.13 L-0.03 50.62" stroke="none" stroke-width="0" fill="#66bb6a"/><path d="M-0.19 -0.52 C18.94 -0.08, 38.04 1.62, 52.49 0.97 M0.41 -0.19 C10.09 -1.11, 20.43 -0.93, 52.27 -0.38 M50.68 -1.08 C52.99 14.28, 52.41 26.17, 51.26 50.41 M51.5 -0.83 C52.15 17.21, 51.3 33.67, 52.33 51.18 M52.93 50.58 C41.49 52.72, 30.89 50.82, -0.29 52.62 M51.19 51.43 C36.83 52.08, 20.99 51.06, -0.8 51.82 M1.17 50.4 C1.34 40.05, 2.26 29.42, 0.25 -0.17 M-0.36 51.03 C-0.55 32.15, -0.08 12.12, -0.91 -0.2" stroke="#666666" stroke-width="2" fill="none"/></g><g stroke-linecap="round" transform="translate(226.27445348289257 543.424864842222) rotate(0 25.681884765625 25.681884765625)"><path d="M-0.28 1.87 L52.16 1.39 L53.13 51.34 L-0.74 51.85" stroke="none" stroke-width="0" fill="#66bb6a"/><path d="M-0.52 0.56 C15.11 1.34, 32.4 1.18, 52.33 -1.92 M-0.19 -0.38 C17.9 -0.72, 36.66 0.69, 50.99 -0.42 M50.29 1.9 C52.5 14.03, 51.15 25.32, 50.41 51.76 M50.54 0.59 C52.32 17.08, 52.34 35.65, 51.18 50.52 M50.58 52.57 C39.12 53.45, 23.56 51.47, 1.26 51.35 M51.43 52.21 C33.28 51.66, 13.42 50.48, 0.45 50.67 M-0.96 52.41 C0.48 40.82, 1.7 26.56, -0.17 1.7 M-0.33 50.37 C0.45 39.86, 0.18 28.49, -0.2 -0.13" stroke="#666666" stroke-width="2" fill="none"/></g><g stroke-linecap="round" transform="translate(300.4143765785957 536.812819554136) rotate(0 25.681884765625 25.681884765625)"><path d="M1.87 0.8 L52.75 1.76 L51.34 50.62 L0.49 51.71" stroke="none" stroke-width="0" fill="#66bb6a"/><path d="M0.56 -0.48 C12.68 1.35, 23.92 1.1, 49.44 1.24 M-0.38 -0.68 C19.14 -0.41, 40.21 -0.28, 50.94 -0.53 M53.26 1.05 C52.5 15.96, 51.09 31.57, 51.76 52.12 M51.95 0.78 C51.18 17.93, 52.4 34.05, 50.52 51.02 M52.57 52.78 C38.16 50.67, 21.3 52.42, -0.01 52.7 M52.21 52.11 C36.62 51.12, 20.31 51.85, -0.69 50.8 M1.05 51.9 C1.68 37.23, -0.05 19.43, 1.7 -1.72 M-0.99 51.91 C-0.34 35.22, -0.72 18.3, -0.13 -0.14" stroke="#666666" stroke-width="2" fill="none"/></g><g stroke-linecap="round" transform="translate(377.4143765785957 553.812819554136) rotate(0 25.681884765625 25.681884765625)"><path d="M0.8 1.39 L53.13 -0.03 L50.62 51.85 L0.35 52.63" stroke="none" stroke-width="0" fill="#66bb6a"/><path d="M-0.48 1.29 C16.13 0.99, 30.8 -2.07, 52.6 1.65 M-0.68 -0.51 C17.03 1.1, 34.7 -0.23, 50.84 0.17 M52.41 1.32 C50.79 13.54, 50.14 27.68, 52.12 52.03 M52.15 -0.26 C51.75 17.07, 50.76 31.36, 51.02 51.26 M52.78 53.04 C31.45 51.38, 13.77 51.66, 1.33 51.26 M52.11 51.75 C36.57 51, 22.78 51.1, -0.56 51.46 M0.53 53.34 C1.99 33.21, 0.07 16.26, -1.72 0.4 M0.55 50.84 C0.45 36.9, -0.03 24.11, -0.14 0.93" stroke="#666666" stroke-width="2" fill="none"/></g><g stroke-linecap="round" transform="translate(485.6522916176582 526.5868674056985) rotate(0 25.681884765625 25.681884765625)"><path d="M1.39 1.76 L51.34 -0.74 L51.85 51.71 L1.27 52.56" stroke="none" stroke-width="0" fill="#42a5f5"/><path d="M1.29 1.22 C15.21 1.09, 26.23 1.36, 53.02 0.83 M-0.51 -0.51 C15.32 -0.03, 28.41 -0.17, 51.53 -0.34 M52.68 -0.3 C51.75 11.69, 52.25 26.03, 52.03 51.63 M51.11 0.81 C52.63 10.99, 50.82 21.99, 51.26 52.15 M53.04 50.87 C37.67 52.98, 24.55 53.06, -0.11 51.02 M51.75 51.09 C34.8 52.2, 19.13 51.19, 0.09 51.95 M1.98 53.11 C-0.02 38.25, 1.43 23.75, 0.4 -0.72 M-0.52 51.65 C-0.4 37.46, 0.38 23.81, 0.93 0.4" stroke="#000000" stroke-width="1" fill="none"/></g><g stroke-linecap="round" transform="translate(454.4928677895332 395.4777365463235) rotate(0 25.681884765625 25.681884765625)"><path d="M1.76 -0.03 L50.62 0.49 L51.71 52.63 L1.19 51.83" stroke="none" stroke-width="0" fill="#42a5f5"/><path d="M1.22 1.13 C17.81 -2.25, 34.91 1.32, 52.19 -0.39 M-0.51 0.91 C13.1 -0.16, 26.43 0.43, 51.02 -0.54 M51.07 -0.1 C50.68 20.69, 52.39 41.24, 51.63 49.71 M52.17 0.97 C51.59 17.6, 51.43 36.78, 52.15 50.97 M50.87 51.07 C34.11 51.78, 15.68 51.69, -0.35 51.5 M51.09 50.57 C32.07 50.87, 11.32 51.65, 0.58 50.88 M1.75 51.61 C-0.31 34.95, -1.86 15.55, -0.72 -0.66 M0.28 50.46 C-0.48 40.93, -0.42 31.69, 0.4 0.69" stroke="#000000" stroke-width="1" fill="none"/></g><g stroke-linecap="round" transform="translate(729.3456354166718 248.812819554136) rotate(0 25.681884765625 25.681884765625)"><path d="M-0.03 -0.74 L51.85 0.35 L52.63 52.56 L0.47 51.12" stroke="none" stroke-width="0" fill="#42a5f5"/><path d="M1.13 0.97 C12.25 0.92, 30.01 0.52, 50.98 -0.75 M0.91 -0.38 C11.48 -0.27, 23.97 -0.08, 50.82 0.95 M51.26 -0.95 C52.1 18.85, 52.37 36.47, 49.71 52.54 M52.33 -0.18 C50.39 19.1, 51.13 39.66, 50.97 51.97 M51.07 52.62 C32.32 52.57, 13.19 50.89, 0.14 53.05 M50.57 51.82 C31.42 50.66, 12.96 51.8, -0.48 51.89 M0.25 51.19 C1.19 32.87, -0.11 17.1, -0.66 -1.99 M-0.91 51.16 C0.14 32.99, 1.2 15.29, 0.69 0.88" stroke="#000000" stroke-width="1" fill="none"/></g><g stroke-linecap="round" transform="translate(722.4143765785956 155.812819554136) rotate(0 25.681884765625 25.681884765625)"><path d="M-0.74 0.49 L51.71 1.27 L52.56 51.83 L-0.24 49.71" stroke="none" stroke-width="0" fill="#42a5f5"/><path d="M0.97 -1.92 C19.95 1.36, 38.25 -0.68, 50.61 -1.37 M-0.38 -0.42 C12.26 -0.3, 25.23 -1, 52.31 0.52 M50.41 0.4 C52.04 19.46, 51.56 35.93, 52.54 52.93 M51.18 -0.84 C51.44 13.98, 52.56 27.78, 51.97 52.07 M52.62 51.35 C32.97 51.18, 11.57 51.43, 1.69 52.86 M51.82 50.67 C33.42 51.05, 17.18 50.48, 0.52 51.63 M-0.17 53.06 C-2.17 31.28, -1.17 9.73, -1.99 1.1 M-0.2 51.23 C-0.29 39.58, 0.25 26.63, 0.88 -0.01" stroke="#000000" stroke-width="1" fill="none"/></g><g stroke-linecap="round" transform="translate(732.4143765785956 64.81281955413601) rotate(0 25.681884765625 25.681884765625)"><path d="M0.49 0.35 L52.63 1.19 L51.83 51.12 L-1.65 49.84" stroke="none" stroke-width="0" fill="#42a5f5"/><path d="M-1.92 1.24 C20.19 0.58, 36.68 -1, 50 -1.02 M-0.42 -0.53 C12.98 -0.15, 25.08 1.14, 51.89 0.66 M51.76 0.75 C52 14.91, 49.69 30.46, 52.93 50.85 M50.52 -0.34 C51.76 20.35, 51.47 39.73, 52.07 52.2 M51.35 52.7 C37.11 51.34, 23.21 53.37, 1.5 52.13 M50.67 50.8 C37.46 52.18, 22.9 52.12, 0.27 52.35 M1.7 49.64 C0.34 30.75, -0.73 9.59, 1.1 -1.05 M-0.13 51.22 C1.4 34.89, 1.16 18.51, -0.01 -0.37" stroke="#000000" stroke-width="1" fill="none"/></g><g stroke-linecap="round" transform="translate(10 11.521852842494127) rotate(0 421.1255468641009 314.56503186907076)"><path d="M0.49 0.66 C300.6 3.09, 600.23 2.69, 841.84 -0.4 M-0.21 0.07 C328.91 1.21, 658.47 1.64, 842.51 -0.06 M842.55 0.27 C841.16 184.91, 841.53 371.78, 842.05 629.78 M842.11 -0.04 C842.11 249.3, 842.04 499.2, 842.59 629.03 M842.78 629.09 C601.81 629.17, 362.31 629.71, 0.31 628.91 M842.03 629.17 C656.77 626.6, 471.04 626.9, 0.4 629.48 M-0.69 629.29 C-0.07 432.42, -0.58 236.67, -0.42 0.23 M-0.06 629.5 C0.66 497.75, 0.86 365.81, -0.15 0.1" stroke="#666" stroke-width="2" fill="none"/></g><g stroke-linecap="round" transform="translate(270.71548216683505 466.0863048775806) rotate(0 28.453765869140625 28.453765869140625)"><path d="M22.68 1.69 C28.15 -0.1, 35.71 0.44, 41.16 2.85 C46.6 5.25, 52.88 10.59, 55.34 16.13 C57.81 21.66, 57.87 30.22, 55.97 36.05 C54.07 41.88, 48.94 47.76, 43.93 51.12 C38.92 54.48, 31.87 56.86, 25.91 56.21 C19.95 55.57, 12.53 51.56, 8.19 47.22 C3.84 42.89, 0.33 35.96, -0.14 30.19 C-0.61 24.41, 0.68 17.48, 5.36 12.56 C10.04 7.65, 23.13 2.64, 27.95 0.71 C32.76 -1.22, 34.34 0.59, 34.23 0.99 M31.26 -0.08 C36.69 -0.28, 42.86 2.72, 47.32 7.17 C51.77 11.63, 57.05 20.57, 58 26.66 C58.95 32.75, 56.85 38.91, 53.03 43.73 C49.22 48.55, 41.02 53.97, 35.11 55.58 C29.21 57.2, 22.91 55.95, 17.59 53.4 C12.27 50.86, 6.21 45.72, 3.19 40.34 C0.17 34.95, -2.17 26.91, -0.51 21.12 C1.15 15.33, 8.02 9.03, 13.15 5.6 C18.29 2.16, 27.25 1.13, 30.3 0.51 C33.35 -0.12, 31.54 1.59, 31.45 1.82" stroke="none" stroke-width="0" fill="#66bb6a"/><path d="M33.62 0.1 C39.31 1.15, 46.52 6.98, 50.33 11.79 C54.15 16.6, 56.72 22.99, 56.51 28.96 C56.31 34.93, 53.18 43.09, 49.12 47.61 C45.05 52.13, 37.92 55.16, 32.13 56.08 C26.34 57, 19.39 56.3, 14.38 53.14 C9.37 49.99, 4.13 43.12, 2.07 37.16 C0.01 31.2, -0.2 22.95, 2 17.38 C4.19 11.81, 8.53 6.05, 15.24 3.74 C21.94 1.43, 36.91 2.61, 42.24 3.51 C47.56 4.42, 47.34 8.82, 47.19 9.17 M38.39 1.79 C43.59 3.97, 50.83 11.11, 53.69 16.79 C56.56 22.47, 56.76 29.9, 55.57 35.85 C54.38 41.8, 51.41 49.03, 46.56 52.49 C41.72 55.96, 32.61 57.19, 26.5 56.64 C20.4 56.09, 14.14 53.34, 9.92 49.19 C5.71 45.04, 2.12 37.78, 1.2 31.75 C0.28 25.72, 1 17.89, 4.38 12.99 C7.76 8.08, 15.51 4.19, 21.49 2.34 C27.46 0.49, 37.44 1.69, 40.23 1.88 C43.02 2.08, 38.69 3.14, 38.24 3.5" stroke="#000000" stroke-width="1" fill="none"/></g><g stroke-linecap="round"><g transform="translate(14.18414061410067 329.9732982857838) rotate(0 232.39843749999994 156.68005371093753)" fill-rule="evenodd"><path d="M0 0 C0 0, 0 0, 0 0 M0 0 C0 0, 0 0, 0 0 M-0.89 12.94 C3.16 7.31, 7.32 6.29, 12.04 0.04 M0.76 12.76 C2.59 9.34, 5.75 5.95, 11.09 -0.37 M1.11 25.85 C4.84 17.71, 11.02 12.15, 20.56 1.65 M-0.12 24.21 C7.81 15.29, 14.8 8.15, 20.34 0.88 M-1.34 36.62 C10.26 24.35, 20.12 12.34, 31.95 1.59 M0.3 36.17 C11.46 22.41, 24.12 9.12, 31.69 0.62 M-0.93 47.94 C8.7 36.6, 19.37 25.42, 41.06 -1.55 M-0.08 49.39 C11.74 35.32, 24.11 19.88, 41.97 -0.59 M-0.56 62.1 C14.33 47.74, 24.2 33.02, 53.86 -0.58 M-0.42 61.44 C19.26 39.4, 38.31 16.23, 53.44 0.59 M-0.5 74.78 C19.42 47.9, 41.46 26.76, 63.54 -0.36 M1.02 73.02 C17.11 55.18, 33.91 35.78, 63.53 1.14 M0.72 87.09 C20.27 65.51, 37.17 45.17, 75.6 -0.27 M-0.1 85.73 C13.82 68.27, 29.72 50.09, 74.73 -0.15 M-0.65 99.16 C22.73 69.2, 47.67 41.63, 84.35 0.93 M-0.29 98.28 C29.05 63.46, 58.44 30.54, 84.94 0.12 M-1.02 109.2 C31.26 73.83, 58.03 39.25, 93.96 -1.41 M0.09 109.17 C33.95 70.64, 66.6 30.57, 95.37 0.14 M-0.47 123.03 C29.26 85.63, 60.62 51.84, 106.24 1.51 M0.75 121 C35.94 79.05, 72.07 38.34, 106.19 -0.14 M0.44 134.21 C35.02 92.1, 72.97 47.82, 115.1 0.49 M0.44 134.08 C33.76 94.75, 68.85 55.11, 115.77 0.2 M-2.32 145.52 C44.47 95.94, 88.18 43.35, 126.95 -1.08 M-1.15 146.71 C49.2 88.64, 98.94 31.98, 127.02 1.28 M0.21 159.92 C30.26 123.06, 58.34 91.78, 138.99 1.2 M-0.96 158.02 C31.85 124.23, 62.42 88.88, 136.71 -0.27 M-0.55 170.87 C57 108.15, 112.5 42.65, 148.51 -0.05 M-0.95 171.5 C48.5 116.57, 95.44 61.73, 147.4 0.44 M-0.62 184.66 C46.89 129.21, 95.44 74.41, 157.9 -0.69 M-0.89 184.23 C55.36 119.87, 111.36 55.54, 159.05 0.69 M-0.92 196.36 C48.76 139.95, 97.11 85.23, 167.89 -1.32 M-0.27 195.58 C50.47 138.82, 101.82 80.62, 169.74 -0.21 M-0.36 207.06 C61.79 132.93, 125.79 60.22, 179.01 0.88 M-0.16 208.09 C37.35 163.03, 75.34 119.62, 179.41 0.47 M-1.01 220.73 C60.88 149.43, 120.75 81.53, 191.44 1.67 M0.35 219.24 C73.94 136.38, 148.08 52.11, 190.76 1.06 M0.23 232.48 C57.35 167.3, 117.31 101.01, 200.35 1.24 M-0.14 232.49 C70.88 151.73, 141.81 69.81, 200.35 1.27 M-1.8 244.31 C64.17 168.65, 127.23 93.72, 210.53 -0.13 M-0.05 244.45 C44.68 195.24, 86.79 145.81, 211.9 0.85 M-0.92 256.35 C62.38 183.54, 125.46 109.65, 222.38 1.58 M-0.19 257.08 C52.12 197.46, 103.72 136.91, 221.91 1.03 M-0.91 267.49 C48.35 214.96, 95.46 159.66, 232.94 -0.38 M-0.15 268.47 C54.03 206.41, 109.39 143.12, 232.72 0.56 M0.74 280.32 C66.22 203.44, 135.3 123.84, 243.01 1.07 M-0.16 280.47 C83.18 186.15, 165.8 89.54, 243.65 0.58 M-1.65 294.39 C90.4 191.52, 181.31 86.65, 254.28 -0.3 M-0.88 293.53 C84.93 195.49, 171.48 96.79, 254.01 0.77 M0.45 305.36 C69.53 224.92, 140.44 144.43, 263.82 1.49 M-0.63 305.38 C74.05 219.3, 148.32 134.2, 263.91 0.34 M0.77 314.44 C65.23 244.88, 128.09 171.89, 275.95 -0.15 M1.08 315.1 C63.19 243.03, 125.5 171.37, 275.27 0.35 M11.4 314.22 C69.43 252.68, 123.94 189.58, 285.58 1.11 M12.28 314.85 C83.54 234.14, 154.15 152.75, 285.99 0.96 M23.51 315.02 C103.71 222.01, 184.09 130.91, 295.46 2.27 M22.4 315.1 C131.01 192.67, 238.03 69.19, 296.09 1.35 M33.62 314.72 C114.7 220.33, 196.01 128.27, 307.01 1.35 M33.57 315.42 C91.84 249.52, 149.73 181.81, 306.59 1.58 M44.95 315.27 C132.18 211.7, 221.48 109.5, 316.68 1.2 M44.18 314.91 C151.62 193.39, 257.87 70.26, 316.89 0.87 M54.75 315.53 C142.88 214.71, 232.37 112.97, 328.49 0.28 M54.4 315.59 C137.44 220.75, 218.27 126.89, 328.03 1.6 M64.22 315.82 C148.42 217.9, 234 121.86, 338.51 1.25 M65.79 315.47 C160.28 206.42, 253.6 99.05, 337.87 1.64 M76.59 315.03 C159.48 220.68, 240.68 126.55, 349.15 0.52 M76.09 315.18 C179.37 197.25, 283.26 78.87, 349.36 1.41 M85.49 315.22 C180.78 209.26, 271.73 103.62, 358.55 0.41 M86.34 315.38 C151.02 241.73, 216.25 167.29, 359.88 0.85 M96.77 314.37 C155.01 246.29, 212.97 179.64, 367.96 3.81 M96.76 314.68 C190.57 209.84, 282.5 103.59, 367.96 4.06 M108.27 315.37 C192.37 221.97, 272.89 125.86, 369.42 12.58 M107.41 314.67 C168.22 244.17, 228.98 174.37, 370.65 13.27 M118.55 314.23 C199.94 223.8, 280.01 131.75, 372.37 23.26 M118.39 314.62 C215.69 200.59, 315.94 87.3, 373.12 22.55 M128.33 313.74 C191.11 244.76, 251.06 176.84, 375.49 32.24 M129.37 315.47 C215.44 215.78, 302.59 115.96, 375.79 30.73 M138.7 313.78 C233.51 207.47, 327.5 99.83, 377.46 38.98 M139.72 315.23 C221.2 220.26, 301.91 126.48, 377.95 39.67 M149.47 314.47 C228.87 225.47, 307.91 133.8, 383.12 47.57 M149.89 315.24 C237.97 212.24, 327.87 108.27, 382.29 49.01 M159.35 314.8 C229.72 234.38, 298.1 155.79, 384.71 57.52 M160.55 315.01 C235.41 229.09, 310.84 142.81, 384.23 57.07 M171.37 314.98 C245.84 230.36, 318.4 144.36, 386.32 65.48 M170.59 314.93 C257.25 219.07, 341.46 120.96, 387.56 66.85 M182.75 315.05 C240.09 248.62, 300 180.79, 390.49 74.18 M181.41 316.03 C249.8 238.94, 318.56 160, 389.62 75.54 M190.79 316.18 C264.69 231.13, 338.69 146.42, 393.18 85.62 M191.65 315.99 C273.94 222.65, 353.03 131.15, 392.87 84.47 M202.19 316.72 C274.08 232.44, 347.34 146.41, 397.19 91.74 M202.96 314.78 C278.77 230.94, 352.58 145.68, 396.81 92.44 M214.8 315.34 C261.18 260.69, 307.52 204.86, 398.57 102.44 M213.78 315.93 C266.91 252.33, 322.6 189.33, 399.69 101.73 M223.04 316.19 C264.77 267.89, 308.2 221.13, 401.18 109.3 M223.78 314.68 C295.21 233.87, 366.38 152.27, 401.93 111.52 M235.42 314.06 C278.28 262.53, 324.91 212.67, 405.59 120.51 M235.09 315.45 C291.37 249.16, 349.81 182.35, 405.37 119.41 M243.93 314.95 C302.08 251.4, 356.45 187.04, 408.69 129.08 M244.62 315.18 C304.78 246.32, 365.31 175.72, 407.74 128.79 M257.55 314.45 C307.46 253.85, 362.23 195.28, 411.08 136.34 M256.27 315.15 C297.7 266.35, 337.35 218.92, 411.34 137.78 M266.94 315.83 C316.9 256.51, 365.21 199.34, 413.41 145.19 M266.51 314.85 C317.53 259.01, 365.95 201.72, 413.5 146.81 M275.99 313.89 C310.56 272.76, 346.29 232.54, 417.47 155.33 M276.95 314.58 C329.46 257.14, 379.39 198.77, 415.61 155.37 M289.44 314.25 C333.45 261.62, 378.55 209.3, 418.42 162.51 M288.02 315.74 C316.44 283.28, 344.47 248.58, 418.34 163.97 M296.64 316.89 C332.58 277.66, 366.54 237.19, 423.58 170.53 M298.09 314.71 C347.04 259.47, 394.82 204.48, 422.46 171.78 M308.56 313.26 C333.64 285.17, 357.16 257.31, 426.74 181.6 M309.39 315.81 C352.89 262.03, 398.77 210.5, 425.46 181.01 M318.84 314.87 C349.8 282.9, 377.32 246.99, 426.98 192.22 M319.59 315.57 C348.8 280.61, 378.99 246, 427.44 190.27 M331.26 316.13 C354.42 287.59, 378.6 255.65, 429 197.7 M329.97 314.55 C361.37 278.66, 392.22 243.37, 430.13 199.03 M342.27 314.86 C362.39 287.22, 383.85 262.05, 432.14 209.82 M340.73 314.56 C361.87 291.03, 383.6 266.26, 433.65 208.99 M353.48 314.8 C381.8 282.3, 414.2 245.4, 437.49 216.59 M351.25 314.96 C376.35 286.29, 402.18 258.58, 436.54 216.58 M362.11 314.22 C389.29 279.12, 419.89 247.8, 437.69 223.89 M361.39 315.81 C391.71 279.56, 423.43 244.13, 439.36 226.22 M373.36 316.45 C391.49 293.39, 406.83 272.99, 443.32 235.43 M373.77 314.15 C395.13 289.85, 417.89 264.28, 441.92 234.93 M382.26 315.22 C405.62 287.07, 429.63 261.84, 444.67 242.41 M382.39 315.9 C396.91 300.08, 410.13 284.17, 444.95 243.68 M392.68 314.18 C407.47 297.83, 419.98 282.25, 446.9 251.26 M393.53 315.15 C407.08 299.88, 420.47 285.89, 448.02 253.74 M403.9 316.02 C423.22 295.43, 436.37 277.62, 451.07 261.5 M405.1 315.81 C418.25 300.69, 430.77 284.43, 450.5 260.25 M413.58 313.98 C424.33 304.27, 436.77 288.49, 454 269.28 M415.54 314.9 C429.92 298.38, 445.22 279.94, 454.2 270.36 M423.61 317.2 C438.03 304.4, 446.67 290.78, 456.6 277.44 M424.47 316.45 C432.83 305.79, 442.03 295.93, 457.57 279 M436.53 317.27 C442.44 307.41, 449.04 301.83, 459.73 287.1 M436.94 315.77 C442.43 307.05, 450.24 298.84, 460.4 289.06 M445.95 316.76 C453.92 307.86, 455.52 302.2, 461.27 295.43 M446.72 314.65 C453.58 307.96, 458.07 301.75, 462.73 296.9 M457.11 315.68 C459.38 312.18, 462.98 308.18, 466.72 306.81 M456.83 315.49 C460.32 312.45, 462.22 309.53, 466.44 305.05" stroke="#66bb6a" stroke-width="1" fill="none"/><path d="M0.52 -0.24 C73.62 -2.51, 147.54 -2.05, 364.68 0.67 M-0.22 -0.34 C94.26 0.24, 187.75 0.12, 363.51 0.85 M363.72 0.01 C397.74 101.85, 429.16 201.75, 466.73 313.11 M364.07 0.88 C385.19 69.03, 407.32 135.71, 465.3 313.79 M465.24 313.42 C326.66 313.93, 186.72 312.99, -1.33 313.77 M465.67 313.14 C358.16 313.68, 250.89 313.95, -0.55 313.32 M-1.12 312.89 C0.14 193.56, 1.03 72.6, -1.29 -0.29 M-0.32 313.85 C0.51 223.45, -0.21 133.73, 0.12 0.45 M0 0 C0 0, 0 0, 0 0 M0 0 C0 0, 0 0, 0 0" stroke="#666" stroke-width="2" fill="none"/></g></g><g stroke-linecap="round"><g transform="translate(381.83624022347567 329.1887523873463) rotate(0 233.11669921875 -3.355118381173156)" fill-rule="evenodd"><path d="M184.2 -319.53 C184.2 -319.53, 184.2 -319.53, 184.2 -319.53 M184.2 -319.53 C184.2 -319.53, 184.2 -319.53, 184.2 -319.53 M175.21 -302.22 C176.82 -305.57, 181.02 -309.66, 190.9 -318.66 M173.57 -300.53 C176.13 -304.46, 180.45 -310.2, 190.13 -318.79 M163.08 -283.83 C171.59 -294.16, 180.33 -302.08, 195.87 -317.33 M162.63 -283.3 C174.94 -296.94, 187.75 -311.92, 194.89 -319.6 M151.6 -265.71 C163.13 -278.17, 174.89 -293.91, 198.41 -319.42 M153.05 -265.66 C164.35 -278.45, 174.23 -291.06, 199.36 -319.87 M143.62 -245.48 C159.91 -266.48, 175.66 -283.53, 204.4 -317.54 M142.96 -246.9 C166.45 -273.49, 188.65 -299.56, 205.57 -318.51 M133.49 -230.47 C153.93 -255.58, 179.89 -280.77, 209.53 -320.08 M131.74 -228.2 C154.01 -252.76, 174.53 -277.75, 211.03 -319.78 M122.91 -209.31 C142.51 -234.42, 163.38 -256.07, 214.65 -320.77 M121.55 -211.32 C157.16 -251.8, 192.04 -292.01, 214.76 -318.97 M112.18 -193.48 C151.57 -240.27, 193.48 -286.85, 221.53 -318.3 M111.3 -192.32 C147.89 -235.68, 186.56 -278.44, 220.72 -319.17 M100.07 -172.88 C136.36 -218.84, 173.8 -262.83, 224.21 -317.79 M100.05 -174.29 C141.37 -223.24, 181.54 -269.54, 225.76 -318.97 M90.97 -157.23 C141.82 -216.58, 195.61 -275.15, 232.66 -318.54 M89.19 -156.98 C127.21 -202.25, 166.58 -245.11, 231.23 -319.18 M79.48 -140.08 C120.78 -187.33, 160.54 -235.28, 236.79 -318.99 M79.36 -138.07 C139.98 -207.77, 200.02 -277.72, 236.55 -318.53 M68.16 -120.36 C114.02 -171.07, 157.61 -221.49, 241.21 -317.85 M69.1 -119.6 C135.89 -195.79, 203.6 -272.76, 243.08 -320.06 M60 -101.11 C113.03 -167.2, 171.27 -231.37, 248.09 -320.11 M58.37 -102.05 C108.14 -156.25, 156.23 -211.84, 246.83 -318.44 M48.3 -82.98 C99.25 -140.4, 148.04 -199.33, 252.7 -319.14 M48.83 -83.54 C92.96 -134.29, 137.64 -187.34, 253.11 -319.37 M39.01 -65.63 C123.41 -162.46, 208.34 -261.33, 257.2 -318.3 M38.66 -66.19 C110.7 -147.77, 182.18 -229.06, 258.32 -319.13 M27.96 -47.58 C87.21 -115.39, 147.2 -185.01, 262.39 -319.45 M27.34 -48.35 C80.93 -107.87, 132.82 -167.44, 263.27 -319.08 M16.81 -30.31 C105.04 -133.12, 195 -236.72, 268.55 -320.1 M17.6 -30.09 C98.13 -124.51, 180.14 -218.11, 268.23 -318.96 M7.27 -12 C60.8 -75.36, 117.34 -137.47, 274.8 -318.49 M6.18 -11.88 C70.37 -84.29, 132.96 -155.54, 274.35 -319.52 M1 0.26 C64.65 -70.88, 127.12 -143.84, 279.49 -318.55 M1 0.99 C70.96 -79.99, 139.99 -160.39, 279.52 -319.05 M2.54 5.66 C105.26 -114.05, 209.05 -233.17, 284.15 -320.47 M2.64 5.51 C65.12 -67.46, 127.02 -137.5, 284.88 -319.58 M3.58 9.53 C76.87 -75.22, 149.86 -160.25, 290.44 -319.8 M4.14 9.74 C75.43 -72.94, 145.93 -154.26, 290.03 -319.62 M4.59 13.95 C64.87 -53.14, 122.9 -120.36, 294.61 -320.15 M5.35 14.07 C106.2 -100.73, 205.85 -215.32, 295.34 -319.64 M6.91 17.54 C96.44 -85, 184.12 -188.68, 300.75 -318.74 M7.02 18.5 C105.18 -93.31, 201.21 -203.48, 300.36 -318.88 M9.64 22.65 C100.09 -78.32, 188.55 -180.65, 305.31 -319.2 M8.94 21.94 C93.39 -73.43, 177.12 -169.75, 306.19 -319.72 M9.82 26.42 C91.12 -67.16, 172.12 -159.78, 311.81 -319.39 M9.83 27.21 C85.89 -61.34, 163.11 -150.93, 310.84 -319.52 M10.92 31.35 C93.11 -59.2, 172.12 -149.56, 315.43 -319.51 M11.49 31.34 C106.64 -77.76, 202.35 -188.33, 315.87 -319.28 M12.49 35.8 C83.53 -43.16, 152.91 -121.6, 322.18 -319.61 M13.01 35.58 C92.06 -55.19, 170.47 -145.52, 322.05 -319.25 M14.24 39.58 C79.17 -36.65, 145.71 -111.28, 327.51 -318.05 M14.31 40.38 C88.32 -43.1, 161.4 -126.97, 326.76 -318.87 M15.74 44.38 C114.58 -70.26, 215.24 -183.27, 332.43 -320 M16.3 44.65 C114.17 -67.27, 210.27 -177.86, 332.62 -319.15 M17.91 47.84 C107.48 -57.38, 198.26 -161.44, 337.33 -318.14 M17.63 48.64 C94.23 -39.09, 169.48 -125.95, 337.07 -318.81 M19.18 52.94 C100.88 -39.2, 181.49 -131.94, 342.3 -319.31 M19.23 53.93 C98.07 -37.86, 177.83 -129.51, 343.3 -319.26 M21.12 57.2 C131.85 -68.67, 243.93 -196.81, 348.05 -318.6 M20.87 57.96 C93.81 -29.11, 168.4 -115.34, 348.33 -318.93 M22.27 61.73 C91.23 -18.92, 160.26 -97.11, 353.18 -318.7 M22.39 61.55 C115.03 -43.81, 206.96 -148.78, 353.84 -319.18 M24.14 66.7 C108.33 -29.42, 192.56 -126.18, 358.1 -319.47 M24.26 65.96 C132.48 -56.55, 239.74 -179.9, 358.43 -319.3 M24.6 70.59 C136.62 -59.04, 249.91 -187.49, 364.06 -319.03 M24.82 70.93 C110.54 -25.28, 194.77 -121.59, 364.24 -319.31 M27.05 75.41 C98.66 -7.43, 168.07 -88.2, 368.87 -319.54 M26.55 74.94 C141.23 -56.71, 256.6 -188.56, 369.36 -318.95 M27.99 79.34 C110.51 -14.05, 191.59 -108.04, 375.66 -318.69 M28.26 78.71 C158.39 -70.13, 289.02 -220.11, 375.18 -319.63 M28.76 84.27 C103.19 -0.84, 178.63 -87.05, 380.59 -318.63 M29.9 83.76 C136.49 -39.06, 242.84 -161.41, 379.6 -318.67 M30.54 88.12 C134.8 -29.61, 238.36 -149.53, 384.76 -319.1 M31.47 88.36 C147.02 -46.19, 263.48 -180.11, 385.2 -319.26 M32.25 92.72 C176.89 -71.09, 319.19 -233.5, 389.96 -318.39 M32.72 92.1 C161.02 -56.2, 289.08 -204, 390.86 -319.04 M34.2 96.99 C160.65 -48.85, 288.52 -195.2, 396.18 -319.18 M34.32 96.59 C156.12 -43.3, 277.52 -183.19, 395.91 -319.3 M35.38 101.82 C145.11 -25.52, 254.13 -151.9, 400.55 -318.37 M35.36 101.53 C128.23 -2.98, 219.1 -107.47, 401.35 -319.19 M37.16 104.79 C120.56 8.3, 203.7 -87.9, 406.02 -319.3 M37.72 105.35 C142.93 -13.5, 246.48 -133.76, 406.8 -319.24 M39.52 109.74 C180.53 -51.4, 321.99 -214.61, 412.37 -318.36 M39.41 109.86 C121.88 14.41, 205.65 -81.63, 411.73 -318.83 M40.87 114.21 C190.27 -56.63, 338.38 -227.47, 416.84 -318.87 M39.82 114.54 C121.14 22.37, 200.87 -68.87, 417.22 -319.71 M41.85 118.61 C160.72 -20.82, 279.64 -157.65, 422.72 -319.22 M42.16 118.33 C173.25 -32.78, 304.41 -183.81, 422.35 -319.43 M44.01 122.09 C162.31 -11.26, 280.54 -146.87, 426.59 -318.04 M43.24 122.32 C129.79 23.43, 216.32 -76.13, 427.73 -318.96 M44 126.85 C158.4 -4.5, 273.62 -135.61, 433.35 -318.88 M44.7 127.55 C192.78 -42.49, 340.09 -211.86, 432.8 -319.05 M46.17 132.07 C154.32 9.7, 261.13 -112.82, 438.48 -318.27 M46.29 131.71 C198.03 -40.51, 348.48 -214.02, 438.34 -318.69 M47.66 135.39 C179.87 -16.52, 312.49 -168.09, 443.27 -319.52 M48 136.16 C166.46 -3.26, 286.47 -140.73, 443.96 -319.08 M50.04 140.49 C199.52 -34.37, 350.76 -207.59, 448.18 -318.61 M49.58 140.19 C131.66 45.58, 213.38 -48.77, 448.94 -319.07 M50.21 144.37 C193.22 -19.39, 336.88 -183.71, 454.35 -318.79 M50.53 145.1 C130.77 52.23, 211.55 -41.3, 454.36 -319.11 M52.11 149.68 C201.63 -24.91, 351.95 -199.11, 458.51 -319.56 M52.77 149.24 C201.76 -21.42, 348.87 -191.58, 459.16 -319.04 M54.93 153.46 C182.38 9.13, 308.54 -137.03, 464.13 -318.59 M54.05 153.51 C203.18 -17.43, 352.41 -188.83, 464.63 -319.69 M54.54 158.62 C203.69 -14.48, 354.28 -187.71, 468.63 -316.74 M55.56 157.95 C215.27 -27.76, 376.72 -213.43, 468.39 -317.57 M56.9 162.27 C161.97 41.81, 265.82 -78.58, 469 -311.19 M57.19 162.01 C218.11 -21.6, 378.02 -205.26, 468.23 -311.24 M59.13 166.03 C200.62 2.09, 340.97 -160.75, 467.98 -305.29 M58.5 166.41 C214.36 -11.22, 369.5 -189.27, 468.51 -305.64 M59.68 170.71 C169.52 41.59, 280.76 -85.92, 468.96 -299.57 M59.57 170.95 C176.09 37.66, 292.38 -96.17, 468.63 -298.78 M61.38 175.04 C169.85 51.77, 275.63 -71.04, 468.1 -292.69 M61.45 175.21 C172.88 48.53, 284.22 -79.74, 468.1 -292.3 M62.87 178.79 C205.77 13.15, 351.25 -153.89, 467.8 -286.18 M63.51 179.14 C210.58 9.66, 359.46 -161.8, 468.74 -287.13 M65.48 183.89 C198.65 28.12, 332.93 -125.03, 468.55 -280.39 M64.56 183.77 C221.02 4.42, 375.9 -174.19, 468.35 -280.25 M65.75 188.15 C196.72 39.05, 327.68 -110.66, 468.13 -275.6 M66.03 188.86 C208.99 23.63, 353.04 -142.66, 468.63 -275.11 M67.06 192.78 C202.96 35.42, 339.98 -122.15, 467.8 -269.01 M67.45 192.76 C175.79 66.85, 285.71 -59.41, 468.79 -268.28 M69.51 197.53 C190.63 57.6, 311.8 -80.26, 468.33 -262.28 M69.43 197.04 C183.02 63.13, 297.42 -69.25, 467.82 -262.18 M69.76 200.98 C208.15 46.07, 342.91 -110.05, 468.22 -255.82 M70.13 201.58 C175.9 79.62, 280.47 -41.18, 468.66 -256.33 M72.77 206.45 C166.65 97.13, 261.67 -12.77, 467.62 -250.42 M72.47 205.61 C228.91 27.53, 385.15 -152.42, 468.24 -250.19 M74.52 209.91 C211.94 50.37, 351.08 -108.83, 468.27 -244.32 M73.92 209.51 C207.21 56.13, 339.55 -95.4, 469.05 -244.29 M76.04 214.73 C157.1 120.68, 238.22 27.91, 467.73 -237.41 M75.19 214.35 C163.43 111.86, 252.18 10.49, 468.32 -237.73 M76.74 218.18 C176.45 103.48, 276.35 -10.55, 468.98 -231.54 M76.62 219.09 C164.64 118.83, 252.41 18.67, 467.9 -231.68 M78.85 222.95 C185.3 96.33, 295.02 -27.72, 468.29 -225.67 M78.08 223.28 C207.73 74.41, 337.89 -75.37, 468.42 -225.89 M79.72 226.71 C198.29 87.99, 319.84 -49.75, 467.85 -219.83 M79.93 227.3 C205.95 79.67, 332.69 -65.85, 468.56 -219.44 M80.39 232.77 C180.18 115.34, 279.85 0.44, 468.61 -214.66 M80.67 231.79 C228.79 62.23, 375.92 -107.46, 468.97 -213.95 M82.2 236 C172.21 132.16, 262.4 28, 468.45 -208.35 M82.99 235.94 C236.45 60.84, 388.75 -114.77, 468.29 -207.41 M84.68 240.37 C224.43 79.23, 364.35 -82.07, 467.79 -200.97 M84.75 240.49 C175.11 136.64, 265.18 33.13, 467.82 -201.38 M85.35 244.81 C208.28 106.34, 329.43 -33.52, 467.87 -195.24 M85.79 245.2 C176.36 138.76, 269.46 31.78, 468.47 -195.37 M86.67 249.15 C212.61 107.71, 338.13 -36.23, 468.17 -188.49 M87.21 249.1 C192.67 129.4, 298.69 8.73, 468.04 -188.9 M88.4 253.23 C209.55 116.09, 328.35 -19.76, 468.06 -184.15 M89.16 253.1 C179.18 150.25, 268.18 46.69, 468.75 -183.46 M90.38 257.22 C203.69 128, 315.95 -1.79, 468.98 -176.74 M90.66 257.93 C198.95 132.37, 308.14 6.82, 468.82 -176.74 M92.28 262.56 C222.49 113.03, 351.23 -35.87, 468 -171.41 M91.66 262.14 C168.57 173.64, 245.04 87.06, 468.39 -171.03 M93.25 265.86 C225.23 117.45, 355.35 -34.58, 468.16 -164.64 M93.71 266.37 C229.09 107.81, 366.8 -49.39, 468.45 -164.83 M95.39 270.83 C243.66 99.78, 393.34 -70.24, 468.67 -157.88 M95.32 270.44 C217.53 132.03, 338.11 -7.02, 468.51 -158.48 M96.37 274.99 C232.47 120.15, 368.45 -35.38, 468.94 -153.77 M96.04 275.96 C173.66 187.23, 250.34 98.25, 468.91 -153.3 M97.2 279.6 C184.65 180.37, 270.74 79.81, 468.37 -146.82 M97.65 279.78 C189.05 173.88, 280.76 67.9, 468.49 -146.28 M100.11 284.71 C224.35 139.83, 351.85 -7.11, 468.74 -140.43 M99.18 284.27 C180.17 188.73, 262.06 95.11, 468.4 -140.45 M101.03 288.78 C201.19 169.01, 303.42 52.42, 469.29 -134.91 M101.21 288.35 C238.37 132.52, 374.6 -23.9, 468.27 -134.47 M102.89 293.5 C214.46 162.78, 327.25 32.61, 468.99 -127.43 M102.59 293.17 C185.45 196.17, 268.23 100.74, 468.32 -127.86 M103.26 297 C219.43 164.77, 333.7 31.72, 468.11 -121.9 M104.02 297.17 C233.08 150.18, 360.06 3.18, 468.84 -122.22 M105.05 301.74 C249.06 136.1, 392.49 -30.59, 468.85 -115.59 M105.38 301.54 C232.92 156.91, 358.04 12.03, 468.21 -116.19 M106.7 306.8 C181.31 219.04, 256.48 132.56, 468.91 -109.03 M106.96 306.05 C179.59 220.8, 253.22 136.1, 468 -109.93 M109.17 310.61 C238.93 158.18, 369.67 7.65, 468.58 -104.35 M108.74 310.11 C222.21 180.35, 334.49 51.69, 468.7 -103.83 M109.82 314.84 C244.05 158.02, 380.75 0.52, 468.98 -98.07 M110.54 314.62 C180.96 230.03, 253.54 147.22, 468.21 -97.83 M115.62 313.84 C213.36 198.88, 311.5 85.91, 468.1 -91.8 M115.87 313.7 C243.63 167.96, 372.07 19.83, 468.93 -92.12 M121.45 313.92 C234.05 183.69, 346.72 53.93, 468.53 -86 M120.48 314.35 C252.74 164.01, 384.64 12.37, 468.21 -85.86 M126.32 313.67 C206.29 223.82, 284.19 133.32, 468.75 -79.54 M126.49 314.31 C244.57 178.2, 363.94 40.97, 468.62 -79.45 M130.71 314.82 C233.84 196.47, 334.98 81.38, 469.29 -73.62 M131.56 314 C206.42 227.2, 282.13 141.31, 468.47 -73.87 M137.24 313.13 C210.83 227.07, 287.1 141.27, 468.68 -66.92 M137.01 313.81 C210.42 229.34, 284.61 143.99, 468.74 -67.02 M141.61 315 C217.87 225.08, 294.9 137.91, 468.22 -62.37 M141.87 314.24 C265.55 172.41, 389.77 29.71, 468.53 -61.3 M147.72 314.02 C239.95 207.33, 333.06 102.08, 467.72 -55.26 M147.8 313.97 C261.32 182.45, 374.47 52.95, 468.75 -55.54 M152.17 313.97 C220.86 232.67, 291.52 152.44, 468.97 -47.94 M152.32 313.97 C264.54 183.79, 376.96 54.66, 468.34 -48.36 M157.91 313.42 C270.33 185.5, 381.27 59.49, 469.44 -43.76 M158.72 314.18 C221.34 242.27, 284.56 169.48, 468.86 -42.99 M163.44 314.33 C231.16 235.13, 298.78 156.03, 469.1 -37.3 M163.21 313.96 C229.19 238.03, 294.51 162.85, 468.04 -36.37 M168.05 314.43 C283.19 180.85, 399.51 45.11, 469.41 -30.81 M168.5 314.22 C247.07 226.15, 324.66 136.99, 468.89 -30.81 M173.35 314.22 C284.08 189.37, 393.09 63.32, 468.13 -24.73 M173.49 314 C255.01 221.97, 335.52 129.29, 468.68 -24.27 M179.54 313.13 C253.4 228.32, 328.31 141.84, 469.03 -17.97 M179.88 313.87 C266.09 212.93, 352.47 113.17, 468.11 -18.79 M185.04 315.05 C256.17 232.74, 327.73 150.18, 468.48 -13.08 M185.05 314.08 C246 246.81, 306.16 177.31, 468.16 -12.19 M189.96 314.3 C263.27 231.35, 335.31 148.12, 468.54 -6.85 M189.78 313.41 C280.38 209.63, 371.67 105.08, 468.31 -6.14 M194.38 314.99 C259.66 240.75, 325.5 166.3, 467.15 -0.64 M195.44 314 C296.23 199.73, 395.07 85.74, 467.89 0.52 M199.09 313.68 C305.48 191.27, 413.57 65.85, 467.78 5.13 M199.66 314.02 C263.49 240.22, 329.06 165.83, 468.43 5.49 M204.94 313.66 C298.27 206.13, 389.41 101.01, 467.22 11.35 M206.29 313.84 C265.57 247.45, 325.34 178.6, 468.12 11.73 M211.19 314.35 C289.66 225.11, 366.63 134.26, 467.99 18.58 M210.91 314.13 C302.35 210.78, 392.48 106.41, 468.67 17.57 M216.95 313.85 C315.15 201.16, 414.02 84.12, 469.07 24.14 M216.72 314.61 C303.33 211.5, 391.79 110.35, 468.51 23.84 M220.75 315.46 C297.88 222.03, 376.76 131.9, 467.08 29.73 M220.91 314.48 C291.76 236.92, 359.81 158.49, 468.69 30.55 M227.68 313.49 C286.17 248.91, 342.37 184.42, 469.04 37.3 M227.04 314.18 C284.09 246.09, 343.37 178.14, 467.97 35.78 M232.21 314.07 C279.02 258.8, 326.87 204.51, 467.89 42.7 M232.2 314.48 C290.01 248.06, 347.49 181.6, 468.39 42.3 M237.19 313.59 C304.73 234.8, 373.11 155.18, 469.35 47.92 M237.07 313.6 C299.85 241.95, 364.38 168.42, 468.24 48.91 M241.68 314.83 C295.76 253.48, 348.57 194.64, 468.38 53.88 M242.95 314.76 C329.59 214.31, 415.1 115.04, 468.21 54.52 M247.74 314.88 C311.09 239.86, 373.8 169.88, 469.42 60.35 M248.06 314.53 C328.02 222.54, 409.11 129.15, 467.82 60.9 M252.96 313.88 C318.53 240.02, 384.4 164.02, 467.72 67.32 M253.51 314.11 C304.43 256.56, 355.1 199.01, 468.88 66.68 M259.98 313.56 C314.59 250.55, 368.01 188.72, 469.3 71.92 M259.49 314.42 C323.45 239.09, 387.53 165.53, 468.89 73.71 M263.45 315.46 C312.07 259.02, 357.85 204.23, 470.04 78.7 M263.37 313.99 C315.21 255.81, 368.26 194.54, 468.49 78.54 M268.17 313.44 C340.54 231.95, 409.99 150.35, 467.04 86.64 M269.43 313.58 C315.45 259.66, 361.62 206.1, 468.61 85.65 M273.2 314.41 C319.98 259.17, 367.94 208.45, 468.49 90.7 M274.63 313.96 C331.56 248.41, 389 181.67, 468.04 91.79 M281.7 313.96 C331.11 253.5, 383.54 193.06, 468.81 96.44 M279.54 313.62 C344.77 239.9, 408.78 164.9, 468.04 96.95 M283.97 314.23 C337.78 255.32, 386.27 198, 468.86 103.53 M285.67 313.55 C343.94 244.83, 402.1 177, 467.77 103.34 M291.92 313.9 C358.39 234.93, 426.86 155.26, 469.29 109.51 M290.31 313.71 C361.84 233.87, 430.93 152.75, 468.14 108.73 M294.66 314.48 C349.33 252.18, 403.66 190.95, 467.02 114.61 M295.9 314.68 C348.34 252.63, 400.7 190.92, 468.34 114.98 M302.79 313 C338.01 270.31, 374.94 228.68, 466.71 123.34 M301.63 314.13 C368.63 238.03, 435.13 163.03, 468.24 121.48 M305.83 314.9 C340.59 275.48, 376.23 234.84, 468.21 126.19 M306.87 314.67 C361.38 252.05, 416.43 189.05, 468.11 128.39 M311.45 313.73 C374.31 244.86, 434.99 175.17, 467.96 134.62 M311.85 314.06 C363.62 253.74, 414.14 196.09, 467.73 134.27 M318.23 313.81 C360.94 261.99, 406.35 214, 469.14 138.57 M316.67 314.75 C359.52 262.29, 403.59 211.53, 467.89 140 M321.92 313.91 C357.69 271.69, 393.88 231.46, 466.76 145.86 M322.88 314.65 C353.44 280.09, 384.66 243.99, 467.78 146.88 M327.58 313.1 C377.5 258.41, 429.44 199.59, 468.2 152.25 M327.24 314.69 C378.5 254.4, 430.58 194.86, 468.11 152.28 M332.9 315.25 C364.75 277.34, 397.66 239.04, 467.55 157.53 M332.01 313.6 C365.03 276.57, 399.25 239.41, 468.4 157.35 M340.22 313.38 C370.08 275.09, 399.72 242.61, 466.5 162.88 M338.67 313.29 C387.62 256.61, 436 199.67, 468.79 165.39 M341.74 316.17 C388.34 261.18, 436.34 209.56, 470.12 170.52 M344.33 314.02 C376.15 275.58, 409.63 238.47, 468.33 170.98 M349.7 312 C383.61 275.05, 418.77 232.51, 466.69 175.45 M349.78 313.24 C376.81 283.57, 401.87 252.77, 467.72 176.56 M353.47 312.73 C387.78 274.33, 422.3 233.57, 469.48 181.04 M354.87 313.49 C385.92 278.77, 418.98 240.98, 467.16 183.92 M361.45 312.22 C389.42 278.82, 420.42 241.77, 469.19 187.59 M358.85 314.56 C384.44 285.6, 409.57 256.66, 468.64 189.65 M366.38 314.81 C392.71 282.17, 423.03 247.62, 468.57 195.08 M365.36 314.78 C402.33 272.71, 436.71 232.44, 469.14 195.65 M371.1 313.73 C401.64 280.27, 429.08 246.22, 469.57 200.29 M370.89 313.27 C392.51 288.9, 412.71 264.35, 469.47 201.16 M373.92 315.55 C394.22 290.44, 412.58 269.77, 468.63 207.31 M375.77 313.29 C401.29 282.76, 428.89 252.01, 468.24 207.07 M382.4 314.59 C401.39 288.7, 423.36 268.82, 467.87 212.67 M380.6 314.45 C401.84 290.66, 421.62 266.16, 468.65 213.9 M386.68 313.42 C415.22 279.54, 446.45 245.98, 469.69 220.03 M385.26 314.04 C417.5 278.44, 448.46 244.04, 467.77 218.4 M393.28 313.21 C415.63 285.14, 435.85 259.78, 469.3 224.91 M391.34 313.27 C407.41 294.84, 425.12 276.03, 468.75 225.01 M398.41 314.24 C416.86 289.4, 437.06 268.73, 467.96 229.83 M397.15 314.59 C414.33 293.73, 431.62 273.46, 468.69 230.94 M401.81 314.31 C426.16 289.46, 449.84 261.52, 470.23 236.8 M402.14 313.96 C421.33 289.97, 443.4 265.9, 467.55 237.45 M408.02 313.18 C423.02 294.79, 441.01 277.85, 469.15 242.44 M407.93 314.11 C430.01 286.36, 453.92 260.26, 467.99 244.84 M412.23 315 C428.56 292.88, 447.07 273.2, 466.84 250.73 M412.72 312.85 C433.54 289.15, 454.51 265.63, 467.64 250.03 M417.57 312.75 C429.86 297.96, 444.8 279.48, 469.08 255.65 M418.28 314.33 C430.98 298.39, 444.47 284.43, 468.31 255.05 M424.93 314.69 C441.52 291.24, 459.13 273.94, 468.48 262.42 M422.44 313.33 C436.58 297.86, 449.88 283.69, 468.82 261.11 M430.28 312.79 C439.43 300.49, 451.08 288.92, 467.77 269.87 M428.03 314.56 C443.65 296.57, 457.85 281.3, 468.97 268.86 M433.81 313.91 C439.86 303.42, 448.93 294.43, 466.99 275.69 M432.71 313.64 C440.65 305.31, 447.42 297.07, 468.36 274.41 M440.53 312.5 C448.51 303.57, 456.93 296.72, 470.05 279.08 M439.2 314.69 C449.14 300.97, 459.87 289.99, 467.63 279.89 M442.88 313.28 C453.5 302.96, 462.34 291.11, 469.35 285.46 M444.55 314.83 C452.14 304.91, 460.6 294.63, 468.71 286.95 M447.85 312.42 C454.23 307.79, 457.75 302.95, 466.91 293.62 M448.96 314.19 C456.68 305.39, 463.67 296.68, 468.63 291.83 M456.33 316 C456.3 308.82, 460.17 308.35, 467.71 300.23 M453.72 314.27 C458.53 308.67, 464.06 303.91, 468.5 298.6 M459.47 313.05 C462.02 312.31, 464.96 309.84, 468.56 306.14 M460.52 313.47 C462.82 311.61, 464.99 308.03, 467.65 304.5" stroke="#42a5f5" stroke-width="0.5" fill="none"/><path d="M-0.24 -0.47 C64.05 -116.57, 130.79 -230.28, 183.43 -319.71 M-0.33 0.59 C45.51 -78.19, 90.6 -157.62, 183.6 -319.07 M182.64 -318.29 C280.42 -319.87, 375.78 -318.01, 465.96 -320.48 M183.6 -318.73 C259.5 -320.23, 333.83 -320.98, 466.71 -319.19 M466.29 -318.51 C466.7 -87.29, 465.88 143.36, 466.6 311.92 M466.04 -318.98 C466.57 -164.76, 466.81 -11.07, 466.2 312.82 M465.81 311.21 C390.46 310.99, 313.64 310.5, 108.29 312.31 M466.68 313.04 C364 313.15, 261.93 313.5, 108.95 312.86 M107.51 313.57 C74.35 211.96, 37.68 109.11, -0.31 1.04 M107.88 312.48 C81.87 236.53, 54.7 160.45, 0.27 0.52 M0 0 C0 0, 0 0, 0 0 M0 0 C0 0, 0 0, 0 0" stroke="#000000" stroke-width="1" fill="none"/></g></g></svg>