<svg version="1.1" xmlns="http://www.w3.org/2000/svg" viewBox="0 0 862.2510937282018 649.1300637381415" width="1724.5021874564036" height="1298.260127476283">
  <!-- svg-source:excalidraw -->
  
  <defs>
    <style>
      @font-face {
        font-family: "Virgil";
        src: url("https://unpkg.com/@zsviczian/excalidraw@0.12.0-obsidian-4/dist/excalidraw-assets/Virgil.woff2");
      }
      @font-face {
        font-family: "Cascadia";
        src: url("https://unpkg.com/@zsviczian/excalidraw@0.12.0-obsidian-4/dist/excalidraw-assets/Cascadia.woff2");
      }
    </style>
  </defs>
  <g stroke-linecap="round" transform="translate(187.6236050942207 88.27587576925907) rotate(0 28.453765869140625 28.453765869140625)"><path d="M6.88 9.95 C6.88 9.95, 6.88 9.95, 6.88 9.95 M6.88 9.95 C6.88 9.95, 6.88 9.95, 6.88 9.95 M2.89 20.68 C6.3 14.62, 12.53 10.42, 17.29 6.77 M2.02 21.78 C5.53 17.85, 8.95 12.79, 15.73 5.35 M-0.02 29.49 C9.5 18.46, 18.71 6.56, 26.39 0.9 M0.86 27.99 C10 20.1, 17.85 9.16, 25.63 0.67 M3.46 33.45 C11.27 24.53, 20.63 14.2, 30.89 1.98 M1.52 33.74 C10.66 25, 19.1 14.6, 28.75 3.11 M4.63 39.1 C13.03 28.49, 24.16 17.59, 32.22 4.08 M4.25 38.29 C15.23 23.93, 26.43 11.31, 33.94 2.75 M5.99 42.08 C16.29 31.78, 24.27 18.34, 39.53 3.83 M4.12 43.49 C17.3 29.98, 28.35 17.3, 38.35 3.32 M7.8 45.24 C17.45 37.15, 25.93 27.06, 44.15 5.8 M6.29 47.8 C20.35 30.48, 33.35 14.9, 43.44 4.46 M11.37 48.94 C20.71 34.39, 32.75 20.46, 44.2 7.47 M8.86 49.36 C23.32 33.4, 37.52 17.45, 46.33 8.51 M14.96 52.15 C25.43 36.41, 36.57 22.21, 47.07 13.14 M13.48 50.98 C22.06 41.96, 32.24 31.18, 47.93 11.27 M17.65 53.46 C23.87 44.33, 35.71 32.73, 52.72 15.88 M16.89 53.97 C26.55 42.85, 37.26 32.02, 50.86 13.8 M20.55 54.72 C32.71 42.84, 45.96 28.23, 52.91 15.74 M20.75 55.64 C31.77 42.74, 43.84 30.18, 54.34 17.45 M24.74 56.21 C32.73 44.45, 43.85 34.61, 57.05 18.14 M25.27 57.33 C34.08 47.51, 42.37 35.9, 56.73 20.12 M30.4 54.13 C38.24 46.63, 50.01 36, 54.86 25.37 M30.98 55.67 C36.51 47.78, 45.28 39.92, 55.82 26.61 M36.21 55.27 C44.54 45.37, 47.99 38.15, 57.43 34.71 M37.77 54.18 C41.75 49.84, 45.25 45.37, 56.54 32.54" stroke="#ef5350" stroke-width="0.5" fill="none"/><path d="M24.31 0.93 C29.94 -0.26, 36.96 1.57, 42.11 4.64 C47.25 7.72, 53.03 13.62, 55.19 19.38 C57.35 25.15, 57.09 33.68, 55.07 39.21 C53.04 44.73, 48.17 49.61, 43.01 52.53 C37.86 55.45, 30.35 57.7, 24.16 56.74 C17.97 55.78, 9.94 51.53, 5.86 46.76 C1.78 41.98, -0.49 34.22, -0.33 28.09 C-0.16 21.96, 2.54 14.76, 6.83 10 C11.12 5.24, 21.78 1.04, 25.42 -0.47 C29.05 -1.97, 28.29 0.21, 28.62 0.94" stroke="#000000" stroke-width="1.5" fill="none" stroke-dasharray="8 9"/></g><g stroke-linecap="round" transform="translate(202.48465856101757 385.81365144471465) rotate(0 28.453765869140625 28.453765869140625)"><path d="M3.62 13.74 C3.62 13.74, 3.62 13.74, 3.62 13.74 M3.62 13.74 C3.62 13.74, 3.62 13.74, 3.62 13.74 M2.5 19.6 C6.17 16.19, 11.69 12.15, 21.5 -0.03 M3.6 20.52 C8.46 14.93, 12.25 8.5, 20.08 2.22 M1.83 28.04 C9.96 18.37, 17.2 11.23, 24.02 2.55 M0.33 29.8 C11.2 18.75, 19.05 8.17, 23.79 1.68 M1.29 35.13 C8.14 28.84, 13.56 21.54, 28.98 2.12 M1.59 34.5 C8.81 27.44, 14.35 19.43, 30.11 2.09 M5.18 37.6 C14.48 28.76, 23.46 14.91, 36.36 3.41 M4.37 37.54 C14.33 24.47, 26.03 12.87, 35.03 1.61 M4.97 43.42 C17.83 27.88, 27.51 16.4, 39.33 3.51 M6.38 42.73 C13.89 33.52, 22.24 23.89, 38.82 2.2 M6.37 46.89 C16.59 37.01, 24.8 28.25, 43.2 7.1 M8.93 45.4 C20.93 29.28, 34.71 15.71, 41.86 5.65 M9.8 47.94 C20.41 34.62, 31.61 20.66, 45.26 9.82 M10.22 48.46 C23.25 34.17, 36.3 20.44, 46.31 8.45 M13.51 51.71 C19.02 41.97, 26.11 33.87, 50.57 9.83 M12.33 51.56 C23.14 41.86, 32.15 30.5, 48.71 10.11 M17.28 51.56 C29.16 41.87, 38.59 29.12, 53.71 12.85 M17.79 52.82 C25.25 45.33, 32.98 35.75, 51.63 13.84 M20.34 55.22 C32.32 44.84, 41.62 31.05, 53.21 16.74 M21.27 54.6 C29.3 46.26, 37.63 37.82, 54.92 15.75 M24.29 55.53 C35.2 43.58, 48 29.4, 54.03 20.32 M25.41 56.89 C34.79 45.72, 42.38 35.8, 56.02 21.36 M27.7 55.79 C40.79 46.9, 50.76 33.18, 55.92 25.15 M29.23 56.33 C39.88 45.99, 50.53 32.97, 57.17 26.01 M38.35 55.52 C43.58 43.77, 51.45 38.07, 59.92 28.86 M37.26 54.63 C42.09 48.81, 46.82 44.63, 57.75 29.89 M42.63 53.87 C48.25 46.18, 54.01 44.25, 60.76 35.49 M44.69 53.65 C47.54 48.74, 52.05 43.84, 59.57 34.97" stroke="#66bb6a" stroke-width="0.5" fill="none"/><path d="M19.16 0.91 C24.59 -1.53, 33.05 -0.63, 38.76 1.57 C44.46 3.77, 50.33 8.73, 53.41 14.11 C56.49 19.5, 58.44 27.72, 57.23 33.89 C56.01 40.06, 50.83 47.39, 46.11 51.13 C41.39 54.87, 34.82 56.5, 28.88 56.31 C22.95 56.12, 15.25 53.8, 10.5 49.99 C5.75 46.19, 1.51 39.56, 0.4 33.48 C-0.71 27.39, 0.48 18.92, 3.83 13.5 C7.18 8.07, 17.13 2.85, 20.49 0.92 C23.85 -1.02, 23.62 1.45, 24 1.89" stroke="#000000" stroke-width="1.5" fill="none" stroke-dasharray="8 9"/></g><g stroke-linecap="round" transform="translate(684.6424954750802 332.51908560812626) rotate(0 28.453765869140625 28.453765869140625)"><path d="M8.95 6.46 C8.95 6.46, 8.95 6.46, 8.95 6.46 M8.95 6.46 C8.95 6.46, 8.95 6.46, 8.95 6.46 M0.83 19.67 C6.26 16.39, 11.05 12.84, 15.25 3.8 M1.75 21.2 C7.46 13.5, 12.34 8.14, 17.51 4.36 M1.76 26.32 C6.96 19.1, 14.68 13.33, 24.43 3.84 M3.52 26.81 C10.1 17.57, 17.16 9.53, 23.56 1.14 M4.26 31.19 C12.49 21.97, 19.71 13.54, 28.63 0.84 M3.63 31.65 C10.72 22.98, 16.87 15.86, 28.6 2.15 M4.4 37.07 C12.69 29.1, 15.98 21.33, 34.65 4.2 M4.34 35.4 C11.13 27.58, 19.4 18.09, 32.84 3.75 M5.17 43.41 C10.6 32.76, 20.12 24.91, 37.96 3.15 M4.48 43.42 C15.38 30.98, 25.82 16.7, 36.66 3.77 M8.28 46.16 C17.06 35.73, 26.99 24.43, 43.26 7.22 M6.79 45.5 C17.75 32.08, 31.25 17.18, 41.8 5.81 M8.97 46.64 C16.91 37.11, 24.26 28.98, 47.03 8.62 M9.48 48.5 C20.58 36.53, 32.18 24.08, 45.66 6.5 M12.38 50.09 C24.11 34.66, 37.52 22.48, 48.09 8.49 M12.22 51.8 C22.15 41.36, 30.4 30.37, 48.37 9.53 M14.13 54.65 C29.18 39.15, 41.19 27.83, 50.85 11.03 M15.39 54.07 C25.95 43.2, 34.41 31.38, 51.84 12.71 M18.94 57.78 C33.07 42.26, 43.77 25.23, 54.48 14.71 M18.32 56.62 C27.51 47.13, 36.6 36.51, 53.49 16.94 M23.78 53.71 C32.07 47.18, 38.13 38.83, 54.88 19.97 M25.14 56.58 C32.91 45.07, 41.98 35.47, 55.91 20.82 M27.91 57.67 C39.33 47.71, 45.93 34.81, 56.52 25.88 M28.45 56.06 C36.73 48.66, 42.33 40.92, 57.38 25.13 M35.94 54.23 C38.37 48.23, 46.81 45.86, 54.43 29.89 M35.05 56.32 C41.73 48.09, 50.05 38.79, 55.46 31.38 M41.19 56.1 C43.48 51.85, 51.57 46.29, 55.25 38.41 M40.96 55.35 C45.84 49.9, 50.73 45.43, 54.73 38.3" stroke="#42a5f5" stroke-width="0.5" fill="none"/><path d="M27.2 0.68 C32.89 0.2, 41.45 2.9, 46.32 6.76 C51.18 10.62, 55.12 18.03, 56.38 23.84 C57.65 29.64, 56.71 36.35, 53.9 41.6 C51.09 46.86, 45.42 53.04, 39.52 55.37 C33.62 57.7, 24.48 57.65, 18.51 55.58 C12.54 53.52, 6.72 48.25, 3.69 42.98 C0.66 37.72, -0.55 30.1, 0.34 23.99 C1.23 17.89, 4.13 10.3, 9.02 6.37 C13.92 2.44, 25.82 1.18, 29.7 0.4 C33.59 -0.37, 32.37 1.2, 32.33 1.71" stroke="#000000" stroke-width="1.5" fill="none" stroke-dasharray="8 9"/></g><g stroke-linecap="round" transform="translate(69.15186437156444 190.84278555929814) rotate(0 25.681884765625 25.681884765625)"><path d="M0 0 C0 0, 0 0, 0 0 M0 0 C0 0, 0 0, 0 0 M-0.7 5.82 C1.33 5.58, 2.9 2.81, 4.54 0.64 M-0.44 6.73 C0.96 5.02, 2.87 3.36, 4.89 0.04 M-1.11 13.49 C2.72 7.21, 7.23 2.16, 11.68 -0.22 M-0.13 12.78 C3.33 7.95, 6.57 3.62, 10.12 0.02 M-0.55 17.82 C5.31 13.07, 9.15 6.04, 16.38 1.62 M0.43 17.53 C4.8 14, 9.26 7.52, 16 0.81 M1.32 23.89 C5.39 17.71, 12.55 9.75, 22.33 -0.68 M-0.44 24.66 C7.86 15.54, 15.21 6.39, 20.47 0.73 M1.67 30.43 C7.99 17.96, 18.24 7.07, 27.43 -1.29 M0.41 31.2 C10.07 19.82, 20.55 7.94, 25.92 1.27 M0.61 38.34 C7.9 26.47, 19.91 13.16, 33.62 -0.62 M-1.15 36.12 C8.2 28.25, 17.42 17.69, 31.11 -0.2 M1.42 43.74 C11.22 32, 18.23 20.68, 38.53 1.09 M-0.37 42.01 C11.51 30.53, 20.5 18.52, 37.04 -0.09 M1.19 48.62 C9.8 35.67, 20.8 25.3, 43.19 0.13 M-0.38 49.73 C9.82 37.74, 17.28 26.91, 42.42 0.64 M3.26 52.56 C12.95 40.2, 25.22 26.49, 47.4 -0.12 M1.97 52.78 C14.44 36.94, 28.64 19.71, 47.6 0.8 M9.2 54.4 C18.6 39.24, 31.46 24.57, 52.89 -0.14 M6.7 52.94 C18.92 38.31, 31.77 24.48, 53.43 0.98 M11.47 53.5 C26.93 37.29, 42.56 19.48, 51.99 5.33 M13.05 52.34 C20.32 42.29, 30.53 31.64, 52.57 6.87 M18.44 51.81 C25.27 45.27, 33.15 35.37, 50.59 14.77 M17.12 53.36 C30.83 38.66, 40.75 26.44, 52.15 13.68 M24.42 54.14 C31.02 41.79, 39.95 33.57, 53.63 17.74 M23.6 53.75 C34.23 41.15, 43.74 29.18, 51.85 19.8 M27.51 54.55 C39.02 40.94, 46.37 29.51, 50.28 26.26 M28.22 52.89 C37.47 42.91, 47.25 30.79, 52.77 25.04 M34.84 52.82 C37.47 48.14, 46.04 38.74, 51.09 29.98 M32.72 53.08 C39.02 47.53, 45.2 41.37, 53.25 31.61 M40.46 52.88 C41.71 50.59, 43.55 44.8, 53.31 36.65 M39.31 51.78 C41.75 48.14, 45.67 44.41, 51.83 37.51 M43.2 51.91 C46.25 49.19, 48.85 46.1, 50.81 43.52 M43.84 52.94 C47.05 49.54, 50.05 46.84, 51.41 43.6 M49.7 52.3 C50.77 51.77, 51.7 50.37, 52.06 49.37 M49.67 52.68 C50.84 51.27, 51.73 50.13, 52.24 49.68" stroke="#ef5350" stroke-width="0.5" fill="none"/><path d="M-0.06 0.98 C14.19 -1.32, 27.53 0.14, 52.1 -0.04 M53.27 0.64 C50.48 19.67, 51.02 38.22, 51.31 51.51 M52.11 53.17 C42.18 50.98, 30.25 50.8, 0.1 51.56 M0.28 50.94 C-1.88 39.64, -2.01 30.03, -0.19 0.48" stroke="#000000" stroke-width="1.5" fill="none" stroke-dasharray="8 9"/></g><g stroke-linecap="round" transform="translate(69.32244929398485 263.8783303553812) rotate(0 25.681884765625 25.681884765625)"><path d="M0 0 C0 0, 0 0, 0 0 M0 0 C0 0, 0 0, 0 0 M-0.84 6.66 C2.5 4.59, 3.31 1.39, 5.27 0.05 M0.07 6.25 C1.59 4.92, 3.16 2.54, 4.67 0.76 M1.58 10.52 C4.07 6.37, 7.8 4.08, 10.45 0.52 M0.87 11.74 C3.35 7.73, 6.34 4.01, 10.68 0.01 M-0.74 19.2 C5.88 11.53, 10.25 5.77, 16.91 0.1 M-1.04 18.93 C6.35 12.2, 10.81 5.6, 16.1 0.05 M0.07 23.39 C5.9 18.51, 9.92 12.6, 20.64 1.39 M0.85 23.89 C7.49 15.79, 14.11 7.9, 22.06 0.7 M-0.05 28.7 C7.89 18.45, 17.42 10.65, 24.66 1.84 M0.73 30.72 C9.34 21.27, 17.47 10.23, 27.22 0.35 M1.21 35.15 C10.03 26.45, 17.36 17.03, 31.37 -0.88 M-1.02 36.64 C7.91 29.57, 14.12 20.03, 31.79 -0.36 M1.36 43.65 C13.25 26.51, 25.56 16.23, 37.71 -0.13 M-0.37 43.43 C9.69 31.19, 19.18 20.69, 36.53 -0.28 M-0.42 48.82 C15.51 29.66, 34.06 10.55, 42.79 -1.79 M0.69 49.88 C14.62 30.57, 29.77 13.7, 43.3 -0.53 M1.09 52.76 C19.01 33.62, 35.64 14.49, 47.16 0.36 M1.31 52.26 C19.29 31.88, 35.93 12.36, 48.09 -0.26 M8.97 52.9 C22.87 35.55, 37.28 15.9, 51.77 -0.08 M7.51 51.75 C15.82 42.32, 24.96 32.93, 52.89 1.28 M12.7 53.36 C29.02 36.49, 43.75 17.19, 50.58 5.46 M11.53 52.53 C26.98 35.93, 41.87 18, 52.12 6 M17.05 53.16 C28.61 42.29, 36.86 27.6, 53.37 14.25 M18.59 53.61 C25.21 43.1, 34.26 35.13, 52.27 13.36 M24 52.58 C32.58 40.07, 45.26 29.22, 51.09 20.15 M23.61 53.86 C32.12 42.31, 41.22 31.6, 53.15 19.92 M30.45 53.73 C32.9 45.65, 37.56 38.23, 52.95 27.19 M28.79 52.24 C35.08 46.33, 39.22 40.17, 51.72 25.55 M33.35 51.1 C42.26 45.86, 46.42 35.96, 51.42 30.81 M33.61 52.98 C39.59 47.8, 44.96 41.78, 53.05 30.35 M39.45 52.14 C44.6 46.3, 46.27 44.36, 51.43 36.48 M38.35 51.82 C41.89 48.53, 45.33 44.33, 52.29 37.94 M43.1 52.25 C45.27 50.17, 47.07 47.8, 51.64 44.54 M44.13 53.13 C46.98 49.87, 50.53 45.44, 51.72 44.15 M49.53 52.64 C50.9 51.68, 51.41 50.25, 52.24 49.86 M49.91 52.56 C50.23 51.81, 50.81 51.12, 52.55 49.5" stroke="#66bb6a" stroke-width="0.5" fill="none"/><path d="M0.98 1.09 C12.04 1.36, 27.24 0.75, 51.33 1.46 M52 -1.2 C51.5 17.86, 50.89 36.97, 51.51 49.71 M53.17 53.34 C38.44 52.76, 25.68 51.66, 0.2 49.44 M-0.42 49.98 C-1.5 29.47, -0.65 10.42, 0.48 -0.72" stroke="#666666" stroke-width="1.5" fill="none" stroke-dasharray="8 9"/></g><g stroke-linecap="round" transform="translate(71.37946434091418 337.2909667116419) rotate(0 25.681884765625 25.681884765625)"><path d="M0 0 C0 0, 0 0, 0 0 M0 0 C0 0, 0 0, 0 0 M0 7.15 C1.7 4.31, 2.27 3.32, 4.68 0.47 M-0.41 6.58 C1.5 4.91, 2.36 2.94, 5.39 0.66 M-1.39 12.11 C2.88 7.35, 9 2.87, 11.18 0.17 M-0.17 12.09 C3.73 6.95, 7.91 2.51, 10.67 0.54 M0.63 18.64 C4.82 11.31, 10.92 8, 15.39 1.58 M0.37 19.34 C6.12 11.41, 12.03 5.41, 15.34 -0.1 M-0.42 24.1 C5.38 17.57, 10.18 13.18, 22.72 0.37 M0.08 24.48 C5.41 17.74, 10.92 11.79, 22.03 0.37 M-1.77 29.46 C7.39 19.54, 19.05 8.06, 27.8 0.85 M0.24 31.36 C9.93 20.07, 18.03 10.01, 26.31 0.19 M-1.98 37.49 C6.64 27.65, 14.56 20.89, 31.12 -1.68 M-0.5 37.81 C9.21 27.31, 16.41 17.33, 31.63 0.17 M1.27 43.49 C8.08 31.87, 21.8 19.79, 36.49 -0.5 M1.04 42.14 C8.44 32.39, 17.54 22.78, 36.34 1.21 M-0.22 47.97 C14.98 32.45, 30.27 14.68, 40.87 1.04 M0.84 48.74 C15.3 29.67, 32.18 12.22, 42.13 0.47 M1.29 54.31 C18.15 34.92, 35.07 13.66, 47.65 1.91 M0.79 53.5 C17.9 32.82, 35.89 14.16, 47.03 0.75 M7.47 52.48 C23.19 33.53, 36.68 17.53, 51.83 -1.41 M6.32 52.46 C23.44 33.9, 40.57 15.95, 53.19 1.46 M12.56 54.28 C25.53 39.64, 36.05 23.77, 50.71 8.59 M11.73 52.79 C26.5 36.72, 40 21.16, 51.25 6.98 M18.39 53.42 C31.88 37.07, 41.58 25.15, 52.84 11.95 M18.84 51.8 C24.29 44.81, 32.23 36.68, 51.95 14.03 M22.44 51.76 C29.61 45.08, 38.46 34.72, 53.49 19.1 M23.72 53.03 C29.09 45.3, 35.34 38.27, 53.27 18.35 M29.62 51.74 C37.09 40.1, 45.19 32.04, 53.87 24.26 M28.13 53.45 C35.68 43.91, 42.95 36.35, 52.24 25.95 M31.63 54.85 C38.3 47.46, 40.34 42.19, 52.24 30.57 M33.5 53.8 C39.86 47.6, 45.35 40.87, 51.79 31.1 M38.71 53.99 C40.87 47.7, 46.95 43.83, 51.26 36.62 M38.39 51.85 C42.11 48.41, 44.94 45.5, 52.71 36.67 M43.44 52.37 C46.06 49.4, 48.39 46.45, 52.66 44.86 M44.32 52.79 C47.11 50.36, 48.73 46.73, 52.27 44.01 M49.86 52.83 C50.75 51.51, 51.17 50.42, 52.73 49.14 M49.79 52.43 C50.28 51.74, 50.83 51.29, 52.38 49.6" stroke="#66bb6a" stroke-width="0.5" fill="none"/><path d="M1.09 -1.68 C13.13 -0.47, 24.31 -0.29, 52.83 1.21 M50.17 0.5 C51.2 11.62, 51.8 23.6, 49.71 50.26 M53.34 51.01 C37.48 51.3, 21.3 52.03, -1.93 53.3 M-1.38 50.1 C-1.59 33.17, -0.26 16.28, -0.72 -0.37" stroke="#666666" stroke-width="1.5" fill="none" stroke-dasharray="8 9"/></g><g stroke-linecap="round" transform="translate(224.5193874366173 468.67892142355583) rotate(0 25.681884765625 25.681884765625)"><path d="M0 0 C0 0, 0 0, 0 0 M0 0 C0 0, 0 0, 0 0 M0.49 6.85 C0.65 4.45, 2.64 3.11, 5.1 0.01 M-0.08 6.79 C1.13 4.78, 2.04 3.74, 5.29 0.63 M0.21 10.83 C2.2 10.51, 4.5 7.33, 10.84 1.45 M0.18 11.48 C2.58 8.35, 5.69 5.67, 11.2 0.17 M0.07 18.23 C3.03 14.1, 10 8.05, 16.87 1.87 M0.78 18.85 C5.3 12.3, 11.73 5.19, 15.19 -0.54 M0.28 24.84 C6.31 16.71, 14.47 8.59, 21.69 -0.7 M0.66 23.42 C5.2 17.8, 10.54 13.83, 21.7 0.38 M-1.01 29.06 C9.55 20.32, 18.55 9.12, 26.81 1.33 M0.89 31.29 C9.13 19.81, 18.64 9.91, 26.15 -0.65 M0.36 37.31 C9.14 26.19, 21.03 10.98, 30.31 -0.78 M0.67 37.46 C6.84 28.37, 13.49 21.09, 32.17 -0.34 M1.11 40.6 C14.5 28.57, 27.48 11.13, 36.13 -1.11 M-0.24 42.1 C8.97 31.83, 18.3 20.6, 37.83 0.78 M-1.07 49.32 C16.3 31.66, 31.42 11.39, 43.7 1.43 M-0.3 48.07 C10.83 34.95, 23.65 21.21, 43.12 0.57 M2.84 53.04 C20.68 32.73, 36.64 12.69, 49.19 1.72 M2.04 52.36 C16.71 35.63, 33.4 17.18, 48.03 0.49 M7.05 54.35 C23.1 32.23, 42.16 10.4, 50.51 1.68 M7.03 52.53 C18.14 41.11, 29.89 27.98, 53.38 0.57 M13.48 54.21 C23.09 40.61, 31.49 27.22, 53.84 7.93 M11.98 53.78 C27.31 35.9, 43.11 16.92, 52.23 7.68 M18.65 54.16 C28.05 38.24, 41.86 27.57, 50.54 11.45 M17.04 51.81 C25.73 43.58, 33.32 34.5, 52.62 12.85 M21.62 52.71 C34.51 41.44, 43.75 28.43, 52.44 17.52 M22.89 52.85 C33.86 39.44, 45.56 28.08, 51.69 19.91 M27.64 51.86 C32.47 43.81, 40.92 40.58, 50.94 25.23 M29.34 52.84 C34.16 45.9, 40.95 37.92, 52.63 24.63 M35.37 53.72 C39.84 43.65, 46.43 36.74, 52.01 30.82 M34.32 53.69 C38.7 48.77, 42.55 42.39, 52.54 30.68 M40.56 50.98 C43.02 48.11, 47.92 40.52, 51.4 36.23 M38.41 52.45 C42.79 47.41, 47.67 43.47, 51.45 37.87 M43.56 52.12 C45.47 49.76, 47.38 49.57, 52.98 44.18 M43.98 53.31 C46.53 50, 47.88 48.53, 52.12 44.03 M50.05 52.65 C50.48 51.33, 51.15 51.13, 52.01 49.22 M49.66 52.44 C50.35 51.59, 51.27 50.94, 52.47 49.59" stroke="#66bb6a" stroke-width="0.5" fill="none"/><path d="M-1.68 1.35 C15.04 0.46, 30.49 1.18, 52.57 -1.44 M51.87 -0.66 C51.42 20.24, 51.68 38.93, 50.26 51.24 M51.01 52.57 C33.51 51.97, 16.91 49.94, 1.93 52.29 M-1.27 49.85 C-0.31 35.06, 0.59 18.41, -0.37 -1.38" stroke="#666666" stroke-width="1.5" fill="none" stroke-dasharray="8 9"/></g><g stroke-linecap="round" transform="translate(226.27445348289257 541.9030119997277) rotate(0 25.681884765625 25.681884765625)"><path d="M0 0 C0 0, 0 0, 0 0 M0 0 C0 0, 0 0, 0 0 M0.19 5.97 C0.46 5.26, 1.8 3.71, 4.64 0 M0.13 6.5 C1.67 3.74, 4.18 2.05, 5.26 0.05 M-1.08 11.89 C5.39 7.14, 9 2.81, 12.12 -0.56 M-0.43 11.79 C3.78 7.36, 8.45 3.15, 10.83 -0.2 M-0.34 17.15 C4.81 14.84, 8.05 9.92, 17.16 1.44 M0.29 18.1 C3.45 15, 6.08 10.31, 14.75 0.85 M1.03 22.7 C7.52 16.45, 14 10.5, 20.63 -1.49 M-0.4 24.34 C7.04 16.15, 16.11 7.15, 21.71 0.76 M-1.41 29.96 C9.26 20.05, 17.44 13.22, 27.29 1.1 M0.81 30.88 C9.38 19.98, 19.55 7.66, 25.31 0.72 M0.18 35.5 C13.8 22.45, 23.3 7.58, 31.22 -1.88 M0.32 36.91 C6.25 28.2, 13.96 20.3, 31.65 0.54 M-1.79 43.76 C14.81 27.92, 26.03 11.09, 35.51 -0.76 M-0.29 42 C9.08 31.77, 17.54 22.53, 37.4 0.92 M0.27 49.67 C12.72 35.41, 22.56 22.33, 44.09 -0.65 M-0.97 48.58 C15.55 31.09, 31.5 12.22, 43.23 0.7 M1.57 54.38 C14.2 37.87, 27.1 25.35, 49 0.99 M0.89 52.49 C14.6 39.04, 26.54 24.59, 47.77 1.21 M8.92 50.93 C25.09 31.81, 41.57 10.37, 53.59 -0.47 M7.1 52.52 C23.5 36.04, 38.12 19.43, 52.48 0.21 M13.41 53.48 C24.87 36.18, 36.57 24.51, 53.19 8.65 M12.97 52.45 C22.07 42.31, 30.03 31.74, 52.93 7.27 M19.39 51.44 C25.23 43.7, 36.33 30.69, 50.05 11.91 M17.04 53.06 C30.39 38.55, 42.93 24.25, 51.45 14.17 M22.57 53.66 C34.75 39.73, 45.17 28.93, 50.86 20.54 M22.71 53.16 C33.16 40.95, 45.7 26.69, 53.26 18.53 M27.76 50.91 C35.91 42.72, 48.9 29.9, 51.91 24.89 M28.74 51.87 C37.06 43.02, 44.33 34.95, 51.32 26.1 M34.24 52.29 C37.86 45.26, 44.6 39.42, 52.26 29.56 M34.22 53.92 C40.18 46.48, 44.68 39.11, 52.11 31.73 M37.55 51.67 C44.37 46.88, 46.48 42.06, 51.01 37.85 M39.01 51.91 C41.74 49.33, 45.55 45.13, 52.65 36.71 M43.31 52.43 C44.7 50.65, 48.25 50.03, 52.3 43.33 M44.5 53.33 C45.91 49.91, 49.17 47.55, 52.15 43.78 M49.88 52.48 C50.07 51.63, 51.38 50.66, 52.09 49.35 M49.66 52.46 C50.6 51.56, 51.74 50.33, 52.46 49.7" stroke="#66bb6a" stroke-width="0.5" fill="none"/><path d="M1.35 -0.22 C18.65 0.4, 37.29 1.64, 49.93 1.9 M50.71 -0.1 C51 17.2, 49.4 33, 51.24 52.11 M52.57 50.84 C31.42 51.47, 9.34 53.21, 0.92 51.64 M-1.51 50.95 C0.16 37.52, -0.37 22.35, -1.38 -0.23" stroke="#666666" stroke-width="1.5" fill="none" stroke-dasharray="8 9"/></g><g stroke-linecap="round" transform="translate(300.4143765785957 535.2909667116418) rotate(0 25.681884765625 25.681884765625)"><path d="M0 0 C0 0, 0 0, 0 0 M0 0 C0 0, 0 0, 0 0 M-0.69 5.95 C1.71 4.06, 3.28 2, 4.62 1.03 M-0.16 6.3 C0.78 5.15, 2.79 3.43, 4.68 0.72 M-0.02 13.09 C2.1 10.19, 4.64 8.65, 10.11 1.43 M-0.11 11.53 C2.93 8.99, 6.21 5.98, 10.46 -0.28 M-1.41 19.21 C6.47 12.11, 11.74 7.76, 16.73 -1.5 M-0.47 18.82 C5.69 11.76, 10.29 4.85, 16.14 0.23 M-1.11 25.15 C5.22 19.05, 11.85 10.54, 19.84 1.09 M0.53 23.29 C6.87 18.2, 12.42 11.09, 22.09 -0.09 M-0.52 31.66 C4.12 25.84, 11.81 18.95, 27.06 1.74 M0.41 30.15 C9.21 20.55, 16.64 9.77, 26.68 1.02 M-1.63 38.61 C5.99 28.13, 11.8 20.32, 30.11 -1.63 M-0.22 36.1 C8.18 26.22, 17.43 16.03, 32.53 0.51 M1.37 44.17 C13.86 27.42, 25.38 11.37, 35.86 -0.75 M-0.39 42.69 C14.31 25.63, 29.95 10.18, 37.54 0.11 M0.63 49.58 C12.96 32.71, 26.45 21.46, 42.01 1.48 M-0.46 48.82 C17.66 29.44, 34.39 11.08, 43.36 -0.38 M2.92 52.94 C14.01 38.12, 29.14 24.4, 48.28 -0.33 M1.02 53.14 C12.05 41.24, 22.12 30.34, 48.5 1.1 M5.5 53.06 C20.69 35.35, 33.55 20.85, 51.44 1.15 M7.08 53.59 C17.2 42.51, 27.16 30.91, 52.12 0.83 M12.68 52.78 C22.97 36.65, 38.92 24.52, 53.9 5.62 M11.65 53.36 C22.26 40.16, 32.43 30.28, 52.52 6.58 M16.67 51.24 C30.24 40.41, 38.55 24.8, 50.5 14.84 M18.3 52.8 C32.07 37.25, 46.01 21.11, 52.76 13.96 M23.52 54.25 C30.03 44.65, 39.64 32.52, 53.89 20.56 M23.02 52.47 C35.06 40.75, 45.06 27.56, 51.88 20 M26.81 50.77 C37.87 44.75, 44.3 33.09, 51.58 26.03 M27.77 53.25 C34.13 45.46, 41.29 37.35, 52.79 25.36 M32.82 51.54 C36.14 48.07, 40.69 43.54, 51 31.33 M34.45 53.7 C39.6 45.47, 44.85 39.16, 53.17 31.23 M38.23 53.63 C41.87 47.46, 45.5 42.99, 52.63 35.92 M38.47 52.14 C42.25 49.62, 44.4 46.13, 51.49 36.63 M43.62 51.75 C45.73 51.44, 49 48.86, 51.45 43.92 M44.52 52.35 C46.5 50.11, 49.55 46.96, 51.9 43.53 M49.71 52.21 C50.46 51.87, 51.09 50.24, 52.22 49.82 M49.69 52.38 C50.78 51.57, 51.54 50.69, 52.57 49.46" stroke="#66bb6a" stroke-width="0.5" fill="none"/><path d="M-0.22 0.74 C18.18 1.12, 37.64 -1.78, 53.27 0.64 M51.26 -0.05 C51.64 10.68, 50.39 24.54, 52.11 53.17 M50.84 51.47 C31.09 49.74, 12.35 52.6, 0.28 50.94 M-0.41 51.17 C0.81 38.77, -0.05 26.25, -0.23 -1.06" stroke="#666666" stroke-width="1.5" fill="none" stroke-dasharray="8 9"/></g><g stroke-linecap="round" transform="translate(377.4143765785957 552.2909667116418) rotate(0 25.681884765625 25.681884765625)"><path d="M0 0 C0 0, 0 0, 0 0 M0 0 C0 0, 0 0, 0 0 M-0.71 6.68 C1.47 4.15, 3.5 1.3, 5.65 0.07 M-0.36 6.08 C1.89 4.6, 3.58 1.9, 5.35 -0.02 M1.18 11.86 C3.97 8.58, 8.1 4.17, 12.1 -0.64 M-0.37 12.09 C3.48 8.95, 6.85 4.51, 10.38 0.27 M0.64 19.74 C4.54 14.17, 11.2 8.42, 13.79 1.32 M0.26 18.92 C5.67 10.99, 11.23 4.87, 15.52 -0.02 M1.34 23.47 C7.95 17.39, 12.18 8.27, 22.42 -0.44 M-0.52 24.88 C8.33 16.27, 15.14 8.46, 21.23 -0.96 M1.18 28.9 C8.31 23.59, 14.33 16.32, 27.7 0.77 M-0.32 31.45 C10.01 18.56, 19.19 7.38, 26.98 -0.57 M1.48 36.36 C9.53 23.29, 20.26 10.85, 30.37 -0.58 M-1.04 36.78 C11.91 22.61, 24.56 8.44, 32.5 0.46 M1.79 43.35 C12.96 26.81, 24.79 11.81, 35.87 2.07 M0.3 42.18 C9.41 32.58, 20.11 21.2, 36.73 0.21 M0.54 49.19 C8.89 37.55, 22.88 23.47, 44.14 1.79 M-0.23 49.7 C11.92 35.83, 25.05 22.24, 42.27 -0.28 M1.48 52.71 C18.39 35.27, 36.41 15.18, 46.96 -1.37 M1.67 53.63 C17.33 35.59, 33.93 17.82, 48.38 0.34 M7.62 51.94 C19.31 35.89, 34.26 21.66, 53.06 -1.23 M8.16 53.06 C20.66 39.02, 32.63 23.19, 52.74 0.75 M11.97 51.37 C24.96 37.8, 41.98 21.14, 50.87 6 M12.55 52.9 C21.96 40.5, 34.72 28.04, 51.83 7.25 M16.48 54.02 C30.02 38.06, 38.82 24.68, 53.44 15.34 M18.04 52.93 C25.6 44.56, 32.54 36.14, 52.55 13.17 M24.11 51.71 C31.07 44.85, 35.49 38.18, 53.91 20.78 M22.33 53.76 C32.79 41.9, 41.78 31.73, 53.35 19.59 M26.67 53.43 C36.44 44.62, 40.57 38.26, 52.72 24.71 M29.15 52.21 C37.66 42.81, 45.85 32.48, 52.04 24.5 M32.07 51.87 C40.65 43.88, 48.18 34.22, 52.76 31.12 M34.23 53.5 C39.92 44.38, 47.57 36.59, 52.66 30.86 M40.19 51.75 C43.14 46.15, 47.77 41.78, 50.7 36 M38.71 52.6 C42.62 48.39, 45.57 44.96, 51.4 36.91 M42.94 52.57 C46.86 51.64, 48.5 47.8, 52.04 44.28 M43.54 52.66 C46.54 50.47, 48.62 47.72, 51.65 44.03 M49.44 52.39 C51.08 51.03, 51.43 50.09, 52.69 49.58 M49.61 52.69 C50.43 51.85, 51.19 51.19, 52.33 49.58" stroke="#66bb6a" stroke-width="0.5" fill="none"/><path d="M0.74 -0.04 C12.55 1.27, 20.74 1.96, 52 -1.2 M51.31 0.15 C49.54 15.6, 51.07 34.16, 53.17 53.34 M51.47 51.56 C34.92 53.16, 23.26 51.5, -0.42 49.98 M-0.19 51.85 C-0.33 38.83, -0.99 26.82, -1.06 -1.11" stroke="#666666" stroke-width="1.5" fill="none" stroke-dasharray="8 9"/></g><g stroke-linecap="round" transform="translate(485.6522916176582 525.0650145632043) rotate(0 25.681884765625 25.681884765625)"><path d="M0 0 C0 0, 0 0, 0 0 M0 0 C0 0, 0 0, 0 0 M0.02 6.09 C1.75 3.92, 3.15 2.79, 4.7 0.73 M-0.58 6.8 C2.11 4.28, 3.58 1.97, 4.61 0.38 M-0.05 12.59 C2.7 10.75, 4.33 8.02, 10.03 0.06 M0.19 12.09 C3.15 9.54, 4.81 6.32, 10.93 0.05 M1.17 18.21 C5.8 14.68, 10.22 6.07, 16.61 2.14 M0.35 18.16 C4.89 11.33, 11.21 5.91, 15.27 0.33 M-0.35 25.54 C7.96 15.17, 13.21 8.8, 20.89 0.72 M1.06 24.85 C5.55 19.06, 10.83 12.95, 20.37 -0.58 M-1.58 32.03 C6.66 24.45, 12.92 17.94, 26.73 2.05 M0.98 30.54 C9.78 18.13, 20.31 8.3, 25.39 0.6 M-0.77 36.1 C8.76 24.03, 18.9 11.28, 31.41 1.76 M-0.35 36.62 C11.51 23.66, 23.38 11.27, 32.46 0.38 M0.97 42.13 C6.61 32.24, 13.83 23.98, 38.69 -0.5 M-0.21 41.98 C10.78 32.09, 19.95 20.53, 36.83 -0.22 M0.15 47.27 C14.51 34.65, 26.46 19.01, 44.45 -0.5 M0.66 48.53 C9.84 39.09, 19.28 27.56, 42.37 0.49 M1.24 53.19 C16.67 38.76, 29.5 20.89, 45.92 1.13 M2.17 52.57 C13 41.09, 24.05 29.51, 47.63 0.14 M6.51 51.99 C23.11 33.63, 41.46 13.06, 50.68 0.18 M7.63 53.35 C21.17 37.28, 32.9 22.6, 52.67 1.22 M10.56 51.5 C28.11 37.46, 42.56 18.59, 51.26 6.52 M12.1 52.03 C27.52 36.27, 42.86 17.86, 52.5 7.38 M19.25 53.49 C29.51 36.15, 42.32 24.75, 53.94 11.74 M18.16 52.6 C25.8 43.45, 33.4 35.97, 51.77 12.77 M21.57 54.11 C31.26 41.57, 41.15 34.89, 54.12 19.12 M23.62 53.88 C30.58 44.28, 39.24 34.62, 52.93 18.6 M29.33 54.36 C33.78 45.45, 40.65 39.09, 51.4 27.13 M28.1 52.72 C36.9 42.8, 44.75 34.67, 51.18 26.37 M32.39 52.69 C39.5 45.43, 44.92 38.53, 52.56 32.76 M34.03 52.24 C40.42 44.23, 48.17 36.59, 52.29 31.78 M38.31 51.58 C41.25 47.91, 45.39 44.26, 50.78 36.05 M39.16 53.03 C42.22 48.66, 46.05 43.04, 51.68 37.01 M43.76 53.6 C46.98 51.2, 47.29 48.82, 52.4 43.61 M43.85 53.2 C47.07 49.85, 49.72 46.04, 52.15 44.32 M49.62 52.87 C50.27 51.25, 51.35 50.85, 52.45 49.32 M49.92 52.52 C50.53 51.85, 51.31 50.93, 52.45 49.62" stroke="#42a5f5" stroke-width="0.5" fill="none"/><path d="M-0.04 1.46 C20.08 -1.62, 39.65 0.45, 50.17 0.5 M51.51 -1.66 C50.23 13.6, 52.08 29.25, 53.34 51.01 M51.56 49.44 C34.8 52.32, 14.65 50.97, -1.38 50.1 M0.48 50.64 C-0.26 38.47, -0.12 27.27, -1.11 1.02" stroke="#000000" stroke-width="1.5" fill="none" stroke-dasharray="8 9"/></g><g stroke-linecap="round" transform="translate(453.6918423989082 393.15510245382916) rotate(0 25.681884765625 25.681884765625)"><path d="M0 0 C0 0, 0 0, 0 0 M0 0 C0 0, 0 0, 0 0 M-0.57 6.51 C0.72 4.53, 3.03 3.11, 5.35 1.14 M0.14 6.7 C1.74 4.16, 3.53 2.13, 5.01 0.06 M0.68 12.25 C4.59 8.02, 7.62 4.43, 10.73 -1.17 M0.18 12.62 C3.24 8.61, 5.61 5.84, 10.71 -0.12 M-0.36 19.69 C5.06 15.18, 5.4 10.79, 17.43 1.15 M-0.41 18.01 C3.12 14.07, 8.07 8.39, 15.63 0.71 M1.73 24.52 C4.36 17.15, 11 12.61, 22.05 -1.4 M1.04 24.53 C7.76 16.87, 14.13 7.27, 20.75 -0.78 M1.56 31.04 C8.06 23.23, 15.66 14.62, 28.01 1.91 M0.07 30.38 C8.09 20.39, 18.69 8.82, 26.56 0.51 M-1.03 35.3 C6.18 26.63, 12.77 19.38, 33.75 1.05 M-0.52 37.16 C9.55 26.32, 20.16 15.02, 32.38 -1.07 M-0.25 41.77 C11.71 26.06, 25.36 13.6, 36.12 -0.59 M-0.4 43.47 C9.68 32.85, 18.1 21.68, 36.4 0.46 M-1.78 50.1 C15.68 31.78, 30.13 17.66, 42.16 -1.82 M-0.51 49.52 C11.97 36.38, 22.35 22.35, 43.15 -0.14 M1.72 54.74 C19.94 34.53, 34.74 12.8, 48.41 -1.17 M1.1 53.58 C13 40.89, 24.81 27.14, 47.42 1.07 M6.56 50.67 C17.9 40.64, 27.05 28.74, 52.09 0.32 M7.92 53.54 C19.67 37.22, 32.86 22.88, 53.13 1.18 M10.69 54.62 C26.16 40.13, 36.79 22.6, 51.77 8.5 M11.23 53.02 C22.49 42.15, 31.13 30.92, 52.63 7.75 M18.72 51.19 C24.41 41.47, 36.01 35.46, 50.33 11.75 M17.84 53.27 C28.99 39.81, 41.83 25.32, 51.36 13.24 M23.97 53.06 C30.98 43.35, 43.88 32.25, 52.46 18.76 M23.74 52.31 C33.3 41.46, 42.78 31.72, 51.94 18.66 M30.25 51.43 C33.65 46.09, 39.56 40.04, 53.82 25.93 M28.62 53.12 C32.92 47.15, 39.04 39.34, 53.05 25.8 M33.22 52.46 C38.47 45.7, 44.06 41.41, 54.19 32.55 M32.76 52.99 C40.49 44.81, 48.6 35.24, 53.22 30.28 M38.14 51.71 C41.16 49.14, 44.2 43.43, 50.83 37.24 M39.59 51.77 C42.69 48.24, 44.53 44.88, 51.79 36.79 M44.79 53.91 C46.56 50.06, 48.34 48.65, 51.73 44.64 M44.39 53.06 C47.27 49.53, 49.68 46.43, 52.44 44.06 M50.1 52.16 C50.25 51.49, 51.62 50.85, 52.19 49.33 M49.75 52.61 C50.57 51.88, 51.14 50.95, 52.49 49.39" stroke="#42a5f5" stroke-width="0.5" fill="none"/><path d="M1.46 1.21 C13.41 1.91, 30.33 -1.19, 51.87 -0.66 M49.71 -1.1 C51.22 15.89, 53.16 32.25, 51.01 52.57 M49.44 53.3 C38.23 51.69, 22.83 50.04, -1.27 49.85 M-0.72 50.99 C-1.33 36.79, -1.01 21.57, 1.02 -1.12" stroke="#000000" stroke-width="1.5" fill="none" stroke-dasharray="8 9"/></g><g stroke-linecap="round" transform="translate(729.3456354166727 247.2909667116419) rotate(0 25.681884765625 25.681884765625)"><path d="M0 0 C0 0, 0 0, 0 0 M0 0 C0 0, 0 0, 0 0 M-0.15 6.05 C0.63 5.61, 1.99 3.84, 5.77 0.57 M0.04 6.67 C0.92 5.04, 2.3 3.04, 4.68 0.32 M0.34 13.53 C3.46 9.06, 7.21 3.28, 9.5 -0.53 M0.71 12.24 C2.44 8.93, 5.4 6.4, 10.55 -0.55 M1.12 19.98 C6.2 10.5, 11.4 8.01, 16.45 -0.36 M-0.55 17.57 C5.64 12.26, 10.1 6.23, 16 -0.36 M0.7 23.45 C6.35 16.55, 14.81 7.64, 19.93 0.46 M0.71 24.53 C5.55 18.55, 8.47 12.73, 20.55 -0.33 M0.57 31.52 C10.47 20.89, 19.56 10.37, 27.87 1.09 M-0.1 29.54 C7.15 23.13, 12.87 14.64, 26.46 -0.4 M-1.83 36.2 C10.49 21.18, 24.22 10.26, 33.05 -0.03 M0.02 36.64 C7.55 29.37, 14.61 21.04, 30.93 0.51 M-0.61 41.15 C13 25.41, 29.89 9.5, 36.03 -0.79 M1.09 43.04 C12.57 29.19, 23.5 15.48, 37.08 0.63 M1.06 50.49 C13.51 34.54, 30.16 16.21, 40.83 -0.82 M0.48 49.62 C12.69 34.62, 24.06 21.28, 42.51 0.53 M3.27 54.55 C15.97 36.9, 27.14 22.8, 46.12 -0.9 M2.11 53.32 C16.46 37.81, 29.79 20.52, 48.36 -0.64 M5.24 53.76 C20.85 36.72, 34.56 19.09, 52.23 0.3 M8.11 52.64 C24.45 32.1, 42.8 12.01, 53.09 0.82 M13.82 53.97 C25.79 38.71, 34.66 26.35, 53.75 5.85 M12.21 53.71 C25.93 37.62, 39.28 23.04, 53 6.39 M16.42 50.7 C23.99 44.87, 35.32 32.7, 50.35 14.26 M18.51 52.1 C29.38 40.73, 39.24 27.05, 51.83 13.72 M22.92 51.48 C35.31 42.01, 46.28 28.23, 52.11 19.38 M22.17 53.88 C29.42 45.26, 37.81 35.43, 52 18.18 M27.32 52.4 C32.78 47.31, 37.54 42.74, 52.62 23.99 M29.02 51.8 C37.93 42.53, 44.99 33.59, 52.49 25.09 M32.99 52.71 C36.46 48.21, 42.39 44.61, 53.98 33.01 M33.51 52.56 C41.17 45.03, 47.43 37.37, 51.71 30.62 M38.27 51.32 C44.21 45.74, 47 40.54, 52.02 36.17 M38.33 52.97 C41.76 47.75, 45.35 44.22, 51.57 37.06 M45.1 53.24 C45.2 51.09, 47.75 48.95, 52.76 44.69 M44.25 53.08 C45.69 50.68, 47.56 49.6, 52.18 43.8 M49.39 52.24 C50.19 52.15, 51.01 50.97, 52.2 49.38 M49.84 52.61 C50.53 51.77, 51.02 51.24, 52.26 49.33" stroke="#42a5f5" stroke-width="0.5" fill="none"/><path d="M1.21 -1.44 C19.21 0.26, 33.42 0.13, 50.71 -0.1 M50.26 -0.13 C52.15 17.08, 53.37 30.2, 52.57 50.84 M53.3 52.29 C35.97 50.45, 18.64 49.6, -1.51 50.95 M-0.37 49.98 C-0.35 35.38, -1.23 22.54, -1.12 -0.39" stroke="#000000" stroke-width="1.5" fill="none" stroke-dasharray="8 9"/></g><g stroke-linecap="round" transform="translate(722.4143765785958 154.2909667116419) rotate(0 25.681884765625 25.681884765625)"><path d="M0 0 C0 0, 0 0, 0 0 M0 0 C0 0, 0 0, 0 0 M-0.61 6.03 C2.19 4.08, 3.64 3.12, 5.19 0.16 M0.01 6.09 C1.2 4.65, 2.01 3.39, 4.95 0.62 M1.62 11.52 C4.59 7.94, 6.25 3.92, 10.14 -1.05 M0.34 11.87 C3.1 8.57, 6.65 4.47, 10.12 0.27 M1.41 19.56 C3.81 12.72, 13.19 5.95, 14.93 1.09 M-0.99 18.96 C5.31 11.85, 10.9 6.27, 14.93 0.86 M-0.36 22.66 C6.9 17.16, 12.19 9.7, 21.79 -1.65 M0.72 24.92 C8.02 13.93, 15.51 4.95, 21 0.52 M1.04 31.29 C7.01 24.22, 13.12 18.69, 27.05 -0.37 M-0.94 30.91 C11.15 17.64, 21.16 6.73, 25.56 1.16 M-0.93 35.1 C7.18 26.51, 19.38 18.01, 31.96 -1.67 M-0.5 37.52 C9.78 26.62, 18.99 14.35, 32.51 0.72 M-1.23 41.5 C11.75 30.04, 24.55 12.95, 35.83 0.59 M0.66 43.18 C9.98 30.89, 19.41 19.92, 37.25 0.59 M1.45 48.4 C15.27 35.22, 26.66 16.22, 41.84 -0.34 M0.58 49.76 C15.95 29.96, 32.95 11.55, 43.19 -0.19 M3.08 53.82 C13.98 36.14, 28.41 21.41, 46.38 0.4 M1.85 54.04 C19.16 34.01, 34.66 15.81, 46.65 0.42 M8.33 51.61 C19.92 37.54, 30.9 25.35, 52.21 2.45 M7.21 52.29 C22.49 34.73, 38.27 17.46, 52.73 0.46 M13.17 54.69 C19.91 41.71, 29.51 34.19, 51.1 7.66 M12.91 53.31 C23.81 39.99, 36.17 27.2, 51.64 6.29 M15.93 51.15 C31.77 40.32, 41.28 22.22, 52.85 13.74 M17.33 53.41 C29.71 39.24, 39.78 26.34, 52.31 14.01 M21.34 54.5 C31.16 46.71, 36.69 36.67, 52.73 17.99 M23.74 52.49 C34.68 40.91, 44.44 27.14, 51.53 18.11 M28.3 52.06 C36.94 42.72, 46.13 34.64, 50.67 26.75 M27.7 53.27 C34.57 44.43, 41.77 38.62, 51.78 24.72 M33.23 51.45 C38.45 47.67, 44.56 43.71, 54.45 32.57 M33.09 53.62 C40.55 44.96, 47.87 36.6, 52.05 31.6 M37.89 52.95 C41.06 47.23, 44.6 44.55, 50.95 36.64 M39.53 51.8 C42.21 47.5, 46.59 42.79, 51.84 36.49 M44.43 52.39 C46.25 50.81, 48.09 48.71, 52.81 42.73 M44.27 52.84 C45.76 50.74, 48.57 48.44, 51.92 43.39 M49.46 52.37 C50.75 51.82, 50.94 50.76, 52.25 49.23 M49.84 52.72 C50.72 51.42, 51.9 50.06, 52.2 49.52" stroke="#42a5f5" stroke-width="0.5" fill="none"/><path d="M-1.44 1.9 C15.96 -1.51, 31.14 -0.97, 51.26 -0.05 M51.24 0.75 C52.74 17.77, 50.59 32.79, 50.84 51.47 M52.29 51.64 C35.02 50.48, 18.26 50.35, -0.41 51.17 M-1.38 51.14 C-0.87 33.61, 1.2 16.94, -0.39 0.22" stroke="#000000" stroke-width="1.5" fill="none" stroke-dasharray="8 9"/></g><g stroke-linecap="round" transform="translate(732.4143765785958 63.290966711641886) rotate(0 25.681884765625 25.681884765625)"><path d="M0 0 C0 0, 0 0, 0 0 M0 0 C0 0, 0 0, 0 0 M-0.62 7.06 C0.82 5.21, 3.26 3.46, 4.79 -0.28 M-0.57 6.76 C1.41 3.97, 3.59 1.5, 5.25 0.31 M-0.39 13.51 C3.03 8, 6.01 3.37, 9.62 0.07 M-0.04 11.79 C3.56 8.41, 6.38 4.12, 10.94 0.48 M0.99 16.61 C5.29 14.9, 9.67 7.18, 16.39 1.29 M0.4 18.34 C3.89 13.66, 8.89 8.03, 16.15 0.02 M-1.15 25.24 C7.67 15.93, 14.54 6.66, 19.68 1.52 M1.1 24.06 C7.19 14.37, 15.28 5.51, 21.85 -0.86 M0.82 31.93 C10.31 20.7, 21.36 8.35, 25.59 2.24 M0.44 31.21 C7.21 21.79, 16.33 11.55, 27.11 0.03 M-2.04 35.35 C7.96 29.18, 18 17.73, 30.33 -0.3 M0.39 37.49 C9.02 27.31, 16.3 17.3, 32.72 0.31 M-0.88 41.51 C12.42 30.15, 20.07 18, 37.21 -0.43 M0.8 42.37 C8.73 31.45, 18.02 21.9, 37.21 0.39 M-0.64 50.54 C10.79 37.56, 16.44 26.57, 42.32 1.43 M0.72 48.67 C10.56 36.45, 21.83 23.68, 42.47 -0.31 M2.35 52.5 C13.65 37.39, 27.95 19.15, 47.69 1.39 M2.57 53.93 C13 39.53, 25.3 25.44, 47.71 -0.14 M6.18 53.23 C18.01 38.11, 31.64 24.33, 54.36 1.38 M6.85 52.9 C23.66 34.06, 40.8 14.43, 52.37 -0.24 M13.88 51.66 C19.83 42.06, 31.29 31.08, 52.92 6.75 M12.5 52.61 C20.55 43.85, 29.12 33.58, 51.54 7.68 M16.38 54.09 C31.82 37.84, 39.94 26.88, 52.33 13.98 M18.65 53.2 C27.57 40.49, 37.8 29.74, 52.61 12.74 M24.36 54.52 C35.11 41.2, 43.61 29.36, 51.33 20.58 M22.35 53.96 C35.15 39.05, 45.74 25.39, 51.46 19.44 M27.96 53.2 C37.11 43.77, 47.51 30.07, 53.44 24.65 M29.17 52.53 C34.82 45.22, 43.52 35.43, 51.4 24.88 M31.97 53.21 C39.05 48.38, 45.94 42.35, 54.01 32.17 M34.15 53.11 C37.62 48.73, 41.4 42.55, 53.04 30.66 M39.51 51.01 C41.02 47.43, 45.56 43.76, 51.42 37.55 M38.37 51.72 C43.24 46.8, 47.69 41.6, 51.27 37.18 M43.58 52.98 C47.27 49.41, 50.44 47.25, 50.85 43.34 M44.03 52.59 C47 50.2, 49.77 46.53, 51.51 43.67 M49.59 52.84 C50.88 51.18, 51.65 50.07, 52.1 49.85 M49.95 52.48 C50.61 51.71, 51.21 50.51, 52.39 49.61" stroke="#42a5f5" stroke-width="0.5" fill="none"/><path d="M1.9 0.64 C17.97 0.87, 37.67 0.26, 51.31 0.15 M52.11 1.81 C53.05 10.81, 52.28 21.79, 51.47 51.56 M51.64 50.94 C39.53 50.34, 28.93 51.19, -0.19 51.85 M-0.23 50.3 C-1.01 38.83, -1.03 23.87, 0.22 -0.2" stroke="#000000" stroke-width="1.5" fill="none" stroke-dasharray="8 9"/></g><g stroke-linecap="round" transform="translate(10 10) rotate(0 421.1255468641009 314.56503186907076)"><path d="M0.26 -0.48 C303.78 -3.47, 607.11 -3.23, 842.31 -0.66 M0.36 0.39 C206.18 -1.02, 412.39 -1.24, 842.29 -0.39 M842.08 -0.55 C842.91 248.96, 843.25 499.06, 842.44 628.84 M842.04 -0.22 C840.72 176.87, 840.44 354.23, 842.21 628.87 M842.58 629.83 C619.7 630.2, 398.79 629.67, 0.72 628.83 M841.96 629.26 C522.99 627.53, 202.77 627.08, 0.14 628.98 M0.67 628.84 C1.47 432.58, 1.31 234.27, -0.64 0.8 M0.36 628.75 C-1.7 392.16, -1.76 156.06, -0.05 0.14" stroke="#666" stroke-width="2" fill="none"/></g><g stroke-linecap="round" transform="translate(106.7062027787606 129.23043909324429) rotate(0 15.531033833821596 15.531033833821596)"><path d="M20.21 0.23 C23.42 0.95, 26.85 3.48, 28.57 6.45 C30.29 9.42, 30.96 14.58, 30.52 18.04 C30.08 21.5, 28.09 24.99, 25.92 27.2 C23.76 29.4, 20.84 31.27, 17.54 31.28 C14.24 31.3, 8.8 29.15, 6.12 27.27 C3.43 25.39, 2.09 23.23, 1.45 20 C0.81 16.77, 0.82 11.17, 2.28 7.9 C3.73 4.63, 6.59 1.43, 10.17 0.37 C13.75 -0.68, 21.01 0.65, 23.75 1.57 C26.49 2.48, 26.79 5.46, 26.63 5.87 M17.9 -0.53 C20.85 -0.62, 24.25 1, 26.35 3.24 C28.45 5.47, 30.14 9.37, 30.5 12.87 C30.87 16.37, 30.14 21.23, 28.56 24.23 C26.97 27.22, 24.24 29.97, 20.97 30.82 C17.71 31.66, 12.11 30.67, 8.98 29.29 C5.84 27.92, 3.63 25.64, 2.18 22.57 C0.73 19.5, -0.51 13.99, 0.28 10.9 C1.07 7.8, 4.23 5.65, 6.91 3.99 C9.59 2.34, 14.56 1.44, 16.35 0.97 C18.15 0.5, 17.88 0.95, 17.66 1.18" stroke="none" stroke-width="0" fill="#ef5350"/><path d="M17.46 0.2 C20.54 0.32, 23.85 1.94, 26.1 4.43 C28.36 6.93, 30.53 11.57, 30.98 15.15 C31.43 18.73, 30.83 23.23, 28.8 25.91 C26.77 28.6, 22.23 30.7, 18.79 31.28 C15.35 31.86, 11.07 31.18, 8.16 29.39 C5.25 27.61, 2.39 23.58, 1.31 20.58 C0.23 17.58, 0.67 14.45, 1.66 11.39 C2.66 8.34, 4.53 4.21, 7.26 2.26 C10 0.31, 16.09 -0.04, 18.08 -0.29 C20.06 -0.54, 19.13 0.36, 19.18 0.75 M12.57 -0.54 C15.55 -1.01, 19.6 1.06, 22.38 2.79 C25.16 4.52, 27.92 6.87, 29.25 9.84 C30.57 12.81, 31.46 17.51, 30.32 20.6 C29.18 23.69, 25.29 26.6, 22.41 28.39 C19.52 30.17, 16.02 31.57, 13 31.32 C9.99 31.07, 6.65 29.51, 4.32 26.9 C1.99 24.28, -1.04 19.34, -0.98 15.63 C-0.92 11.92, 2.18 7.3, 4.7 4.64 C7.21 1.98, 12.55 0.42, 14.1 -0.31 C15.64 -1.04, 14.3 0.11, 13.99 0.27" stroke="#000000" stroke-width="1" fill="none"/></g><g stroke-linecap="round"><g transform="translate(185.58145200564877 122.56023238751459) rotate(0 -22.092756194609592 8.848403842149935)"><path d="M0.5 -0.66 C-17.51 6.68, -34.71 12.06, -45.29 17.57 M-0.17 0.6 C-15.01 6.46, -29.55 11.41, -43.22 18.16" stroke="#666" stroke-width="2" fill="none"/></g><g transform="translate(185.58145200564877 122.56023238751459) rotate(0 -22.092756194609592 8.848403842149935)"><path d="M-25.69 0.87 C-32.97 7.95, -39.45 12.91, -44.32 18.03 M-26.37 2.13 C-32.05 7.36, -37.43 11.95, -42.25 18.62" stroke="#666" stroke-width="2" fill="none"/></g><g transform="translate(185.58145200564877 122.56023238751459) rotate(0 -22.092756194609592 8.848403842149935)"><path d="M-18.98 15.71 C-28.96 16.88, -38.09 15.98, -44.32 18.03 M-19.66 16.96 C-27.74 17.25, -35.38 16.84, -42.25 18.62" stroke="#666" stroke-width="2" fill="none"/></g></g><g stroke-linecap="round" transform="translate(282.7520885006029 480.6881417299626) rotate(0 15.531033833821596 15.531033833821603)"><path d="M11.35 0.17 C14.2 -0.69, 18.4 0.66, 21.36 2.16 C24.32 3.65, 27.41 6.25, 29.11 9.14 C30.82 12.03, 32.36 16.48, 31.58 19.51 C30.81 22.53, 27.13 25.23, 24.45 27.28 C21.76 29.32, 18.65 32.01, 15.49 31.79 C12.32 31.57, 7.87 28.54, 5.45 25.95 C3.04 23.36, 1.46 19.55, 1 16.25 C0.53 12.94, 0.75 8.68, 2.68 6.12 C4.61 3.57, 10.69 1.82, 12.59 0.92 C14.5 0.01, 14.02 0.41, 14.1 0.71 M13.1 -0.85 C15.88 -1.63, 20.12 -0.67, 22.99 1.22 C25.85 3.11, 28.93 7.11, 30.28 10.47 C31.64 13.83, 32.38 18.36, 31.14 21.39 C29.9 24.41, 25.81 27.01, 22.83 28.61 C19.84 30.2, 16.47 31.64, 13.23 30.95 C9.99 30.25, 5.47 26.85, 3.36 24.41 C1.25 21.98, 0.54 19.34, 0.58 16.33 C0.61 13.32, 1.31 8.9, 3.58 6.35 C5.84 3.81, 12.81 1.89, 14.16 1.04 C15.52 0.2, 11.61 1.04, 11.69 1.26" stroke="none" stroke-width="0" fill="#66bb6a"/><path d="M14.3 -0.55 C17.44 -0.78, 22.24 1.42, 25.14 3.75 C28.03 6.08, 31.01 10.12, 31.65 13.42 C32.3 16.72, 30.79 20.77, 29.01 23.54 C27.22 26.31, 24.01 29.07, 20.96 30.03 C17.91 30.99, 13.65 30.28, 10.7 29.3 C7.75 28.31, 4.99 26.82, 3.26 24.11 C1.52 21.4, 0.09 16.5, 0.31 13.02 C0.52 9.55, 1.91 5.46, 4.55 3.27 C7.19 1.07, 13.81 0.25, 16.14 -0.15 C18.46 -0.55, 18.45 0.6, 18.49 0.86 M9.45 1.68 C12.25 0.51, 16.77 -0.33, 20.06 0.67 C23.35 1.67, 27.55 4.83, 29.18 7.67 C30.81 10.52, 30.45 14.37, 29.84 17.75 C29.24 21.12, 27.83 25.51, 25.54 27.95 C23.25 30.38, 19.6 32.46, 16.09 32.37 C12.59 32.28, 6.98 29.92, 4.52 27.39 C2.06 24.86, 1.52 20.55, 1.35 17.18 C1.18 13.81, 1.78 9.9, 3.47 7.14 C5.16 4.39, 10.46 1.8, 11.47 0.63 C12.49 -0.54, 9.6 -0.41, 9.57 0.12" stroke="#000000" stroke-width="1" fill="none"/></g><g stroke-linecap="round"><g transform="translate(257.9329686906194 434.24747725486804) rotate(0 16.41888305286784 23.623120158141305)"><path d="M-0.1 -0.05 C8.15 9.8, 14.79 22.67, 33.59 49.05 M-0.26 0.05 C13.11 17.67, 27.07 37.93, 32.98 47.03" stroke="#666" stroke-width="2" fill="none"/></g><g transform="translate(257.9329686906194 434.24747725486804) rotate(0 16.41888305286784 23.623120158141305)"><path d="M9.65 30 C15.52 32.55, 19.85 38.16, 33.72 48.84 M9.49 30.11 C19.08 35.72, 29.2 43.92, 33.11 46.82" stroke="#666" stroke-width="2" fill="none"/></g><g transform="translate(257.9329686906194 434.24747725486804) rotate(0 16.41888305286784 23.623120158141305)"><path d="M25.99 19.05 C27.97 24.17, 28.37 32.41, 33.72 48.84 M25.84 19.15 C28.89 29.23, 32.5 41.79, 33.11 46.82" stroke="#666" stroke-width="2" fill="none"/></g></g><g stroke-linecap="round" transform="translate(597.8483714595876 271.6984261537907) rotate(0 15.531033833821596 15.531033833821596)"><path d="M12.13 1.12 C15.11 0.47, 19.57 0.89, 22.71 2.41 C25.86 3.93, 29.8 7.34, 31.01 10.24 C32.22 13.14, 31.05 16.58, 29.97 19.81 C28.88 23.04, 27.22 27.9, 24.52 29.61 C21.82 31.33, 17.07 30.9, 13.77 30.09 C10.47 29.28, 6.99 27.27, 4.71 24.76 C2.42 22.25, 0.27 18.09, 0.05 15.03 C-0.17 11.97, 0.96 8.84, 3.38 6.4 C5.8 3.95, 12.32 1.22, 14.57 0.37 C16.83 -0.48, 16.93 0.94, 16.91 1.29 M12.16 -0.68 C15.23 -1.27, 20.05 0.21, 23.21 2.06 C26.37 3.91, 30.02 7.38, 31.13 10.4 C32.24 13.42, 31.06 17.08, 29.88 20.18 C28.7 23.29, 26.88 27.41, 24.05 29.03 C21.21 30.64, 16.17 30.29, 12.88 29.9 C9.6 29.5, 6.52 28.85, 4.35 26.65 C2.17 24.45, -0.22 20.03, -0.17 16.68 C-0.12 13.33, 2.75 9.16, 4.65 6.55 C6.56 3.94, 9.69 1.91, 11.26 1.02 C12.82 0.13, 13.85 0.97, 14.04 1.2" stroke="none" stroke-width="0" fill="#42a5f5"/><path d="M16.05 0.38 C19.5 0.56, 24.41 2.73, 26.85 5 C29.3 7.27, 30.48 10.87, 30.74 14.01 C31 17.15, 30.14 21.29, 28.42 23.85 C26.69 26.4, 23.36 28.26, 20.39 29.35 C17.43 30.44, 13.72 31.51, 10.64 30.38 C7.57 29.25, 3.77 25.7, 1.94 22.58 C0.11 19.45, -0.89 14.88, -0.34 11.63 C0.21 8.38, 2.17 4.92, 5.24 3.06 C8.31 1.2, 15.67 0.84, 18.09 0.47 C20.51 0.1, 19.9 0.64, 19.75 0.83 M10.62 0.25 C13.79 -0.92, 19.22 -0.07, 22.22 1.29 C25.21 2.64, 27.21 5.26, 28.61 8.38 C30.02 11.5, 31.2 16.46, 30.62 19.98 C30.03 23.51, 28 27.69, 25.1 29.53 C22.21 31.37, 16.48 31.67, 13.24 31.01 C10.01 30.35, 7.68 28, 5.71 25.56 C3.74 23.12, 1.71 19.56, 1.42 16.37 C1.13 13.17, 2.44 9.19, 3.97 6.37 C5.51 3.56, 9.31 0.14, 10.65 -0.55 C12 -1.23, 11.69 1.96, 12.03 2.26" stroke="#000000" stroke-width="1" fill="none"/></g><g stroke-linecap="round"><g transform="translate(680.6529902950364 338.5476922060368) rotate(0 -24.14385477701819 -18.239339192708314)"><path d="M0.15 -1.66 C-13.98 -9.89, -25.04 -17.7, -46.32 -36.83 M0.1 -0.96 C-16.32 -12.65, -34.54 -26.46, -48.98 -37.11" stroke="#666" stroke-width="2" fill="none"/></g><g transform="translate(680.6529902950364 338.5476922060368) rotate(0 -24.14385477701819 -18.239339192708314)"><path d="M-20.08 -30.19 C-29.01 -30.96, -34.84 -31.32, -47 -37.46 M-20.13 -29.5 C-29.59 -31.15, -40.77 -34.91, -49.67 -37.74" stroke="#666" stroke-width="2" fill="none"/></g><g transform="translate(680.6529902950364 338.5476922060368) rotate(0 -24.14385477701819 -18.239339192708314)"><path d="M-32.32 -13.72 C-37.97 -18.89, -40.53 -23.65, -47 -37.46 M-32.37 -13.03 C-37.38 -20.61, -44.15 -30.31, -49.67 -37.74" stroke="#666" stroke-width="2" fill="none"/></g></g></svg>