<svg version="1.1" xmlns="http://www.w3.org/2000/svg" viewBox="0 0 862.2510937282018 649.1300637381415" width="1724.5021874564036" height="1298.260127476283">
  <!-- svg-source:excalidraw -->
  
  <defs>
    <style>
      @font-face {
        font-family: "Virgil";
        src: url("https://unpkg.com/@zsviczian/excalidraw@0.12.0-obsidian-4/dist/excalidraw-assets/Virgil.woff2");
      }
      @font-face {
        font-family: "Cascadia";
        src: url("https://unpkg.com/@zsviczian/excalidraw@0.12.0-obsidian-4/dist/excalidraw-assets/Cascadia.woff2");
      }
    </style>
  </defs>
  <g stroke-linecap="round" transform="translate(176.53139544068904 70.666774635406) rotate(0 28.453765869140625 28.453765869140625)"><path d="M14.95 2.27 C19.82 -0.72, 28.78 -0.48, 34.9 1.12 C41.02 2.72, 48.12 6.93, 51.7 11.87 C55.27 16.81, 56.83 24.65, 56.36 30.77 C55.88 36.88, 52.99 44.19, 48.84 48.56 C44.7 52.93, 37.55 56.42, 31.5 56.98 C25.45 57.55, 17.72 55.46, 12.55 51.95 C7.38 48.44, 2.06 41.54, 0.46 35.92 C-1.14 30.3, -0.66 24.31, 2.95 18.25 C6.55 12.18, 17.56 2.61, 22.1 -0.46 C26.64 -3.53, 29.91 -0.88, 30.18 -0.18 M32.41 0.67 C38.42 0.59, 44.6 3.91, 48.66 8.09 C52.71 12.26, 56.06 19.31, 56.75 25.72 C57.43 32.12, 56.53 41.51, 52.77 46.5 C49 51.5, 40.36 54.57, 34.18 55.67 C27.99 56.77, 21 55.81, 15.67 53.1 C10.33 50.4, 4.51 44.63, 2.16 39.44 C-0.18 34.24, -0.28 27.81, 1.61 21.92 C3.49 16.02, 8.67 7.77, 13.48 4.07 C18.29 0.36, 27.74 0.49, 30.49 -0.31 C33.23 -1.12, 30.02 -1.31, 29.97 -0.75" stroke="none" stroke-width="0" fill="#ef5350"/><path d="M35.84 0.28 C41.8 1.64, 49.2 7.58, 52.57 12.7 C55.95 17.82, 56.82 25.01, 56.11 31.01 C55.39 37.01, 52.5 44.45, 48.29 48.69 C44.07 52.93, 36.92 55.83, 30.79 56.44 C24.66 57.05, 16.33 55.9, 11.5 52.34 C6.67 48.77, 3.28 40.93, 1.79 35.05 C0.31 29.16, 0.05 22.47, 2.59 17.05 C5.13 11.63, 10.31 4.55, 17.04 2.52 C23.77 0.48, 37.55 3.57, 42.94 4.84 C48.33 6.11, 49.63 9.99, 49.39 10.15 M40.36 1.3 C45.55 3.39, 51.6 9.84, 54.19 15.69 C56.77 21.55, 57.51 30.69, 55.87 36.43 C54.24 42.18, 49.28 47.02, 44.37 50.17 C39.45 53.32, 32.11 55.72, 26.37 55.32 C20.63 54.93, 14.18 52.04, 9.93 47.82 C5.68 43.59, 1.88 35.95, 0.88 29.98 C-0.12 24, 0.52 16.85, 3.95 11.98 C7.38 7.12, 15.22 2.42, 21.45 0.78 C27.68 -0.86, 38.4 1.63, 41.34 2.16 C44.29 2.68, 39.72 3.35, 39.11 3.93" stroke="#000000" stroke-width="1" fill="none"/></g><g stroke-linecap="round" transform="translate(191.3924489074859 368.29203403482006) rotate(0 28.453765869140625 28.453765869140625)"><path d="M39.27 2.68 C44.69 4.91, 51.61 11.32, 54.51 16.7 C57.41 22.08, 58.08 29.23, 56.67 34.96 C55.25 40.69, 50.93 47.5, 46 51.06 C41.08 54.61, 33.3 56.75, 27.12 56.29 C20.93 55.83, 13.45 52.62, 8.88 48.31 C4.32 44.01, 0.53 36.32, -0.29 30.46 C-1.11 24.6, 0.34 18.2, 3.98 13.15 C7.62 8.11, 15.5 2, 21.55 0.19 C27.6 -1.61, 36.99 1.65, 40.26 2.34 C43.53 3.03, 41.17 3.77, 41.19 4.34 M16.29 2.86 C21.02 -0.26, 28.88 -0.93, 34.63 0.71 C40.37 2.35, 46.81 8.02, 50.76 12.71 C54.71 17.4, 58.67 23.04, 58.33 28.85 C58 34.65, 53.36 42.97, 48.75 47.56 C44.14 52.14, 36.8 55.49, 30.67 56.35 C24.54 57.22, 16.72 55.86, 11.99 52.74 C7.26 49.62, 4.05 43.69, 2.3 37.63 C0.54 31.56, -0.71 22.33, 1.46 16.35 C3.63 10.38, 13.12 4.04, 15.3 1.78 C17.49 -0.49, 14.26 2.22, 14.55 2.75" stroke="none" stroke-width="0" fill="#66bb6a"/><path d="M18.03 2.61 C23.57 0.14, 32.94 -0.87, 38.82 1 C44.69 2.86, 50.29 8.46, 53.27 13.81 C56.25 19.16, 57.83 27.14, 56.69 33.08 C55.55 39.03, 51.04 45.38, 46.43 49.49 C41.81 53.59, 35.19 57.57, 29 57.7 C22.81 57.83, 13.98 54.18, 9.3 50.25 C4.63 46.33, 1.9 40.27, 0.94 34.16 C-0.01 28.06, -0.66 19.34, 3.59 13.61 C7.84 7.89, 21.52 2.03, 26.43 -0.18 C31.35 -2.38, 33.29 -0.27, 33.09 0.39 M40.37 3.3 C45.71 5.61, 51.59 11.94, 54.28 17.46 C56.96 22.98, 58.47 30.55, 56.47 36.41 C54.47 42.26, 47.83 48.97, 42.28 52.58 C36.74 56.19, 29.17 58.75, 23.2 58.05 C17.24 57.36, 10.57 53.3, 6.5 48.4 C2.43 43.49, -1.05 34.73, -1.21 28.62 C-1.38 22.51, 1.64 16.21, 5.52 11.73 C9.4 7.26, 16.11 3.35, 22.06 1.79 C28.02 0.22, 37.87 2.25, 41.23 2.35 C44.59 2.45, 42.3 1.72, 42.22 2.38" stroke="#000000" stroke-width="1" fill="none"/></g><g stroke-linecap="round" transform="translate(673.5502858215486 314.9099844742732) rotate(0 28.453765869140625 28.453765869140625)"><path d="M35.97 1.39 C41.84 2.79, 48.96 7.69, 52.35 12.77 C55.73 17.85, 56.99 25.77, 56.28 31.87 C55.57 37.96, 52.39 45.15, 48.08 49.36 C43.77 53.56, 36.48 56.77, 30.4 57.1 C24.33 57.43, 16.68 55.04, 11.63 51.34 C6.59 47.63, 1.53 40.54, 0.15 34.86 C-1.22 29.18, 0.83 22.77, 3.39 17.24 C5.96 11.71, 9.65 4.32, 15.55 1.68 C21.45 -0.97, 34.22 0.83, 38.78 1.37 C43.33 1.9, 42.92 4.44, 42.89 4.87 M39.83 1.96 C45.07 3.79, 51.02 9.56, 53.92 15.36 C56.83 21.15, 58.93 30.79, 57.26 36.75 C55.59 42.7, 49.09 47.91, 43.89 51.09 C38.69 54.27, 31.97 56.32, 26.05 55.84 C20.13 55.35, 12.59 52.08, 8.36 48.21 C4.14 44.34, 1.13 38.7, 0.72 32.62 C0.31 26.54, 2.74 17.02, 5.92 11.7 C9.1 6.37, 14.32 2.46, 19.79 0.67 C25.26 -1.12, 35.55 0.58, 38.75 0.98 C41.95 1.37, 39.07 2.39, 38.99 3.02" stroke="none" stroke-width="0" fill="#42a5f5"/><path d="M19.31 2.5 C24.46 0.26, 31.64 -0.14, 37.18 1.81 C42.72 3.75, 49.38 9.01, 52.56 14.16 C55.74 19.31, 57.31 26.67, 56.26 32.73 C55.21 38.8, 50.7 46.67, 46.25 50.55 C41.8 54.43, 35.54 55.94, 29.56 56.01 C23.59 56.08, 15.11 54.71, 10.39 50.96 C5.66 47.21, 2.45 39.5, 1.22 33.51 C-0.02 27.51, -0.15 20.41, 3 14.98 C6.16 9.56, 16.97 3.4, 20.14 0.94 C23.3 -1.52, 21.67 -0.43, 21.99 0.22 M22.25 0.22 C27.77 -1.05, 36.05 1.42, 41.35 4.05 C46.65 6.69, 51.66 10.81, 54.06 16.03 C56.46 21.26, 57.21 29.5, 55.74 35.4 C54.26 41.3, 50.26 48.09, 45.23 51.43 C40.21 54.77, 32.05 56.12, 25.6 55.44 C19.15 54.76, 10.67 51.7, 6.52 47.38 C2.36 43.06, 0.59 35.64, 0.66 29.54 C0.73 23.45, 3.49 15.5, 6.93 10.83 C10.37 6.17, 18.96 3.08, 21.3 1.56 C23.64 0.04, 20.61 1.16, 20.95 1.72" stroke="#000000" stroke-width="1" fill="none"/></g><g stroke-linecap="round" transform="translate(58.05965471803279 173.23368442544506) rotate(0 25.681884765625 25.681884765625)"><path d="M0.71 -0.18 L50.74 -0.1 L50.61 52.94 L1.97 49.57" stroke="none" stroke-width="0" fill="#bdbdbd40"/><path d="M-1.44 0.29 C18.58 2.13, 41.12 -1.05, 51.76 -0.75 M-0.74 0.5 C17.27 -0.71, 32.93 0.68, 52.09 -0.2 M50.94 -1.2 C49.68 13.77, 53.54 23.24, 51.54 49.69 M51.96 -0.43 C50.25 15.7, 50.2 32.19, 50.73 51.86 M52.21 51.01 C41.69 50.71, 27.86 52.38, -1.8 51.98 M52.21 51.89 C33.57 49.99, 16.88 51.29, 0.59 52 M1.58 50.29 C0.12 37.61, -1.35 24.23, -1.93 1.46 M-0.7 50.51 C0.68 32.25, 0.64 11.39, 0.83 0.78" stroke="#666666" stroke-width="1" fill="none"/></g><g stroke-linecap="round" transform="translate(58.23023964045274 246.26922922152812) rotate(0 25.681884765625 25.681884765625)"><path d="M-0.18 -0.62 L51.26 -0.75 L52.94 53.33 L-1.79 50.91" stroke="none" stroke-width="0" fill="#bdbdbd40"/><path d="M0.29 -1.31 C19.82 1.71, 34.7 0.77, 50.61 0.42 M0.5 0.79 C13.14 0.35, 28.58 1.1, 51.16 -0.65 M50.16 -1.93 C52.92 19.8, 50.33 35.93, 49.69 51.45 M50.94 -0.95 C51.39 12.76, 52.25 26.89, 51.86 50.54 M51.01 52.86 C38.98 50.41, 28.79 49.78, 0.62 52.11 M51.89 50.89 C30.02 51.96, 10.85 52.39, 0.64 50.85 M-1.07 51.96 C-0.76 30.26, -1.38 8.94, 1.46 1.6 M-0.86 51.6 C0.92 40.61, -0.41 30.3, 0.78 0.36" stroke="#666666" stroke-width="1" fill="none"/></g><g stroke-linecap="round" transform="translate(60.28725468738298 319.6818655777888) rotate(0 25.681884765625 25.681884765625)"><path d="M-0.62 -0.1 L50.61 1.58 L53.33 49.57 L-0.46 50.72" stroke="none" stroke-width="0" fill="#bdbdbd40"/><path d="M-1.31 1.77 C13.15 -1.48, 24.01 -0.83, 51.78 -0.53 M0.79 -0.89 C13.6 0.25, 27.96 -0.46, 50.71 0.48 M49.43 1.71 C53.18 13.05, 51.43 26.2, 51.45 50.72 M50.41 0.07 C50.67 15.87, 51.03 30.37, 50.54 50.67 M52.86 50.84 C36.09 52.42, 21.36 51.89, 0.74 53.33 M50.89 50.48 C41 52.05, 30.9 52.27, -0.52 52.3 M0.6 50.35 C-1.27 36.88, -2.34 27.14, 1.6 -1.74 M0.24 51.78 C0.56 40.14, 1.19 31.53, 0.36 -0.09" stroke="#666666" stroke-width="1" fill="none"/></g><g stroke-linecap="round" transform="translate(213.42717778308588 451.0698202897029) rotate(0 25.681884765625 25.681884765625)"><path d="M-0.1 -0.75 L52.94 1.97 L49.57 50.91 L-0.64 50.02" stroke="none" stroke-width="0" fill="#bdbdbd40"/><path d="M1.77 1.34 C10.3 0.74, 22.66 0.75, 50.83 -0.7 M-0.89 -0.02 C12.13 0.32, 23.06 -1.06, 51.84 -0.29 M53.07 1.92 C50.17 14.49, 49.38 28.71, 50.72 51.18 M51.44 -1 C52.07 17.82, 51.64 36.08, 50.67 51.11 M50.84 50.19 C34.94 49.94, 16.85 52.49, 1.97 49.46 M50.48 51.52 C32.02 51.71, 12.47 50.6, 0.94 50.86 M-1.01 50.5 C-1.36 29.96, 1.74 14.03, -1.74 -1.99 M0.41 51.56 C-0.48 40.4, 1.22 28.12, -0.09 -0.31" stroke="#666666" stroke-width="1" fill="none"/></g><g stroke-linecap="round" transform="translate(215.18224382936114 524.2939108658748) rotate(0 25.681884765625 25.681884765625)"><path d="M-0.75 1.58 L53.33 -1.79 L50.91 50.72 L-1.34 50.87" stroke="none" stroke-width="0" fill="#bdbdbd40"/><path d="M1.34 -1.41 C16.56 -1.21, 32.73 -0.99, 50.67 -1.47 M-0.02 0.5 C18.73 0.26, 35.35 0.94, 51.08 -0.21 M53.29 -0.89 C51.05 10.65, 50.95 23.99, 51.18 52.55 M50.36 0.93 C50.24 13.72, 50.05 25.75, 51.11 51.78 M50.19 52.51 C35.06 51.85, 23.12 53.2, -1.9 53.06 M51.52 51.78 C33.86 51.55, 14.65 51.85, -0.5 52.15 M-0.86 49.72 C-2.09 40.18, 1.45 24.33, -1.99 -1.41 M0.2 50.44 C0.71 41.14, 0.23 29.27, -0.31 -0.05" stroke="#666666" stroke-width="1" fill="none"/></g><g stroke-linecap="round" transform="translate(289.32216692506427 517.6818655777888) rotate(0 25.681884765625 25.681884765625)"><path d="M1.58 1.97 L49.57 -0.46 L50.72 50.02 L-0.5 50.35" stroke="none" stroke-width="0" fill="#bdbdbd40"/><path d="M-1.41 0.4 C11.3 0.07, 23.57 -1.04, 49.89 1.01 M0.5 0.73 C19.27 -0.64, 39.42 -0.27, 51.15 -0.6 M50.47 0.18 C50.13 10.53, 51.16 20.7, 52.55 50.51 M52.29 -0.64 C51.9 9.7, 50.71 20.79, 51.78 51.19 M52.51 49.56 C32.74 51.81, 14.84 49.16, 1.7 52.41 M51.78 51.95 C39.04 50.93, 26.38 50.95, 0.79 50.83 M-1.64 49.43 C1.72 36.02, -1.48 15.48, -1.41 -1.72 M-0.93 52.2 C0.57 35.1, -0.3 17.82, -0.05 -0.38" stroke="#666666" stroke-width="1" fill="none"/></g><g stroke-linecap="round" transform="translate(366.32216692506427 534.6818655777888) rotate(0 25.681884765625 25.681884765625)"><path d="M1.97 -1.79 L50.91 -0.64 L50.02 50.87 L-1.02 52.11" stroke="none" stroke-width="0" fill="#bdbdbd40"/><path d="M0.4 -0.75 C20.37 -0.17, 39.2 -1.11, 52.37 1.58 M0.73 -0.2 C10.17 0.22, 21.35 -0.47, 50.76 -0.97 M51.54 -1.67 C51.94 19.15, 51.68 40.76, 50.51 49.46 M50.73 0.5 C50.02 15.09, 50.6 31.99, 51.19 52.11 M49.56 51.98 C38.04 53.63, 21.33 53.35, 1.05 50.41 M51.95 52 C39.98 52.52, 29.13 52.37, -0.54 51.66 M-1.93 52.83 C1.82 36.82, -1.77 24.35, -1.72 0.47 M0.83 52.14 C0.25 33.74, -0.41 16.25, -0.38 0.79" stroke="#666666" stroke-width="1" fill="none"/></g><g stroke-linecap="round" transform="translate(474.56008196412677 507.4559134293513) rotate(0 25.681884765625 25.681884765625)"><path d="M-1.79 -0.46 L50.72 -1.34 L50.87 50.35 L0.74 52.86" stroke="none" stroke-width="0" fill="#bdbdbd40"/><path d="M-0.75 0.42 C18.33 -0.8, 36.25 0.91, 52.95 -1.79 M-0.2 -0.65 C15.76 -0.66, 30.36 -0.98, 50.4 0.85 M49.69 0.09 C50.49 20.17, 52.32 39.85, 49.46 51.51 M51.86 -0.83 C51.15 10.02, 52.26 20.37, 52.11 51.1 M51.98 52.11 C40.94 49, 28.27 51.95, -0.95 49.59 M52 50.85 C36.07 51.17, 19.68 51.13, 0.3 50.86 M1.46 52.97 C-1.32 36.18, -0.98 23.26, 0.47 0.83 M0.78 51.72 C0.39 34.63, 0.42 18.15, 0.79 0.98" stroke="#666666" stroke-width="1" fill="none"/></g><g stroke-linecap="round" transform="translate(442.59963274537677 375.5460013199763) rotate(0 25.681884765625 25.681884765625)"><path d="M-0.46 -0.64 L50.02 -0.5 L50.35 52.11 L1.5 52.82" stroke="none" stroke-width="0" fill="#bdbdbd40"/><path d="M0.42 -0.53 C11.09 -1.28, 24.59 1.78, 49.58 -0.05 M-0.65 0.48 C17.71 -0.11, 35.4 -0.86, 52.22 0.96 M51.45 -0.64 C51.23 14.31, 50.56 24.35, 51.51 49.36 M50.54 -0.69 C50.78 20.6, 50.86 41.11, 51.1 50.78 M52.11 53.33 C31.1 53.22, 15.69 50.57, -1.77 51.69 M50.85 52.3 C33.3 52.48, 15.71 51.99, -0.51 50.93 M1.6 49.63 C-1.49 38.76, -1.22 29.44, 0.83 0.39 M0.36 51.27 C-0.74 40.65, -0.8 30.84, 0.98 -0.9" stroke="#666666" stroke-width="1" fill="none"/></g><g stroke-linecap="round" transform="translate(718.2534257631412 229.6818655777888) rotate(0 25.681884765625 25.681884765625)"><path d="M-0.64 -1.34 L50.87 -1.02 L52.11 52.86 L1.45 50.16" stroke="none" stroke-width="0" fill="#bdbdbd40"/><path d="M-0.53 -0.7 C14.96 0.9, 34.46 -1.89, 51.32 1.01 M0.48 -0.29 C18.92 -0.27, 37.3 1.19, 52.33 -0.44 M50.72 -0.18 C52.12 15.02, 49.03 31.89, 49.36 53.22 M50.67 -0.25 C52.04 11.96, 52.37 24.01, 50.78 51.94 M53.33 49.46 C42.28 52.6, 28.86 49.79, 0.32 52.2 M52.3 50.86 C33.71 50.56, 14.78 50.59, -0.43 50.54 M-1.74 49.38 C-1.78 39.21, 0.09 31.31, 0.39 -1.85 M-0.09 51.05 C-0.45 31.3, 0.39 12.97, -0.9 -0.23" stroke="#666666" stroke-width="1" fill="none"/></g><g stroke-linecap="round" transform="translate(711.3221669250643 136.6818655777888) rotate(0 25.681884765625 25.681884765625)"><path d="M-1.34 -0.5 L50.35 0.74 L52.86 52.82 L-1.2 50.36" stroke="none" stroke-width="0" fill="#bdbdbd40"/><path d="M-0.7 -1.47 C14.48 1.72, 25.16 0.09, 52.37 1.45 M-0.29 -0.21 C13.77 -1.21, 29.59 0.72, 50.92 0.09 M51.18 1.19 C50.53 9.22, 51.53 20.24, 53.22 50.09 M51.11 0.42 C50.76 18.71, 50.68 35.34, 51.94 50.46 M49.46 53.06 C35.41 50.92, 15.59 52.19, 0.84 52.54 M50.86 52.15 C32.13 52.15, 13.47 51.42, -0.82 50.4 M-1.99 49.96 C-2.13 32.67, 0.42 13.43, -1.85 1.67 M-0.31 51.31 C-0.56 32.75, 0.8 11.66, -0.23 -0.32" stroke="#666666" stroke-width="1" fill="none"/></g><g stroke-linecap="round" transform="translate(721.3221669250643 45.68186557778881) rotate(0 25.681884765625 25.681884765625)"><path d="M-0.5 -1.02 L52.11 1.5 L52.82 50.16 L-1.01 50.76" stroke="none" stroke-width="0" fill="#bdbdbd40"/><path d="M-1.47 1.01 C18.06 -1.61, 32.91 1.19, 52.81 -0.4 M-0.21 -0.6 C11.1 1, 25.1 -0.3, 51.45 -0.83 M52.55 -0.85 C49.3 15.78, 49.2 33.12, 50.09 52.36 M51.78 -0.18 C51.76 10.9, 50.42 22.91, 50.46 51.67 M53.06 52.41 C33.09 49.11, 17.04 51.71, 1.18 52.64 M52.15 50.83 C38.92 50.6, 25.44 50.29, -0.97 52.09 M-1.41 49.65 C0.92 32.67, 0.84 10.46, 1.67 1.55 M-0.05 50.99 C0.84 35.11, -0.85 16.67, -0.32 -0.67" stroke="#666666" stroke-width="1" fill="none"/></g><g stroke-linecap="round" transform="translate(10 10) rotate(0 421.1255468641009 314.56503186907076)"><path d="M-0.42 -0.16 C260.39 1.13, 521.04 2.24, 841.69 0.59 M0.29 -0.06 C303.67 -3.52, 608.39 -3.44, 842.05 0.39 M841.61 0.14 C844.8 230.43, 843.72 460.7, 842.85 629.5 M842.37 0.39 C844.19 144.35, 844.52 288.37, 841.95 629.04 M842.86 628.53 C550.61 631.61, 259.14 631.3, -0.44 629.12 M842.36 629.3 C567.39 629.23, 293.08 629.25, 0.09 629.42 M-0.13 629.42 C0.39 470.12, 0.84 309.69, -0.27 0.71 M0.08 629.49 C-0.29 414.25, -0.7 198.99, -0.14 -0.09" stroke="#666" stroke-width="2" fill="none"/></g></svg>