<svg version="1.1" xmlns="http://www.w3.org/2000/svg" viewBox="0 0 865.0199978186224 653.2712007860864" width="1730.0399956372448" height="1306.5424015721728">
  <!-- svg-source:excalidraw -->
  
  <defs>
    <style>
      @font-face {
        font-family: "Virgil";
        src: url("https://unpkg.com/@zsviczian/excalidraw@0.12.0-obsidian-4/dist/excalidraw-assets/Virgil.woff2");
      }
      @font-face {
        font-family: "Cascadia";
        src: url("https://unpkg.com/@zsviczian/excalidraw@0.12.0-obsidian-4/dist/excalidraw-assets/Cascadia.woff2");
      }
    </style>
  </defs>
  <g stroke-linecap="round"><g transform="translate(443.9331476267985 252.55143484655412) rotate(0 -216.31127872181423 195.35988296976615)" fill-rule="evenodd"><path d="M-432.77 1.43 C-432.77 1.43, -432.77 1.43, -432.77 1.43 M-432.77 1.43 C-432.77 1.43, -432.77 1.43, -432.77 1.43 M-432.89 13.13 C-428.03 8.86, -425.27 6.07, -423.32 -0.09 M-432.01 14.22 C-428.52 9.25, -425.27 5.62, -421.67 1.39 M-431.02 25.92 C-427.44 20.62, -423.08 13.77, -412.63 1.32 M-432.31 26.38 C-426.12 19.24, -421.12 10.74, -410.89 2 M-432.62 38.56 C-420.15 26.58, -408.99 14.32, -400.64 -0.13 M-433.23 36.99 C-421.1 25.29, -411.6 13.03, -401.59 1.29 M-431.55 50.12 C-417.55 33.56, -401.95 17.69, -391.69 3.19 M-433.22 50.29 C-418.47 34.03, -405.12 17.11, -390.31 1.66 M-431.56 61.86 C-412.52 38.82, -393.81 16.69, -378.7 1.53 M-433.52 62.18 C-417.62 45.92, -403.07 28.45, -380.31 1.14 M-433.75 74.04 C-416.29 55.82, -402.08 37.2, -368.89 1.85 M-432.63 75.18 C-412.18 50.73, -390.15 25.6, -369.18 0.68 M-431.37 85.4 C-417.04 67.08, -399.82 47.26, -359.24 0.28 M-431.52 86.72 C-404.02 52.64, -374.35 21.51, -357.68 0.41 M-433.88 98.32 C-397.07 60.21, -364.62 22.66, -345.87 0.5 M-433.07 98.2 C-399.47 60.38, -365.63 22.89, -347.48 0.94 M-433.1 110.02 C-406.75 82.84, -381.95 53.12, -335.56 2.23 M-432.47 110.96 C-413.05 87.91, -393.71 63.99, -337.97 1.64 M-431.99 121.97 C-400.41 87.24, -369.18 52.8, -327.1 -0.34 M-433.42 123.61 C-395.27 79.96, -355.67 35.84, -326.02 1.92 M-434.04 134.86 C-395.51 94.44, -360.4 56.62, -314.8 1.86 M-431.81 135.79 C-389.77 85.29, -345.88 34.17, -316.78 1.48 M-432.05 146.05 C-381.97 91.85, -336.95 36.12, -305.88 -0.77 M-431.91 147.46 C-404.43 113.37, -375.41 80.97, -305.45 1.66 M-434.05 160.56 C-381.97 102.42, -334.05 43.83, -295.79 0.08 M-432.73 159 C-399.11 120.09, -365.37 81.7, -294.12 1.56 M-432.54 172.91 C-389.78 124.26, -349.31 76.2, -282.61 0.5 M-433.6 171.97 C-377.65 107.9, -321.16 42.49, -283.35 1.66 M-432.75 185.41 C-388.7 132.68, -344.59 83.86, -272.08 1.55 M-433.32 183.84 C-388.03 134.23, -345.08 84.23, -273.1 1.73 M-431.25 194.96 C-366.66 120.17, -301.7 43.44, -261.81 0.03 M-432.71 196.23 C-374.64 132.74, -319.03 68.94, -262.7 0.58 M-431.55 208.75 C-374.43 138.91, -316.92 74.13, -251.32 2.13 M-431.89 207.95 C-389.55 160.45, -348.71 112.37, -251.52 1.06 M-431.19 219.54 C-384.27 163.91, -333.05 104.8, -242.87 -0.3 M-432.95 220.75 C-362.54 139.82, -291.41 58.09, -241.82 1.4 M-433.06 233.71 C-359.29 150, -287.08 67.78, -231.88 1.87 M-432.96 233.35 C-358.54 146.09, -281.35 57.42, -230.16 0.42 M-433.24 244.1 C-350.36 149.15, -263.27 50.44, -220.3 0.37 M-432.55 244.77 C-361.39 162.88, -291.48 82.66, -220.72 1.21 M-432.09 256.87 C-366.44 179.79, -300.14 104.81, -209.7 -0.3 M-432.1 257.95 C-362.27 176.03, -293.36 95.3, -209.8 1.15 M-433.47 268.78 C-357.52 182.73, -284.92 97.68, -199.7 0.92 M-432.54 268.93 C-379.41 210.53, -326.77 150.09, -198.64 0.19 M-433.15 280.89 C-379.7 220.9, -324.95 161.46, -187.95 0.1 M-431.93 281.81 C-359.05 195.76, -283.72 110.52, -188.1 0.56 M-432.46 294.08 C-371.54 220.51, -306.88 147.69, -178.48 0.15 M-433.1 294 C-336.44 183.59, -238.86 71.58, -177.38 1.18 M-433.32 305.27 C-359.36 220.87, -284.76 136.08, -166.57 0.71 M-433.25 306.66 C-334.82 192.52, -235.37 77.72, -167.02 0.74 M-432.68 319.04 C-369.3 244.72, -304.34 170.09, -156.37 0.14 M-432.33 318.48 C-337.78 209.12, -243.2 100.45, -156.43 0.55 M-432.35 330.34 C-318.44 199.03, -205.38 69.1, -146.45 0.06 M-432.17 330.45 C-373.6 265.51, -316.78 199.42, -145.49 0.1 M-432.37 342.99 C-360.2 258.42, -286.12 174.02, -135.58 0.05 M-432.11 342.21 C-327.36 220.91, -222.88 99.19, -135.35 -0.01 M-432.71 354.81 C-321.53 227.77, -210.44 97.98, -124.35 0.11 M-432.86 355.5 C-363.75 276.77, -295.33 197.89, -124.81 0.85 M-432.29 366.82 C-347.35 269.51, -263.68 173.12, -113.56 -0.1 M-432.31 367.54 C-347.02 269.02, -261.01 170.83, -114.22 0.48 M-433.3 379.22 C-325.35 255.27, -218.55 132.82, -103.92 0.61 M-432.88 379.04 C-324.38 252.06, -214.82 126.39, -103.05 0.32 M-431.87 390.83 C-298.48 239.75, -166.36 88.27, -92.07 0.98 M-432.38 390.95 C-347.37 293.25, -262.29 195.98, -92.24 0.49 M-421.8 391.9 C-316.98 271.97, -213.04 153.3, -82.19 1.6 M-421.6 391.32 C-289.98 240.74, -157.96 89.76, -82.72 0.88 M-411.31 390.8 C-298.16 258.83, -182.85 127.72, -72.7 1.12 M-411.2 390.87 C-319.64 288.59, -228.93 184.09, -71.99 1.04 M-400.13 391.62 C-301.38 277.96, -203.5 163.86, -61.57 1.03 M-400.91 391.26 C-299.74 275.94, -199.4 160.41, -61.49 0.8 M-389.79 390.38 C-273.66 258.45, -158.09 125.47, -50.71 0.42 M-389.58 390.86 C-257.69 236.5, -123.55 81.72, -50.77 1 M-379.4 390.48 C-265.89 258.56, -150.02 124.75, -39.96 1.64 M-379.09 390.89 C-268.13 263.5, -157.21 135.65, -39.97 1.1 M-368.61 391.6 C-281.39 290.81, -196.45 193.2, -29.29 0.18 M-369.05 390.73 C-258.98 266.79, -149.69 141.32, -29.8 0.55 M-358.18 390.7 C-266.26 284.45, -174.86 178.14, -18.54 0.74 M-358.3 390.81 C-288.19 309.35, -217.41 227.99, -18.63 0.47 M-348.19 390.21 C-265.62 295.89, -184.28 201.92, -8.07 0.68 M-347.66 391.16 C-267.09 299.14, -186.02 205.85, -7.98 0.96 M-336.96 390.99 C-208.89 244.98, -81.89 96.82, 2.51 2.12 M-336.6 391.07 C-261.57 304.02, -186.19 217.65, 2.06 1.18 M-325.7 390.91 C-232.33 280.54, -135.34 171.36, 2.61 13.96 M-326 390.84 C-212.97 260.82, -98.81 129.49, 1.91 13.73 M-315.81 390.6 C-217.44 277.39, -117.83 161.77, 1.64 25.18 M-315.61 390.7 C-214.88 275.49, -115.97 161.15, 2.08 25.85 M-305.52 390.49 C-210.19 283.06, -116.43 175.72, 2.37 38.21 M-305.22 390.92 C-196.81 265.95, -88.13 140.76, 1.35 38.67 M-295.19 390.07 C-236.4 322.52, -177.04 255.17, 1.6 49.77 M-294.46 390.6 C-181.76 260.94, -69.67 131.59, 1.38 50.6 M-283.68 389.86 C-225.77 323.05, -167.58 254.03, 1.29 61.55 M-283.16 390.45 C-174.5 263.9, -65.69 138.99, 2.15 62.37 M-273 390.89 C-182.67 285.33, -91.33 179.42, 0.84 73.97 M-273.46 390.77 C-169.92 270.44, -64.61 150.04, 2.05 74.22 M-262.08 390.53 C-203.17 322.14, -143.81 251.44, 1.34 85.9 M-261.86 390.36 C-196.63 315.61, -131.31 240.12, 2.44 86.25 M-251.46 390.08 C-184.52 313.34, -114.8 233.92, 1.05 99.97 M-251.75 390.36 C-194.42 324.36, -135.69 257.89, 1.34 99.37 M-240.99 391.13 C-188.8 326.34, -134.05 264.85, 1.45 111.98 M-240.85 390.2 C-147.19 283.15, -53.53 175.06, 1.77 111.78 M-230.46 389.42 C-152.37 301.14, -74.84 211.25, 1.46 122.27 M-229.97 390.45 C-160.84 310.3, -89.41 228.31, 1.51 123.61 M-219.33 389.91 C-141.13 295.28, -59.3 204.67, 1.65 135.01 M-220.26 390.71 C-143.94 304.98, -67.97 218.97, 1.9 136.07 M-210.37 390.98 C-142.88 313.59, -77.31 236.59, 1.36 146.18 M-208.92 390.18 C-140.44 309.62, -70.01 229.56, 1.64 147.15 M-198.39 389.13 C-151.97 334.86, -101.74 278.79, 2.62 158.87 M-199.07 390.76 C-147 333.04, -97.6 275.88, 1.56 159.92 M-187.74 389.48 C-117.63 306.88, -45.27 223.88, 1.71 172.9 M-187.28 391.04 C-129.56 322.82, -72.41 255.95, 1.2 173.09 M-178.2 389.08 C-111.49 313.17, -48.3 239.37, 1.42 184.77 M-176.92 390.46 C-109.41 311.62, -40.74 232.83, 2.2 184.47 M-165.21 390.27 C-106.78 321.41, -48.89 254.04, 2.81 196.86 M-166.36 390.63 C-103.67 320.91, -41.83 250.56, 1.39 195.79 M-155.32 391.98 C-116.63 345.49, -76.81 301.06, 2.84 208.1 M-155.35 390.86 C-96.1 321.41, -36.03 250.67, 2.65 208.6 M-145.28 391.22 C-112.18 349.54, -80.48 313.66, 0.43 221.41 M-145.13 390.63 C-98.42 336.22, -51.67 281.97, 1.35 221.84 M-134.07 390.29 C-87.05 337.96, -41.38 284.98, 1.82 232.69 M-133.98 389.85 C-101.26 352.58, -68.11 315.44, 1.76 232.89 M-124.58 388.79 C-90.02 353.11, -58.75 311.72, 3.5 246.04 M-123.91 390.08 C-82.91 342.58, -39.13 293.99, 2.72 246.29 M-112.22 391.82 C-77.92 349.13, -43.51 312.45, 2.78 258.63 M-112.56 389.47 C-75.37 344.79, -36.85 302.53, 1.28 257.13 M-101.35 392.1 C-73.04 354.33, -40.03 319.54, 3.02 268.96 M-102.08 389.3 C-80.53 363.62, -56.63 336.2, 1.67 269.14 M-93.13 390.43 C-64.97 361.72, -39.72 329.41, 3.22 280.41 M-92.34 390.61 C-60.92 354.31, -28.77 317.41, 0.8 283.09 M-82.93 390.24 C-66.96 369.26, -47.19 349.46, 1.25 294.66 M-80.68 389.38 C-49.56 354.53, -19.46 317.94, 2.06 293.97 M-71.73 389.97 C-49.1 365.01, -28.61 336.95, 0.41 306.59 M-70.61 390.88 C-46.8 361.29, -20.98 331.75, 1.65 306.86 M-59.56 389.52 C-45.94 369.43, -27.99 352.76, 0.72 317.74 M-59.66 390.9 C-47.61 373.34, -33.89 358.72, 2.39 318.1 M-48.93 390.67 C-37.08 376.08, -23.71 357.63, 0.74 331.45 M-50.11 390.06 C-29.83 368.45, -11.4 346.67, 1.33 329.42 M-38.28 391.55 C-29.57 380.14, -21.45 371.08, 1.52 342.12 M-38.79 389.04 C-24.93 374.13, -11.71 358.75, 2.25 342.93 M-29.44 391.07 C-19.69 378.66, -13.16 369.16, -0.22 354.58 M-27.88 388.96 C-21.31 381.93, -16.05 375.12, 2.54 355.36 M-17.01 391.32 C-10.16 384.1, -5.58 376.49, 0.52 369.07 M-18.67 390.55 C-14.41 385.64, -9.06 381.42, 2.48 366.93 M-7.67 390.01 C-6.08 386.45, -2.15 386.14, 2.13 380.26 M-6.61 390.32 C-5.35 387.46, -3.69 386.16, 2.04 379.48" stroke="#66bb6a" stroke-width="1" fill="none"/><path d="M-1.05 1.06 C0.56 86.74, -1.34 172.5, -1.13 389.59 M0.38 -0.13 C-0.51 84.05, -0.21 168, -0.08 389.5 M-0.01 389.09 C-131.07 387.87, -260.04 388.22, -433.39 391.26 M-0.1 388.93 C-152.57 390.89, -306 390.53, -432.36 390.39 M-433.14 391.06 C-433.41 308.63, -434.47 228.28, -433.41 2.33 M-432.33 390.38 C-433.63 293.55, -434 195.53, -433.03 0.83 M-431.65 0.82 C-311.63 1.34, -192.39 0.46, 0.4 0.74 M-432.75 1.02 C-300.92 0.16, -169.55 -0.1, -0.55 0.34 M-0.25 0.57 C-0.2 0.27, -0.08 0.11, -0.02 -0.01 M-0.3 0.54 C-0.2 0.35, -0.07 0.14, -0.01 0.02" stroke="#666" stroke-width="2" fill="none"/></g></g><g stroke-linecap="round"><g transform="translate(639.7286776580795 13.702679963741616) rotate(0 11.037631599272004 312.07538303010233)" fill-rule="evenodd"><path d="M0.16 -1.18 C0.16 -1.18, 0.16 -1.18, 0.16 -1.18 M0.16 -1.18 C0.16 -1.18, 0.16 -1.18, 0.16 -1.18 M2.61 2.39 C3.48 1.29, 4.05 -0.24, 5.14 -0.84 M2.7 2.25 C3.55 1.03, 4.12 0.36, 5.28 -0.74 M-68.23 92.08 C-48.32 69.65, -28.26 45.46, 9.34 -0.5 M-69.81 91.48 C-46.53 65.16, -24.09 38.98, 10.76 -0.73 M-193 239.66 C-117.23 153.8, -42.15 66.39, 17.77 -1.16 M-192.88 239.12 C-142.96 181.23, -93.14 123.95, 16.7 -0.98 M-193.47 245.61 C-107.16 144.95, -20.44 48.53, 21.61 -1.54 M-193.25 245.47 C-142.3 189.39, -93.03 132.14, 21.35 -1.62 M-192.97 251.33 C-139.94 189.29, -86.53 128.37, 27.49 -1.08 M-192.21 250.74 C-105.92 153.06, -20.92 55.33, 26.7 -2.14 M-193.68 256.83 C-119.34 170.2, -44.83 84.09, 31.45 -0.18 M-192.81 257.42 C-134.88 188.45, -74.44 119.91, 31.54 -0.69 M-192.7 264.07 C-145.58 210.47, -98.04 156.9, 37.27 -0.49 M-192.78 262.81 C-132.23 194.81, -71.39 125.44, 37.56 -1.88 M-193.66 270.11 C-112.62 178.09, -33.07 87.68, 43.39 -2.48 M-193.06 269.86 C-111.78 174.13, -30.04 79.06, 43.02 -1.38 M-193.3 275.93 C-128.89 202.03, -64.28 127.16, 47.44 -1 M-192.28 274.77 C-124.92 198.84, -57.42 120.74, 48.84 -1.73 M-193.03 282.38 C-140.82 223.87, -87.54 163.77, 53.81 -0.47 M-192.46 281.46 C-113.95 188.82, -34.91 96.54, 53.58 -0.91 M-193.79 289.09 C-139.94 225.31, -86.71 163.41, 57.9 -2.65 M-192.95 287.59 C-125.07 207.02, -55.29 127.02, 59.34 -1.39 M-191.86 294.66 C-101.24 189.44, -10.48 83.4, 64.01 -2.73 M-192.88 293.8 C-91.66 178.44, 9.56 63.48, 64.98 -2.23 M-192.41 300.48 C-114.46 209.82, -36.54 122.6, 69.29 -0.87 M-193.03 300.04 C-88.03 181.43, 15.92 62.35, 70.06 -1.92 M-191.7 305.68 C-117.33 217.97, -39.84 130.87, 75.66 -2.48 M-192.75 305.79 C-133.87 238.61, -74.88 171.13, 75.78 -1.7 M-193.63 312.35 C-107.72 212.5, -23.19 115.41, 79.65 -1.51 M-192.78 312.64 C-135.03 247.01, -77.66 180.92, 80.02 -1.69 M-192.06 317.66 C-106 214.59, -16.03 114.37, 86.74 -2.93 M-192.61 317.96 C-122.1 235.76, -52.15 156.25, 86.01 -2.43 M-193.18 323.47 C-99.95 217.02, -8.83 109.09, 90.09 -1.1 M-192.35 324.27 C-78.16 195.49, 34.91 65.36, 91.25 -1.56 M-192.49 331.21 C-111.53 238.25, -29.94 143.85, 97.25 -1.48 M-192.74 330.32 C-80.29 202.1, 31.23 72.98, 96.25 -1.76 M-193.25 335.34 C-86.21 216.67, 17.94 94.79, 101.88 -2.35 M-192.78 336.54 C-116.03 246.18, -37.58 156, 102.46 -2.67 M-193.01 341.96 C-132.45 270.28, -69.86 198.61, 106.41 -2.16 M-192.24 342.97 C-103.01 236.78, -12.45 132.48, 107.44 -2.21 M-192.71 348.75 C-108.55 250.81, -23.28 152.59, 112.94 -3.38 M-192.6 348.07 C-121.88 268.94, -52.99 189.22, 112.42 -3.06 M-192.92 353.8 C-116.2 268.77, -39.3 181.19, 117.36 -2.27 M-192.26 354.24 C-88.35 234.23, 16.04 114.41, 117.7 -2.56 M-192.25 359.64 C-89.8 241.15, 13.55 120.31, 123.06 -2.01 M-192.3 360.01 C-89.9 244.48, 11.12 128.27, 123.82 -2.81 M-193.14 366.77 C-83.53 242.16, 26.06 116.16, 128.49 -1.73 M-192.1 366.7 C-65.88 223.19, 59.68 78.46, 128.51 -2.63 M-192.11 373.36 C-61.92 224.28, 67.77 74.29, 133.73 -2.4 M-192.53 373.26 C-95.62 260.55, 1.9 148.25, 134.04 -2.35 M-192.27 379.35 C-74.42 242.94, 44.39 107.28, 138.67 -3.18 M-192.18 379.06 C-108.94 283.53, -26.96 189.85, 138.7 -2.6 M-192.02 384.78 C-79.2 255.57, 33.65 124.65, 144.31 -2.35 M-192.68 385.36 C-81.94 256.28, 28.64 128.56, 144.26 -2.53 M-192.46 391.17 C-69.66 250.86, 50.52 111.69, 150.02 -3.8 M-191.84 390.54 C-109.33 295.6, -26.92 200.63, 150.67 -3.32 M-192.76 397.37 C-106.02 296.01, -18.46 196.82, 154.82 -3.06 M-192.08 397.04 C-86.53 274.98, 19.11 153.79, 155.36 -2.72 M-192.03 403.39 C-83.32 278.01, 27.2 150.22, 161.18 -2.95 M-192.22 402.58 C-58.28 248.34, 77.12 93.7, 160.89 -2.85 M-192.72 409.43 C-117.22 322.85, -42.3 238.02, 166.58 -3.25 M-192.61 409.53 C-77.78 277.45, 37.42 145.68, 166.08 -2.83 M-191.88 415.62 C-116.33 328.02, -39.44 239.89, 172.11 -2.55 M-192.46 415.25 C-102.2 312.11, -12.51 208.72, 171.39 -3.1 M-192.55 420.53 C-71.51 281.73, 50.59 140.59, 176.65 -3.15 M-192.48 420.91 C-115.08 334.56, -40.22 247.93, 176.57 -2.92 M-191.97 428.45 C-64.38 280.25, 62.57 134.11, 182.25 -3.31 M-192.32 427.8 C-89.3 310.72, 13.5 191.96, 182.01 -3.12 M-192.77 433.92 C-77.14 302.11, 37.21 170.17, 187.31 -2.91 M-192.3 432.95 C-42.88 259.44, 106.31 87.42, 187.89 -3.51 M-192.9 439.21 C-39.27 264, 112.57 88.31, 193.56 -3.1 M-192.49 439.64 C-85.11 315.44, 21.92 192.17, 193.01 -3.5 M-191.35 446.1 C-93.01 329.33, 8.76 213.95, 197.77 -3.53 M-192.22 445.07 C-94.6 336.61, 1.18 226.23, 198.14 -3.82 M-192.48 452.53 C-38.84 275.1, 114.76 98.82, 203.35 -4.09 M-192.36 451.68 C-60.83 300.94, 71.09 148.78, 203.08 -3.58 M-193.2 457.98 C-73.83 321.35, 46.05 184.64, 208.97 -4.23 M-192.24 457.94 C-57.94 306.35, 74.67 154.04, 209.25 -3.43 M-191.99 464.3 C-58.05 311.15, 73.58 159.4, 214.67 -4 M-191.91 463.51 C-76.45 329.4, 39.83 196.35, 213.74 -3.42 M-192.29 469.48 C-38.24 292.43, 116.87 115.13, 218.15 -1.13 M-192.36 470 C-51.27 309.08, 88.02 148.58, 217.92 -1.46 M-192.15 475.29 C-54.73 319.01, 80.51 161.55, 217.09 4.99 M-192.06 476.17 C-93.19 360.85, 6.96 245.84, 217.72 4.91 M-192.47 481.63 C-107.64 386.06, -23.09 290.85, 217.72 10.98 M-192.09 482.45 C-34.55 303.15, 122.31 123.09, 218.12 10.13 M-192.38 487.1 C-53.02 329.48, 86.16 171.08, 217.07 17.56 M-191.94 487.79 C-74.21 352.06, 44.12 216.02, 217.76 16.55 M-192.74 494.4 C-47.69 327.24, 96.14 160.11, 216.63 23.98 M-192.28 494.19 C-79.43 360.86, 35.39 229.51, 217.28 23.46 M-192.17 500.57 C-38.07 322.91, 115.83 145.11, 217.34 29.61 M-192.26 500.31 C-42.6 330.02, 107.09 157.79, 217.53 28.67 M-192.01 506.6 C-47.76 339.66, 95.33 172.83, 217.02 34.95 M-192.14 506.2 C-78.73 374.65, 34.12 245.18, 217.27 35.24 M-192.55 511.95 C-71 374.78, 48.15 236.38, 217.65 41.21 M-192.36 512.88 C-33 331.61, 125.29 149.74, 217.24 41.45 M-191.43 518.29 C-35.64 336.6, 122.97 153.86, 218 48.1 M-192.04 518.72 C-56.72 362.83, 78 207.58, 217.87 47.54 M-192.75 524.58 C-94.86 411.6, 2.87 298.36, 216.64 53.84 M-192.11 524.38 C-55.81 368.2, 78.83 212.65, 217.48 54.06 M-192.02 530.02 C-30.31 342.26, 134.33 154.37, 216.83 60.51 M-191.54 530.06 C-102.32 430.13, -13.89 328.36, 217.46 60.27 M-191.62 537.14 C-36.29 359.33, 118.8 181.09, 216.73 66.1 M-192.09 536.4 C-50.1 372.94, 91.92 210.06, 217.29 65.62 M-192.9 542.74 C-31.38 358.76, 129.1 174.62, 216.44 71.84 M-192 543.35 C-97.72 436.13, -3.63 328.44, 217.02 72.57 M-192.27 548.37 C-38.44 371.18, 115.52 194.77, 217.27 78.67 M-191.44 548.82 C-92.23 430.52, 8.8 313.88, 217.36 78.9 M-192.7 555.61 C-61.18 402.72, 72.29 250.66, 217.57 84.91 M-191.99 555.13 C-79.03 423.06, 35.01 291.23, 217.41 84.5 M-191.68 561.05 C-64.76 413.48, 62.08 269.45, 217.32 91.2 M-191.5 560.95 C-100.82 458.02, -11.58 355.15, 216.79 90.48 M-191.1 566.5 C-103.23 465.44, -15.37 366.12, 216.66 97.76 M-191.64 567.47 C-29.06 379.96, 132.05 194.8, 216.91 96.79 M-191.07 573.24 C-46.71 403.16, 101.51 233.97, 217.3 102.89 M-191.34 572.81 C-67.2 429.09, 57.07 286.46, 217.5 102.89 M-191.74 579.41 C-94.39 467.87, 1.9 357.84, 216.7 108.66 M-191.95 578.97 C-100.66 474.02, -10.3 370.99, 216.79 108.97 M-192.59 586.21 C-61.31 435.03, 68.44 285.22, 216.99 115.8 M-192.08 585.42 C-58.52 433.97, 73.31 282.42, 217.09 115.49 M-190.97 591.57 C-102.16 486.74, -10.85 382.76, 217.61 121.4 M-191.91 591.47 C-63.83 441.05, 66.31 291.51, 217.01 121.12 M-191.11 597.44 C-73.28 460.5, 45.64 323.52, 216.66 126.98 M-192.23 597.4 C-44.71 428.35, 101.08 260.88, 216.73 127.49 M-191.37 603.92 C-41.91 433.81, 105.42 264.27, 215.86 134.22 M-191.3 603.29 C-83.98 479.41, 23.72 354.48, 216.93 133.57 M-191.69 609.13 C-38.02 434.03, 115.97 256.22, 217.14 140.21 M-192.03 609.92 C-85.12 487.14, 19.58 366.95, 216.87 139.61 M-191.39 615.41 C-66.87 470.69, 57.81 326.09, 216.84 146.36 M-191.03 615.24 C-44.8 445.58, 102.09 276.21, 216.94 145.87 M-191.82 621.18 C-30.36 435.9, 131.56 250.5, 216.22 151.72 M-191.26 621.66 C-54.18 460.82, 85.04 301.3, 216.36 152.23 M-191.61 627.85 C-84.77 503.05, 21.89 378.8, 217.28 158.62 M-191.85 628.52 C-61.1 479.51, 68.79 330.04, 216.47 157.69 M-185.6 628.32 C-40.3 458.12, 107.23 288.52, 216.17 164.77 M-186.6 627.93 C-67.51 491.71, 50.43 356.77, 216.49 164.35 M-180.79 628.34 C-66.29 493.89, 50.65 359.27, 216.07 170.21 M-181.63 628.48 C-35.89 459.4, 110.09 292.5, 216.39 170.97 M-175.03 628.18 C-88.67 527.1, -2.09 427.36, 217.45 175.72 M-175.34 627.53 C-70.16 510.06, 33.67 390.82, 216.59 176.1 M-170.53 627.69 C-85.64 531.29, 0.65 432.64, 217.01 182.17 M-170.36 628.15 C-31.5 468.37, 106.56 310.39, 216.56 183.25 M-164.45 628.5 C-50.13 497.51, 64.53 366.74, 216.65 188.59 M-164.6 627.99 C-21.79 462.02, 121.17 296.89, 216.43 189.27 M-160.34 628.31 C-38.12 488.88, 83.73 350.01, 216.05 194.67 M-159.62 627.8 C-67.51 520.47, 26.4 412.06, 216.33 195.04 M-153.97 627.84 C-62.65 524.31, 27.66 419.96, 215.67 200.83 M-154.02 627.46 C-74.16 536.71, 4.88 446.03, 216.16 201.47 M-149.57 628.3 C-60.91 528.75, 25.18 427.88, 215.94 206.37 M-149.41 628.16 C-65.73 531.41, 18.94 434.32, 216.7 207.11 M-144.01 627.2 C-30.39 496.5, 81.87 367.01, 216.98 213.37 M-143.81 627.56 C-25.34 491.73, 93.04 355.41, 216.83 213.43 M-138.26 628.6 C-45.34 519.66, 47.1 412.23, 216.13 219.97 M-138.45 628.43 C-66.16 545, 5.18 462.95, 216.27 220.08 M-132.81 627.68 C-39.73 521.01, 54.13 412.28, 215.82 225.29 M-132.74 627.38 C-12.77 488.55, 107.47 350.46, 216.94 225.6 M-127.9 627.43 C-42.89 528.36, 42.56 429.45, 216.14 231.94 M-127.85 628.29 C-32.65 520.64, 62.39 412.03, 216.65 231.79 M-122.11 628.02 C-29.14 520.39, 64.65 412.99, 215.75 237.67 M-122.55 627.88 C-37.27 531.8, 46.74 435.35, 216.39 238.45 M-117.44 627.46 C-16.17 509.27, 87.37 390.7, 215.69 244.29 M-117.5 628.29 C-21.94 518.64, 73.33 409.16, 216.47 243.78 M-111.48 627.02 C-40.56 546.25, 29.58 466.6, 216.01 249.77 M-111.96 627.48 C-14.4 515.36, 81.64 404.77, 216.26 249.86 M-107.31 628.66 C-8.35 513.74, 92.55 399.25, 215.83 256.71 M-106.43 627.82 C-13.49 522.68, 79.08 415.88, 216.24 256.27 M-100.75 627.55 C16.75 493.68, 133.9 357.67, 216.42 262.85 M-101.03 627.26 C-3.07 516.11, 92.95 404.6, 216.1 262.45 M-97.02 627.29 C19.96 492.54, 138.78 355.83, 215.23 268.21 M-96.52 627.99 C-18.48 538.81, 58.07 451.21, 215.8 268.73 M-90.96 627.77 C12.33 508.81, 114.02 391.19, 215.24 275.3 M-90.9 627.43 C21.03 496.9, 135.01 366.4, 215.49 275.29 M-85.76 628.56 C36.39 490.31, 156.14 350.68, 215.31 281.2 M-85.41 627.91 C19.07 507.28, 123.64 387.33, 216.65 280.66 M-79.83 628.34 C12.48 521.54, 103.22 416.01, 215.49 287.93 M-79.79 627.62 C24.09 509.85, 126.38 391.55, 215.64 286.75 M-75.34 628.66 C15.88 521.14, 108.11 416.75, 214.71 292.63 M-74.54 627.57 C10.33 531.09, 94.63 433.5, 215.72 293.06 M-69.96 628.1 C-12.06 560.07, 45.33 494.25, 216.75 298.93 M-68.81 627.2 C32.74 511.73, 134.68 394.21, 215.8 299.08 M-63.64 627.61 C-0.02 554.65, 63.29 481.34, 215.58 305.77 M-64.64 627.56 C-6.22 562.04, 51.22 495.4, 215.77 305.08 M-58.48 626.81 C33.45 523.24, 124.6 419.02, 215.61 311.85 M-58.97 627.89 C23.66 534.31, 104.56 440.39, 215.74 311.77 M-53.38 627.24 C24.32 536.47, 103.16 446.95, 216.83 318.52 M-53.81 627.58 C32.28 527.59, 118.56 427.95, 215.52 318.12 M-47.89 626.53 C37.92 528.53, 122.11 432.67, 214.74 324.78 M-48.4 627.12 C36.94 533.22, 119.37 437.19, 216.24 323.52 M-43.05 628.09 C13.47 561.15, 71.41 495.78, 214.59 329.42 M-43.11 627.97 C31.03 540.54, 106.99 453.8, 215.02 330.61 M-36.89 626.32 C12.94 568.4, 63.06 508.85, 216.51 335.07 M-37.98 626.89 C51.18 527.94, 137.69 426.81, 215.44 336.61 M-31.81 627.91 C64.25 515.66, 162.4 403.79, 216.77 341.62 M-32.02 628.01 C41.28 544.2, 112.93 459.78, 215 342.87 M-25.55 627.58 C48.79 539.91, 125.47 452.32, 214.22 350.02 M-26.62 626.93 C63.66 521.03, 155 415.7, 215 348.21 M-20.98 627.23 C58.45 533.48, 139.85 439.31, 215.06 355.26 M-22.37 627.6 C51.24 544.43, 125.28 460.53, 215.72 354.51 M-16.97 628.21 C29.88 573.08, 77.18 520.9, 216.42 359.88 M-16.48 627.36 C70.44 528.4, 156.2 429.22, 215.84 360.36 M-10.58 628.78 C45.32 561.42, 104.79 493.77, 216.41 367.81 M-11.67 628.03 C44.72 562.38, 101.5 497.65, 214.67 367.33 M-5.81 628.5 C67.84 544.05, 140.55 459.88, 215.06 372.58 M-5.04 626.74 C70.9 537.86, 149.97 447.89, 215.52 373.45 M-0.39 628.33 C58.87 560.78, 119.23 491.88, 214.18 378.09 M-1.03 627.52 C49.84 568.03, 100.61 508.66, 215.53 378.77 M4.68 628.28 C79.59 540.09, 153.07 457.15, 216.45 385.52 M4.81 627.41 C72.95 549.67, 140.18 472.77, 214.85 385.1 M11.5 628.87 C51.16 577.08, 94.49 530.76, 216.47 390.26 M10.43 626.97 C72.87 552.99, 136.9 480.97, 215.8 391 M13.75 627.98 C66.37 571.59, 115.74 514.33, 215.76 397.03 M14.39 628.01 C79.84 551.65, 144.63 475.58, 215.45 398.27 M21.69 628.84 C63.93 582.05, 104.93 534.58, 214.58 404.69 M20.82 626.82 C84.31 555.85, 146.96 482.41, 214.62 403.93 M26.92 629.22 C98.89 542.14, 172.62 457.44, 216 410.03 M24.98 628.48 C64.52 583.76, 104.08 537.13, 214.82 409.99 M31.04 628.84 C91.59 560.46, 148.48 494.56, 213.81 416.45 M31.85 627.7 C79.75 572.31, 127.58 517.18, 215.79 416.35 M36.72 626.89 C83.64 575.77, 128.07 520.37, 214.8 422.45 M36.97 627.61 C81.7 574.87, 128.43 521.89, 214.94 422.31 M40.91 627.31 C93.3 568.59, 145.75 510.76, 214.39 427.26 M42.39 628.07 C92.87 567.52, 146.99 506.84, 215.62 428.32 M46.97 626.54 C107.98 556.38, 169.43 487.46, 213.36 435.3 M46.36 627.79 C102.84 562.71, 158.8 496.59, 214.54 435.35 M51.42 628.36 C116.66 556.21, 177.58 482.4, 214.54 442.42 M52 627.97 C110.97 558.41, 170.79 490.32, 214.58 441.17 M56.52 627.96 C104.95 571.49, 152.9 516.49, 214.57 446.52 M58.28 628.14 C117.74 559.89, 178.24 491.04, 215.08 446.04 M63.06 627.45 C121.73 559.66, 180.79 492.2, 213.66 453.82 M63.69 626.72 C122.3 562.34, 178.54 495.85, 214.05 452.89 M66.9 629.35 C108.92 580.65, 148.87 533.62, 213.46 459.82 M68.73 628.24 C108.4 578.75, 148.34 532.73, 214.1 459.52 M74.88 625.7 C121.37 570.94, 167.33 517.02, 213.66 465.37 M73.04 627.25 C124.43 568.7, 178.13 507.25, 214.84 465.19 M77.52 628.76 C107.86 593.46, 137.73 559.94, 213.86 470.96 M78.11 627.32 C105.86 596.68, 132.23 565.1, 214.46 471.43 M86.29 629.23 C118.16 586.67, 152.49 549.31, 216.36 475.94 M84.09 626.6 C111.15 593.54, 140.77 561.78, 214.9 478.73 M90.88 625.82 C120.4 590.83, 149.87 557.07, 216.59 484.23 M89.23 626.9 C124.85 586.59, 159.63 546.3, 214.56 483.09 M94.33 628.57 C118.4 598.43, 141.6 570.91, 215.21 490.33 M95.15 627.5 C129.57 587.81, 163.3 547.69, 215.3 489.39 M99.17 628.54 C143.5 579.16, 190.18 529.15, 214.85 497.74 M99.24 626.69 C134.79 588.5, 170.77 547.09, 214.79 497.17 M104.97 626.47 C130.02 599.57, 153.63 574, 216.49 501.73 M106.06 627.88 C146.34 579.13, 188.28 531.99, 213.79 502.04 M109.49 627.36 C139.21 591.48, 172.39 557.97, 213.9 510.16 M111.4 626.84 C138.69 598.05, 165.14 567.58, 214.5 508.23 M118.4 629.03 C152.95 584.35, 185.37 545.33, 216.03 515.49 M115.82 627.9 C137.19 603.3, 157.32 579.89, 213.72 515.23 M122.44 628.71 C150.94 594.14, 177.12 564.94, 213.48 519.65 M120.66 627.19 C154.89 590.57, 188.92 550.55, 215.2 520.28 M127.14 627.55 C151.27 599.75, 177.17 571.21, 214.96 524.83 M127.56 626.85 C153.44 596.73, 179.34 566.76, 214.96 525.9 M133.96 629.23 C161.78 592.65, 194.44 555.92, 215.68 531.54 M132.52 628.25 C149.48 607.93, 167.46 587.16, 213.48 533.49 M138.04 628.47 C162.16 600.39, 184.65 573.59, 213.79 537.4 M137.44 626.21 C160.82 600.47, 184.42 575.55, 215.03 538.93 M141.34 625.66 C169.05 596.04, 197.58 564.01, 212.89 546.02 M142.09 628.23 C162.94 603.19, 183.74 578.59, 213.98 544.94 M146.34 627.37 C164.36 609.67, 180.1 590.42, 212.37 551 M147.72 626.65 C166.63 606.87, 184.23 586.08, 214.01 551.88 M153.22 628.93 C166.22 612.13, 178.44 597.68, 213.89 556.74 M153.03 627.97 C165.52 611.44, 178.81 596.44, 214.43 558.15 M157.57 627 C172.98 610.07, 186.09 597.63, 213.86 565.32 M159.74 626.98 C181.21 602.66, 203.32 578.06, 213.51 563.71 M163.56 626.13 C176.59 614.41, 186.83 602.4, 211.8 570.48 M164.6 628.02 C177.69 609.91, 194.49 592.5, 214.66 569.79 M169.63 627.28 C184.85 608.53, 200.67 591, 214.81 576.48 M168.92 627.19 C181.43 613.05, 194.08 599.5, 213.77 576.33 M173.69 626.48 C189.76 611.25, 204.49 593.56, 212.04 582.91 M174.62 627.59 C183.06 618.75, 191.9 608.93, 213.53 582.48 M178.78 627.27 C191.69 613.65, 203.05 603.89, 213.08 588.74 M179.74 627.47 C186.47 617.77, 194.11 609.83, 214.61 589.3 M186.27 627.38 C193.39 617.73, 198.2 612.42, 214.41 593.14 M184.49 627.54 C194.62 617.23, 201.82 607.85, 214.02 594.23 M189.58 627.19 C196.82 618.91, 201.53 613.95, 211.88 602.28 M190.78 627.13 C199.32 617.58, 207.09 607.79, 214.38 600.6 M195.32 628.37 C200.7 624.09, 204.95 616.75, 213.08 607.42 M196.22 627.44 C200.21 621.83, 203.65 618.67, 214.18 607.26 M201.01 626.43 C204.97 622.26, 207.13 622.43, 213.79 611.72 M201.67 627.67 C206.21 622.4, 209.49 617.63, 213.1 612.17 M207.39 628.32 C207.4 625.95, 210.26 623.24, 213.01 618.94 M206.93 626.86 C208.02 625.19, 209.32 623.99, 213.91 618.83" stroke="#42a5f5" stroke-width="0.5" fill="none"/><path d="M1.3 0.99 C-56.16 66.51, -113.21 135.58, -193.03 237.53 M-0.16 -0.28 C-55.35 69.63, -110.91 138.07, -193.14 238.75 M-193.61 237.67 C-195.01 327.61, -194.79 415.09, -191.39 628.48 M-193.8 239.15 C-191.87 329.42, -192.52 420.76, -192.38 627.32 M-191.68 627.81 C-58.71 627.45, 76.27 627.39, 212.24 626.27 M-192.34 627.99 C-50.52 626.12, 90.15 625.56, 210.79 626.71 M210.85 627.11 C212.6 451.37, 213.2 278.01, 215.44 -3.67 M211.01 627.11 C211.76 390.51, 213.26 153.36, 215.13 -3.31 M215.76 -4.6 C152.45 -2.47, 92.9 -1.71, -0.29 0.47 M214.97 -4.3 C152.7 -4.29, 89.77 -3.41, 0.53 -1.63 M0.14 -1.03 C0.1 -0.68, 0.05 -0.41, -0.05 -0.03 M-0.01 -1.02 C0.04 -0.7, 0.06 -0.3, 0.05 0.02" stroke="#000000" stroke-width="1" fill="none"/></g></g><g stroke-linecap="round"><g transform="translate(10 251.6501520084288) rotate(0 314.24853515625 -120.06852722167969)" fill-rule="evenodd"><path d="M1.16 -236.17 C1.16 -236.17, 1.16 -236.17, 1.16 -236.17 M1.16 -236.17 C1.16 -236.17, 1.16 -236.17, 1.16 -236.17 M1.36 -229.98 C2.94 -231.58, 4.26 -235.04, 6.57 -236.5 M1.06 -229.75 C2.36 -231.29, 4.24 -233.45, 5.76 -235.55 M1.46 -223.29 C5.28 -229.38, 7.24 -232.23, 11.7 -235.8 M0.86 -222.59 C3.57 -228.17, 8.63 -231.53, 12.16 -236.64 M2.26 -216.03 C8.47 -222.65, 12.99 -232.71, 17.5 -236.21 M1.66 -217.96 C4.76 -222.59, 8.52 -226.92, 17.27 -235.3 M1.51 -211.37 C6.74 -215.47, 8.51 -220.15, 23.06 -237.43 M0.75 -211.26 C7.07 -219.97, 14.87 -227.15, 23.33 -235.25 M0.61 -204.73 C6 -211.67, 16.45 -222.07, 26.99 -237.26 M0.42 -204.69 C6.75 -212.39, 12.79 -219.64, 26.88 -236.43 M1.12 -199.49 C11.09 -212.93, 23.77 -224.54, 33.89 -234.53 M0.25 -198.38 C8.07 -207.41, 15.8 -217.43, 32.33 -235.95 M-0.48 -192.19 C14.39 -209.39, 29.03 -227.55, 39.71 -236.63 M0.4 -193.69 C14.15 -207.09, 26.76 -223.51, 38.95 -236.86 M1.69 -186.72 C14.63 -201.37, 28.99 -217.45, 45.52 -237.06 M-0.25 -186.43 C14.05 -200.89, 27.5 -217.07, 43.37 -235.93 M1.54 -179.55 C15.46 -196.38, 32.08 -213.59, 46.85 -234.95 M1.16 -180.37 C18.98 -202.63, 37.1 -223.2, 48.57 -236.29 M1.59 -175.07 C17.93 -192.27, 32.02 -212.74, 55.47 -236.71 M-0.27 -173.66 C19.97 -195.17, 37.92 -215.8, 54.29 -237.23 M2.09 -170.39 C17.48 -184.82, 31.51 -201.3, 60.75 -235.5 M0.58 -167.84 C23.09 -195.21, 44.74 -220.74, 60.03 -236.84 M2.38 -162.93 C20.98 -188.02, 42.35 -212.69, 63.42 -236.85 M-0.13 -162.51 C25.23 -191.23, 50.52 -219.93, 65.55 -235.81 M2.04 -155.19 C25.01 -185.08, 48.27 -213.23, 68.92 -234.2 M0.55 -156.36 C18.43 -175.68, 37.73 -196.95, 69.78 -236.06 M1.45 -150.1 C17.84 -171.2, 39.95 -194.62, 77.19 -234.48 M0.68 -149.59 C22.21 -173.77, 44.39 -197.8, 75.33 -236.56 M0.41 -144.32 C29.71 -176.23, 60.1 -210.55, 80.01 -237.64 M0.61 -143.39 C28.31 -174.79, 56.69 -206.11, 81.43 -235.93 M0.66 -138.3 C23.79 -167.62, 50.59 -195.49, 86.77 -238.26 M1.19 -137.18 C25.14 -164.25, 48.49 -193.18, 86.45 -236.27 M0.41 -133.58 C31.41 -168.38, 66.78 -206.16, 89.83 -237.06 M1 -132.05 C23.95 -160.26, 50.7 -188.81, 90.78 -235.82 M-0.99 -124.14 C33.18 -164.09, 63.16 -201.83, 98.3 -234.51 M0.57 -125.23 C22.31 -149.51, 42.85 -173.58, 97.41 -236.68 M1.4 -120.41 C25.86 -147.52, 47.67 -174.2, 104.02 -235.11 M-0.39 -118.36 C32.39 -155.89, 63.59 -191.61, 103.46 -236.3 M-1.3 -112.65 C30.3 -145.47, 55.9 -176.53, 108.08 -237.22 M1.19 -113.88 C41.59 -159.65, 81.92 -206.95, 107.4 -237.43 M-1.14 -108.18 C44.08 -158.49, 88.67 -210.78, 113.37 -236.85 M1.02 -106.54 C42.01 -158.1, 85.75 -207.41, 113.27 -237.11 M1.73 -102.26 C44.43 -152.03, 87.86 -201.05, 116.55 -238.01 M0.25 -101.41 C28.24 -132.5, 55.14 -163.48, 117.26 -237.1 M-1.54 -95.62 C33.93 -129.07, 64.77 -167.78, 123.84 -236.23 M-0.54 -95.49 C34.45 -135.35, 68.75 -175.41, 123.19 -236.65 M-1.41 -89.3 C49.86 -146.07, 95.11 -200.77, 130.34 -236.17 M-0.54 -87.78 C33.49 -125.42, 66.65 -162.53, 128.51 -236.17 M0.67 -82.03 C50.45 -135.78, 98.04 -192.26, 135.7 -235.33 M0.52 -82.76 C36.7 -124.46, 71.68 -164.04, 133.78 -236.1 M0.84 -76.97 C33.99 -115.7, 65.3 -152.79, 140.1 -236.65 M0.62 -76.66 C44.85 -128.61, 89.29 -180.37, 140.22 -236.13 M1.33 -71 C37.57 -112.69, 75.28 -159.12, 143.28 -237.93 M0.7 -70.04 C28.65 -104.76, 59.79 -140.44, 144.53 -236.7 M-0.36 -64.99 C41.82 -112.81, 80.45 -159.09, 150.9 -236.14 M0.87 -63.95 C52.05 -125.94, 105.52 -187.18, 150.52 -236.19 M0.94 -57.39 C37.64 -103.11, 76.49 -146.08, 154.32 -238.03 M-0.36 -57.39 C47.18 -113.42, 94.68 -167.82, 155.33 -237.46 M0.27 -53.39 C43.54 -103.77, 90.61 -156.74, 160.11 -236.65 M-0.41 -52.43 C35.22 -94.74, 71.38 -137.45, 160.81 -236.59 M1.42 -45.72 C68.15 -120.07, 131.19 -196.22, 166.79 -235.74 M-0.21 -46.8 C58.91 -112.09, 118.2 -179.48, 166.98 -237.83 M0.42 -40.15 C39.02 -84.11, 80.17 -129.98, 170.45 -236.4 M0.62 -40.53 C48.5 -93.63, 96.76 -149.08, 171.28 -237.44 M0.4 -34.09 C57.83 -99.58, 114.2 -164.11, 178.26 -237.96 M-0.32 -34.35 C43.24 -84.02, 85.61 -133.94, 177.18 -236.88 M-1.26 -28.11 C65.51 -100.98, 127.95 -175.08, 181.36 -238.23 M-0.54 -27.49 C37.34 -70.18, 74.71 -112.21, 181.81 -236.45 M1.38 -21.3 C45 -76.14, 91.89 -129.27, 187.45 -237.53 M0.15 -21.1 C57.41 -85.88, 112.56 -150.21, 187.83 -237.14 M1.43 -16.43 C47.32 -68.28, 92.76 -121.95, 193.92 -235.38 M-0.39 -15.09 C66.02 -93.02, 134.15 -170.28, 192.8 -236.07 M-0.88 -8.27 C64.2 -82.72, 128.56 -154.12, 198.54 -237.49 M-0.1 -8.64 C63.86 -82.91, 128.94 -157.15, 197.8 -237.49 M1.1 -4.08 C72.42 -87.06, 146.13 -173.21, 204.1 -238.36 M-0.73 -2.28 C48.52 -55.45, 95.42 -111.09, 203.59 -236.95 M2.86 0.82 C64.59 -71.32, 128.56 -143.55, 207.47 -236.73 M1.35 1.58 C77.57 -83.95, 152.01 -170.06, 208.36 -237.23 M6.16 1.01 C76.94 -77.79, 148.67 -158.55, 213.56 -237.18 M6.09 1.86 C51.3 -49.62, 95.96 -99.98, 214.97 -237.42 M13.01 2.34 C68.06 -64.23, 125.88 -126.68, 218.31 -237.45 M11.61 1.3 C79.18 -77.1, 148.12 -156.47, 219.35 -236.71 M15.84 0.51 C74.88 -64.28, 132.79 -130.42, 225.72 -237.08 M16.76 1.43 C61.46 -50.45, 106.47 -101.33, 225.14 -237.41 M21.77 2.54 C88.42 -74.71, 153.39 -149.4, 230.22 -238.07 M23.34 1.18 C100.71 -87.72, 178.86 -176.83, 230.08 -237.96 M26.67 0.61 C78.56 -56.35, 131.92 -115.12, 236.47 -236.53 M28.11 1.02 C76.23 -53.41, 123.89 -107.71, 234.98 -237.41 M32 0.21 C85.75 -57.24, 139.3 -118.73, 241.8 -237.47 M33.22 1.37 C105.94 -81.39, 178.63 -164.66, 240 -236.94 M38.59 2.51 C115.41 -87.32, 192.36 -176.26, 247.46 -238 M38.22 1.06 C117.61 -90.73, 199.4 -184.11, 246.55 -237.18 M43.83 1.44 C107.34 -72.92, 170.63 -147.08, 252.44 -236.44 M43.37 1.38 C109.5 -72.12, 173.27 -146.16, 250.77 -236.98 M49.49 2.72 C123.37 -85.57, 197.13 -171.03, 256.2 -238.09 M48.79 1.72 C108.95 -68.75, 171.69 -140.3, 256.72 -237.8 M53.28 1.24 C103.01 -54.74, 150.28 -108.55, 260.95 -236.18 M54.93 0.78 C99.81 -48.73, 143.65 -100.72, 261.38 -236.78 M59.51 0.08 C138.34 -89.66, 215.2 -177.9, 268.79 -237.37 M60.26 2.14 C123.49 -70.75, 187.32 -144.62, 267.8 -238.21 M64.96 1.96 C145.57 -90.22, 225.73 -183.9, 272.62 -237 M64.6 1.3 C114.67 -57.26, 164.88 -114.86, 273.02 -236.72 M69.59 0.06 C143.31 -81.07, 216.34 -167.48, 278.74 -239 M69.65 1.17 C120.93 -55.43, 169.71 -111.48, 278.32 -237.26 M76.51 0.52 C129.19 -60.53, 182.1 -122.19, 283.64 -236.81 M75.2 0.51 C131.84 -63.71, 188.99 -129.98, 282.8 -236.81 M80.09 1.98 C142.81 -67.39, 205.11 -140.59, 288.13 -238.85 M81.15 0.91 C134.43 -59.92, 187.69 -121.05, 289.41 -237.32 M85.7 1.15 C153.95 -76.45, 223.42 -155.24, 293.87 -238.23 M86.49 0.95 C166.96 -95.53, 249.3 -188.92, 294.28 -237.32 M92.18 0.51 C168.8 -86.26, 247.56 -175.84, 300.57 -238.18 M91.32 1.72 C172.42 -92.43, 253.31 -185.35, 299.84 -237.83 M97.46 -0.15 C142.37 -54.16, 192.42 -109.06, 305.37 -238.69 M97.29 1 C139.48 -48.08, 181.28 -98.16, 304.1 -238.14 M100.78 1.12 C146.06 -52.1, 193.9 -106.11, 311.3 -236.58 M102.49 1.57 C148.71 -55.52, 198.04 -110.87, 309.58 -237.5 M108.35 -0.08 C187.89 -92.03, 268.89 -186.29, 316.04 -238.26 M107.6 1.2 C169.95 -72.12, 233.79 -144.96, 316.03 -238.78 M112.93 1.75 C161.73 -55.55, 212.69 -114.82, 319.92 -239.09 M112.16 0.95 C157.82 -51.85, 205.77 -107.01, 320.46 -237.81 M118.64 2.85 C191.69 -83.52, 267.38 -167.16, 326.87 -238.04 M117.24 1.51 C160.85 -47.64, 203.97 -96.38, 326.32 -238.91 M123.79 -0.1 C186.76 -72.93, 250.44 -145.8, 331.77 -237.75 M123.59 0.74 C200.53 -87.1, 277.84 -177.93, 331.29 -238.06 M127.84 1.03 C189.52 -70.61, 250.22 -141.04, 335.98 -237.59 M127.77 1.76 C174.2 -51.93, 222.4 -107.41, 336.88 -237.95 M134.95 2.48 C187.49 -59.63, 241.54 -121.78, 342.44 -238.52 M133.85 1.53 C205.62 -81.52, 275.62 -162.23, 341.31 -237.48 M137.85 0.65 C201.28 -69.1, 260.68 -137.32, 348.69 -239.03 M139.25 1.31 C178.86 -46.44, 221.87 -94.46, 347.64 -238.36 M144.62 1.82 C224.9 -92.94, 305.82 -184.39, 353.26 -237.21 M144.31 1.52 C215 -81.64, 285.73 -162.83, 352.39 -237.4 M148.49 0.34 C199.67 -56.15, 250.14 -115.92, 357.07 -237.89 M149.35 0.94 C223.15 -85.81, 298.44 -172.12, 357.96 -238.71 M154.61 2.49 C233.4 -91.6, 312.66 -181.53, 364.26 -237.85 M155.8 1.41 C208.17 -58.64, 260.15 -120.17, 362.62 -237.63 M161.12 1.8 C238.59 -89.1, 316.63 -181.13, 369.47 -238.6 M160.44 1.45 C210.11 -55.1, 261.64 -114.02, 368.73 -238.53 M166.18 0.12 C243.67 -90.33, 321.39 -179.67, 372.77 -237.19 M166.42 0.9 C228.52 -70.82, 293.77 -144.94, 374.1 -238.69 M171.58 2.71 C236.42 -75.39, 303.18 -152.36, 378.18 -239.03 M170.43 1.6 C215.62 -48.4, 258.56 -98.46, 378.85 -239.09 M175.72 -0.22 C235.17 -63.9, 290.98 -128.95, 383.26 -237.38 M176.53 0.81 C216.87 -47.67, 259.43 -96.69, 385.17 -238.17 M182.83 1.05 C229.95 -53.82, 278.42 -109.45, 388.95 -237.5 M181.93 1.64 C244.2 -73.25, 307.06 -145.98, 390.14 -238.4 M187.51 0.41 C239.77 -58.15, 293.32 -119.41, 394.7 -238.91 M186.6 0.94 C267.88 -92.58, 347.4 -184.88, 395.35 -238.58 M192.35 2.03 C251.25 -65.84, 309.15 -132.69, 399.92 -239.82 M191.69 1.12 C234.94 -49.41, 278.17 -99.82, 401.05 -239.03 M198.17 1.9 C250.5 -58.98, 301.04 -119.12, 404.74 -239.2 M197.92 0.82 C274.1 -85.92, 350.29 -172.35, 406.03 -238.13 M201.93 2.67 C273.2 -80.78, 346.11 -161.66, 411.44 -238.23 M202.56 1.1 C263.07 -67.55, 322.81 -135.89, 411.54 -238.89 M209.39 0.87 C264.1 -67.11, 320.86 -132.21, 417.43 -240.42 M209.09 0.36 C249.49 -48.96, 291.52 -96.74, 417.63 -239.25 M213.46 1.67 C285.34 -79.3, 353.93 -161.93, 421.85 -238.04 M212.93 1.96 C280.92 -78.23, 350.05 -156.69, 422.4 -239.03 M218.03 0.51 C281.2 -73.33, 344.06 -146.49, 427.93 -239.42 M219.54 0.61 C267.76 -53.36, 314.9 -107.68, 427.67 -239.23 M224.74 0.73 C281.83 -65.68, 339.65 -133.27, 431.74 -239.43 M224.5 1.33 C270.07 -50.14, 315.42 -101.99, 433.13 -238.64 M228.77 0.75 C308.75 -89.48, 387.66 -184.03, 439.11 -239.29 M230.22 1.59 C296.03 -74.12, 362.25 -150.4, 438.21 -239.69 M233.67 0.44 C276.79 -49.92, 321.95 -98.62, 442.49 -238.82 M234.49 1.82 C285.72 -59.1, 339.13 -119.79, 442.65 -238.67 M240.86 0.38 C306.17 -72.16, 371.96 -149.47, 449.07 -239.32 M239.44 0.99 C285.13 -50.74, 328.25 -100.71, 448.33 -238.64 M245.29 1.59 C304.75 -65.89, 360.82 -132.24, 454.89 -238.7 M244.82 1.88 C295.86 -58.13, 346.23 -116.07, 454.22 -238.22 M249.29 1.11 C330.34 -87.51, 408.06 -181.86, 458.84 -239.94 M250.41 1.64 C291.91 -46.76, 335.55 -97.83, 459.66 -238.92 M256.33 1.02 C309.77 -62.54, 364.9 -125.25, 464.91 -237.81 M255.8 0.72 C338.74 -92.73, 421.67 -188.93, 464.89 -238.11 M261.94 2.22 C309 -52.24, 354.02 -107.39, 470.93 -238.56 M260.97 1.36 C314.68 -61.5, 369.24 -124.27, 470.12 -239.13 M267.81 1.43 C318.79 -60.94, 371.53 -121.96, 476.38 -238.18 M266.76 1.8 C316.92 -56.44, 366.43 -114.55, 474.66 -238.73 M272.7 1.79 C344.16 -82.27, 419.9 -170.52, 479.58 -239.34 M271.17 1.78 C332.04 -68.7, 391.64 -136.76, 480.2 -239.91 M278.09 1.53 C351.24 -84.59, 427.42 -169.65, 485.51 -238.05 M276.84 0.93 C341.33 -72.06, 403.3 -143.35, 485.73 -239.39 M281.92 1.66 C335.16 -60.58, 387.83 -122.17, 491.75 -240.61 M281.84 1.47 C334.15 -56.9, 384.88 -116.87, 490.84 -239.04 M287.02 0.28 C330.69 -48.44, 373.62 -96.2, 496.33 -238.98 M288.45 0.99 C331.13 -47.97, 373.28 -97.6, 496.22 -238.97 M292.12 0.36 C346.79 -63.19, 402.98 -125.6, 503.29 -239.03 M292.56 0.79 C349.74 -65.62, 407.22 -132.71, 502.77 -239.15 M297.39 1.12 C343.45 -53.43, 392.09 -108.02, 508.07 -238.72 M298.13 1.41 C345.34 -50.46, 390.02 -100.88, 506.49 -239.48 M303.87 0.22 C366.17 -72, 430.37 -145.06, 511.54 -239.45 M303.72 1.2 C378.68 -85.13, 454.44 -173.45, 512.99 -240.03 M307.86 2.06 C389.26 -92.17, 468.64 -184.1, 517.23 -239.08 M308.54 1.66 C367.81 -63.97, 424.56 -129.59, 519.06 -239.05 M314.31 0.27 C387.4 -83.64, 460.99 -163.77, 522.41 -239.48 M314.43 1.77 C364.96 -58.85, 414.75 -117.84, 523.87 -239.28 M320.02 0.01 C373.77 -62.92, 427.62 -126.8, 530.35 -238.67 M319.28 0.57 C389.84 -81.97, 461.05 -163.74, 528.3 -239.45 M324.21 0.5 C395.48 -82.49, 466.3 -163.76, 534.86 -239.27 M324.62 1.28 C394.24 -75.04, 463.02 -153.81, 534.03 -240.08 M331.36 0.49 C402.2 -80.95, 476.21 -162.05, 538.55 -238.79 M330.44 1.25 C390.31 -67.11, 449.93 -135.46, 539.08 -240.12 M336.54 0.42 C398.15 -70.62, 459.53 -143.35, 545.19 -240.14 M335.74 1.71 C411.48 -84.69, 488.17 -173.58, 544.68 -239.23 M342.29 2.27 C413.64 -80.32, 485.21 -164.93, 549.91 -239.07 M340.45 0.53 C422.15 -92.2, 502.67 -185.34, 550.82 -240.03 M346.7 0.51 C391.2 -49.2, 434.35 -102.61, 554 -240.36 M345.87 1.95 C424.37 -88.64, 503.16 -180.17, 554.7 -239.1 M351.26 2.32 C409.56 -69.12, 473.28 -137.95, 560.71 -239.6 M350.39 1.67 C396 -52.23, 442.63 -105.85, 560.28 -240.54 M357.87 0.77 C421.53 -76.79, 490.78 -154.21, 564.8 -239.38 M356 1.27 C427.18 -82.01, 500.45 -165.35, 565.53 -239.89 M361.62 2.57 C410.03 -51.34, 457.54 -107.51, 570.83 -239.51 M361.66 2.22 C441.36 -90.12, 521.6 -182.82, 572.02 -240.51 M368.46 2.14 C420.47 -57.96, 471.69 -117.79, 577.02 -239.18 M366.54 1.49 C429.95 -70.13, 490.91 -141.13, 576.3 -238.94 M373.44 1.88 C437.99 -76.41, 504.99 -154.2, 582.37 -241.21 M372.75 2.02 C453.03 -87.83, 531.35 -179.98, 582.34 -239.81 M379.08 2.31 C433.35 -62.3, 489.75 -126.74, 587.38 -240.14 M378.03 0.58 C423.12 -52.78, 468.57 -104.16, 587.29 -239.84 M381.97 2.77 C456.81 -82.95, 527.74 -165.6, 592.66 -240.55 M382.61 0.96 C447.18 -73.38, 511.33 -147.04, 592.53 -239.98 M388.34 -0.09 C437.4 -53.83, 486.99 -109.55, 596.92 -239.55 M389.01 0.47 C465.48 -86.69, 541.66 -174.68, 597.85 -239.15 M392.35 2.42 C476.65 -93.72, 561.77 -192.12, 603.99 -239.46 M393.43 1.75 C474.12 -90.38, 553.89 -182.64, 604.04 -239.38 M399.9 1.5 C455.34 -62.24, 508.99 -124.03, 609.59 -238.7 M399.57 0.65 C469.49 -79.73, 540.86 -161.39, 608.52 -239.63 M404.24 2.43 C485.07 -91.29, 567.44 -187.94, 613.92 -238.92 M404.39 0.85 C454.34 -56, 503.2 -112.14, 613.51 -239.45 M409.78 0.6 C459.63 -57.15, 510.18 -116.95, 620.3 -239.38 M409.18 1.74 C453.74 -49.73, 496.49 -100.7, 619.54 -240.57 M416.02 1.87 C491.35 -85.24, 567.45 -173.07, 624.96 -240.35 M415.12 1.81 C493.51 -92.99, 575.35 -186.07, 624.72 -239.82 M419.03 1.46 C486.13 -78.72, 554.57 -157.32, 629.87 -238.7 M420.28 0.55 C504.03 -91.15, 584.95 -185.88, 629.72 -240.28 M426.52 1.44 C469.71 -48.6, 514.94 -101.02, 551.37 -146.21 M424.91 2.11 C474.16 -53.38, 522.28 -108.45, 551.91 -144.73 M432.9 0.78 C438.71 -9.59, 449.09 -20.48, 473 -51.22 M430.28 0.45 C446.11 -16.59, 463.02 -35.61, 475.79 -50.14" stroke="#ef5350" stroke-width="0.5" fill="none"/><path d="M0.7 0.06 C121.38 -2.74, 243.7 -1.87, 432.3 -0.13 M-0.2 0.08 C132.18 0.57, 264.16 0.56, 433.16 -0.37 M431.84 -0.85 C480.24 -57.91, 525.6 -113.71, 629.26 -241.09 M433.66 0.44 C497.88 -78.73, 563.08 -157.91, 627.84 -239.9 M628.46 -240.71 C393.22 -237.74, 158.91 -235.39, 0.45 -235.4 M628.59 -240.02 C498.67 -241.06, 368.86 -240.08, 0.76 -235.9 M1.43 -235.53 C0.78 -167.48, 3.28 -97.11, 0.06 1.27 M1.43 -235.89 C0.61 -156.76, -0.76 -77.67, 0.83 -0.13 M0 0 C0 0, 0 0, 0 0 M0 0 C0 0, 0 0, 0 0" stroke="#000000" stroke-width="1" fill="none"/></g></g><g stroke-linecap="round" transform="translate(188.86806488037064 89.33233050574393) rotate(0 28.453765869140625 28.453765869140625)"><path d="M16.13 2.48 C21.33 -0.05, 29.79 0.21, 35.65 1.86 C41.52 3.51, 47.76 7.73, 51.31 12.4 C54.87 17.07, 57.5 23.73, 56.97 29.86 C56.44 35.99, 52.42 44.67, 48.13 49.17 C43.84 53.66, 37.08 56.33, 31.22 56.83 C25.36 57.33, 18.06 55.73, 12.97 52.18 C7.88 48.63, 2.3 41.49, 0.69 35.53 C-0.92 29.57, 0.11 22.12, 3.31 16.42 C6.52 10.73, 16.85 3.94, 19.9 1.35 C22.95 -1.24, 21.43 0.42, 21.62 0.88 M17.48 0.47 C22.55 -2.01, 31.45 -0.66, 37.26 1.52 C43.08 3.69, 48.96 8.3, 52.39 13.52 C55.82 18.73, 58.78 26.87, 57.85 32.79 C56.92 38.71, 51.72 45.21, 46.81 49.06 C41.9 52.91, 34.34 55.71, 28.4 55.88 C22.46 56.05, 15.72 53.81, 11.18 50.1 C6.65 46.38, 2.32 39.66, 1.19 33.59 C0.06 27.51, 1.67 18.82, 4.4 13.65 C7.14 8.47, 15.13 4.16, 17.59 2.54 C20.06 0.91, 18.92 3.39, 19.22 3.9" stroke="none" stroke-width="0" fill="#ef5350"/><path d="M15.71 2.23 C20.81 -0.54, 28.75 -0.69, 34.78 0.79 C40.8 2.28, 48.24 6.25, 51.86 11.14 C55.47 16.04, 56.9 24, 56.48 30.15 C56.07 36.29, 53.48 43.58, 49.36 48.03 C45.23 52.47, 37.81 56.22, 31.73 56.81 C25.66 57.4, 18.11 54.92, 12.92 51.57 C7.74 48.22, 2.45 42.58, 0.62 36.72 C-1.21 30.85, -1.26 22.26, 1.94 16.37 C5.14 10.48, 16 4.11, 19.84 1.38 C23.67 -1.36, 24.65 -0.54, 24.97 -0.04 M17.67 2.61 C23.11 0.34, 33.85 -0.71, 39.55 1.42 C45.25 3.55, 49.22 10.22, 51.87 15.4 C54.51 20.58, 56.26 26.44, 55.43 32.49 C54.6 38.53, 51.56 47.51, 46.87 51.66 C42.18 55.8, 33.51 57.81, 27.32 57.35 C21.13 56.88, 14.47 52.92, 9.74 48.86 C5.01 44.81, 0.05 38.61, -1.08 33 C-2.2 27.4, -0.25 20.37, 3 15.26 C6.25 10.14, 15.92 4.38, 18.41 2.32 C20.91 0.25, 17.82 2.48, 17.95 2.86" stroke="#000000" stroke-width="1" fill="none"/></g><g stroke-linecap="round" transform="translate(203.7291183471675 386.9575899051582) rotate(0 28.453765869140625 28.453765869140625)"><path d="M17.66 1.97 C23.16 -0.55, 32.37 -0.91, 38.26 1.04 C44.15 2.98, 50.09 8.46, 52.99 13.62 C55.88 18.78, 56.46 25.96, 55.65 32 C54.83 38.04, 52.46 45.58, 48.08 49.85 C43.71 54.13, 35.53 57.54, 29.38 57.65 C23.24 57.75, 16.08 54.28, 11.22 50.5 C6.36 46.72, 1.54 40.75, 0.22 34.96 C-1.11 29.18, 0.17 21.44, 3.28 15.79 C6.39 10.14, 16.06 3.25, 18.86 1.08 C21.65 -1.1, 19.88 2.32, 20.05 2.73 M34.54 0.56 C40.15 1.79, 48.15 6.49, 51.81 11.8 C55.47 17.1, 57.08 26.28, 56.51 32.37 C55.93 38.47, 52.79 44.38, 48.36 48.37 C43.93 52.35, 36.15 55.6, 29.92 56.26 C23.7 56.92, 15.9 55.63, 10.99 52.31 C6.08 48.99, 1.89 42.2, 0.46 36.34 C-0.97 30.48, -0.08 22.87, 2.43 17.14 C4.94 11.4, 9.85 4.51, 15.54 1.94 C21.24 -0.62, 32.98 1.81, 36.6 1.77 C40.23 1.72, 37.34 1.11, 37.28 1.67" stroke="none" stroke-width="0" fill="#66bb6a"/><path d="M17.62 1.69 C23.08 -0.6, 32.12 0.28, 37.97 2.27 C43.82 4.26, 49.61 8.44, 52.73 13.6 C55.85 18.76, 57.62 27.19, 56.68 33.24 C55.74 39.3, 51.73 45.99, 47.09 49.93 C42.45 53.88, 35.08 56.93, 28.84 56.91 C22.6 56.9, 14.38 53.75, 9.66 49.82 C4.93 45.89, 1.62 39.32, 0.47 33.33 C-0.68 27.34, -0.46 19.3, 2.76 13.88 C5.98 8.45, 16.9 2.74, 19.79 0.79 C22.68 -1.17, 19.9 1.71, 20.11 2.15 M33.86 1.26 C39.61 1.79, 45.43 3.98, 49.4 8.25 C53.37 12.53, 57.69 20.48, 57.66 26.9 C57.64 33.32, 53.02 41.98, 49.26 46.77 C45.49 51.57, 40.76 54.61, 35.08 55.7 C29.4 56.79, 20.89 56.39, 15.19 53.32 C9.48 50.26, 3.11 43.16, 0.84 37.31 C-1.42 31.46, -0.79 23.89, 1.59 18.23 C3.98 12.57, 9.82 6.58, 15.15 3.36 C20.48 0.15, 30.51 -0.51, 33.57 -1.07 C36.62 -1.62, 33.62 -0.76, 33.48 0.02" stroke="#000000" stroke-width="1" fill="none"/></g><g stroke-linecap="round" transform="translate(685.8869552612298 333.75779132117384) rotate(0 28.453765869140625 28.453765869140625)"><path d="M19.22 2.43 C24.55 0.32, 32.63 0.38, 38.35 2.27 C44.08 4.16, 50.63 8.38, 53.55 13.78 C56.47 19.17, 57.03 28.5, 55.85 34.64 C54.67 40.79, 51.01 46.9, 46.47 50.67 C41.93 54.44, 34.79 57.46, 28.61 57.26 C22.43 57.06, 14 53.57, 9.4 49.48 C4.81 45.39, 1.78 38.71, 1.03 32.71 C0.28 26.71, 1.72 18.82, 4.9 13.49 C8.08 8.15, 17.07 2.74, 20.1 0.69 C23.13 -1.37, 22.99 0.53, 23.08 1.15 M31.77 0.22 C37.61 0.81, 44.61 4.5, 49.01 8.99 C53.41 13.48, 57.9 21.16, 58.18 27.15 C58.46 33.15, 54.71 40.27, 50.69 44.95 C46.66 49.63, 39.81 53.85, 34.01 55.22 C28.21 56.6, 21.1 55.9, 15.9 53.2 C10.7 50.49, 5.1 44.72, 2.81 39 C0.52 33.27, 0.55 24.49, 2.17 18.83 C3.79 13.18, 7.41 7.92, 12.55 5.07 C17.68 2.22, 29.7 2.26, 32.98 1.73 C36.27 1.19, 32.22 1.56, 32.26 1.84" stroke="none" stroke-width="0" fill="#42a5f5"/><path d="M15.14 3.29 C20.19 0.39, 29.29 -0.89, 35.21 0.44 C41.12 1.76, 46.98 6.35, 50.61 11.24 C54.24 16.13, 57.22 23.69, 57.01 29.77 C56.8 35.85, 53.46 43.38, 49.33 47.74 C45.2 52.1, 38.35 55.15, 32.23 55.93 C26.11 56.72, 17.81 55.77, 12.61 52.47 C7.4 49.17, 2.84 41.92, 0.99 36.15 C-0.85 30.37, -0.94 23.55, 1.55 17.84 C4.04 12.12, 13.08 4.31, 15.92 1.86 C18.77 -0.6, 18.43 2.49, 18.62 3.1 M26.57 -0.32 C32.3 -1.3, 38.32 2.43, 43.04 5.72 C47.76 9.01, 52.92 13.47, 54.89 19.4 C56.86 25.33, 57.33 35.43, 54.87 41.28 C52.41 47.14, 45.7 52.27, 40.11 54.54 C34.52 56.82, 27.38 56.51, 21.34 54.94 C15.31 53.37, 7.62 49.65, 3.91 45.12 C0.19 40.58, -1.54 33.7, -0.97 27.74 C-0.39 21.77, 3.15 13.8, 7.35 9.33 C11.55 4.85, 21.33 2.28, 24.24 0.9 C27.16 -0.48, 24.47 0.82, 24.82 1.06" stroke="#000000" stroke-width="1" fill="none"/></g><g stroke-linecap="round" transform="translate(70.39632415771439 191.899240295783) rotate(0 25.681884765625 25.681884765625)"><path d="M-1.89 -0.6 L51.32 -0.61 L50.99 53.09 L-0.15 50.95" stroke="none" stroke-width="0" fill="#ef5350"/><path d="M-1.93 0.26 C14.02 0.12, 31.51 1.66, 50.91 -0.77 M-0.14 0.11 C16.21 -0.79, 31.8 -0.08, 51.02 -0.92 M49.86 1.06 C52.55 11.04, 52.09 24.34, 49.37 52.76 M51.87 -0.64 C50.29 18.9, 51.94 36.7, 51.66 51.32 M49.96 53.28 C38.65 52.4, 26.07 52.4, -1.17 51.84 M50.6 50.71 C34.25 50.68, 17.48 51.83, -0.39 51.71 M1.33 51.74 C0.57 36.63, 1.22 18.26, -0.77 1.38 M-0.51 50.95 C0.59 36.3, -1.14 22.09, 0.27 -0.51" stroke="#000000" stroke-width="1" fill="none"/></g><g stroke-linecap="round" transform="translate(70.56690908013434 264.9347850918663) rotate(0 25.681884765625 25.681884765625)"><path d="M-0.6 -0.04 L50.76 -0.37 L53.09 51.21 L-0.41 50.21" stroke="none" stroke-width="0" fill="#66bb6a"/><path d="M0.26 -1.69 C10.34 0.6, 22.47 0.04, 50.6 0.31 M0.11 0.01 C15.33 -0.54, 32.1 -0.27, 50.45 -0.59 M52.42 1.07 C49.71 17.15, 50.64 31.09, 52.76 52.6 M50.72 -0.91 C51.19 14.56, 50.42 27.95, 51.32 50.64 M53.28 50.36 C41.87 49.14, 31.36 49.83, 0.47 51.95 M50.71 51.15 C37.83 50.91, 25.68 50.58, 0.35 51.53 M0.37 51.44 C1.77 41.66, -0.35 29.74, 1.38 -0.2 M-0.41 52.35 C-0.04 31.2, 0.65 12.77, -0.51 -0.95" stroke="#666666" stroke-width="2" fill="none"/></g><g stroke-linecap="round" transform="translate(72.62392412706367 338.34742144812697) rotate(0 25.681884765625 25.681884765625)"><path d="M-0.04 -0.61 L50.99 1.73 L51.21 50.95 L-1.15 50.63" stroke="none" stroke-width="0" fill="#66bb6a"/><path d="M-1.69 -0.25 C11.82 1.23, 22.99 -0.84, 51.67 0.25 M0.01 -0.72 C15.48 -0.06, 31.84 -0.97, 50.77 0.22 M52.43 -1.33 C51.59 11.75, 48.99 25.69, 52.6 50.75 M50.45 0.33 C52.36 9.97, 51.92 20.78, 50.64 50.41 M50.36 52.37 C33.83 52.87, 18.86 52.33, 0.58 50.54 M51.15 51.13 C40.41 51.94, 29.2 51.37, 0.16 50.39 M0.08 52.87 C0.38 37.99, -1.11 27.23, -0.2 1.57 M0.99 51.21 C-0.47 37.66, 0.53 22.37, -0.95 -0.3" stroke="#666666" stroke-width="2" fill="none"/></g><g stroke-linecap="round" transform="translate(225.7638472227668 469.735376160041) rotate(0 25.681884765625 25.681884765625)"><path d="M-0.61 -0.37 L53.09 -0.15 L50.95 50.21 L-0.74 50" stroke="none" stroke-width="0" fill="#66bb6a"/><path d="M-0.25 0.1 C11.75 -0.02, 20.15 0.74, 51.62 0.27 M-0.72 -0.61 C14.7 -0.35, 28.49 -0.6, 51.58 -0.63 M50.03 0.61 C51.24 9.56, 53.03 24.33, 50.75 49.42 M51.69 0.74 C50.59 18.31, 50.99 35.31, 50.41 51.41 M52.37 49.5 C40.56 49.94, 28.2 51.69, -0.82 49.6 M51.13 51.3 C40.78 50.87, 28.71 51.42, -0.97 50.85 M1.51 52.08 C-0.71 31.77, 1.29 13.52, 1.57 -0.45 M-0.16 50.63 C0.75 38.83, -0.3 24.83, -0.3 -0.02" stroke="#666666" stroke-width="2" fill="none"/></g><g stroke-linecap="round" transform="translate(227.5189132690425 542.9594667362129) rotate(0 25.681884765625 25.681884765625)"><path d="M-0.37 1.73 L51.21 -0.41 L50.21 50.63 L-1.36 52.21" stroke="none" stroke-width="0" fill="#66bb6a"/><path d="M0.1 1.3 C15.64 -0.7, 32.49 0.32, 51.63 -0.27 M-0.61 -0.01 C15.62 -0.55, 31.32 0.59, 50.73 -0.75 M51.98 -0.4 C49.65 19.53, 52.87 35.64, 49.42 52.38 M52.1 -0.44 C51.19 12.08, 50.17 23.3, 51.41 50.66 M49.5 52.38 C29.87 52.1, 11.3 50.8, -1.76 49.84 M51.3 52.28 C38.94 51.59, 27.45 50.28, -0.52 52.03 M0.72 50.75 C-0.79 36.38, -0.22 20.2, -0.45 -1.02 M-0.73 51.9 C-0.24 37.57, -1.45 24.51, -0.02 -0.3" stroke="#666666" stroke-width="2" fill="none"/></g><g stroke-linecap="round" transform="translate(301.65883636474564 536.347421448127) rotate(0 25.681884765625 25.681884765625)"><path d="M1.73 -0.15 L50.95 -1.15 L50.63 50 L0.84 50.73" stroke="none" stroke-width="0" fill="#66bb6a"/><path d="M1.3 -0.45 C10.31 0.28, 22.4 0.24, 51.09 0.21 M-0.01 -0.34 C14.53 -0.28, 31.12 -0.32, 50.61 0.53 M50.97 -1.99 C52.42 19.39, 50.41 34.36, 52.38 50.09 M50.92 0.29 C51.49 9.99, 50.58 21.48, 50.66 52.32 M52.38 50.19 C39 51.47, 24.87 49.12, -1.52 50.05 M52.28 50.98 C37.38 51.49, 21.74 50.81, 0.67 51.55 M-0.62 50.6 C1 35.57, 1.18 19.7, -1.02 -0.83 M0.53 51.63 C-0.43 29.92, -0.22 10.34, -0.3 -0.19" stroke="#666666" stroke-width="2" fill="none"/></g><g stroke-linecap="round" transform="translate(378.65883636474564 553.347421448127) rotate(0 25.681884765625 25.681884765625)"><path d="M-0.15 -0.41 L50.21 -0.74 L50 52.21 L-0.63 52.25" stroke="none" stroke-width="0" fill="#66bb6a"/><path d="M-0.45 -0.77 C15.08 -0.08, 29.8 -0.61, 51.58 0.02 M-0.34 -0.92 C11.11 0.22, 22.76 -0.75, 51.89 0.53 M49.37 1.4 C52.75 11.38, 49.58 25, 50.09 49.54 M51.66 -0.04 C51.02 16.13, 51.79 33.47, 52.32 50.86 M50.19 51.84 C33.94 50.8, 13.59 50.1, -1.31 50.94 M50.98 51.71 C37.3 50.86, 22.39 52.5, 0.19 51.4 M-0.77 52.75 C-0.38 33.65, -0.64 11.79, -0.83 1.98 M0.27 50.85 C-0.57 36.47, 0.36 21.87, -0.19 0.86" stroke="#666666" stroke-width="2" fill="none"/></g><g stroke-linecap="round" transform="translate(486.8967514038077 526.1214692996895) rotate(0 25.681884765625 25.681884765625)"><path d="M-0.41 -1.15 L50.63 -1.36 L52.21 50.73 L0.89 50.97" stroke="none" stroke-width="0" fill="#42a5f5"/><path d="M-0.77 0.31 C15.92 0.38, 31.06 0.33, 51.38 -1.45 M-0.92 -0.59 C12.51 -0.46, 23.84 0.71, 51.9 -0.66 M52.76 1.23 C50.65 15.04, 52.28 32.7, 49.54 52.02 M51.32 -0.72 C50.18 19.24, 50.44 39.34, 50.86 51.87 M51.84 51.95 C39.93 49.3, 28.62 49.75, -0.42 50.9 M51.71 51.53 C35.32 50.65, 21.88 51.35, 0.04 52.12 M1.38 51.17 C1.72 33.65, -0.86 16.01, 1.98 -0.32 M-0.51 50.42 C-0.57 39.7, -0.58 27.89, 0.86 -0.08" stroke="#000000" stroke-width="1" fill="none"/></g><g stroke-linecap="round" transform="translate(454.9363021850577 394.21155719031447) rotate(0 25.681884765625 25.681884765625)"><path d="M-1.15 -0.74 L50 0.84 L50.73 52.25 L-0.4 52.48" stroke="none" stroke-width="0" fill="#42a5f5"/><path d="M0.31 0.25 C19 -0.08, 37.69 0.21, 49.92 -1.21 M-0.59 0.22 C14.73 -0.28, 31.25 1.01, 50.7 0.31 M52.6 -0.62 C48.91 15.41, 49.57 26.96, 52.02 52.84 M50.64 -0.95 C51.57 12.43, 52.47 25.77, 51.87 50.43 M51.95 50.54 C31.59 49.96, 14.03 51.06, -0.46 51.23 M51.53 50.39 C30.73 52.21, 11.32 51.58, 0.75 51.72 M-0.2 52.93 C-0.26 36.52, -0.63 25.7, -0.32 -1.47 M-0.95 51.06 C-0.16 32.91, -0.32 15.93, -0.08 -0.21" stroke="#000000" stroke-width="1" fill="none"/></g><g stroke-linecap="round" transform="translate(730.5900952028223 248.34742144812674) rotate(0 25.681884765625 25.681884765625)"><path d="M-0.74 -1.36 L52.21 -0.63 L52.25 50.97 L1.12 50.01" stroke="none" stroke-width="0" fill="#42a5f5"/><path d="M0.25 0.27 C13.97 0.13, 28.51 -1.52, 50.15 -0.02 M0.22 -0.63 C12.91 0.83, 27.85 -0.36, 51.67 -0.2 M50.75 -1.95 C52.74 9.02, 49.89 21.25, 52.84 50.48 M50.41 0.05 C50.64 17.88, 50.84 34.35, 50.43 51.87 M50.54 49.6 C37.44 50.2, 26.14 51.05, -0.13 53.2 M50.39 50.85 C38.61 51.63, 24.57 52.2, 0.36 51.05 M1.57 50.91 C-1.37 37.1, 1.63 24.17, -1.47 1.07 M-0.3 51.34 C-0.04 34.4, 1.13 17.74, -0.21 -0.58" stroke="#000000" stroke-width="1" fill="none"/></g><g stroke-linecap="round" transform="translate(723.6588363647454 155.34742144812674) rotate(0 25.681884765625 25.681884765625)"><path d="M-1.36 0.84 L50.73 0.89 L50.97 52.48 L-1.35 50.48" stroke="none" stroke-width="0" fill="#42a5f5"/><path d="M0.27 -0.27 C13.65 -0.05, 25.43 -1.28, 51.35 -0.68 M-0.63 -0.75 C11.22 0.42, 20.72 0.19, 51.17 -1 M49.42 1.02 C50.4 17.17, 52.33 39.47, 50.48 51.95 M51.41 -0.7 C51.95 14.69, 51.5 29.44, 51.87 50.78 M49.6 49.84 C33.43 50.73, 17.66 51.02, 1.83 50.59 M50.85 52.03 C34.35 50.9, 17.72 51.23, -0.31 50.98 M-0.45 50.35 C-0.78 34.39, -0.27 11.98, 1.07 0.53 M-0.02 51.06 C0.3 39.46, 0.41 25.62, -0.58 -0.37" stroke="#000000" stroke-width="1" fill="none"/></g><g stroke-linecap="round" transform="translate(733.6588363647454 64.34742144812674) rotate(0 25.681884765625 25.681884765625)"><path d="M0.84 -0.63 L52.25 -0.4 L52.48 50.01 L-0.88 52.22" stroke="none" stroke-width="0" fill="#42a5f5"/><path d="M-0.27 0.21 C16.22 -1.51, 31.19 -0.09, 50.68 -1.84 M-0.75 0.53 C12.9 -0.34, 25.05 0.13, 50.37 0.7 M52.38 -1.28 C49.38 19.23, 52.68 36.26, 51.95 51.28 M50.66 0.96 C50.37 12.22, 49.94 23.93, 50.78 51.6 M49.84 50.05 C34.04 50.45, 17.42 52.74, -0.78 52.06 M52.03 51.55 C35.16 51.85, 19.24 50.79, -0.38 52.06 M-1.02 50.53 C1.58 36.14, -1.87 22.62, 0.53 -1.03 M-0.3 51.18 C1.02 40.73, -0.05 29.68, -0.37 -0.68" stroke="#000000" stroke-width="1" fill="none"/></g><g stroke-linecap="round" transform="translate(11.244459786149946 11.056454736485307) rotate(0 421.1255468641009 314.56503186907076)"><path d="M0.09 0.01 C262.69 -0.02, 526.53 0.19, 841.52 -0.47 M0.21 0.21 C270.92 2.65, 542.29 2.13, 842.53 0.25 M841.74 -0.73 C840.06 169.93, 839.45 338.92, 842.22 628.55 M842.63 -0.2 C842.58 128.34, 842.58 257.2, 842.35 629.25 M841.73 628.96 C623.97 626.51, 406.78 626.26, 0.28 629.26 M842.33 629.15 C671.55 631.51, 500.12 631.22, 0.28 629.09 M-0.33 629.92 C0.45 390.54, 1 153.33, -0.41 -0.76 M-0.07 629.48 C0.02 459.2, -0.18 289.28, -0.27 0.17" stroke="#666" stroke-width="2" fill="none"/></g></svg>